<svg xmlns="http://www.w3.org/2000/svg" xmlns:xlink="http://www.w3.org/1999/xlink" width="18" height="22"><defs><path id="lstga" d="M1483 915.797l1.252 1.125-6.06 6.75-3.977-3.788 1.16-1.219 2.722 2.593zm5-1.336v5.077c0 1.677-.469 3.311-1.394 4.859-.724 1.21-1.727 2.367-2.98 3.438-2.109 1.801-4.196 2.74-4.284 2.78l-.342.151-.342-.152c-.088-.04-2.175-.978-4.284-2.779-1.254-1.071-2.256-2.228-2.98-3.438-.925-1.548-1.394-3.182-1.394-4.86v-5.076c0-1.224.877-2.27 2.084-2.486 2.04-.365 3.917-1.48 4.855-2.11a3.677 3.677 0 0 1 4.122 0c.938.63 2.816 1.745 4.855 2.11a2.525 2.525 0 0 1 2.084 2.486zm-1.682 0a.844.844 0 0 0-.699-.829c-2.342-.42-4.45-1.666-5.497-2.372a2.004 2.004 0 0 0-2.244 0c-1.047.706-3.154 1.952-5.497 2.372a.844.844 0 0 0-.699.829v5.077c0 5.312 5.83 8.616 7.318 9.372a18.659 18.659 0 0 0 3.565-2.382c2.49-2.139 3.753-4.49 3.753-6.99z"/></defs><use xlink:href="#lstga" transform="translate(-1470 -909)"/></svg>