<svg xmlns="http://www.w3.org/2000/svg" xmlns:xlink="http://www.w3.org/1999/xlink" width="23" height="24"><defs><path id="znaia" d="M447.77 923.6l-1.308 1.309 1.264 1.262a.76.76 0 0 1 0 1.076l-2.75 2.748a.762.762 0 0 1-1.077 0l-1.264-1.262-1.33 1.33a.762.762 0 0 1-1.078 0l-1.303-1.302-1.306 1.306a.761.761 0 0 1-1.077 0l-1.308-1.308-1.235 1.234a.762.762 0 0 1-1.077 0l-2.77-2.769a.76.76 0 0 1 0-1.076l1.032-1.032-.771-.77-1.235 1.233a.762.762 0 0 1-1.077 0l-2.77-2.769a.76.76 0 0 1 0-1.076l1.234-1.233-1.308-1.308a.76.76 0 0 1 0-1.076l1.306-1.306-1.34-1.339a.76.76 0 0 1 0-1.076l1.331-1.33-1.203-1.203a.761.761 0 0 1 0-1.076l2.75-2.749a.763.763 0 0 1 1.077 0l1.203 1.203 1.309-1.307a.762.762 0 0 1 1.077 0l1.34 1.339 1.308-1.308a.763.763 0 0 1 1.077 0l1.308 1.308 1.235-1.235a.763.763 0 0 1 1.077 0l2.77 2.77a.761.761 0 0 1 0 1.076l-1.032 1.031.772.77 1.234-1.233a.762.762 0 0 1 1.077 0l2.77 2.769a.76.76 0 0 1 0 1.076l-1.234 1.234 1.308 1.307a.762.762 0 0 1 0 1.077l-1.308 1.308 1.303 1.301a.76.76 0 0 1 0 1.077zm-4.405-8.505v1.659h1.726l.996-.995-1.693-1.692zm-8.91 9.042v-2.169h-1.661l-1.101 1.1 1.07 1.069zm3.693-9.076l-1.1-1.1-1.07 1.071v1.722h2.17zm0 3.215h-2.17v2.17h2.17zm-3.694-1.522v-1.693l-.994-.994-1.673 1.671 1.016 1.016zm-2.795 2.594l1.099 1.098h1.696v-2.17h-1.723zm4.319 4.789h2.17v-2.169h-2.17zm3.693-2.169v2.169h2.171v-2.169zm0-1.522h2.171v-2.17h-2.17zm2.171-3.692v-1.693l-1.068-1.068-1.103 1.102v1.659zm-10.459 4.47l-1.34-1.338a.763.763 0 0 1 0-1.077l1.332-1.33-1.204-1.202a.762.762 0 0 1 0-1.077l2.75-2.748a.762.762 0 0 1 1.077 0l1.203 1.203 1.309-1.308a.763.763 0 0 1 1.077 0l1.34 1.339 2.339-2.34-1.694-1.693-1.234 1.234a.763.763 0 0 1-1.077 0l-1.308-1.307-1.309 1.307a.763.763 0 0 1-1.077 0l-1.34-1.339-1.308 1.308a.761.761 0 0 1-1.077 0l-1.203-1.203-1.673 1.672 1.203 1.203a.76.76 0 0 1 0 1.076l-1.331 1.33 1.34 1.34a.76.76 0 0 1 0 1.075l-1.306 1.306 1.308 1.307a.76.76 0 0 1 0 1.077l-1.235 1.234 1.694 1.692zm3.071 6.16v-1.724h-1.66l-1.028 1.026 1.694 1.692zm3.694 0v-1.725h-2.17v1.692l1.102 1.101zm3.694-.011v-1.713h-2.17v1.695l1.094 1.093zm4.268-.664l-1.05-1.05h-1.695v1.65l1.072 1.071zm.045-3.647l-1.095-1.094h-1.695v2.169h1.715zm.006-3.685l-1.101-1.1h-1.695v2.169h1.726z"/></defs><use xlink:href="#znaia" transform="translate(-425 -907)"/></svg>