<svg xmlns="http://www.w3.org/2000/svg" xmlns:xlink="http://www.w3.org/1999/xlink" width="8" height="16"><defs><path id="u8g0a" d="M1686.698 401.003l-1.918-.005c-2.156 0-3.55 1.548-3.55 3.94v1.815h-1.928c-.167 0-.302.145-.302.327v2.63c0 .179.135.325.302.325h1.929v6.638c0 .18.135.327.302.327h2.517c.166 0 .301-.146.301-.327v-6.638h2.256c.167 0 .302-.146.302-.325v-2.63a.339.339 0 0 0-.088-.231.29.29 0 0 0-.213-.096h-2.257v-1.54c0-.74.164-1.115 1.054-1.115h1.293c.167 0 .302-.146.302-.326v-2.442c0-.182-.135-.327-.302-.327z"/></defs><use fill="#fff" xlink:href="#u8g0a" transform="translate(-1679 -401)"/></svg>