<svg width="14" height="14" viewBox="0 0 14 14" fill="none" xmlns="http://www.w3.org/2000/svg">
<path d="M4.33093 10.478L1.41164 7.36071C1.3353 7.2782 1.24438 7.2127 1.14416 7.16798C1.04394 7.12327 0.936397 7.10025 0.827778 7.10025C0.71916 7.10025 0.611621 7.12327 0.511397 7.16798C0.411173 7.2127 0.320257 7.2782 0.243919 7.36071C0.16665 7.44223 0.105302 7.53931 0.0634309 7.64634C0.0215603 7.75336 0 7.86819 0 7.98418C0 8.10016 0.0215603 8.215 0.0634309 8.32202C0.105302 8.42904 0.16665 8.52612 0.243919 8.60764L3.73873 12.3395C4.06402 12.6869 4.5895 12.6869 4.91479 12.3395L13.7561 2.90741C13.8333 2.8259 13.8947 2.72881 13.9366 2.62179C13.9784 2.51477 14 2.39994 14 2.28395C14 2.16796 13.9784 2.05313 13.9366 1.94611C13.8947 1.83909 13.8333 1.742 13.7561 1.66049C13.6797 1.57798 13.5888 1.51247 13.4886 1.46776C13.3884 1.42305 13.2808 1.40002 13.1722 1.40002C13.0636 1.40002 12.9561 1.42305 12.8558 1.46776C12.7556 1.51247 12.6647 1.57798 12.5884 1.66049L4.33093 10.478Z" fill="#ECF1F0"/>
</svg>
