<svg width="26" height="26" viewBox="0 0 26 26" fill="none" xmlns="http://www.w3.org/2000/svg">
<g clip-path="url(#clip0_1571_2930)">
<path d="M14.3043 4.30435C14.3043 3.95841 14.1669 3.62665 13.9223 3.38203C13.6777 3.13742 13.3459 3 13 3C12.6541 3 12.3223 3.13742 12.0777 3.38203C11.8331 3.62665 11.6957 3.95841 11.6957 4.30435V11.6957H4.30435C3.95841 11.6957 3.62665 11.8331 3.38203 12.0777C3.13742 12.3223 3 12.6541 3 13C3 13.3459 3.13742 13.6777 3.38203 13.9223C3.62665 14.1669 3.95841 14.3043 4.30435 14.3043H11.6957V21.6957C11.6957 22.0416 11.8331 22.3734 12.0777 22.618C12.3223 22.8626 12.6541 23 13 23C13.3459 23 13.6777 22.8626 13.9223 22.618C14.1669 22.3734 14.3043 22.0416 14.3043 21.6957V14.3043H21.6957C22.0416 14.3043 22.3734 14.1669 22.618 13.9223C22.8626 13.6777 23 13.3459 23 13C23 12.6541 22.8626 12.3223 22.618 12.0777C22.3734 11.8331 22.0416 11.6957 21.6957 11.6957H14.3043V4.30435Z" fill="#ECF1F0"/>
</g>
<defs>
<clipPath id="clip0_1571_2930">
<rect width="26" height="26" fill="white"/>
</clipPath>
</defs>
</svg>
