<svg width="26" height="26" viewBox="0 0 26 26" fill="none" xmlns="http://www.w3.org/2000/svg">
<g clip-path="url(#clip0_1571_2925)">
<g clip-path="url(#clip1_1571_2925)">
<path d="M10.4 11.7001L6.6313 11.7001L6.63261 11.6884C6.80235 10.8572 7.13457 10.0677 7.61021 9.36526C8.318 8.32242 9.3108 7.50517 10.4702 7.01096C10.8628 6.84456 11.2723 6.71716 11.6896 6.63266C12.5553 6.45715 13.4473 6.45715 14.313 6.63266C15.5571 6.88758 16.6986 7.50289 17.5955 8.40196L19.4363 6.56636C18.6067 5.73649 17.6251 5.07401 16.5451 4.61505C15.9943 4.38187 15.4217 4.20419 14.8356 4.08465C13.6264 3.83897 12.3801 3.83897 11.1709 4.08465C10.5844 4.20469 10.0113 4.3828 9.46011 4.61635C7.83579 5.30549 6.44531 6.44947 5.4561 7.91056C4.79036 8.89577 4.3248 10.0022 4.0859 11.1671C4.0495 11.3426 4.03 11.522 4.004 11.7001L3.40934e-07 11.7001L5.2 16.9001L10.4 11.7001ZM15.6 14.3001L19.3687 14.3001L19.3674 14.3105C19.0278 15.9768 18.0456 17.4423 16.6335 18.3899C15.9313 18.8659 15.1417 19.1981 14.3104 19.3675C13.4452 19.543 12.5535 19.543 11.6883 19.3675C10.8571 19.1977 10.0677 18.8655 9.36521 18.3899C9.02021 18.1565 8.69811 17.891 8.40321 17.5969L6.56501 19.4351C7.39507 20.2647 8.37711 20.9268 9.45751 21.3851C10.0087 21.6191 10.5846 21.7972 11.167 21.9155C12.3758 22.1613 13.6216 22.1613 14.8304 21.9155C17.1607 21.4318 19.2105 20.0583 20.5439 18.087C21.209 17.1025 21.6741 15.9969 21.9128 14.8331C21.9479 14.6576 21.9687 14.4782 21.9947 14.3001L26 14.3001L20.8 9.10006L15.6 14.3001Z" fill="#ECF1F0"/>
</g>
</g>
<defs>
<clipPath id="clip0_1571_2925">
<rect width="26" height="26" fill="white"/>
</clipPath>
<clipPath id="clip1_1571_2925">
<rect width="26" height="26" fill="white" transform="translate(0 26) rotate(-90)"/>
</clipPath>
</defs>
</svg>
