<svg width="30" height="30" viewBox="0 0 30 30" fill="none" xmlns="http://www.w3.org/2000/svg">
<g clip-path="url(#clip0_1577_3450)">
<g clip-path="url(#clip1_1577_3450)">
<path d="M16.1739 14.9993L19.7537 11.4272C19.9105 11.2704 19.9986 11.0578 19.9986 10.8361C19.9986 10.6143 19.9105 10.4017 19.7537 10.2449C19.597 10.0881 19.3843 10 19.1626 10C18.9409 10 18.7283 10.0881 18.5715 10.2449L15 13.8253L11.4285 10.2449C11.2717 10.0881 11.0591 10 10.8374 10C10.6157 10 10.403 10.0881 10.2463 10.2449C10.0895 10.4017 10.0014 10.6143 10.0014 10.8361C10.0014 11.0578 10.0895 11.2704 10.2463 11.4272L13.8261 14.9993L10.2463 18.5713C10.1682 18.6488 10.1063 18.7408 10.064 18.8423C10.0218 18.9438 10 19.0526 10 19.1625C10 19.2724 10.0218 19.3813 10.064 19.4827C10.1063 19.5842 10.1682 19.6763 10.2463 19.7537C10.3237 19.8317 10.4157 19.8937 10.5172 19.936C10.6186 19.9782 10.7275 20 10.8374 20C10.9473 20 11.0561 19.9782 11.1575 19.936C11.259 19.8937 11.3511 19.8317 11.4285 19.7537L15 16.1733L18.5715 19.7537C18.6489 19.8317 18.741 19.8937 18.8425 19.936C18.9439 19.9782 19.0527 20 19.1626 20C19.2725 20 19.3814 19.9782 19.4828 19.936C19.5843 19.8937 19.6763 19.8317 19.7537 19.7537C19.8318 19.6763 19.8937 19.5842 19.936 19.4827C19.9782 19.3813 20 19.2724 20 19.1625C20 19.0526 19.9782 18.9438 19.936 18.8423C19.8937 18.7408 19.8318 18.6488 19.7537 18.5713L16.1739 14.9993Z" fill="#ECF1F0"/>
</g>
<g clip-path="url(#clip2_1577_3450)">
<path d="M15 2C22.1798 2 28 7.8203 28 15C28 22.1798 22.1798 28 15 28C7.8203 28 2 22.1798 2 15C2 7.8203 7.8203 2 15 2Z" stroke="#ECF1F0" stroke-opacity="0.5" stroke-width="2.5" stroke-linecap="round"/>
<path d="M1.99805 14.9995C1.99805 7.81976 7.81835 1.99951 14.998 1.99951" stroke="#ECF1F0" stroke-width="2.5" stroke-linecap="round"/>
<path d="M15.6914 27.9806C8.52239 28.3731 2.39269 22.8796 2.00023 15.7106" stroke="#ECF1F0" stroke-width="2.5" stroke-linecap="round"/>
<path d="M15 2C22.1798 2 28 7.8203 28 15" stroke="#ECF1F0" stroke-width="2.5" stroke-linecap="round"/>
<path d="M28 15C28 22.1798 22.1797 28 15 28" stroke="#ECF1F0" stroke-width="2.5" stroke-linecap="round"/>
</g>
</g>
<defs>
<clipPath id="clip0_1577_3450">
<rect width="30" height="30" fill="white"/>
</clipPath>
<clipPath id="clip1_1577_3450">
<rect width="10" height="10" fill="white" transform="translate(10 10)"/>
</clipPath>
<clipPath id="clip2_1577_3450">
<rect width="30" height="30" fill="white"/>
</clipPath>
</defs>
</svg>
