<svg width="20" height="20" viewBox="0 0 20 20" fill="none" xmlns="http://www.w3.org/2000/svg">
<g clip-path="url(#clip0_1602_3585)">
<g clip-path="url(#clip1_1602_3585)">
<path d="M1.02184 10.5187L1.02186 10.5187L1.01828 10.5143C0.896195 10.3632 0.833333 10.1822 0.833333 10.0001C0.833333 9.81798 0.896195 9.63697 1.01828 9.4859L1.01829 9.48591L1.02184 9.48146C1.77479 8.53663 3.0441 7.10595 4.63478 5.918C6.23361 4.72397 8.0785 3.83358 10.0002 3.83358C11.9218 3.83358 13.7667 4.72397 15.3655 5.918C16.9559 7.10569 18.225 8.536 18.978 9.48083C19.2298 9.79741 19.2292 10.2039 18.9784 10.5188C18.2254 11.4636 16.9562 12.8943 15.3655 14.0822C13.7667 15.2762 11.9218 16.1666 10.0002 16.1666C8.0785 16.1666 6.23361 15.2762 4.63478 14.0822C3.0441 12.8942 1.77479 11.4635 1.02184 10.5187Z" stroke="#DFDFDF" stroke-width="1.66667" stroke-linecap="round" stroke-linejoin="round"/>
<path d="M12.2873 9.99993C12.2873 11.1658 11.2945 12.1665 9.99979 12.1665C8.70506 12.1665 7.71224 11.1658 7.71224 9.99993C7.71224 8.83409 8.70506 7.83333 9.99979 7.83333C11.2945 7.83333 12.2873 8.83409 12.2873 9.99993Z" stroke="#DFDFDF" stroke-width="1.66667" stroke-linecap="round" stroke-linejoin="round"/>
</g>
</g>
<defs>
<clipPath id="clip0_1602_3585">
<rect width="20" height="20" fill="white"/>
</clipPath>
<clipPath id="clip1_1602_3585">
<rect width="20" height="20" fill="white"/>
</clipPath>
</defs>
</svg>
