<svg width="20" height="20" viewBox="0 0 20 20" fill="none" xmlns="http://www.w3.org/2000/svg">
<path d="M10.3115 12.8583L14.8812 7.76669C14.9574 7.68173 15 7.56886 15 7.45149C15 7.33412 14.9574 7.22125 14.8812 7.13629L14.876 7.13081C14.839 7.08948 14.7945 7.05657 14.7452 7.03408C14.6958 7.0116 14.6427 7 14.589 7C14.5353 7 14.4822 7.0116 14.4328 7.03408C14.3835 7.05657 14.339 7.08948 14.302 7.13081L9.99914 11.9255L5.69801 7.13081C5.66102 7.08948 5.61651 7.05657 5.56717 7.03409C5.51783 7.0116 5.4647 7 5.411 7C5.35731 7 5.30418 7.0116 5.25484 7.03409C5.2055 7.05657 5.16099 7.08948 5.124 7.13081L5.11884 7.13629C5.04256 7.22125 5 7.33412 5 7.45149C5 7.56886 5.04256 7.68173 5.11884 7.76669L9.68847 12.8583C9.72866 12.9031 9.77699 12.9387 9.83054 12.9631C9.88409 12.9874 9.94174 13 10 13C10.0583 13 10.1159 12.9874 10.1695 12.9631C10.223 12.9387 10.2713 12.9031 10.3115 12.8583Z" fill="#ECF1F0"/>
</svg>
