<svg xmlns="http://www.w3.org/2000/svg" viewBox="86.9 58.06 985.24 311.17"><path d="M231.96 309.19l-99.39-126.1v126.1H86.9V105.24h39.36l99.1 126.1v-126.1h45.96v203.95h-39.36zm66.35-72.1c0-43.09 32.46-74.68 76.12-74.68 41.65 0 78.13 28.44 76.7 85.03H340.54c1.43 14.65 12.64 27.58 36.19 27.58 12.64 0 24.13-5.75 27.58-13.5h45.39c-9.19 29.87-39.06 50.84-75.26 50.84-44.53-.01-76.13-31.61-76.13-75.27zm43.38-17.23h61.47c-4.6-17.24-18.67-22.98-29.87-22.98-17.24 0-27.87 10.05-31.6 22.98zm148.5 36.76v-53.43h-28.73v-37.63h28.73v-39.93h43.37v39.93h40.22v37.63h-40.22v44.52c0 17.23 7.18 24.42 24.42 24.42 6.61 0 11.2-.57 15.8-2.59v38.49c-6.61 2.01-14.36 2.87-25.85 2.87-31.88.01-57.74-17.51-57.74-54.28zm100.25-19.24c0-41.65 31.88-74.97 75.55-74.97 40.79 0 66.35 25.57 74.11 59.17h-44.81c-5.46-11.49-14.08-20.11-29.3-20.11-18.38 0-31.88 13.21-31.88 35.91s13.5 35.91 31.88 35.91c15.22 0 23.84-8.62 29.3-20.11h44.81c-7.75 33.61-33.32 59.18-74.11 59.18-43.66-.01-75.55-33.33-75.55-74.98zM765.08 93.75h43.38v215.44h-43.38V93.75zm78.99 71.81h43.38v143.63h-43.38zm78.99 203.67V165.56h43.38v14.36c5.46-8.04 20.11-17.52 39.06-17.52 37.63 0 66.64 34.47 66.64 74.97s-29.01 74.97-66.64 74.97c-18.96 0-33.61-9.48-39.06-17.52v74.4h-43.38zm105.42-131.85c0-20.68-13.21-35.62-32.75-35.62-19.53 0-32.75 14.94-32.75 35.62S976.2 273 995.73 273c19.54 0 32.75-14.94 32.75-35.62z"/><path class="st0" d="M911.95 102.4l-33.94 22.16-33.94 22.17V58.06l33.94 22.17z"/></svg>