<svg xmlns="http://www.w3.org/2000/svg" viewBox="0.01 0 326.77 77.33"><g id="Слой_2" data-name="Слой 2"><path d="M45.49 1.32H30.82a.87.87 0 00-.8.54L.07 74.81A.87.87 0 00.87 76H16a.73.73 0 00.72-.45l21.44-52.26c.9 2.21 14.19 34.49 13.35 32.45l8.05 19.73a.86.86 0 00.8.54h15.09a.87.87 0 00.8-1.2l-30-72.95a.86.86 0 00-.76-.54zM105.38 76h14.67a.86.86 0 00.8-.54l30-73a.87.87 0 00-.8-1.19h-15.18a.74.74 0 00-.72.45L112.72 54 99.36 21.59l-8-19.73a.86.86 0 00-.8-.54H75.43a.86.86 0 00-.8 1.19l30 73a.87.87 0 00.75.49zM287 0c-21.94 0-39.73 17.31-39.73 38.66S265.1 77.33 287 77.33 326.78 60 326.78 38.66 309 0 287 0zm0 62.46a23.8 23.8 0 1123.8-23.8 23.79 23.79 0 01-23.8 23.8zM193.8 1.32h-26.88a.85.85 0 00-.87.84v73a.85.85 0 00.87.84h26.88c22.37 0 38.33-16.87 38.33-37.34S216.17 1.32 193.8 1.32zm-.57 60.28h-11.15V15.72h11.15a22.94 22.94 0 010 45.88zm22.94-22.92z" fill="#0095ff" id="Слой_1-2" data-name="Слой 1"/></g></svg>