<svg width="22" height="22" xmlns="http://www.w3.org/2000/svg"><g id="Page-1" stroke="none" stroke-width="1" fill="none" fill-rule="evenodd"><g id="editorial_article_final_04" transform="translate(-717 -682)" fill="#E25A76"><g id="bg" transform="translate(273 211.5)"><g id="Group-2" transform="translate(281 30)"><g id="refresh" transform="translate(2 437.086)"><path d="M181.86 4.453c-.373-.154-.692-.09-.957.192l-1.777 1.764a10.616 10.616 0 0 0-3.343-2.14 10.305 10.305 0 0 0-3.89-.759c-1.422 0-2.78.278-4.074.834-1.294.556-2.41 1.303-3.35 2.242a10.6 10.6 0 0 0-2.242 3.35 10.21 10.21 0 0 0-.834 4.075c0 1.421.278 2.779.834 4.074.557 1.294 1.304 2.41 2.242 3.35.94.937 2.056 1.686 3.35 2.241 1.294.556 2.652.834 4.074.834 1.568 0 3.058-.33 4.47-.991a10.25 10.25 0 0 0 3.61-2.796.446.446 0 0 0 .103-.307.377.377 0 0 0-.13-.28l-1.873-1.888a.526.526 0 0 0-.341-.122c-.146.018-.251.073-.315.164a6.859 6.859 0 0 1-2.448 2.01 6.897 6.897 0 0 1-3.076.71 6.81 6.81 0 0 1-2.713-.553 7.034 7.034 0 0 1-2.236-1.497 7.064 7.064 0 0 1-1.497-2.236 6.808 6.808 0 0 1-.553-2.713c0-.948.185-1.853.553-2.714a7.038 7.038 0 0 1 1.497-2.235 7.043 7.043 0 0 1 2.236-1.497 6.81 6.81 0 0 1 2.713-.554c1.833 0 3.423.624 4.773 1.873l-1.888 1.886c-.282.274-.346.588-.191.943.155.365.423.547.807.547h6.125a.844.844 0 0 0 .615-.26.841.841 0 0 0 .259-.615V5.26c0-.382-.177-.65-.533-.807z" id="refresh-arrow"/></g></g></g></g></g></svg>