<svg xmlns="http://www.w3.org/2000/svg" xmlns:xlink="http://www.w3.org/1999/xlink" width="17" height="20" viewBox="0 0 17 20"><defs><path id="n4vca" d="M1613.969 55.11a.884.884 0 0 1 .031.214c0 .379-.279.676-.635.676h-15.753a.62.62 0 0 1-.48-.23.679.679 0 0 1-.14-.545l1.576-14.211c.047-.33.31-.561.62-.561h3.565v-1.55c0-1.6 1.224-2.903 2.727-2.903 1.504 0 2.728 1.303 2.728 2.902v1.55h3.565c.31 0 .573.232.62.562zm-9.945-14.657h2.913v-1.55c0-.858-.65-1.55-1.457-1.55-.805 0-1.456.692-1.456 1.55zm8.581 14.211l-1.375-12.859h-3.022v3.777c0 .379-.279.676-.635.676-.357 0-.636-.297-.636-.676v-3.777h-2.913v3.777c0 .379-.28.676-.636.676s-.635-.297-.635-.676v-3.777h-3.023l-1.374 12.86z"/></defs><g><g transform="translate(-1597 -36)"><use xlink:href="#n4vca"/></g></g></svg>