<svg xmlns="http://www.w3.org/2000/svg" xmlns:xlink="http://www.w3.org/1999/xlink" width="16" height="16" viewBox="0 0 16 16"><defs><path id="eccma" d="M1691 359.414v7.17a4.42 4.42 0 0 1-4.416 4.415h-7.169a4.42 4.42 0 0 1-4.415-4.415v-7.17a4.42 4.42 0 0 1 4.415-4.415h7.17a4.42 4.42 0 0 1 4.415 4.415zm-1.42 7.17v-7.17a2.998 2.998 0 0 0-2.996-2.994h-7.169a2.998 2.998 0 0 0-2.996 2.994v7.17a3 3 0 0 0 2.996 2.996h7.17a3 3 0 0 0 2.995-2.996zm-2.457-3.585a4.128 4.128 0 0 1-4.123 4.123 4.128 4.128 0 0 1-4.123-4.123 4.127 4.127 0 0 1 4.123-4.122 4.127 4.127 0 0 1 4.123 4.122zm-1.42 0a2.707 2.707 0 0 0-2.703-2.703 2.707 2.707 0 0 0-2.703 2.703 2.705 2.705 0 0 0 2.703 2.703 2.705 2.705 0 0 0 2.703-2.703zm2.329-5.022c.194.193.305.464.305.737 0 .273-.111.543-.305.736a1.05 1.05 0 0 1-.737.306c-.273 0-.542-.112-.735-.306a1.05 1.05 0 0 1-.306-.736c0-.273.112-.544.306-.737.193-.192.462-.304.735-.304.275 0 .544.112.737.304z"/></defs><g><g transform="translate(-1675 -355)"><use fill="#fff" xlink:href="#eccma"/></g></g></svg>