<svg xmlns="http://www.w3.org/2000/svg" xmlns:xlink="http://www.w3.org/1999/xlink" width="30" height="30" viewBox="0 0 30 30"><defs><path id="7g47a" d="M1494.305 5331.777a2.64 2.64 0 0 1-2.637 2.637 2.64 2.64 0 0 1-2.637-2.637 2.64 2.64 0 0 1 2.637-2.636 2.64 2.64 0 0 1 2.637 2.636zm-1.758 0a.88.88 0 1 0-1.76.002.88.88 0 0 0 1.76-.002zm-1.758 5.273a2.64 2.64 0 0 1-2.637 2.636 2.64 2.64 0 0 1-2.637-2.636 2.64 2.64 0 0 1 2.637-2.636 2.64 2.64 0 0 1 2.637 2.636zm-1.758 0a.88.88 0 0 0-1.758 0 .88.88 0 0 0 1.758 0zm3.516 7.03a2.64 2.64 0 0 1-2.637 2.637 2.64 2.64 0 0 1-2.637-2.637 2.64 2.64 0 0 1 2.637-2.636 2.64 2.64 0 0 1 2.637 2.636zm-1.758 0a.88.88 0 1 0-1.76.003.88.88 0 0 0 1.76-.003zm15.355-12.638c1.925 2.863 2.545 6.24 2.079 9.327a3.744 3.744 0 0 1-2.557 3.004 3.869 3.869 0 0 1-3.965-.935 1.756 1.756 0 0 0-2.486 0 1.755 1.755 0 0 0 0 2.485 3.874 3.874 0 0 1 .934 3.972 3.746 3.746 0 0 1-3.003 2.559c-.649.097-1.304.146-1.962.146a13.7 13.7 0 0 1-2.904-.314c-5.054-1.095-9.09-5.25-10.044-10.339a13.186 13.186 0 0 1 8.92-15.084c3.694-1.182 7.878-.704 11.255 1.496 1.841-1.953 3.837-3.589 5.376-4.579.747-.48 1.398-.819 1.934-1.005.837-.29 1.477-.222 1.903.203.901.901.005 2.501-.877 3.794-1.204 1.766-3.058 3.81-4.603 5.27zm1.005-5.644l.958.959c.63-.771 1.499-1.92 1.927-2.817-.935.408-2.085 1.232-2.885 1.858zm-2.327 6.833c-1.162.994-2.606 2.09-3.838 2.599a3.518 3.518 0 0 1-.848 3.598 5.764 5.764 0 0 1-4.103 1.699 5.764 5.764 0 0 1-4.102-1.699l-.249-.248a.879.879 0 0 1 .482-1.49c1.018-.164 1.848-.85 2.115-1.749a3.519 3.519 0 0 1 4.337-2.377c.492-1.237 1.597-2.7 2.604-3.88a11.22 11.22 0 0 0-3.819-1.48c-8.055-1.508-14.943 5.374-13.436 13.42.824 4.403 4.315 7.997 8.687 8.944 1.42.307 2.844.357 4.232.147.754-.113 1.35-.625 1.596-1.37.2-.608.172-1.5-.508-2.18a3.511 3.511 0 0 1 0-4.97 3.52 3.52 0 0 1 4.972 0c.679.678 1.567.707 2.173.508.742-.244 1.254-.84 1.368-1.596.386-2.564-.088-5.417-1.663-7.876zm-5.93 2.469a1.76 1.76 0 0 0-2.928.74c-.3 1.013-.999 1.866-1.92 2.409.6.34 1.281.52 1.99.52 1.08 0 2.095-.42 2.859-1.184a1.76 1.76 0 0 0 0-2.485zm8.065-7.008l-1.164-1.164c-1.606 1.42-3.434 3.356-4.634 5.098-.53.769-.791 1.285-.92 1.611.325-.13.842-.391 1.61-.92 1.784-1.227 3.64-3 5.108-4.624z"/></defs><g><g transform="translate(-1482 -5322)"><use xlink:href="#7g47a"/></g></g></svg>