<svg xmlns="http://www.w3.org/2000/svg" xmlns:xlink="http://www.w3.org/1999/xlink" width="16" height="17" viewBox="0 0 16 17"><defs><path id="w0jwa" d="M1558.726 54.589a.866.866 0 0 1-1.233-.025l-3.973-4.157a6.588 6.588 0 0 1-3.833 1.218c-3.688 0-6.689-3.019-6.689-6.73 0-3.71 3.001-6.728 6.69-6.728 3.688 0 6.688 3.018 6.688 6.729a6.732 6.732 0 0 1-1.569 4.326l3.943 4.126a.882.882 0 0 1-.024 1.24zm-13.983-9.693c0 2.742 2.218 4.973 4.945 4.973 2.726 0 4.944-2.23 4.944-4.973s-2.218-4.974-4.945-4.974c-2.726 0-4.944 2.231-4.944 4.974z"/></defs><g><g transform="translate(-1543 -38)"><use xlink:href="#w0jwa"/></g></g></svg>