<svg xmlns="http://www.w3.org/2000/svg" xmlns:xlink="http://www.w3.org/1999/xlink" width="18" height="10" viewBox="0 0 18 10"><defs><path id="8c7za" d="M1691.903 324.03a1.263 1.263 0 0 0-.06-.112c-.313-.547-.91-1.22-1.79-2.018l-.02-.019-.008-.008-.01-.008h-.01c-.399-.372-.652-.621-.758-.75-.194-.242-.238-.49-.132-.74.075-.188.357-.587.844-1.196.256-.32.459-.58.609-.776 1.08-1.4 1.55-2.293 1.405-2.683l-.055-.09c-.038-.057-.135-.104-.29-.152-.157-.045-.357-.053-.6-.022l-2.7.017a.362.362 0 0 0-.187.005l-.122.028-.047.025-.037.024a.422.422 0 0 0-.103.097.629.629 0 0 0-.093.16c-.294.738-.628 1.42-1.003 2.052-.231.379-.444.706-.638.984-.193.276-.356.48-.487.61-.131.132-.25.237-.356.315-.106.08-.187.113-.243.101-.057-.012-.11-.026-.16-.035a.643.643 0 0 1-.21-.225.982.982 0 0 1-.108-.357 3.81 3.81 0 0 1-.033-.369 7.55 7.55 0 0 1 .005-.436c.006-.19.009-.318.009-.386 0-.232.004-.483.014-.754l.023-.643c.007-.156.01-.323.01-.503 0-.174-.011-.313-.033-.414-.022-.1-.055-.199-.098-.292a.489.489 0 0 0-.192-.219 1.11 1.11 0 0 0-.314-.124 6.484 6.484 0 0 0-1.265-.118c-1.162-.012-1.909.06-2.24.219-.131.066-.25.158-.356.275-.113.133-.128.205-.047.22.375.052.64.183.797.392l.056.107c.043.08.087.221.13.422.045.2.073.423.085.666a6.93 6.93 0 0 1 0 1.14c-.031.317-.06.564-.089.74a1.46 1.46 0 0 1-.239.63.169.169 0 0 1-.047.045.706.706 0 0 1-.253.046c-.087 0-.193-.042-.318-.128a2.22 2.22 0 0 1-.39-.35 4.739 4.739 0 0 1-.454-.627 10.988 10.988 0 0 1-.524-.947l-.15-.267c-.094-.17-.222-.419-.384-.745a13.442 13.442 0 0 1-.431-.943.596.596 0 0 0-.225-.292l-.047-.029a.859.859 0 0 0-.15-.077 1.04 1.04 0 0 0-.216-.059l-2.567.018c-.263 0-.44.059-.534.173l-.038.056a.286.286 0 0 0-.028.146c0 .066.019.147.056.245.375.858.783 1.688 1.223 2.484.44.798.823 1.44 1.148 1.926.325.489.656.948.993 1.38.337.429.56.708.67.829.11.121.195.212.258.274l.234.22c.15.146.37.319.66.523.291.204.613.404.966.603.353.197.764.36 1.232.483.469.127.925.175 1.368.153h1.078c.219-.02.384-.084.497-.202l.037-.047a.563.563 0 0 0 .07-.168.903.903 0 0 0 .033-.25 2.923 2.923 0 0 1 .06-.707c.048-.21.1-.369.16-.475.06-.108.127-.197.202-.268a.735.735 0 0 1 .16-.133.524.524 0 0 1 .074-.032c.15-.05.326-.001.53.142.203.142.393.32.571.528.179.21.392.446.642.708.25.26.469.455.656.584l.187.108c.126.074.288.142.488.202.2.06.374.074.524.046l2.4-.036c.237 0 .421-.04.552-.114.131-.076.21-.16.235-.25a.69.69 0 0 0 .004-.311 1.163 1.163 0 0 0-.066-.244z"/></defs><g><g transform="translate(-1674 -315)"><use fill="#fff" xlink:href="#8c7za"/></g></g></svg>