<svg width="48" height="48" xmlns="http://www.w3.org/2000/svg"><g id="icon_1" stroke="none" stroke-width="1" fill="none" fill-rule="evenodd"><g id="Group" transform="translate(5 7)" fill="#000" fill-rule="nonzero"><path d="M15.184 25.988a1.012 1.012 0 0 1 0 2.024H4.71c-2.058 0-3.721-1.727-3.721-3.824V4.812c0-2.097 1.663-3.824 3.72-3.824H15.29c2.058 0 3.722 1.727 3.722 3.824v4.495a1.012 1.012 0 0 1-2.024 0V4.812c0-.996-.775-1.8-1.698-1.8H4.71c-.924 0-1.699.803-1.699 1.8v19.376c0 .997.775 1.8 1.699 1.8h10.474z" id="Stroke-1"/><path d="M15 4.986a1.014 1.014 0 0 1 0 2.028H5a1.014 1.014 0 1 1 0-2.028h10z" id="Stroke-3"/><path d="M13 21.99a1.01 1.01 0 1 1 0 2.02H5a1.01 1.01 0 1 1 0-2.02h8z" id="Stroke-5"/><path d="M13.828 12.25a1.011 1.011 0 1 1-1.656 1.162c-.5-.712-1.747-.444-2.976.785-1.228 1.228-1.496 2.475-.783 2.975a1.011 1.011 0 1 1-1.162 1.656c-2.04-1.433-1.474-4.073.515-6.062 1.99-1.989 4.63-2.556 6.062-.516z" id="Stroke-7"/><path d="M13.126 19.605l6.282 10.967a.814.814 0 0 0 1.11.303l16.056-9.342a.845.845 0 0 0 .3-1.14L30.592 9.429a.814.814 0 0 0-1.11-.303l-16.055 9.342a.843.843 0 0 0-.301 1.138zm-.722-2.895L28.46 7.367a2.847 2.847 0 0 1 3.896 1.05l6.282 10.967a2.877 2.877 0 0 1-1.041 3.906L21.54 32.633a2.847 2.847 0 0 1-3.897-1.05l-6.282-10.968a2.876 2.876 0 0 1 1.042-3.905z" id="Stroke-9"/><path d="M29.48 15.132a1.012 1.012 0 1 1 1.04 1.736l-15 9a1.012 1.012 0 1 1-1.04-1.736l15-9z" id="Stroke-11"/><path d="M31.48 19.132a1.012 1.012 0 1 1 1.04 1.736l-15 9a1.012 1.012 0 1 1-1.04-1.736l15-9z" id="Stroke-13"/></g></g></svg>