<svg xmlns="http://www.w3.org/2000/svg" xmlns:xlink="http://www.w3.org/1999/xlink" width="13" height="13"><defs><path id="1532a" d="M772.38 302.15a.4.4 0 0 1-.41.4h-1.63a.4.4 0 0 1-.4-.4v-1.62c0-.22.18-.4.4-.4.23 0 .41.18.41.4v1.21h1.22c.22 0 .4.18.4.4zm-4.88-3.65v-1.62h1.62v1.62zm-5.62 3.25h4.8v.81h-4.8a.89.89 0 0 1-.88-.9v-7.14c0-.5.4-.9.88-.9h.34v.41a.81.81 0 0 0 1.62 0v-.4h4.88v.4a.81.81 0 0 0 1.62 0v-.4h.34c.49 0 .88.4.88.89v3.17h-.81v-1.63h-8.94v5.6c0 .05.03.09.07.09zm3.18-2.44h1.63v1.63h-1.63zm0-2.44h1.63v1.63h-1.63zm-2.44 2.44h1.63v1.63h-1.63zm1.63-.81h-1.63v-1.62h1.63zm8.94 3.25a2.44 2.44 0 1 0-4.88 0 2.44 2.44 0 0 0 4.88 0zm.81 0a3.25 3.25 0 1 1-6.5 0 3.25 3.25 0 0 1 6.5 0zm-4.87-7.72v-1.62c0-.23.18-.41.4-.41a.4.4 0 0 1 .42.4v1.63a.4.4 0 0 1-.41.4.4.4 0 0 1-.41-.4zm-6.5 0v-1.62c0-.23.18-.41.4-.41a.4.4 0 0 1 .42.4v1.63a.4.4 0 0 1-.41.4.4.4 0 0 1-.41-.4z"/></defs><use fill="#253142" xlink:href="#1532a" transform="translate(-761 -292)"/></svg>