<svg xmlns="http://www.w3.org/2000/svg" xmlns:xlink="http://www.w3.org/1999/xlink" width="45" height="12"><defs><path id="zxdua" d="M758.18 667.75l-3.82 2 .73-4.25-3.09-3 4.27-.63 1.91-3.87 1.91 3.87 4.27.62-3.09 3.01.73 4.26z"/><path id="zxdub" d="M726.18 667.75l-3.82 2 .73-4.25-3.09-3 4.27-.63 1.91-3.87 1.91 3.87 4.27.62-3.09 3.01.73 4.26z"/><path id="zxduc" d="M742.18 667.75l-3.82 2 .73-4.25-3.09-3 4.27-.63 1.91-3.87 1.91 3.87 4.27.62-3.09 3.01.73 4.26z"/><clipPath id="zxdud"><use fill="#fff" xlink:href="#zxdua"/></clipPath></defs><use fill="#00dc83" xlink:href="#zxdub" transform="translate(-720 -658)"/><use fill="#00dc83" xlink:href="#zxduc" transform="translate(-720 -658)"/><g fill="#fff" transform="translate(-720 -658)"><use xlink:href="#zxdua"/><use fill-opacity="0" stroke="#00dc83" stroke-miterlimit="50" stroke-width="2" clip-path="url(&quot;#zxdud&quot;)" xlink:href="#zxdua"/></g></svg>