<svg xmlns="http://www.w3.org/2000/svg" xmlns:xlink="http://www.w3.org/1999/xlink" width="18" height="18" viewBox="0 0 18 18"><defs><path id="rfrla" d="M212.15 419.15l-1.03 1.3.11 1.7a.54.54 0 0 1-.54.58.53.53 0 0 1-.22-.05l-1.47-.62-1.47.62a.54.54 0 0 1-.76-.53l.11-1.7-1.03-1.3a.55.55 0 0 1 .29-.87l1.54-.4.85-1.43c.2-.33.74-.33.94 0l.85 1.43 1.54.4c.18.05.33.18.38.36.06.17.03.37-.09.51zM209 414a6 6 0 1 0 .01 12.01A6 6 0 0 0 209 414z"/><path id="rfrlb" d="M202.55 424l-2.48 4.42c-.1.2-.1.43.04.6.13.19.36.26.57.2l3.15-.86.84 3.23a.54.54 0 0 0 .52.41c.19 0 .37-.1.46-.28l2.35-4.16a6.97 6.97 0 0 1-5.45-3.56z"/><path id="rfrlc" d="M217.93 428.42l-2.48-4.42a6.97 6.97 0 0 1-5.45 3.56l2.35 4.16a.53.53 0 0 0 .53.28c.22-.03.4-.2.45-.4l.84-3.25 3.15.87c.21.06.43-.02.57-.2a.56.56 0 0 0 .04-.6z"/></defs><g><g transform="translate(-200 -414)"><g><use fill="#253142" xlink:href="#rfrla"/></g><g><use fill="#253142" xlink:href="#rfrlb"/></g><g><use fill="#253142" xlink:href="#rfrlc"/></g></g></g></svg>