<svg xmlns="http://www.w3.org/2000/svg" xmlns:xlink="http://www.w3.org/1999/xlink" width="15" height="16"><defs><path id="fg2aa" d="M209.51 345.69c-1.38 0-2.5-1.2-2.5-2.67s1.12-2.67 2.5-2.67 2.5 1.2 2.5 2.67-1.12 2.67-2.5 2.67zm7.44-3.58c-.02-.22-.27-.4-.48-.4-.69 0-1.3-.42-1.55-1.09-.26-.68-.1-1.48.42-1.98a.47.47 0 0 0 .04-.6 7.7 7.7 0 0 0-1.19-1.28.4.4 0 0 0-.57.05c-.44.53-1.25.72-1.87.45a1.79 1.79 0 0 1-1-1.74.44.44 0 0 0-.38-.47 7.02 7.02 0 0 0-1.68 0 .44.44 0 0 0-.38.46c.03.74-.38 1.42-1.02 1.7-.62.27-1.41.08-1.86-.45a.4.4 0 0 0-.57-.05c-.44.38-.85.8-1.2 1.28a.47.47 0 0 0 .04.6c.52.51.69 1.32.42 2-.26.66-.9 1.09-1.64 1.09-.23-.01-.4.16-.43.39-.07.6-.07 1.21 0 1.82.02.22.27.4.49.4.65-.03 1.28.4 1.54 1.09.26.68.1 1.47-.42 1.98a.47.47 0 0 0-.04.6c.35.47.75.9 1.18 1.28a.4.4 0 0 0 .57-.05 1.65 1.65 0 0 1 1.87-.45c.65.3 1.06.99 1.02 1.74-.01.23.15.44.37.47a7 7 0 0 0 1.68 0 .44.44 0 0 0 .38-.46 1.79 1.79 0 0 1 1.02-1.7 1.66 1.66 0 0 1 1.86.45c.15.17.4.2.57.05.44-.38.85-.8 1.2-1.28a.47.47 0 0 0-.04-.6c-.52-.51-.69-1.32-.42-2 .26-.65.87-1.09 1.54-1.09h.1c.2.02.4-.15.43-.39.07-.6.07-1.21 0-1.82z"/></defs><use fill="#253142" xlink:href="#fg2aa" transform="translate(-202 -335)"/></svg>