<svg xmlns="http://www.w3.org/2000/svg" xmlns:xlink="http://www.w3.org/1999/xlink" width="20" height="17" viewBox="0 0 20 17"><defs><path id="6x64a" d="M204.61 424h-4.22a.39.39 0 0 0-.39.39v4.22c0 .22.17.39.39.39h4.22c.22 0 .39-.17.39-.39v-4.22a.39.39 0 0 0-.39-.39z"/><path id="6x64b" d="M211.61 424h-4.22a.39.39 0 0 0-.39.39v4.22c0 .22.17.39.39.39h4.22c.22 0 .39-.17.39-.39v-4.22a.39.39 0 0 0-.39-.39z"/><path id="6x64c" d="M219.61 424h-4.22a.39.39 0 0 0-.39.39v4.22c0 .22.17.39.39.39h4.22c.22 0 .39-.17.39-.39v-4.22a.39.39 0 0 0-.39-.39z"/><path id="6x64d" d="M207.39 417h4.22c.22 0 .39-.17.39-.39v-4.22a.39.39 0 0 0-.39-.39h-4.22a.39.39 0 0 0-.39.39v4.22c0 .22.17.39.39.39z"/><path id="6x64e" d="M202.42 422h.86c.24 0 .42-.16.42-.35v-1.44h5.95v1.45c0 .19.19.34.42.34h.86c.23 0 .42-.15.42-.34v-1.45h5.94v1.44c0 .2.2.35.43.35h.86c.23 0 .42-.16.42-.35v-2.49c0-.19-.19-.34-.42-.34h-7.23v-.48c0-.19-.19-.34-.42-.34h-.86c-.23 0-.42.15-.42.34v.48h-7.23c-.23 0-.42.15-.42.34v2.5c0 .18.19.34.42.34z"/></defs><g><g transform="translate(-200 -412)"><g><use fill="#253142" xlink:href="#6x64a"/></g><g><use fill="#253142" xlink:href="#6x64b"/></g><g><use fill="#253142" xlink:href="#6x64c"/></g><g><use fill="#253142" xlink:href="#6x64d"/></g><g><use fill="#253142" xlink:href="#6x64e"/></g></g></g></svg>