<svg xmlns="http://www.w3.org/2000/svg" xmlns:xlink="http://www.w3.org/1999/xlink" width="19" height="17"><defs><path id="33uga" d="M322 155.5a8.5 8.5 0 1 1 17 0 8.5 8.5 0 0 1-17 0z"/><path id="33ugb" d="M340.78 148.2a.8.8 0 0 0-1.06 0l-8.99 8.16-3.45-3.14a.8.8 0 0 0-1.06 0c-.3.27-.3.7 0 .96l3.98 3.62a.8.8 0 0 0 1.06 0l9.52-8.64c.3-.26.3-.7 0-.96z"/></defs><use fill="#00dc83" xlink:href="#33uga" transform="translate(-322 -147)"/><use fill="#f7f7f7" xlink:href="#33ugb" transform="translate(-322 -147)"/></svg>