<svg xmlns="http://www.w3.org/2000/svg" xmlns:xlink="http://www.w3.org/1999/xlink" width="19" height="16"><defs><path id="dbroa" d="M812.44 1478.23c-1.15-2.69-4.24-4.03-9.28-4.03h-2.37v-2.56a.6.6 0 0 0-.2-.45.67.67 0 0 0-.48-.19.67.67 0 0 0-.48.19l-5.43 5.12a.6.6 0 0 0-.2.45c0 .17.07.32.2.45l5.43 5.12c.13.13.3.2.48.2s.34-.07.47-.2a.6.6 0 0 0 .2-.45v-2.56h2.38c.7 0 1.31.02 1.86.06.55.04 1.1.11 1.63.22a5.03 5.03 0 0 1 2.53 1.12c.35.28.63.62.85 1 .22.4.4.86.52 1.39.12.53.18 1.14.18 1.81a16.01 16.01 0 0 1-.1 1.73c0 .1.03.18.09.25s.14.1.24.1c.12 0 .22-.06.3-.17.05-.06.1-.13.14-.22a17.17 17.17 0 0 0 .25-.54c.9-1.9 1.35-3.4 1.35-4.51 0-1.33-.19-2.44-.56-3.33z"/></defs><use fill="#00dc83" xlink:href="#dbroa" transform="translate(-794 -1471)"/></svg>