<svg xmlns="http://www.w3.org/2000/svg" xmlns:xlink="http://www.w3.org/1999/xlink" width="17" height="17"><defs><path id="xjwya" d="M217.71 378.78l-.04-.04a1 1 0 0 0-1.42 0l-1.53 1.57a.2.2 0 0 1-.3 0l-2.14-2c-.2-.2-.48-.31-.76-.31h-3.2a.3.3 0 0 0-.2.08l-2.7 2.61c-.4.4-.42 1.05-.06 1.45a1 1 0 0 0 .74.33 1 1 0 0 0 .73-.33l1.91-2.05h.69l-4.46 5.06h-2.75c-.65 0-1.19.5-1.22 1.13a1.2 1.2 0 0 0 1.17 1.25h4.1c.09 0 .16-.03.22-.1l2.1-2.27 1.77 1.88-.54 3.46c-.13.58.14 1.16.65 1.4a1.17 1.17 0 0 0 1-.02c.32-.16.54-.45.63-.81l.9-4.97a.3.3 0 0 0-.07-.27l-2.44-2.47 1.94-1.96 1.34 1.37a1 1 0 0 0 1.41 0l2.53-2.57a1 1 0 0 0 .29-.71 1 1 0 0 0-.29-.71z"/><path id="xjwyb" d="M214 379a2 2 0 1 0 0-4 2 2 0 0 0 0 4z"/></defs><use fill="#253142" xlink:href="#xjwya" transform="translate(-201 -375)"/><use fill="#253142" xlink:href="#xjwyb" transform="translate(-201 -375)"/></svg>