<svg xmlns="http://www.w3.org/2000/svg" xmlns:xlink="http://www.w3.org/1999/xlink" width="12" height="13" viewBox="0 0 12 13"><defs><path id="zzpga" d="M1173.02 293.37a3.8 3.8 0 0 1 3.7 3.88 3.8 3.8 0 0 1-3.7 3.88 3.8 3.8 0 0 1-3.71-3.88 3.8 3.8 0 0 1 3.7-3.88zm6.8 10.47l-2.96-3.22a5.38 5.38 0 0 0 1.18-3.37c0-2.9-2.25-5.25-5.02-5.25a5.14 5.14 0 0 0-5.02 5.25c0 2.9 2.25 5.25 5.02 5.25 1.04 0 2.03-.33 2.87-.95l2.98 3.24a.64.64 0 0 0 .93.02.7.7 0 0 0 .02-.97z"/></defs><g><g transform="translate(-1168 -292)"><use fill="#253142" xlink:href="#zzpga"/></g></g></svg>