<svg xmlns="http://www.w3.org/2000/svg" xmlns:xlink="http://www.w3.org/1999/xlink" width="22" height="20" viewBox="0 0 22 20"><defs><path id="pao0a" d="M1146 437a1 1 0 0 1 1-1h7a1 1 0 0 1 1 1v6a1 1 0 0 1-1 1h-7a1 1 0 0 1-1-1z"/><path id="pao0b" d="M1159 437a1 1 0 0 1 1-1h7a1 1 0 0 1 1 1v6a1 1 0 0 1-1 1h-7a1 1 0 0 1-1-1z"/><path id="pao0c" d="M1159 449a1 1 0 0 1 1-1h7a1 1 0 0 1 1 1v6a1 1 0 0 1-1 1h-7a1 1 0 0 1-1-1z"/><path id="pao0d" d="M1146 449a1 1 0 0 1 1-1h7a1 1 0 0 1 1 1v6a1 1 0 0 1-1 1h-7a1 1 0 0 1-1-1z"/><clipPath id="pao0e"><use fill="#fff" xlink:href="#pao0a"/></clipPath><clipPath id="pao0f"><use fill="#fff" xlink:href="#pao0b"/></clipPath><clipPath id="pao0g"><use fill="#fff" xlink:href="#pao0c"/></clipPath><clipPath id="pao0h"><use fill="#fff" xlink:href="#pao0d"/></clipPath></defs><g><g transform="translate(-1146 -436)"><g><use fill="#fff" xlink:href="#pao0a"/><use fill="#fff" fill-opacity="0" stroke="#fff" stroke-miterlimit="50" stroke-width="2" clip-path="url(&quot;#pao0e&quot;)" xlink:href="#pao0a"/></g><g><use fill="#fff" xlink:href="#pao0b"/><use fill="#fff" fill-opacity="0" stroke="#fff" stroke-miterlimit="50" stroke-width="2" clip-path="url(&quot;#pao0f&quot;)" xlink:href="#pao0b"/></g><g><use fill="#fff" xlink:href="#pao0c"/><use fill="#fff" fill-opacity="0" stroke="#fff" stroke-miterlimit="50" stroke-width="2" clip-path="url(&quot;#pao0g&quot;)" xlink:href="#pao0c"/></g><g><use fill="#fff" xlink:href="#pao0d"/><use fill="#fff" fill-opacity="0" stroke="#fff" stroke-miterlimit="50" stroke-width="2" clip-path="url(&quot;#pao0h&quot;)" xlink:href="#pao0d"/></g></g></g></svg>