<svg xmlns="http://www.w3.org/2000/svg" xmlns:xlink="http://www.w3.org/1999/xlink" width="26" height="20" viewBox="0 0 26 20"><defs><path id="opsha" d="M1182 437a1 1 0 0 1 1-1h24a1 1 0 0 1 1 1v2a1 1 0 0 1-1 1h-24a1 1 0 0 1-1-1z"/><path id="opshb" d="M1182 445a1 1 0 0 1 1-1h24a1 1 0 0 1 1 1v2a1 1 0 0 1-1 1h-24a1 1 0 0 1-1-1z"/><path id="opshc" d="M1182 453a1 1 0 0 1 1-1h24a1 1 0 0 1 1 1v2a1 1 0 0 1-1 1h-24a1 1 0 0 1-1-1z"/></defs><g><g transform="translate(-1182 -436)"><g><use fill="#00dc83" xlink:href="#opsha"/></g><g><use fill="#00dc83" xlink:href="#opshb"/></g><g><use fill="#00dc83" xlink:href="#opshc"/></g></g></g></svg>