<svg xmlns="http://www.w3.org/2000/svg" xmlns:xlink="http://www.w3.org/1999/xlink" width="21" height="16"><defs><path id="v94da" d="M1211 1850.9c-.77.32-1.6.53-2.47.63a4.1 4.1 0 0 0 1.89-2.23c-.83.46-1.75.8-2.74.98a4.44 4.44 0 0 0-3.14-1.28c-2.38 0-4.3 1.8-4.3 4.04 0 .32.03.62.1.92a12.52 12.52 0 0 1-8.88-4.22c-.37.6-.58 1.29-.58 2.03 0 1.4.76 2.64 1.92 3.36a4.55 4.55 0 0 1-1.96-.5v.05a4.12 4.12 0 0 0 3.46 3.96 4.59 4.59 0 0 1-1.95.07 4.29 4.29 0 0 0 4.03 2.8 9.02 9.02 0 0 1-6.38 1.68 12.79 12.79 0 0 0 6.6 1.81c7.93 0 12.26-6.15 12.26-11.5l-.01-.52a8.47 8.47 0 0 0 2.15-2.09z"/><clipPath id="v94db"><use fill="#fff" xlink:href="#v94da"/></clipPath></defs><g transform="translate(-1190 -1849)" fill="#fff"><use xlink:href="#v94da"/><use fill-opacity="0" stroke="#fff" stroke-miterlimit="50" stroke-width="2" clip-path="url(&quot;#v94db&quot;)" xlink:href="#v94da"/></g></svg>