<svg xmlns="http://www.w3.org/2000/svg" xmlns:xlink="http://www.w3.org/1999/xlink" width="17" height="16" viewBox="0 0 17 16"><defs><path id="rs2wa" d="M1239.3 1852.6c0 .24-.17.4-.42.4h-1.7c-.26 0-.43-.16-.43-.4v-1.6c0-.24.17-.4.42-.4h1.7c.26 0 .43.16.43.4zm-13.17 10.8c-.26 0-.43-.16-.43-.4v-6.8h1.78c-.08.24-.08.56-.08.8 0 2.64 2.3 4.8 5.1 4.8s5.1-2.16 5.1-4.8c0-.24 0-.56-.09-.8h1.79v6.8c0 .24-.17.4-.42.4zm6.37-9.6c1.87 0 3.4 1.44 3.4 3.2 0 1.76-1.53 3.2-3.4 3.2-1.87 0-3.4-1.44-3.4-3.2 0-1.76 1.53-3.2 3.4-3.2zm6.8-4.8h-13.6c-.94 0-1.7.72-1.7 1.6v12.8c0 .88.77 1.6 1.7 1.6h13.6c.94 0 1.7-.72 1.7-1.6v-12.8c0-.88-.77-1.6-1.7-1.6z"/><clipPath id="rs2wb"><use fill="#fff" xlink:href="#rs2wa"/></clipPath></defs><g><g transform="translate(-1224 -1849)"><use fill="#fff" xlink:href="#rs2wa"/><use fill="#fff" fill-opacity="0" stroke="#fff" stroke-miterlimit="50" stroke-width="2" clip-path="url(&quot;#rs2wb&quot;)" xlink:href="#rs2wa"/></g></g></svg>