<svg xmlns="http://www.w3.org/2000/svg" xmlns:xlink="http://www.w3.org/1999/xlink" width="11" height="20"><defs><path id="padja" d="M1175.59 1847h-2.64c-2.97 0-4.88 1.93-4.88 4.92v2.27h-2.66a.41.41 0 0 0-.41.4v3.3c0 .22.19.4.41.4h2.66v8.3c0 .23.18.41.41.41h3.46c.23 0 .42-.18.42-.4v-8.3h3.1c.23 0 .42-.19.42-.41v-3.3a.4.4 0 0 0-.13-.28.42.42 0 0 0-.29-.12h-3.1v-1.92c0-.93.22-1.4 1.45-1.4h1.78c.22 0 .41-.18.41-.4v-3.06c0-.22-.19-.4-.41-.4z"/><clipPath id="padjb"><use fill="#fff" xlink:href="#padja"/></clipPath></defs><g transform="translate(-1165 -1847)" fill="#fff"><use xlink:href="#padja"/><use fill-opacity="0" stroke="#fff" stroke-miterlimit="50" stroke-width="2" clip-path="url(&quot;#padjb&quot;)" xlink:href="#padja"/></g></svg>