<svg xmlns="http://www.w3.org/2000/svg" xmlns:xlink="http://www.w3.org/1999/xlink" width="6" height="8"><defs><path id="33nza" d="M321.91 233.86l-2.7-2.77a.27.27 0 0 0-.21-.09.27.27 0 0 0-.21.1l-2.7 2.76a.28.28 0 0 0-.09.22c0 .09.03.15.09.21l.42.43c.12.13.3.13.42 0l1.2-1.23c.09-.09.27-.03.27.13v5.07c0 .19.12.31.3.31h.6c.18 0 .3-.12.3-.3v-5.12c0-.12.15-.21.27-.12l1.2 1.23c.12.13.3.13.42 0l.42-.43a.28.28 0 0 0 .09-.21c0-.07-.03-.13-.09-.19z"/><clipPath id="33nzb"><use fill="#fff" xlink:href="#33nza"/></clipPath></defs><g transform="translate(-316 -231)" fill="#fff"><use xlink:href="#33nza"/><use fill-opacity="0" stroke="#fff" stroke-miterlimit="50" stroke-width="2" clip-path="url(&quot;#33nzb&quot;)" xlink:href="#33nza"/></g></svg>