<svg width="457" height="278" viewBox="0 0 457 278" fill="none" xmlns="http://www.w3.org/2000/svg">
<path d="M352.659 176.797H137.546C133.505 176.797 130.199 173.483 130.199 169.432V12.7837C130.199 8.73309 133.505 5.41895 137.546 5.41895H352.659C356.699 5.41895 360.005 8.73309 360.005 12.7837V169.432C360.005 173.483 356.699 176.797 352.659 176.797Z" fill="#B5E1FF"/>
<path d="M360.006 172.378H144.894C140.853 172.378 137.547 169.064 137.547 165.013V8.36476C137.547 4.31414 140.853 1 144.894 1H360.006C364.047 1 367.353 4.31414 367.353 8.36476V165.013C367.353 169.064 364.047 172.378 360.006 172.378Z" fill="#FCFBFF"/>
<path d="M360.006 172.378H144.894C140.853 172.378 137.547 169.064 137.547 165.013V8.36476C137.547 4.31414 140.853 1 144.894 1H360.006C364.047 1 367.353 4.31414 367.353 8.36476V165.013C367.353 169.064 364.047 172.378 360.006 172.378Z" stroke="#B5E1FF" stroke-width="1.5" stroke-miterlimit="10" stroke-linecap="round" stroke-linejoin="round"/>
<path d="M240.842 73.6162H216.965V113.533H240.842V73.6162Z" fill="url(#paint0_linear_28_30443)"/>
<path d="M330.322 54.3208H306.445V113.46H330.322V54.3208Z" fill="url(#paint1_linear_28_30443)"/>
<path d="M284.041 62.1274H260.164V113.533H284.041V62.1274Z" fill="#3387C9"/>
<path d="M208.957 113.533H338.774" stroke="url(#paint2_linear_28_30443)" stroke-width="1.5" stroke-miterlimit="10"/>
<path d="M203.812 39.6652C199.772 31.0485 191.029 25.083 180.891 25.083V50.4914L203.812 39.6652Z" fill="#3387C9"/>
<path d="M203.812 39.6652C199.772 31.0485 191.029 25.083 180.891 25.083V50.4914L203.812 39.6652Z" stroke="#B5E1FF" stroke-width="1.5" stroke-miterlimit="10" stroke-linecap="round" stroke-linejoin="round"/>
<path d="M180.893 75.8998C194.891 75.8998 206.239 64.5241 206.239 50.4914C206.239 36.4587 194.891 25.083 180.893 25.083C166.895 25.083 155.547 36.4587 155.547 50.4914C155.547 64.5241 166.895 75.8998 180.893 75.8998Z" stroke="#B5E1FF" stroke-width="1.5" stroke-miterlimit="10" stroke-linecap="round" stroke-linejoin="round"/>
<path d="M240.841 18.8228H215.789V22.6524H240.841V18.8228Z" fill="#3387C9"/>
<path d="M255.535 26.5557H215.789V30.3853H255.535V26.5557Z" fill="#B5E1FF"/>
<path d="M255.535 32.9629H215.789V36.7926H255.535V32.9629Z" fill="#B5E1FF"/>
<path d="M242.017 122.003H216.965V125.833H242.017V122.003Z" fill="#3387C9"/>
<path d="M256.711 129.736H216.965V133.566H256.711V129.736Z" fill="#B5E1FF"/>
<path d="M242.017 136.217H216.965V140.046H242.017V136.217Z" fill="#B5E1FF"/>
<path d="M303.658 122.003H278.605V125.833H303.658V122.003Z" fill="#3387C9"/>
<path d="M318.351 129.736H278.605V133.566H318.351V129.736Z" fill="#B5E1FF"/>
<path d="M303.658 136.217H278.605V140.046H303.658V136.217Z" fill="#B5E1FF"/>
<path d="M169.873 82.6016H155.547V86.4312H169.873V82.6016Z" fill="url(#paint3_linear_28_30443)"/>
<path d="M178.322 90.3345H155.547V94.1641H178.322V90.3345Z" fill="#B5E1FF"/>
<path d="M169.873 101.897H155.547V105.727H169.873V101.897Z" fill="url(#paint4_linear_28_30443)"/>
<path d="M178.322 109.63H155.547V113.46H178.322V109.63Z" fill="#B5E1FF"/>
<path d="M169.873 121.193H155.547V125.023H169.873V121.193Z" fill="url(#paint5_linear_28_30443)"/>
<path d="M178.322 128.926H155.547V132.755H178.322V128.926Z" fill="#B5E1FF"/>
<path d="M301.145 27.9269H296.285V30.4919C296.495 30.2319 296.795 30.0219 297.185 29.8619C297.575 29.6919 297.99 29.6069 298.43 29.6069C299.23 29.6069 299.885 29.7819 300.395 30.1319C300.905 30.4819 301.275 30.9319 301.505 31.4819C301.735 32.0219 301.85 32.6019 301.85 33.2219C301.85 34.3719 301.52 35.2969 300.86 35.9969C300.21 36.6969 299.28 37.0469 298.07 37.0469C296.93 37.0469 296.02 36.7619 295.34 36.1919C294.66 35.6219 294.275 34.8769 294.185 33.9569H296.225C296.315 34.3569 296.515 34.6769 296.825 34.9169C297.145 35.1569 297.55 35.2769 298.04 35.2769C298.63 35.2769 299.075 35.0919 299.375 34.7219C299.675 34.3519 299.825 33.8619 299.825 33.2519C299.825 32.6319 299.67 32.1619 299.36 31.8419C299.06 31.5119 298.615 31.3469 298.025 31.3469C297.605 31.3469 297.255 31.4519 296.975 31.6619C296.695 31.8719 296.495 32.1519 296.375 32.5019H294.365V26.0819H301.145V27.9269ZM303.448 31.4369C303.448 29.7069 303.758 28.3519 304.378 27.3719C305.008 26.3919 306.048 25.9019 307.498 25.9019C308.948 25.9019 309.983 26.3919 310.603 27.3719C311.233 28.3519 311.548 29.7069 311.548 31.4369C311.548 33.1769 311.233 34.5419 310.603 35.5319C309.983 36.5219 308.948 37.0169 307.498 37.0169C306.048 37.0169 305.008 36.5219 304.378 35.5319C303.758 34.5419 303.448 33.1769 303.448 31.4369ZM309.478 31.4369C309.478 30.6969 309.428 30.0769 309.328 29.5769C309.238 29.0669 309.048 28.6519 308.758 28.3319C308.478 28.0119 308.058 27.8519 307.498 27.8519C306.938 27.8519 306.513 28.0119 306.223 28.3319C305.943 28.6519 305.753 29.0669 305.653 29.5769C305.563 30.0769 305.518 30.6969 305.518 31.4369C305.518 32.1969 305.563 32.8369 305.653 33.3569C305.743 33.8669 305.933 34.2819 306.223 34.6019C306.513 34.9119 306.938 35.0669 307.498 35.0669C308.058 35.0669 308.483 34.9119 308.773 34.6019C309.063 34.2819 309.253 33.8669 309.343 33.3569C309.433 32.8369 309.478 32.1969 309.478 31.4369ZM322.585 22.8419L318.535 39.7619H316.48L320.53 22.8419H322.585ZM327.334 28.0469V26.1119H330.949V37.0469H328.789V28.0469H327.334ZM333.024 31.4369C333.024 29.7069 333.334 28.3519 333.954 27.3719C334.584 26.3919 335.624 25.9019 337.074 25.9019C338.524 25.9019 339.559 26.3919 340.179 27.3719C340.809 28.3519 341.124 29.7069 341.124 31.4369C341.124 33.1769 340.809 34.5419 340.179 35.5319C339.559 36.5219 338.524 37.0169 337.074 37.0169C335.624 37.0169 334.584 36.5219 333.954 35.5319C333.334 34.5419 333.024 33.1769 333.024 31.4369ZM339.054 31.4369C339.054 30.6969 339.004 30.0769 338.904 29.5769C338.814 29.0669 338.624 28.6519 338.334 28.3319C338.054 28.0119 337.634 27.8519 337.074 27.8519C336.514 27.8519 336.089 28.0119 335.799 28.3319C335.519 28.6519 335.329 29.0669 335.229 29.5769C335.139 30.0769 335.094 30.6969 335.094 31.4369C335.094 32.1969 335.139 32.8369 335.229 33.3569C335.319 33.8669 335.509 34.2819 335.799 34.6019C336.089 34.9119 336.514 35.0669 337.074 35.0669C337.634 35.0669 338.059 34.9119 338.349 34.6019C338.639 34.2819 338.829 33.8669 338.919 33.3569C339.009 32.8369 339.054 32.1969 339.054 31.4369ZM342.721 31.4369C342.721 29.7069 343.031 28.3519 343.651 27.3719C344.281 26.3919 345.321 25.9019 346.771 25.9019C348.221 25.9019 349.256 26.3919 349.876 27.3719C350.506 28.3519 350.821 29.7069 350.821 31.4369C350.821 33.1769 350.506 34.5419 349.876 35.5319C349.256 36.5219 348.221 37.0169 346.771 37.0169C345.321 37.0169 344.281 36.5219 343.651 35.5319C343.031 34.5419 342.721 33.1769 342.721 31.4369ZM348.751 31.4369C348.751 30.6969 348.701 30.0769 348.601 29.5769C348.511 29.0669 348.321 28.6519 348.031 28.3319C347.751 28.0119 347.331 27.8519 346.771 27.8519C346.211 27.8519 345.786 28.0119 345.496 28.3319C345.216 28.6519 345.026 29.0669 344.926 29.5769C344.836 30.0769 344.791 30.6969 344.791 31.4369C344.791 32.1969 344.836 32.8369 344.926 33.3569C345.016 33.8669 345.206 34.2819 345.496 34.6019C345.786 34.9119 346.211 35.0669 346.771 35.0669C347.331 35.0669 347.756 34.9119 348.046 34.6019C348.336 34.2819 348.526 33.8669 348.616 33.3569C348.706 32.8369 348.751 32.1969 348.751 31.4369Z" fill="#3387C9"/>
<path d="M121.017 227.687C121.017 227.687 82.9608 264.732 25.6562 234.168L27.1991 224.889L119.841 219.218L121.017 227.687Z" fill="#96BFDF"/>
<path d="M38.2205 199.186L18.5312 275.926H110.219C110.219 275.926 118.667 225.846 114.186 199.186H38.2205Z" fill="#0C1923"/>
<path d="M114.627 202.794C114.48 201.542 114.333 200.29 114.113 199.186H38.221L34.6211 213.179L114.627 202.794Z" fill="#164770"/>
<path d="M70.9141 275.926L82.0811 225.109L89.134 222.9" stroke="#164770" stroke-width="1.5" stroke-miterlimit="10" stroke-linecap="round" stroke-linejoin="round"/>
<path d="M45.127 115.007C45.127 115.007 36.4578 107.789 38.5149 95.2691C40.572 82.749 50.1228 80.6869 50.1228 80.6869C50.1228 80.6869 38.9557 69.0506 51.9594 54.0265C51.9594 54.0265 56.0002 50.1968 60.9225 49.6076C60.9225 49.6076 64.9632 30.8275 86.2687 32.8896C107.574 34.9518 101.036 55.7204 95.0113 58.4453C95.0113 58.4453 98.6113 68.1668 93.1747 73.0275V79.5085C93.1747 79.5085 107.721 83.1909 109.558 98.6569C111.395 114.123 95.0113 119.646 95.0113 119.646C95.0113 119.646 53.0615 123.034 45.127 115.007Z" fill="#0C1923"/>
<path d="M62.5387 100.13L31.5355 108.526C29.6253 109.041 28.0825 110.367 27.2743 112.134C23.0132 121.414 9.49523 151.315 6.92387 166.56C6.92387 166.56 1.56075 185.193 13.5359 192.189C16.7685 194.031 20.5153 194.62 24.1887 194.104L32.4171 192.926L25.6581 234.168C25.6581 234.168 55.192 237.998 61.0694 217.229L64.7427 199.186H101.476C101.476 199.186 98.9051 219.954 120.945 227.761L114.701 181.952L117.933 164.203L129.688 174.514C133.214 177.607 137.402 179.964 141.883 181.069C149.157 182.983 159.001 182.394 164.805 169.359C174.944 146.675 180.601 116.848 180.601 116.848L167.303 103.076L141.075 141.52L118.227 109.999C117.272 108.747 115.949 107.789 114.407 107.421L84.285 100.13H62.5387Z" fill="#3387C9"/>
<path d="M105.074 145.129C103.898 131.872 90.1597 108.526 84.2823 100.13H62.6094C62.6094 100.13 73.7764 161.699 64.8134 199.186H101.547C101.547 199.186 105.882 154.703 105.074 145.129Z" fill="#FCFBFF"/>
<path d="M104.636 161.772C93.1014 165.455 78.9222 167.37 68.1959 168.253C67.9755 179.153 67.0204 189.906 64.8164 199.185H101.55C101.55 199.185 103.607 178.049 104.636 161.772Z" fill="#B5E1FF"/>
<path d="M84.2823 100.13L83.6945 91.8813C85.0904 91.8813 86.4128 91.6604 87.7352 91.2185C97.6533 87.9043 95.082 75.7525 93.6126 69.1242C92.9514 66.1047 92.0698 62.7169 90.6739 59.6973C82.8864 62.6432 74.8784 58.4453 74.8784 58.4453C71.9397 64.7054 66.4297 65.6628 66.4297 65.6628C66.6501 70.3762 65.1073 73.2485 64.0787 74.6478C64.4461 75.8998 62.6094 100.13 62.6094 100.13C62.6094 100.13 64.8869 114.491 65.9154 123.992C68.9276 124.213 72.0132 124.36 75.2458 124.36C83.0333 124.36 90.4535 123.55 97.1391 122.15C92.6575 113.092 87.3679 104.549 84.2823 100.13Z" fill="#F7C5A8"/>
<path d="M77.5279 62.7169C77.5279 62.7169 86.5644 65.5891 91.1929 60.802C91.0459 60.4338 90.899 60.0656 90.7521 59.6973C82.9645 62.6432 74.9566 58.4453 74.9566 58.4453C72.0179 64.7054 66.5078 65.6628 66.5078 65.6628C66.5813 66.3993 66.5078 67.1357 66.5078 67.7986C69.5934 67.9459 75.03 67.3567 77.5279 62.7169Z" fill="#F4A695"/>
<path d="M65.6243 72.0701C67.8283 74.5005 67.9017 78.1092 65.7712 80.0977C63.6406 82.0862 60.0407 81.7179 57.8367 79.2876C55.6327 76.8572 55.5592 73.2485 57.6898 71.26C59.8203 69.3451 63.4202 69.6397 65.6243 72.0701Z" fill="#F7C5A8"/>
<path d="M17.0625 171.568C17.0625 171.568 19.6339 160.373 34.6947 158.459C49.7555 156.544 66.2857 157.869 72.7508 155.881L74.0732 174.661C74.0732 174.661 46.9637 191.747 32.5641 192.926L17.0625 171.568Z" fill="#3387C9"/>
<path d="M35.1328 158.311C35.1328 158.311 36.896 153.893 40.2755 139.531L39.6878 158.017L35.1328 158.311Z" fill="#96BFDF"/>
<path d="M83.6981 91.8813C83.6981 91.8813 75.5433 91.5131 70.9883 83.6328C70.9883 83.6328 71.723 93.7962 84.0655 97.2576L83.6981 91.8813Z" fill="#F4A695"/>
<path d="M59.4531 73.3223L64.8162 77.0046" stroke="#F4A695" stroke-width="1.5" stroke-miterlimit="10" stroke-linecap="round" stroke-linejoin="round"/>
<path d="M118.007 164.129C118.007 164.129 120.946 153.303 121.019 145.055C121.019 139.605 115.73 132.903 114.113 126.422" stroke="#96BFDF" stroke-width="1.5" stroke-miterlimit="10" stroke-linecap="round" stroke-linejoin="round"/>
<path d="M123.002 179.817H84.6523L91.6317 129.589H129.982L123.002 179.817Z" fill="#B5E1FF"/>
<path d="M72.8242 157.427C72.8242 157.427 78.8485 154.702 80.8322 152.198C82.8158 149.694 89.3544 146.233 89.3544 146.233L88.6932 151.683C88.6932 151.683 108.97 145.349 111.542 146.38C114.113 147.411 109.191 150.431 109.191 150.431C109.191 150.431 113.966 148.737 114.186 149.694C114.333 150.725 112.717 153.377 111.688 154.113C111.688 154.113 113.011 153.745 113.084 154.997C113.158 156.249 106.472 161.699 100.962 163.835C100.962 163.835 107.133 162.509 108.897 163.835C108.897 163.835 99.9337 168.327 96.5542 169.358C93.1747 170.389 73.9262 172.599 73.9262 172.599L72.8242 157.427Z" fill="#F7C5A8"/>
<path d="M109.119 150.357L92.5156 155.881" stroke="#F4A695" stroke-width="1.5" stroke-miterlimit="10" stroke-linecap="round" stroke-linejoin="round"/>
<path d="M111.612 154.04C111.612 154.04 100.445 158.458 94.2734 160.079" stroke="#F4A695" stroke-width="1.5" stroke-miterlimit="10" stroke-linecap="round" stroke-linejoin="round"/>
<path d="M100.889 163.835L95.3789 165.382" stroke="#F4A695" stroke-width="1.5" stroke-miterlimit="10" stroke-linecap="round" stroke-linejoin="round"/>
<path d="M72.4561 175.619C72.4561 175.619 62.0972 182.173 49.8281 187.623" stroke="#96BFDF" stroke-width="1.5" stroke-miterlimit="10" stroke-linecap="round" stroke-linejoin="round"/>
<path d="M17.0625 171.568C17.0625 171.568 19.6339 160.373 34.6947 158.459C49.7555 156.544 66.2857 157.869 72.7508 155.881" stroke="#96BFDF" stroke-width="1.5" stroke-miterlimit="10" stroke-linecap="round" stroke-linejoin="round"/>
<path d="M141.003 141.52C141.003 141.52 136.007 146.159 134.023 154.04" stroke="#96BFDF" stroke-width="1.5" stroke-miterlimit="10" stroke-linecap="round" stroke-linejoin="round"/>
<path d="M72.8242 157.427L73.8528 172.525L77.3057 172.157L72.8242 157.427Z" fill="#F4A695"/>
<path d="M168.184 103.959L178.469 90.1873C178.469 90.1873 182.51 85.6948 188.093 82.9699C194.999 79.7294 203.962 73.543 203.962 73.543C203.962 73.543 206.974 75.4578 203.962 78.3301L195.807 86.284L200.877 90.04C202.86 91.4393 203.007 94.4589 201.024 95.7845C200.95 95.8582 200.803 95.9318 200.656 96.0055C200.656 96.0055 201.758 99.3196 198.452 100.866C198.452 100.866 198.526 103.223 196.175 104.254C193.824 105.285 189.71 103.665 189.71 103.665C189.71 103.665 188.828 108.599 181.628 109.999L178.469 114.491L168.184 103.959Z" fill="#F7C5A8"/>
<path d="M185.964 88.6405L200.658 87.2412C200.658 87.2412 202.054 91.2918 198.307 92.2492C194.56 93.2067 190.666 94.606 190.666 94.606C190.666 94.606 191.254 100.424 185.523 101.971L185.964 88.6405Z" fill="#F7C5A8"/>
<path d="M188.536 88.4197L200.658 87.3149C200.658 87.3149 202.054 91.3655 198.307 92.323C194.56 93.2804 190.666 94.6797 190.666 94.6797C190.666 94.6797 191.254 100.498 185.523 102.044" stroke="#F4A695" stroke-width="1.5" stroke-miterlimit="10" stroke-linecap="round" stroke-linejoin="round"/>
<path d="M190.594 94.6797C190.594 94.6797 198.014 97.0364 200.732 96.1526" stroke="#F4A695" stroke-width="1.5" stroke-miterlimit="10" stroke-linecap="round" stroke-linejoin="round"/>
<path d="M189.781 98.8042C189.781 98.8042 194.116 101.529 198.524 101.014" stroke="#F4A695" stroke-width="1.5" stroke-miterlimit="10" stroke-linecap="round" stroke-linejoin="round"/>
<path d="M189.786 103.886C189.786 103.886 187.435 102.118 187.655 101.087" stroke="#F4A695" stroke-width="1.5" stroke-miterlimit="10" stroke-linecap="round" stroke-linejoin="round"/>
<path d="M168.184 103.959L180.967 111.398L178.543 114.638L168.184 103.959Z" fill="#F4A695"/>
<path d="M82.3745 71.1125C82.4479 71.9226 82.0071 72.5855 81.4929 72.5855C80.9051 72.6591 80.4643 71.9963 80.3909 71.2598C80.3174 70.4497 80.7582 69.7869 81.2725 69.7869C81.7867 69.7132 82.301 70.376 82.3745 71.1125Z" fill="#0C1923"/>
<path d="M92.5854 70.0815C92.6589 70.8916 92.2181 71.5545 91.7038 71.5545C91.1161 71.6281 90.6753 70.9653 90.6018 70.2288C90.5283 69.4187 90.9691 68.7559 91.4834 68.7559C92.0711 68.7559 92.5854 69.345 92.5854 70.0815Z" fill="#0C1923"/>
<path d="M77.0117 67.0618C77.0117 67.0618 78.9953 64.4841 82.2279 65.7361" stroke="#0C1923" stroke-width="3" stroke-miterlimit="10" stroke-linecap="round" stroke-linejoin="round"/>
<path d="M88.5469 65.0733C88.5469 65.0733 89.8693 63.3794 92.0733 63.3794" stroke="#0C1923" stroke-width="3" stroke-miterlimit="10" stroke-linecap="round" stroke-linejoin="round"/>
<path d="M85.6812 71.2601C85.6812 74.206 83.5506 76.6363 80.9793 76.6363C78.3344 76.6363 76.2773 74.206 76.2773 71.2601C76.2773 68.3142 78.4079 65.8838 80.9793 65.8838C83.6241 65.8838 85.6812 68.2405 85.6812 71.2601Z" stroke="#FCFBFF" stroke-width="1.5" stroke-miterlimit="10" stroke-linecap="round" stroke-linejoin="round"/>
<path d="M97.0688 69.8606C97.0688 72.8065 95.3056 75.2369 93.175 75.2369C91.0445 75.2369 89.2812 72.8065 89.2812 69.8606C89.2812 66.9147 91.0445 64.4844 93.175 64.4844C95.379 64.4844 97.0688 66.9147 97.0688 69.8606Z" stroke="#FCFBFF" stroke-width="1.5" stroke-miterlimit="10" stroke-linecap="round" stroke-linejoin="round"/>
<path d="M85.6797 70.5237L89.2796 69.8608" stroke="#FCFBFF" stroke-width="1.5" stroke-miterlimit="10" stroke-linecap="round" stroke-linejoin="round"/>
<path d="M87.8828 71.186C87.8828 71.186 91.6296 75.4576 92.0705 77.5197C92.5113 79.5819 88.6909 79.2873 88.6909 79.2873" stroke="#F4A695" stroke-width="1.5" stroke-miterlimit="10" stroke-linecap="round" stroke-linejoin="round"/>
<path d="M83.6258 81.0552L89.0624 81.7917C89.0624 81.7917 88.9155 84.222 85.9033 83.8538C82.8912 83.4855 83.6258 81.0552 83.6258 81.0552Z" fill="#FCFBFF"/>
<path d="M60.1884 96.2262C64.5705 96.2262 68.1229 92.6651 68.1229 88.2723C68.1229 83.8794 64.5705 80.3184 60.1884 80.3184C55.8063 80.3184 52.2539 83.8794 52.2539 88.2723C52.2539 92.6651 55.8063 96.2262 60.1884 96.2262Z" stroke="#FCFBFF" stroke-width="1.5" stroke-miterlimit="10" stroke-linecap="round" stroke-linejoin="round"/>
<path d="M106.252 129.589L105.664 133.566H119.256L119.77 129.589" stroke="#0C1923" stroke-width="1.5" stroke-miterlimit="10" stroke-linecap="round" stroke-linejoin="round"/>
<path d="M53.6542 25.4874L53.505 25.3194H53.2803H29.036C27.0359 25.3194 25.4219 23.7032 25.4219 21.6951V7.84936C25.4219 5.84127 27.0359 4.2251 29.036 4.2251H66.5044C68.4992 4.2251 70.123 5.83752 70.1921 7.85762V21.6951C70.1921 23.7032 68.5781 25.3194 66.5779 25.3194H60.9944H60.4944V25.8194V33.1933L53.6542 25.4874Z" fill="#FCFBFF" stroke="#BFC7CE"/>
<path d="M38.0009 16.4662C39.2181 16.4662 40.2049 15.477 40.2049 14.2568C40.2049 13.0366 39.2181 12.0474 38.0009 12.0474C36.7836 12.0474 35.7969 13.0366 35.7969 14.2568C35.7969 15.477 36.7836 16.4662 38.0009 16.4662Z" fill="#B5E1FF"/>
<path d="M50.7088 14.2568C50.7088 15.4352 49.7537 16.4662 48.5048 16.4662C47.3293 16.4662 46.3008 15.5088 46.3008 14.2568C46.3008 13.0784 47.2559 12.0474 48.5048 12.0474C49.6803 12.0474 50.7088 13.0048 50.7088 14.2568Z" fill="#B5E1FF"/>
<path d="M60.1854 14.2568C60.1854 15.4352 59.2303 16.4662 57.9814 16.4662C56.7324 16.4662 55.7773 15.5088 55.7773 14.2568C55.7773 13.0784 56.7324 12.0474 57.9814 12.0474C59.2303 12.0474 60.1854 13.0048 60.1854 14.2568Z" fill="#B5E1FF"/>
<path d="M195.442 181.952L169.875 191.894C169.875 191.894 151.362 198.67 148.79 214.578C146.219 230.559 141.664 255.673 141.664 255.673L107.648 262.154V275.926H261.342L260.093 241.901L278.827 240.649C274.713 214.504 270.158 193.735 242.461 187.107L217.409 180.7L195.442 181.952Z" fill="#0C1923"/>
<path d="M189.93 184.235C189.93 184.235 188.755 202.499 206.387 201.616C224.019 200.732 222.991 182.099 222.991 182.099" stroke="#164770" stroke-width="1.5" stroke-miterlimit="10" stroke-linecap="round" stroke-linejoin="round"/>
<path d="M170.68 244.479L143.938 243.227C142.689 250.444 141.734 255.747 141.734 255.747L107.719 262.228V276H170.607L170.68 244.479Z" fill="#F7C5A8"/>
<path d="M143.863 243.227L170.679 244.479V250.96L143.863 243.227Z" fill="#F4A695"/>
<path d="M227.398 138.573C226.223 132.313 220.125 131.945 220.125 131.945C220.86 127.158 216.158 123.549 208.958 124.286C201.758 125.022 199.848 121.045 191.62 120.014C183.391 118.983 179.718 127.011 181.628 133.934C183.538 140.857 191.62 141.446 191.62 141.446L192.281 164.35L212.411 164.939C217.627 164.939 221.888 160.962 221.888 156.028C221.888 155.291 221.741 154.555 221.594 153.819C225.562 149.842 228.28 142.919 227.398 138.573Z" fill="#0C1923"/>
<path d="M218.214 147.411C215.79 147.411 213.733 148.884 212.851 151.02C211.088 149.4 209.472 146.601 209.398 141.814C209.398 141.814 202.566 144.76 199.994 142.256C197.349 139.605 197.496 136.143 197.496 136.143C197.496 136.143 195.072 141.225 189.268 139.605L186.917 160.889C186.917 160.889 185.007 170.389 196.174 172.451L195.072 184.382C195.072 184.382 194.337 195.208 203.741 195.577C217.48 196.166 217.48 184.382 217.48 184.382L215.496 158.311C216.304 158.679 217.186 158.974 218.141 158.974C221.3 158.974 223.945 156.396 223.945 153.156C224.018 149.989 221.447 147.411 218.214 147.411Z" fill="#F7C5A8"/>
<path d="M209.4 141.814C209.4 141.814 202.567 144.76 199.996 142.256C197.351 139.605 197.498 136.143 197.498 136.143C197.498 136.143 195.073 141.225 189.27 139.605C189.27 139.605 192.869 142.329 197.057 141.225C197.057 141.225 199.849 146.969 205.359 146.233C205.359 146.233 208.518 151.683 212.779 150.946C211.163 149.4 209.547 146.601 209.4 141.814Z" fill="#F4A695"/>
<path d="M196.319 172.525C196.319 172.525 206.237 174.071 209.984 165.013C209.984 165.013 209.176 176.796 195.805 177.827L196.319 172.525Z" fill="#F4A695"/>
<path d="M215.055 154.261L221.006 151.094" stroke="#F4A695" stroke-width="1.5" stroke-miterlimit="10" stroke-linecap="round" stroke-linejoin="round"/>
<path d="M194.707 148.442L190.813 154.776C190.299 155.586 190.666 156.617 191.548 156.912L194.707 158.09" stroke="#F4A695" stroke-width="1.5" stroke-miterlimit="10" stroke-linecap="round" stroke-linejoin="round"/>
<path d="M192.648 160.962C192.648 160.962 197.13 162.362 199.628 159.637" stroke="#F4A695" stroke-width="1.5" stroke-miterlimit="10" stroke-linecap="round" stroke-linejoin="round"/>
<path d="M190.888 148.81C191.456 148.81 191.916 148.184 191.916 147.411C191.916 146.638 191.456 146.012 190.888 146.012C190.32 146.012 189.859 146.638 189.859 147.411C189.859 148.184 190.32 148.81 190.888 148.81Z" fill="#0C1923"/>
<path d="M200.876 150.357C201.444 150.357 201.905 149.731 201.905 148.958C201.905 148.185 201.444 147.559 200.876 147.559C200.308 147.559 199.848 148.185 199.848 148.958C199.848 149.731 200.308 150.357 200.876 150.357Z" fill="#0C1923"/>
<path d="M199.336 144.465C199.336 144.465 202.422 143.582 204.332 146.38" stroke="#0C1923" stroke-width="3" stroke-miterlimit="10" stroke-linecap="round" stroke-linejoin="round"/>
<path d="M188.609 143.654C188.609 143.654 190.446 142.919 192.65 143.654" stroke="#0C1923" stroke-width="3" stroke-miterlimit="10" stroke-linecap="round" stroke-linejoin="round"/>
<path d="M170.391 275.19L170.978 226.067" stroke="#164770" stroke-width="1.5" stroke-miterlimit="10" stroke-linecap="round" stroke-linejoin="round"/>
<path d="M144.895 237.629L170.829 238.955" stroke="#164770" stroke-width="1.5" stroke-miterlimit="10" stroke-linecap="round" stroke-linejoin="round"/>
<path d="M206.609 261.123L189.197 252.432C189.197 252.432 186.479 250.591 182.805 253.39C179.132 256.188 168.332 266.425 163.483 266.867C163.483 266.867 161.647 270.918 167.377 270.918C167.377 270.918 169.728 273.643 174.21 271.654C174.21 271.654 177.148 273.864 181.336 271.286C181.336 271.286 184.054 273.127 188.462 272.023L194.34 270.181C194.34 270.181 198.601 275.337 206.609 275.926H263.252C263.252 275.926 284.337 274.453 281.619 256.778C279.341 241.974 278.754 240.575 278.754 240.575L246.942 242.785L247.971 252.359L206.609 261.123Z" fill="#F7C5A8"/>
<path d="M246.945 242.785L278.83 240.649L279.859 245.583L246.945 242.785Z" fill="#F4A695"/>
<path d="M248.047 252.359C248.047 252.359 254.879 251.254 260.096 255.231" stroke="#F4A695" stroke-width="1.5" stroke-miterlimit="10" stroke-linecap="round" stroke-linejoin="round"/>
<path d="M206.609 261.123L211.164 263.259" stroke="#F4A695" stroke-width="1.5" stroke-miterlimit="10" stroke-linecap="round" stroke-linejoin="round"/>
<path d="M194.34 270.182L198.968 268.34C198.968 268.34 203.009 273.643 208.225 272.686" stroke="#F4A695" stroke-width="1.5" stroke-miterlimit="10" stroke-linecap="round" stroke-linejoin="round"/>
<path d="M181.336 271.286L192.503 264.437" stroke="#F4A695" stroke-width="1.5" stroke-miterlimit="10" stroke-linecap="round" stroke-linejoin="round"/>
<path d="M174.281 271.655L186.918 261.491" stroke="#F4A695" stroke-width="1.5" stroke-miterlimit="10" stroke-linecap="round" stroke-linejoin="round"/>
<path d="M167.375 270.918L181.995 259.65" stroke="#F4A695" stroke-width="1.5" stroke-miterlimit="10" stroke-linecap="round" stroke-linejoin="round"/>
<path d="M246.943 242.785L244.078 223.121" stroke="#164770" stroke-width="1.5" stroke-miterlimit="10" stroke-linecap="round" stroke-linejoin="round"/>
<path d="M246.207 237.63L277.798 234.463" stroke="#164770" stroke-width="1.5" stroke-miterlimit="10" stroke-linecap="round" stroke-linejoin="round"/>
<path d="M193.897 270.107H125.426V275.926H193.897V270.107Z" fill="url(#paint6_linear_28_30443)"/>
<path d="M158.34 275.926H85.2404L70.5469 218.26H143.647L158.34 275.926Z" fill="#B5E1FF"/>
<path d="M143.647 218.26H138.504L153.197 275.926H158.34L143.647 218.26Z" fill="url(#paint7_linear_28_30443)"/>
<path d="M109.686 251.668C112.048 251.077 113.349 248.134 112.592 245.096C111.835 242.057 109.307 240.073 106.945 240.665C104.583 241.256 103.282 244.199 104.039 247.237C104.796 250.276 107.324 252.26 109.686 251.668Z" fill="#FCFBFF"/>
<path d="M344.727 167.664C344.727 167.664 324.744 171.789 311.813 157.796C298.883 143.803 318.572 123.402 318.572 123.402C318.572 123.402 308.14 113.607 313.062 104.254C313.062 104.254 317.985 97.4782 327.021 101.897C327.021 101.897 337.6 87.5358 355.159 95.637C372.791 103.738 372.571 126.569 372.057 130.767C372.057 130.693 393.803 164.203 344.727 167.664Z" fill="#0C1923"/>
<path d="M326.14 194.104L322.834 203.825L295.284 175.25C295.284 175.25 296.606 170.315 294.109 165.16C291.684 160.005 293.227 154.113 293.227 154.113C293.227 154.113 290.656 152.861 288.966 155.218L286.321 163.466L263.62 157.501C263.179 157.354 262.738 157.28 262.297 157.28C260.754 157.206 257.522 157.354 256.934 159.784C256.934 159.784 252.746 158.385 250.395 162.067L252.746 163.098C252.746 163.098 249.073 163.466 248.191 165.897L251.057 168.106C251.057 168.106 253.04 171.715 254.803 172.893C260.607 176.796 279.929 180.773 282.648 183.867L307.627 226.435C311.226 232.548 316.002 237.998 322.981 239.029C327.683 239.691 334.736 238.439 338.262 233.579C348.034 220.175 353.103 208.539 353.103 208.539L326.14 194.104Z" fill="#F7C5A8"/>
<path d="M322.836 203.825L331.211 212.737" stroke="#F4A695" stroke-width="1.5" stroke-miterlimit="10" stroke-linecap="round" stroke-linejoin="round"/>
<path d="M346.123 204.709L342.156 228.35C342.156 228.35 350.752 213.989 353.323 208.612L346.123 204.709Z" fill="#F4A695"/>
<path d="M257.008 159.857L272.216 164.718" stroke="#F4A695" stroke-width="1.5" stroke-miterlimit="10" stroke-linecap="round" stroke-linejoin="round"/>
<path d="M252.895 163.172L269.792 168.327" stroke="#F4A695" stroke-width="1.5" stroke-miterlimit="10" stroke-linecap="round" stroke-linejoin="round"/>
<path d="M250.539 167.664L267.437 172.378" stroke="#F4A695" stroke-width="1.5" stroke-miterlimit="10" stroke-linecap="round" stroke-linejoin="round"/>
<path d="M276.258 172.378C276.258 172.378 284.707 167.812 288.086 176.06" stroke="#F4A695" stroke-width="1.5" stroke-miterlimit="10" stroke-linecap="round" stroke-linejoin="round"/>
<path d="M428.92 187.476C428.92 187.476 445.67 189.464 451.842 208.686C457.939 227.908 437.883 276 437.883 276H357.289L387.19 221.869L428.92 187.476Z" fill="#0C1923"/>
<path d="M400.636 228.35L405.191 231.664L395.641 275.926" stroke="#013F81" stroke-width="1.5" stroke-miterlimit="10" stroke-linecap="round" stroke-linejoin="round"/>
<path d="M420.324 194.546L425.393 199.554C430.83 204.93 438.471 207.508 446.038 206.55H446.185" stroke="#013F81" stroke-width="1.5" stroke-miterlimit="10" stroke-linecap="round" stroke-linejoin="round"/>
<path d="M430.535 275.926C430.535 275.926 448.682 219.88 442.07 206.697" stroke="#013F81" stroke-width="1.5" stroke-miterlimit="10" stroke-linecap="round" stroke-linejoin="round"/>
<path d="M405.192 143.287C401.739 138.942 396.89 136.585 392.702 135.333C388.735 134.155 384.621 133.786 380.506 134.081L367.87 135.112L351.12 145.349L344.948 148.663C340.246 151.167 336.573 155.365 334.883 160.447C334.369 161.92 333.928 163.614 333.487 165.529C331.283 175.986 326.141 194.104 326.141 194.104L353.324 208.686L359.715 195.577C362.36 196.092 364.564 195.871 364.564 195.871C371.397 199.922 387.192 221.869 387.192 221.869L428.922 187.475C428.922 187.475 412.538 152.567 405.192 143.287Z" fill="url(#paint8_linear_28_30443)"/>
<path d="M359.716 195.503C359.716 195.503 352.443 195.429 351.194 189.169C349.725 182.173 347.301 176.502 347.301 176.502C347.301 176.502 349.064 199.406 346.125 204.709L353.398 208.612L359.716 195.503Z" fill="#013F81"/>
<path d="M367.866 135.186L354.421 128.484C356.478 127.674 357.948 125.612 357.948 123.181C357.948 120.088 355.597 117.51 352.658 117.51C349.719 117.51 347.368 120.014 347.368 123.181C347.368 123.329 347.368 123.476 347.368 123.623C347.295 123.549 347.221 123.476 347.148 123.402C340.903 122.592 328.707 107.642 328.707 107.642C327.532 109.041 326.577 110.808 326.283 113.239L326.503 119.499L321.875 127.6H326.136C326.136 127.6 326.063 139.899 331.94 142.845C337.083 145.423 342.005 143.655 345.091 141.372L351.042 145.496C351.042 145.496 352.878 160.447 362.429 159.195C374.184 157.575 367.866 135.186 367.866 135.186Z" fill="#F7C5A8"/>
<path d="M345.311 122.813C338.772 119.941 328.707 107.642 328.707 107.642C327.679 108.894 326.797 110.44 326.43 112.502C331.425 115.743 339.14 120.604 345.311 122.813Z" fill="#F4A695"/>
<path d="M345.164 141.225C345.164 141.225 348.911 137.174 350.38 133.934C350.38 133.934 351.482 141.004 350.013 144.612L345.164 141.225Z" fill="#F4A695"/>
<path d="M350.75 125.464L354.276 120.162" stroke="#F4A695" stroke-width="1.5" stroke-miterlimit="10" stroke-linecap="round" stroke-linejoin="round"/>
<path d="M331.133 131.209L337.157 128.778C337.157 128.778 338.112 132.019 334.953 133.05C332.308 133.86 331.133 131.209 331.133 131.209Z" fill="#FCFBFF"/>
<path d="M330.396 121.488C330.964 121.488 331.424 120.861 331.424 120.088C331.424 119.315 330.964 118.689 330.396 118.689C329.828 118.689 329.367 119.315 329.367 120.088C329.367 120.861 329.828 121.488 330.396 121.488Z" fill="#0C1923"/>
<path d="M328.711 114.785C328.711 114.785 331.797 113.901 333.707 116.7" stroke="#0C1923" stroke-width="3" stroke-miterlimit="10" stroke-linecap="round" stroke-linejoin="round"/>
<path d="M381.457 190.421L381.824 200.732L350.38 240.354L328.854 249.045C327.238 249.708 325.842 250.886 324.96 252.359L314.602 269.813C314.602 269.813 317.981 271.655 321.214 268.93L319.891 271.581C319.891 271.581 324.74 272.759 327.164 270.182L326.062 272.317C326.062 272.317 328.413 273.422 332.16 272.612C332.16 272.612 336.642 272.612 338.405 270.844C341.27 267.972 345.605 261.639 345.605 261.639C345.605 261.639 352.658 262.301 355.743 257.883L358.755 253.464L398.354 227.392C404.379 223.415 408.273 216.787 408.713 209.57L409.962 190.495H381.457V190.421Z" fill="#F7C5A8"/>
<path d="M321.211 268.856L328.925 255.452" stroke="#F4A695" stroke-width="1.5" stroke-miterlimit="10" stroke-linecap="round" stroke-linejoin="round"/>
<path d="M327.164 270.108L334.07 257.146" stroke="#F4A695" stroke-width="1.5" stroke-miterlimit="10" stroke-linecap="round" stroke-linejoin="round"/>
<path d="M332.086 272.538L338.845 259.65" stroke="#F4A695" stroke-width="1.5" stroke-miterlimit="10" stroke-linecap="round" stroke-linejoin="round"/>
<path d="M381.457 190.421H409.889L409.522 195.65L381.457 190.421Z" fill="#F4A695"/>
<path d="M350.382 270.108H281.91V275.926H350.382V270.108Z" fill="url(#paint9_linear_28_30443)"/>
<path d="M314.825 275.926H241.725L227.031 218.26H300.131L314.825 275.926Z" fill="#B5E1FF"/>
<path d="M300.131 218.26H294.988L309.682 275.926H314.824L300.131 218.26Z" fill="url(#paint10_linear_28_30443)"/>
<path d="M266.17 251.664C268.532 251.073 269.833 248.13 269.076 245.091C268.319 242.053 265.791 240.069 263.429 240.66C261.067 241.252 259.766 244.194 260.523 247.233C261.28 250.271 263.808 252.255 266.17 251.664Z" fill="#FCFBFF"/>
<path d="M381.459 190.421L379.77 156.175" stroke="#013F81" stroke-width="1.5" stroke-miterlimit="10" stroke-linecap="round" stroke-linejoin="round"/>
<path d="M409.891 190.421V170.021" stroke="#013F81" stroke-width="1.5" stroke-miterlimit="10" stroke-linecap="round" stroke-linejoin="round"/>
<path d="M2 275.926H455" stroke="#B5E1FF" stroke-width="3" stroke-miterlimit="10" stroke-linecap="round" stroke-linejoin="round"/>
<defs>
<linearGradient id="paint0_linear_28_30443" x1="218.721" y1="73.6161" x2="240.545" y2="73.7781" gradientUnits="userSpaceOnUse">
<stop stop-color="#15466F"/>
<stop offset="1" stop-color="#3387CA"/>
</linearGradient>
<linearGradient id="paint1_linear_28_30443" x1="308.202" y1="54.3207" x2="330.026" y2="54.43" gradientUnits="userSpaceOnUse">
<stop stop-color="#15466F"/>
<stop offset="1" stop-color="#3387CA"/>
</linearGradient>
<linearGradient id="paint2_linear_28_30443" x1="218.506" y1="113.533" x2="251.505" y2="166.701" gradientUnits="userSpaceOnUse">
<stop stop-color="#15466F"/>
<stop offset="1" stop-color="#3387CA"/>
</linearGradient>
<linearGradient id="paint3_linear_28_30443" x1="156.601" y1="82.6016" x2="169.667" y2="83.2082" gradientUnits="userSpaceOnUse">
<stop stop-color="#15466F"/>
<stop offset="1" stop-color="#3387CA"/>
</linearGradient>
<linearGradient id="paint4_linear_28_30443" x1="156.601" y1="101.897" x2="169.667" y2="102.504" gradientUnits="userSpaceOnUse">
<stop stop-color="#15466F"/>
<stop offset="1" stop-color="#3387CA"/>
</linearGradient>
<linearGradient id="paint5_linear_28_30443" x1="156.601" y1="121.193" x2="169.667" y2="121.8" gradientUnits="userSpaceOnUse">
<stop stop-color="#15466F"/>
<stop offset="1" stop-color="#3387CA"/>
</linearGradient>
<linearGradient id="paint6_linear_28_30443" x1="130.462" y1="270.107" x2="191.742" y2="279.058" gradientUnits="userSpaceOnUse">
<stop stop-color="#15466F"/>
<stop offset="1" stop-color="#3387CA"/>
</linearGradient>
<linearGradient id="paint7_linear_28_30443" x1="139.963" y1="218.26" x2="158.094" y2="218.337" gradientUnits="userSpaceOnUse">
<stop stop-color="#15466F"/>
<stop offset="1" stop-color="#3387CA"/>
</linearGradient>
<linearGradient id="paint8_linear_28_30443" x1="333.701" y1="133.984" x2="427.629" y2="135.348" gradientUnits="userSpaceOnUse">
<stop stop-color="#15466F"/>
<stop offset="1" stop-color="#3387CA"/>
</linearGradient>
<linearGradient id="paint9_linear_28_30443" x1="286.946" y1="270.108" x2="348.227" y2="279.059" gradientUnits="userSpaceOnUse">
<stop stop-color="#15466F"/>
<stop offset="1" stop-color="#3387CA"/>
</linearGradient>
<linearGradient id="paint10_linear_28_30443" x1="296.447" y1="218.26" x2="314.579" y2="218.338" gradientUnits="userSpaceOnUse">
<stop stop-color="#15466F"/>
<stop offset="1" stop-color="#3387CA"/>
</linearGradient>
</defs>
</svg>
