<svg width="398" height="338" viewBox="0 0 398 338" fill="none" xmlns="http://www.w3.org/2000/svg">
<path fill-rule="evenodd" clip-rule="evenodd" d="M165.879 151.764H202.465C202.196 150.648 201.213 149.822 200.006 149.822C199.939 149.822 199.895 149.822 199.827 149.822C199.246 148.416 197.861 147.412 196.229 147.412C195.514 147.412 194.844 147.613 194.285 147.925C193.592 145.627 191.446 143.953 188.921 143.953C188.407 143.953 187.915 144.02 187.446 144.154C186.217 141.453 183.512 139.579 180.339 139.579C176.584 139.579 173.455 142.212 172.718 145.738C172.651 145.738 172.584 145.738 172.539 145.738C170.148 145.738 168.159 147.523 167.868 149.844C166.885 150.045 166.102 150.804 165.879 151.764Z" fill="white"/>
<path fill-rule="evenodd" clip-rule="evenodd" d="M218.043 82.5139H249.399C249.176 81.5542 248.326 80.8624 247.298 80.8624C247.253 80.8624 247.209 80.8624 247.142 80.8624C246.65 79.6573 245.466 78.7869 244.058 78.7869C243.454 78.7869 242.873 78.9431 242.381 79.2333C241.778 77.2694 239.945 75.8411 237.777 75.8411C237.33 75.8411 236.906 75.908 236.503 76.0196C235.453 73.6986 233.129 72.0918 230.424 72.0918C227.206 72.0918 224.524 74.3458 223.898 77.3809C223.854 77.3809 223.787 77.3809 223.742 77.3809C221.686 77.3809 219.987 78.9208 219.742 80.907C218.892 81.0633 218.222 81.6881 218.043 82.5139Z" fill="white"/>
<path d="M196.499 338C300.318 338 384.479 335.203 384.479 331.752C384.479 328.301 300.318 325.503 196.499 325.503C92.681 325.503 8.51953 328.301 8.51953 331.752C8.51953 335.203 92.681 338 196.499 338Z" fill="#D2DFEE"/>
<path fill-rule="evenodd" clip-rule="evenodd" d="M385.527 193.497C379.918 287.653 282.408 322.043 176.405 322.043C133.942 322.043 93.914 313.585 62.7591 297.361C62.692 295.865 62.625 294.392 62.625 292.875C62.625 221.46 150.793 163.547 259.544 163.547C307.484 163.57 351.378 174.817 385.527 193.497Z" fill="#BBDBFA"/>
<path fill-rule="evenodd" clip-rule="evenodd" d="M218.289 320.124C204.611 321.418 190.576 322.043 176.407 322.043C73.9798 322.043 -14.3446 272.879 1.94806 183.878C6.64141 183.61 11.3571 183.454 16.1399 183.454C114.298 183.454 196.543 241.746 218.289 320.124Z" fill="#A4D0FC"/>
<path fill-rule="evenodd" clip-rule="evenodd" d="M74.0667 117.975C72.9493 117.462 66.8926 117.574 60.8359 118.801C61.4841 117.819 61.9981 116.547 62.378 114.962C73.1951 113.333 72.1223 110.678 71.7424 109.45C69.5522 103.648 68.2336 99.9877 69.8204 98.247C70.6249 98.6264 72.3235 99.4967 72.994 102.063C73.6644 101.662 74.536 101.104 74.6478 100.322C74.8936 98.0015 74.8266 93.181 77.4862 92.7793C78.0002 94.8994 78.4695 97.1534 78.8942 99.5414C79.9669 100.389 83.9674 115.654 74.0891 116.971L74.0667 117.975Z" fill="#FFB27D"/>
<path fill-rule="evenodd" clip-rule="evenodd" d="M71.6988 109.472C72.1011 110.677 70.112 113.333 62.1333 115.788C60.9264 115.609 59.9654 114.426 58.8926 113.913C55.6073 112.396 53.0595 109.829 52.5455 108.468C46.2206 97.9118 52.0985 92.8681 55.2944 90.9489C56.0096 80.0135 72.414 88.494 79.9457 82.7139C83.3875 86.8202 79.8786 92.5111 77.4425 92.7789C74.783 93.1806 74.8724 98.0011 74.6042 100.322C74.4924 101.103 73.6208 101.639 72.9503 102.063C72.481 100.255 71.5647 99.4517 70.7601 98.9161C70.0449 98.4474 69.8661 98.2019 69.4862 99.0053C68.5699 100.925 69.7544 104.25 71.6988 109.472Z" fill="#0C1923"/>
<path fill-rule="evenodd" clip-rule="evenodd" d="M55.4284 93.5601C56.5906 92.288 56.747 91.2168 55.9425 90.3464C53.4841 90.0117 51.4056 90.5696 49.707 92.0425C50.9362 91.7524 52.8359 92.2657 55.4284 93.5601Z" fill="#0C1923"/>
<path fill-rule="evenodd" clip-rule="evenodd" d="M57.5525 91.3738C56.9937 92.5119 56.2786 92.9136 55.474 92.5789C54.58 90.972 54.4236 89.3875 54.9823 87.8477C55.0941 88.7627 55.9433 89.9455 57.5525 91.3738Z" fill="#0C1923"/>
<path fill-rule="evenodd" clip-rule="evenodd" d="M58.0217 86.263C57.9546 89.2311 59.4744 90.9496 62.5809 91.4629C68.0118 89.6105 71.1183 86.7986 71.9006 83.0493C70.0009 84.6115 65.3746 85.705 58.0217 86.263Z" fill="#0C1923"/>
<path fill-rule="evenodd" clip-rule="evenodd" d="M56.9688 111.862C57.5051 108.804 59.8295 107.265 63.9417 107.287C73.1496 101.462 72.1439 109.652 71.6299 114.585C69.5514 112.621 66.3554 113.692 56.9688 111.862Z" fill="#0C1923"/>
<path fill-rule="evenodd" clip-rule="evenodd" d="M69.846 113.4C69.1085 111.928 67.5664 111.437 65.2197 111.972C58.9842 110.098 60.7722 114.137 61.8897 116.636C62.806 115.387 64.7727 115.521 69.846 113.4Z" fill="#0C1923"/>
<path fill-rule="evenodd" clip-rule="evenodd" d="M43.3827 127.929C46.3775 125.117 54.7361 122.037 59.72 120.52C64.9274 119.85 70.6265 119.56 76.7949 119.649C87.232 119.56 98.4513 119.649 110.453 119.984C122.298 114.226 125.449 113.735 131.439 111.013C133.204 110.209 136.423 108.513 139.015 107.129C140.2 107.732 141.697 110.365 142.189 112.597C129.606 124.671 121.538 129.446 116.934 132.08C108.039 134.49 99.4794 135.785 92.9534 136.432C91.0984 148.394 89.6681 159.909 88.707 171.001C90.6961 182.695 91.6348 190.662 91.5231 194.88C73.2413 197.581 58.5578 197.647 47.495 195.103C47.8078 191.756 49.1935 187.047 50.0428 183.454C48.8359 168.457 46.9139 158.704 45.8635 151.786C42.4664 158.637 39.2704 163.815 36.2756 167.274C38.6223 173.322 40.8349 180.753 42.9134 189.546C41.6171 191.242 39.7845 192.403 37.3931 193.006C34.4877 187.962 28.1628 176.424 26.5313 167.832C25.3245 160.936 39.1587 133.33 43.3827 127.929Z" fill="url(#paint0_linear_28_30609)"/>
<path fill-rule="evenodd" clip-rule="evenodd" d="M61.1054 118.556C60.502 119.137 59.8986 119.806 59.3398 120.632L59.7198 120.52C64.7931 119.873 70.3133 119.561 76.2806 119.65C75.6772 118.869 75.029 118.199 74.4256 117.731C73.3305 117.195 67.2068 117.307 61.1054 118.556Z" fill="url(#paint1_linear_28_30609)"/>
<path fill-rule="evenodd" clip-rule="evenodd" d="M142.053 112.128C145.182 110.588 147.618 109.539 149.339 107.91C149.965 105.924 151.172 105.857 150.859 104.116C153.742 100.724 154.412 100.657 155.753 100.032C154.569 98.1353 151.887 99.6529 147.506 103.915C144.534 105.656 143.26 105.277 143.707 102.8C145.495 101.081 145.473 99.6306 144.936 98.8271C144.69 99.0503 143.729 100.211 142.009 102.018C140.779 103.96 139.885 105.768 139.93 106.727C139.885 107.062 139.774 107.33 139.617 107.575C140.556 108.49 141.584 110.387 142.053 112.128Z" fill="#FFB27D"/>
<path fill-rule="evenodd" clip-rule="evenodd" d="M42.3303 190.216C43.5819 191.756 45.124 192.559 47.493 194.858L47.4707 195.103L47.8506 195.193C48.387 195.728 48.9681 196.308 49.5715 197.023C48.3199 198.027 46.7331 197.335 44.8111 194.969C44.7217 197.603 45.4145 199.567 46.8672 200.861C47.6048 201.687 48.1858 202.334 48.6328 202.78C47.2472 205.146 44.3641 204.209 39.9837 199.991C39.112 198.339 39.2014 196.732 38.6874 195.237C38.4863 194.478 38.2404 193.742 37.8828 192.872C39.7155 192.314 41.1905 191.443 42.3303 190.216Z" fill="#FFB27D"/>
<path fill-rule="evenodd" clip-rule="evenodd" d="M48.9487 195.415C46.7584 210.212 45.7304 233.533 45.8868 256.051C43.786 266.741 43.8754 283.813 46.222 318.427C50.3343 319.253 53.9102 319.409 56.9274 318.918C62.2912 286.603 64.3473 269.776 63.0734 257.234C64.7049 248.24 66.9622 231.725 69.8229 218.871C72.6836 231.725 74.9185 248.24 76.5724 257.234C75.2985 269.754 77.3546 286.603 82.7184 318.918C85.7356 319.431 89.3115 319.253 93.4237 318.427C95.7481 283.791 95.8598 266.718 93.759 256.051C93.8931 233.354 92.865 209.81 90.6301 195.014C73.5105 197.469 59.6316 197.602 48.9487 195.415Z" fill="url(#paint2_linear_28_30609)"/>
<path fill-rule="evenodd" clip-rule="evenodd" d="M84.4822 325.144C83.4541 325.948 83.2083 329.63 84.0352 332.442C87.3876 333.937 90.673 333.535 93.8689 331.996C95.4781 331.371 97.4448 330.299 97.4001 329.139C97.333 326.93 97.2884 326.885 92.7515 324.542C92.8185 324.988 92.8855 325.39 92.9749 325.769C92.7738 326.282 92.3715 326.684 91.6116 326.193C90.7847 325.657 91.0752 323.894 88.7062 323.85C86.7618 323.827 86.7395 325.68 85.7785 326.305C84.7504 327.041 84.5269 325.97 84.4822 325.144Z" fill="#0C1923"/>
<path fill-rule="evenodd" clip-rule="evenodd" d="M55.2066 325.144C56.2347 325.948 56.4806 329.63 55.6536 332.442C52.3012 333.937 49.0159 333.535 45.82 331.996C45.3283 331.75 43.3839 331.125 43.2274 330.59C42.6687 328.693 43.1604 326.193 46.9598 324.542C46.8927 324.988 46.8257 325.412 46.7363 325.769C46.9374 326.282 47.3397 326.684 48.0996 326.193C48.9265 325.657 48.636 323.894 51.005 323.85C52.9494 323.827 52.9717 325.68 53.9327 326.305C54.9385 327.041 55.162 325.948 55.2066 325.144Z" fill="#0C1923"/>
<path fill-rule="evenodd" clip-rule="evenodd" d="M84.3945 319.119C84.7521 321.864 84.8415 324.207 84.6851 326.171C84.8639 326.55 85.1991 326.729 85.8025 326.305C86.7636 325.68 86.7635 323.828 88.7303 323.85C91.077 323.895 90.8088 325.635 91.6357 326.193C92.3956 326.684 92.7979 326.283 92.999 325.769C92.6414 324.073 92.4179 321.685 92.3509 318.628C89.3784 319.164 86.7412 319.32 84.3945 319.119Z" fill="#FFB27D"/>
<path fill-rule="evenodd" clip-rule="evenodd" d="M55.2931 319.119C54.9355 321.864 54.8461 324.207 55.0025 326.171C54.8237 326.55 54.4885 326.707 53.9074 326.305C52.9464 325.68 52.9464 323.828 50.9797 323.85C48.633 323.895 48.9012 325.635 48.0743 326.193C47.3144 326.684 46.9121 326.283 46.7109 325.769C47.0685 324.073 47.292 321.685 47.3591 318.628C50.3092 319.141 52.9464 319.32 55.2931 319.119Z" fill="#FFB27D"/>
<path fill-rule="evenodd" clip-rule="evenodd" d="M92.9314 136.409C91.5904 140.694 84.1705 170.398 82.2931 171.715C77.0187 175.397 73.264 178.142 71.0515 179.95C75.3649 177.517 79.0078 175.821 81.4439 174.058C89.5343 168.256 88.7521 184.19 91.501 194.88C91.5904 190.64 90.6518 182.695 88.685 171.001C89.646 159.909 91.0764 148.371 92.9314 136.409ZM113.18 118.645C114.834 119.471 116.108 120.43 117.024 121.457C115.035 120.676 112.822 120.185 110.431 119.962C111.414 119.493 112.331 119.069 113.18 118.645ZM44.9922 146.073C45.0592 147.278 45.3498 149.175 45.8638 151.786C46.8919 158.726 48.8363 168.457 50.0431 183.454C49.1939 187.047 47.8305 191.756 47.4953 195.103C47.7188 195.148 47.9647 195.215 48.1881 195.26C48.6128 193.184 49.4844 190.439 50.803 187.025C52.0099 183.856 53.4179 186.02 57.6419 187.27C52.2557 182.516 53.3955 184.012 52.0546 176.848C49.842 165.065 47.473 154.799 44.9922 146.073Z" fill="url(#paint3_linear_28_30609)"/>
<path fill-rule="evenodd" clip-rule="evenodd" d="M291.973 0.00760958C311.708 0.453951 336.068 12.5944 336.068 41.8968C336.068 71.1991 313.026 83.7413 291.973 83.7859C281.983 83.8082 271.546 79.8581 263.836 72.9398C255.276 65.2851 249.979 54.0372 250.024 41.8968C250.068 28.4842 256.706 16.0982 266.808 8.37651C274.161 2.79724 283.682 -0.170927 291.973 0.00760958Z" fill="url(#paint4_linear_28_30609)"/>
<path fill-rule="evenodd" clip-rule="evenodd" d="M291.974 2.06152C314.011 2.06152 331.89 19.9152 331.89 41.9198C331.89 63.9245 314.011 81.7781 291.974 81.7781C269.938 81.7781 252.059 63.9245 252.059 41.9198C252.059 19.8929 269.938 2.06152 291.974 2.06152Z" fill="#D4E8FA"/>
<path fill-rule="evenodd" clip-rule="evenodd" d="M291.976 15.4512C306.615 15.4512 318.46 27.3015 318.46 41.8969C318.46 56.5146 306.593 68.3426 291.976 68.3426C277.337 68.3426 265.492 56.4923 265.492 41.8969C265.492 27.3015 277.337 15.4512 291.976 15.4512Z" fill="#DFEDFA"/>
<path fill-rule="evenodd" clip-rule="evenodd" d="M291.661 28.7744C299.104 28.7744 305.138 34.8 305.138 42.2316C305.138 49.6632 299.104 55.6888 291.661 55.6888C284.219 55.6888 278.207 49.6632 278.207 42.2316C278.207 34.8 284.241 28.7744 291.661 28.7744Z" fill="url(#paint5_linear_28_30609)"/>
<path fill-rule="evenodd" clip-rule="evenodd" d="M288.242 43.0573C296.288 43.3475 309.675 39.9329 311.798 39.3973C335.511 33.2378 352.429 28.8637 376.142 22.7042C377.259 22.414 377.907 21.142 377.572 19.8922C377.237 18.6425 376.052 17.839 374.935 18.1292C351.222 24.2887 334.304 28.6628 310.569 34.8223C308.468 35.3579 295.126 38.884 288.242 43.0573Z" fill="#D6E6F3"/>
<path fill-rule="evenodd" clip-rule="evenodd" d="M311.397 37.8792L375.763 21.186C376.881 20.8959 377.707 20.3156 377.596 19.8916C377.931 21.1414 377.283 22.4134 376.165 22.7035L373.662 23.3507L368.745 24.6228L363.829 25.8949L358.912 27.167L353.995 28.439L311.822 39.3744C309.699 39.9323 296.334 43.3245 288.266 43.0344C295.909 41.8739 309.274 38.4148 311.397 37.8792Z" fill="#D4E8FA"/>
<path fill-rule="evenodd" clip-rule="evenodd" d="M353.949 28.4631L362.42 35.8278C363.157 36.475 364.722 36.7651 365.906 36.4527L381.662 32.3686C382.646 32.1008 382.936 31.4536 382.31 30.8957L373.639 23.3525L353.949 28.4631Z" fill="url(#paint6_linear_28_30609)"/>
<path fill-rule="evenodd" clip-rule="evenodd" d="M352.762 23.8861L356.583 13.3301C356.919 12.3928 358.148 11.3885 359.31 11.0984L375.066 7.01438C376.05 6.74658 376.631 7.19292 376.34 7.99633L372.429 18.7978L352.762 23.8861Z" fill="url(#paint7_linear_28_30609)"/>
<path fill-rule="evenodd" clip-rule="evenodd" d="M358.511 230.99C357.862 230.164 356.991 229.539 356.097 228.981C355.873 228.825 355.516 228.936 355.404 229.182C354.711 230.454 354.085 231.748 353.303 232.976C353.035 233.378 352.677 233.913 352.342 234.136C352.32 234.159 352.23 234.181 352.208 234.203C352.208 234.203 352.208 234.181 352.186 234.181C352.119 234.092 352.074 233.98 352.052 233.869C351.448 231.994 352.186 229.985 351.694 228.111C351.448 227.106 350.8 226.08 350.085 225.343C349.303 224.562 348.252 224.183 347.761 223.112C347.694 222.956 347.559 222.866 347.403 222.866H347.314C347.135 222.889 346.956 222.978 346.867 223.112C345.749 224.719 344.162 226.392 343.849 228.423C343.581 230.231 344.565 231.726 345.593 233.087C346.084 233.735 346.598 234.426 346.978 235.141C347.202 235.542 347.559 236.279 347.179 236.68C346.777 237.105 346.151 236.346 345.816 236.011C345.146 235.319 344.587 234.56 344.028 233.802C343.09 232.552 341.57 230.655 339.782 230.99C339 231.146 338.664 231.949 338.642 232.663C338.575 233.779 339.134 235.007 339.67 235.944C340.922 238.086 343.47 238.711 345.123 240.43C345.503 240.831 346.531 242.193 345.95 242.751C345.749 242.952 345.257 242.885 345.012 242.84C344.408 242.751 343.76 242.528 343.268 242.148C341.436 240.72 340.765 238.243 338.821 236.904C337.972 236.323 336.653 235.944 335.647 236.19C334.776 236.39 334.373 237.216 334.351 238.02C334.306 239.024 334.753 240.028 335.267 240.876C335.848 241.836 336.653 242.639 337.614 243.197C339.558 244.313 342.039 244.447 343.335 246.478C343.514 246.745 343.715 247.125 343.626 247.46C343.559 247.727 343.179 247.817 342.955 247.861C341.95 248.085 340.631 247.705 339.76 247.236C338.687 246.679 337.927 245.652 337.1 244.804C336.228 243.911 335.29 243.175 334.083 242.795C333.211 242.528 332.138 242.572 331.557 243.398C331.043 244.157 331.155 245.161 331.356 245.987C331.647 247.103 332.228 248.107 332.988 248.977C333.792 249.915 335.044 250.428 336.184 250.807C337.368 251.209 338.575 251.432 339.737 251.878C340.05 251.99 340.274 252.079 340.609 252.102C340.966 252.124 341.324 252.102 341.682 252.191C341.972 252.258 341.771 252.57 341.682 252.793C341.436 253.307 340.676 253.284 340.184 253.329C339.715 253.374 339.268 253.485 338.798 253.485C338.262 253.485 337.748 253.396 337.212 253.307C336.184 253.15 335.089 252.972 334.06 253.284C333.077 253.597 332.384 254.512 332.205 255.516C331.826 257.614 334.172 258.886 335.915 259.154C337.033 259.332 338.039 259.087 339.022 258.529C340.229 257.837 341.168 256.855 342.576 256.699C342.665 257.257 342.464 257.703 341.972 258.127C341.302 258.707 340.341 259.02 339.536 259.31C337.927 259.913 335.536 260.448 334.686 262.122C334.574 262.323 334.597 262.568 334.776 262.747C335.535 263.483 336.429 264.064 337.502 264.13C338.396 264.197 339.268 263.796 340.005 263.305C341.302 262.434 342.419 261.118 343.872 260.493C343.671 260.872 343.335 261.118 342.933 261.43C342.196 261.988 341.838 262.769 341.637 263.662C341.324 265.001 341.793 266.451 343.38 266.451C344.229 266.451 345.101 266.027 345.816 265.603C346.643 265.112 347.291 264.398 347.805 263.595C348.431 262.613 348.789 261.452 348.99 260.292C350.308 262.858 353.169 265.514 355.851 263.305C358.153 261.408 354.354 259.957 352.856 258.484C353.147 258.596 353.437 258.752 353.705 258.886C354.488 259.288 355.248 259.734 356.052 260.046C357.572 260.671 359.27 260.604 360.187 259.042C360.969 257.703 359.338 257.078 358.332 256.766C357.527 256.52 355.985 256.253 355.404 255.449C357.415 255.672 359.65 255.918 361.394 254.757C362.176 254.222 363.115 253.217 363.226 252.236C363.293 251.432 362.422 251.142 361.796 251.075C360.075 250.896 358.421 251.655 356.7 251.611C356.298 251.588 355.873 251.544 355.471 251.454C355.315 251.41 355.158 251.387 355.024 251.32C354.979 251.298 354.912 251.254 354.868 251.231C354.868 251.209 354.89 251.187 354.912 251.142C355.069 250.963 355.27 250.83 355.449 250.696C355.896 250.405 356.343 250.249 356.879 250.182C357.885 250.071 358.868 250.205 359.874 250.026C360.991 249.825 361.908 249.178 362.645 248.352C363.293 247.616 363.941 246.679 364.031 245.674C364.143 244.625 363.494 243.934 362.578 243.576C359.963 242.572 358.444 245.273 356.589 246.5C356.097 246.835 355.516 247.036 354.957 247.214C354.734 247.281 354.063 247.527 353.84 247.348C353.705 247.236 354.152 246.522 354.242 246.388C354.622 245.786 355.091 245.362 355.717 245.005C357.281 244.112 359.181 243.844 360.388 242.438C361.192 241.523 361.818 239.961 361.036 238.823C360.209 237.64 358.332 237.953 357.281 238.644C355.963 239.515 355.292 241.278 353.705 241.702C353.571 240.943 353.862 240.251 354.376 239.582C355.113 238.6 356.074 237.796 356.968 236.948C357.818 236.145 358.689 235.252 359.114 234.136C359.539 233.087 359.248 231.927 358.511 230.99Z" fill="url(#paint8_linear_28_30609)"/>
<path fill-rule="evenodd" clip-rule="evenodd" d="M397.821 267.233C398.066 266.206 398.022 265.135 397.91 264.108C397.888 263.841 397.597 263.617 397.329 263.684C395.899 263.93 394.491 264.242 393.038 264.376C392.569 264.421 391.92 264.465 391.54 264.354C391.518 264.354 391.429 264.309 391.384 264.287V264.265C391.429 264.153 391.473 264.064 391.54 263.974C392.636 262.345 394.669 261.676 395.854 260.136C396.48 259.31 396.904 258.172 397.038 257.168C397.173 256.074 396.815 255.025 397.351 253.976C397.552 253.597 397.15 253.262 396.793 253.285C394.826 253.396 392.524 253.195 390.758 254.222C389.171 255.115 388.613 256.811 388.166 258.484C387.965 259.288 387.741 260.091 387.406 260.85C387.227 261.274 386.869 262.011 386.333 261.944C385.752 261.877 385.953 260.939 386.02 260.471C386.154 259.533 386.422 258.618 386.646 257.681C387.048 256.163 387.607 253.82 386.221 252.615C385.618 252.102 384.769 252.347 384.188 252.749C383.271 253.396 382.645 254.579 382.243 255.583C381.327 257.904 382.422 260.27 382.087 262.635C381.997 263.171 381.573 264.823 380.768 264.711C380.478 264.666 380.232 264.265 380.12 264.041C379.829 263.506 379.584 262.859 379.584 262.256C379.561 259.935 381.103 257.882 380.947 255.516C380.88 254.49 380.366 253.24 379.539 252.593C378.846 252.035 377.952 252.236 377.282 252.704C376.477 253.285 375.941 254.267 375.605 255.182C375.203 256.23 375.069 257.346 375.248 258.462C375.583 260.672 376.991 262.702 376.209 264.979C376.097 265.291 375.941 265.671 375.605 265.804C375.36 265.916 375.069 265.671 374.89 265.537C374.108 264.889 373.572 263.64 373.393 262.658C373.169 261.475 373.505 260.225 373.683 259.065C373.862 257.837 373.84 256.632 373.393 255.449C373.058 254.601 372.365 253.776 371.359 253.843C370.443 253.909 369.728 254.601 369.191 255.293C368.498 256.186 368.074 257.302 367.85 258.418C367.627 259.623 367.984 260.939 368.387 262.055C368.811 263.216 369.37 264.332 369.75 265.514C369.839 265.827 369.929 266.072 370.13 266.34C370.331 266.63 370.577 266.92 370.711 267.233C370.845 267.501 370.465 267.545 370.242 267.612C369.683 267.746 369.236 267.121 368.901 266.764C368.588 266.429 368.208 266.139 367.917 265.782C367.582 265.358 367.336 264.889 367.068 264.443C366.554 263.528 366.018 262.569 365.146 261.966C364.297 261.386 363.135 261.408 362.241 261.877C360.363 262.881 360.81 265.514 361.682 267.032C362.241 268.014 363.045 268.661 364.096 269.085C365.369 269.621 366.733 269.755 367.738 270.737C367.359 271.138 366.889 271.272 366.241 271.138C365.369 270.96 364.543 270.424 363.783 269.955C362.308 269.063 360.43 267.523 358.575 267.88C358.352 267.925 358.173 268.103 358.151 268.326C358.061 269.375 358.151 270.424 358.754 271.339C359.246 272.076 360.117 272.522 360.944 272.79C362.419 273.281 364.163 273.325 365.548 274.106C365.124 274.173 364.721 274.062 364.23 273.95C363.336 273.727 362.486 273.928 361.659 274.307C360.408 274.888 359.559 276.16 360.542 277.387C361.078 278.057 361.95 278.481 362.732 278.771C363.626 279.105 364.587 279.172 365.526 279.083C366.688 278.972 367.806 278.525 368.856 277.967C367.649 280.578 367.314 284.484 370.733 285.22C373.639 285.845 372.432 281.984 372.678 279.887C372.767 280.199 372.834 280.511 372.879 280.802C373.058 281.672 373.169 282.52 373.415 283.368C373.862 284.953 374.98 286.247 376.768 286.001C378.31 285.778 377.796 284.127 377.416 283.145C377.103 282.364 376.365 281.002 376.634 280.02C377.706 281.739 378.891 283.636 380.88 284.283C381.774 284.573 383.159 284.685 383.986 284.149C384.657 283.703 384.344 282.855 384.009 282.319C383.07 280.868 381.461 280.02 380.433 278.637C380.187 278.302 379.964 277.945 379.785 277.588C379.718 277.454 379.651 277.298 379.628 277.142C379.606 277.097 379.606 277.008 379.606 276.963C379.628 276.963 379.651 276.941 379.695 276.941C379.919 276.941 380.165 277.03 380.388 277.097C380.88 277.253 381.305 277.521 381.684 277.9C382.377 278.614 382.914 279.485 383.651 280.154C384.5 280.913 385.573 281.226 386.691 281.293C387.674 281.359 388.814 281.27 389.663 280.735C390.557 280.177 390.714 279.239 390.423 278.28C389.596 275.624 386.534 276.093 384.411 275.378C383.852 275.2 383.316 274.865 382.847 274.53C382.645 274.397 382.042 274.017 382.064 273.727C382.064 273.548 382.891 273.459 383.048 273.437C383.763 273.348 384.389 273.459 385.037 273.727C386.691 274.397 388.099 275.713 389.954 275.803C391.183 275.869 392.792 275.401 393.194 274.084C393.619 272.7 392.211 271.428 391.004 271.027C389.507 270.536 387.696 271.094 386.378 270.112C386.892 269.531 387.607 269.331 388.456 269.331C389.685 269.308 390.915 269.554 392.122 269.732C393.284 269.888 394.513 270.022 395.653 269.688C396.815 269.308 397.53 268.371 397.821 267.233Z" fill="url(#paint9_linear_28_30609)"/>
<path fill-rule="evenodd" clip-rule="evenodd" d="M327.958 238.867C326.974 238.487 325.901 238.398 324.851 238.376C324.583 238.376 324.337 238.621 324.337 238.911C324.404 240.362 324.538 241.79 324.493 243.241C324.471 243.71 324.426 244.357 324.27 244.736C324.27 244.758 324.203 244.825 324.18 244.87H324.158C324.046 244.825 323.979 244.758 323.89 244.669C322.393 243.375 322.013 241.277 320.627 239.916C319.889 239.202 318.817 238.621 317.833 238.376C316.761 238.108 315.665 238.331 314.704 237.662C314.347 237.416 313.967 237.773 313.945 238.13C313.81 240.094 313.319 242.348 314.101 244.223C314.794 245.897 316.403 246.678 317.99 247.325C318.772 247.637 319.532 247.95 320.247 248.374C320.649 248.619 321.342 249.043 321.208 249.579C321.074 250.137 320.158 249.824 319.711 249.713C318.794 249.467 317.9 249.088 317.029 248.731C315.576 248.151 313.296 247.28 311.955 248.508C311.352 249.043 311.508 249.914 311.821 250.539C312.335 251.543 313.43 252.279 314.414 252.815C316.604 253.998 319.107 253.217 321.387 253.864C321.923 254.02 323.51 254.645 323.287 255.426C323.219 255.694 322.772 255.895 322.527 255.984C321.968 256.207 321.275 256.363 320.672 256.296C318.347 256.029 316.515 254.243 314.146 254.087C313.118 254.02 311.799 254.377 311.061 255.114C310.436 255.738 310.503 256.631 310.883 257.368C311.352 258.238 312.268 258.885 313.118 259.354C314.101 259.867 315.196 260.157 316.336 260.135C318.593 260.09 320.783 258.93 322.929 260.023C323.219 260.18 323.577 260.38 323.689 260.715C323.756 260.983 323.488 261.251 323.331 261.385C322.594 262.099 321.275 262.456 320.269 262.501C319.063 262.568 317.878 262.077 316.738 261.764C315.531 261.429 314.324 261.295 313.118 261.608C312.224 261.831 311.33 262.411 311.263 263.416C311.196 264.331 311.821 265.134 312.425 265.737C313.229 266.54 314.28 267.098 315.353 267.455C316.515 267.834 317.856 267.633 319.04 267.388C320.247 267.12 321.409 266.696 322.638 266.473C322.951 266.406 323.197 266.361 323.51 266.205C323.823 266.049 324.136 265.848 324.471 265.737C324.762 265.647 324.762 266.027 324.784 266.25C324.851 266.808 324.18 267.187 323.778 267.477C323.398 267.745 323.063 268.08 322.683 268.325C322.236 268.593 321.722 268.794 321.23 268.995C320.269 269.397 319.241 269.798 318.526 270.579C317.833 271.338 317.722 272.499 318.079 273.436C318.839 275.422 321.499 275.311 323.13 274.641C324.181 274.217 324.918 273.481 325.477 272.521C326.17 271.316 326.46 269.999 327.578 269.129C327.935 269.553 328.002 270.044 327.801 270.646C327.511 271.494 326.862 272.231 326.326 272.923C325.253 274.262 323.488 275.935 323.599 277.832C323.622 278.056 323.756 278.279 324.002 278.323C325.03 278.547 326.103 278.591 327.064 278.123C327.868 277.721 328.404 276.917 328.784 276.136C329.455 274.73 329.723 273.012 330.662 271.74C330.684 272.164 330.528 272.543 330.327 273.034C329.991 273.882 330.081 274.753 330.349 275.623C330.774 276.917 331.913 277.922 333.277 277.118C334.014 276.672 334.528 275.868 334.93 275.132C335.377 274.284 335.579 273.347 335.601 272.387C335.623 271.204 335.333 270.044 334.908 268.95C337.344 270.468 341.188 271.293 342.35 268.013C343.356 265.201 339.356 265.915 337.3 265.402C337.612 265.357 337.948 265.335 338.238 265.313C339.11 265.246 340.004 265.246 340.853 265.112C342.485 264.866 343.915 263.929 343.893 262.121C343.87 260.559 342.149 260.871 341.144 261.117C340.317 261.318 338.864 261.876 337.948 261.474C339.78 260.626 341.836 259.689 342.708 257.814C343.11 256.966 343.401 255.605 342.976 254.712C342.619 253.975 341.725 254.176 341.166 254.444C339.602 255.181 338.573 256.676 337.054 257.524C336.696 257.725 336.316 257.903 335.936 258.037C335.78 258.082 335.646 258.126 335.489 258.149C335.422 258.149 335.355 258.149 335.31 258.149C335.31 258.126 335.31 258.104 335.31 258.059C335.355 257.836 335.445 257.613 335.556 257.412C335.78 256.944 336.093 256.564 336.517 256.229C337.322 255.627 338.238 255.225 338.998 254.556C339.847 253.819 340.294 252.793 340.518 251.699C340.697 250.717 340.764 249.601 340.339 248.686C339.892 247.727 338.976 247.459 337.992 247.637C335.243 248.128 335.31 251.208 334.349 253.217C334.104 253.752 333.701 254.221 333.299 254.667C333.143 254.846 332.673 255.381 332.405 255.359C332.226 255.337 332.249 254.511 332.249 254.333C332.249 253.618 332.45 253.016 332.807 252.391C333.679 250.829 335.176 249.624 335.489 247.794C335.713 246.588 335.445 244.915 334.193 244.357C332.852 243.754 331.422 245.004 330.885 246.142C330.192 247.57 330.55 249.423 329.388 250.606C328.874 250.025 328.784 249.289 328.874 248.441C329.008 247.213 329.41 246.031 329.723 244.87C330.036 243.732 330.304 242.527 330.125 241.366C329.902 240.139 329.075 239.291 327.958 238.867Z" fill="url(#paint10_linear_28_30609)"/>
<path fill-rule="evenodd" clip-rule="evenodd" d="M378.02 253.039C377.886 251.99 377.439 251.008 376.947 250.093C376.813 249.847 376.478 249.758 376.232 249.914C375.003 250.673 373.796 251.477 372.5 252.146C372.075 252.369 371.494 252.637 371.092 252.682C371.069 252.682 370.98 252.682 370.935 252.682V252.659C370.935 252.548 370.957 252.436 370.98 252.325C371.382 250.405 373.036 249.044 373.572 247.169C373.84 246.187 373.818 244.96 373.572 243.978C373.304 242.907 372.567 242.059 372.678 240.898C372.723 240.474 372.209 240.296 371.896 240.452C370.108 241.278 367.896 241.947 366.622 243.554C365.482 244.982 365.571 246.768 365.795 248.464C365.906 249.289 365.996 250.115 365.951 250.941C365.929 251.41 365.884 252.213 365.348 252.369C364.789 252.525 364.633 251.566 364.498 251.119C364.275 250.204 364.186 249.245 364.051 248.307C363.85 246.745 363.515 244.357 361.794 243.755C361.034 243.487 360.341 244.045 359.962 244.625C359.336 245.562 359.202 246.879 359.224 247.973C359.246 250.45 361.124 252.258 361.682 254.579C361.817 255.114 362.018 256.81 361.236 256.989C360.967 257.056 360.565 256.766 360.386 256.609C359.917 256.23 359.448 255.717 359.224 255.137C358.352 252.994 359.001 250.517 358.017 248.374C357.593 247.437 356.632 246.477 355.626 246.165C354.777 245.92 354.017 246.411 353.57 247.102C353.033 247.928 352.899 249.044 352.922 250.026C352.944 251.142 353.234 252.235 353.793 253.217C354.933 255.159 356.989 256.52 357.101 258.93C357.123 259.265 357.101 259.667 356.855 259.935C356.654 260.136 356.296 260.024 356.073 259.935C355.089 259.622 354.151 258.64 353.614 257.792C352.989 256.766 352.832 255.494 352.542 254.355C352.251 253.15 351.782 252.034 350.932 251.097C350.307 250.428 349.346 249.937 348.452 250.338C347.625 250.718 347.2 251.655 346.977 252.481C346.664 253.574 346.664 254.757 346.887 255.873C347.111 257.078 347.938 258.149 348.72 259.042C349.547 259.979 350.485 260.783 351.268 261.742C351.469 261.988 351.648 262.189 351.916 262.367C352.206 262.568 352.542 262.724 352.787 262.992C353.011 263.215 352.676 263.372 352.475 263.505C352.005 263.84 351.357 263.416 350.91 263.215C350.485 263.014 350.038 262.881 349.636 262.657C349.167 262.39 348.765 262.055 348.362 261.72C347.558 261.073 346.686 260.359 345.658 260.113C344.652 259.868 343.58 260.336 342.931 261.095C341.546 262.724 342.931 265.001 344.317 266.094C345.189 266.808 346.194 267.098 347.312 267.098C348.698 267.121 350.016 266.741 351.312 267.299C351.111 267.835 350.709 268.103 350.083 268.214C349.212 268.371 348.228 268.17 347.379 268.013C345.68 267.723 343.356 266.987 341.769 268.013C341.568 268.147 341.456 268.371 341.523 268.594C341.814 269.62 342.306 270.558 343.177 271.16C343.915 271.673 344.876 271.74 345.747 271.696C347.312 271.606 348.943 271.004 350.508 271.205C350.15 271.428 349.726 271.473 349.212 271.54C348.295 271.673 347.58 272.164 346.954 272.812C346.016 273.816 345.703 275.311 347.044 276.092C347.781 276.516 348.742 276.583 349.569 276.583C350.53 276.561 351.447 276.271 352.296 275.847C353.346 275.311 354.218 274.485 354.978 273.57C354.821 276.449 355.961 280.176 359.403 279.618C362.353 279.127 359.783 275.981 359.246 273.95C359.448 274.195 359.604 274.463 359.783 274.731C360.252 275.467 360.699 276.226 361.236 276.918C362.241 278.212 363.739 279.016 365.325 278.123C366.689 277.342 365.594 276.003 364.878 275.222C364.297 274.597 363.113 273.615 363.001 272.611C364.633 273.816 366.443 275.133 368.521 275.021C369.46 274.954 370.801 274.552 371.36 273.749C371.829 273.079 371.226 272.41 370.712 272.031C369.304 271.026 367.493 270.848 366.041 269.933C365.683 269.71 365.348 269.464 365.057 269.196C364.945 269.085 364.834 268.973 364.744 268.862C364.7 268.817 364.677 268.75 364.677 268.705C364.7 268.683 364.722 268.683 364.767 268.661C364.99 268.571 365.236 268.571 365.459 268.549C365.996 268.527 366.465 268.594 366.957 268.817C367.873 269.219 368.678 269.843 369.616 270.178C370.689 270.58 371.784 270.468 372.857 270.111C373.796 269.799 374.824 269.308 375.405 268.482C376.031 267.634 375.83 266.697 375.204 265.938C373.438 263.773 370.779 265.335 368.544 265.447C367.963 265.492 367.337 265.38 366.778 265.246C366.555 265.201 365.839 265.045 365.75 264.777C365.683 264.621 366.421 264.22 366.577 264.153C367.203 263.818 367.829 263.684 368.544 263.684C370.332 263.684 372.12 264.398 373.885 263.796C375.047 263.394 376.388 262.367 376.254 261.006C376.12 259.555 374.354 258.908 373.103 258.975C371.516 259.064 370.063 260.269 368.477 259.823C368.745 259.109 369.326 258.663 370.108 258.328C371.248 257.859 372.477 257.636 373.662 257.346C374.801 257.078 375.986 256.743 376.925 256.007C377.841 255.36 378.176 254.222 378.02 253.039Z" fill="#A4D0FC"/>
<path fill-rule="evenodd" clip-rule="evenodd" d="M370.399 243.086C369.796 245.675 369.282 248.286 368.544 250.83C367.784 253.463 366.689 255.874 365.192 258.15C362.107 262.859 358.152 266.965 354.956 271.607C354.822 271.808 354.844 271.987 354.956 272.121C354.33 273.281 353.995 274.598 353.726 275.848C353.279 278.035 353.145 280.289 353.056 282.52C352.944 285.243 352.967 287.966 353.101 290.688C353.257 293.902 353.458 297.116 353.324 300.329C353.324 300.508 353.302 300.709 353.302 300.887C353.257 301.557 354.307 301.557 354.33 300.887C354.509 297.763 354.33 294.616 354.173 291.492C354.039 288.702 353.972 285.913 354.084 283.123C354.151 280.958 354.263 278.793 354.643 276.651C354.978 274.709 355.514 272.522 356.989 271.094C357.191 270.893 357.168 270.648 357.056 270.447C360.029 266.407 363.448 262.68 366.22 258.485C367.695 256.231 368.745 253.798 369.527 251.232C370.31 248.621 370.824 245.965 371.427 243.309C371.539 242.707 370.533 242.439 370.399 243.086Z" fill="url(#paint11_linear_28_30609)"/>
<path fill-rule="evenodd" clip-rule="evenodd" d="M353.549 301.087C352.99 296.066 350.688 291.58 348.297 287.228C345.928 282.898 343.425 278.524 342.687 273.57C342.598 272.923 341.592 273.191 341.681 273.838C343.134 283.702 351.381 291.111 352.498 301.065C352.588 301.734 353.616 301.756 353.549 301.087Z" fill="url(#paint12_linear_28_30609)"/>
<path fill-rule="evenodd" clip-rule="evenodd" d="M368.722 277.61C364.297 279.529 359.984 282.475 357.011 286.314C355.402 288.411 354.441 290.777 353.838 293.277C353.614 290.665 353.122 288.099 352.631 285.533C351.469 279.552 350.575 273.548 350.016 267.478C349.792 265.068 349.636 262.657 349.524 260.247C349.502 259.578 348.451 259.578 348.496 260.247C348.809 266.942 349.569 273.615 350.619 280.243C351.335 284.729 352.519 289.148 352.854 293.678C352.474 291.223 351.871 288.813 351.133 286.448C350.061 283.078 348.608 279.797 346.731 276.807C346.753 276.673 346.708 276.539 346.596 276.427C346.462 276.293 346.328 276.137 346.216 276.003C345.747 275.311 345.256 274.619 344.741 273.95C344.518 273.66 344.183 273.749 344.004 273.995C343.222 273.392 342.372 272.856 341.456 272.388C339.333 271.294 336.696 270.58 335.668 268.17C335.399 267.567 334.528 268.081 334.774 268.683C335.779 271.071 338.26 271.964 340.406 273.013C342.35 273.95 343.982 275.155 345.434 276.695C347.49 279.819 349.033 283.323 350.172 286.872C351.558 291.201 352.34 295.731 352.363 300.284C352.363 300.306 352.363 300.329 352.363 300.351C352.296 300.686 352.564 300.909 352.832 300.931C352.966 301.4 353.793 301.333 353.838 300.753C354.218 295.888 354.776 290.755 357.905 286.782C360.788 283.122 364.968 280.31 369.236 278.458C369.862 278.235 369.326 277.342 368.722 277.61Z" fill="url(#paint13_linear_28_30609)"/>
<path fill-rule="evenodd" clip-rule="evenodd" d="M337.835 242.974C336.897 242.505 335.824 242.305 334.796 242.193C334.528 242.171 334.259 242.394 334.237 242.662C334.17 244.112 334.148 245.563 333.969 246.991C333.902 247.46 333.812 248.107 333.611 248.442C333.589 248.464 333.544 248.531 333.522 248.576C333.522 248.576 333.499 248.576 333.499 248.553C333.41 248.486 333.321 248.419 333.254 248.33C331.89 246.902 331.711 244.782 330.46 243.287C329.812 242.505 328.784 241.836 327.823 241.479C326.772 241.099 325.677 241.211 324.783 240.475C324.448 240.207 324.023 240.519 323.979 240.854C323.666 242.796 322.951 244.983 323.554 246.947C324.09 248.687 325.61 249.625 327.13 250.406C327.867 250.785 328.605 251.187 329.275 251.678C329.633 251.946 330.281 252.459 330.102 252.972C329.901 253.53 329.03 253.128 328.605 252.95C327.711 252.615 326.884 252.146 326.035 251.722C324.649 251.008 322.459 249.937 321.006 251.008C320.358 251.477 320.425 252.347 320.693 253.017C321.118 254.066 322.146 254.914 323.04 255.539C325.096 256.945 327.666 256.409 329.879 257.257C330.393 257.458 331.913 258.239 331.622 258.998C331.51 259.266 331.063 259.399 330.818 259.489C330.236 259.667 329.544 259.734 328.94 259.623C326.661 259.132 324.984 257.19 322.66 256.788C321.632 256.61 320.291 256.855 319.486 257.503C318.794 258.06 318.794 258.975 319.107 259.712C319.486 260.627 320.336 261.363 321.14 261.899C322.079 262.524 323.152 262.903 324.269 262.993C326.504 263.149 328.806 262.234 330.84 263.506C331.108 263.684 331.443 263.93 331.51 264.265C331.555 264.532 331.265 264.756 331.086 264.912C330.281 265.537 328.94 265.782 327.935 265.715C326.728 265.671 325.588 265.068 324.493 264.644C323.331 264.198 322.146 263.952 320.894 264.131C319.978 264.265 319.039 264.756 318.883 265.738C318.727 266.63 319.263 267.501 319.822 268.17C320.559 269.04 321.543 269.71 322.571 270.156C323.688 270.647 325.051 270.58 326.236 270.446C327.465 270.29 328.672 270 329.901 269.888C330.236 269.866 330.482 269.844 330.795 269.71C331.13 269.576 331.443 269.398 331.801 269.331C332.091 269.264 332.069 269.643 332.069 269.866C332.069 270.446 331.376 270.737 330.952 270.982C330.549 271.205 330.192 271.518 329.767 271.718C329.298 271.942 328.761 272.098 328.27 272.232C327.264 272.522 326.214 272.834 325.409 273.549C324.649 274.24 324.426 275.378 324.694 276.36C325.253 278.414 327.912 278.548 329.611 278.057C330.683 277.722 331.488 277.075 332.136 276.16C332.941 275.021 333.365 273.727 334.55 272.991C334.863 273.459 334.885 273.95 334.617 274.53C334.259 275.334 333.522 276.026 332.918 276.651C331.711 277.878 329.812 279.396 329.745 281.27C329.745 281.493 329.857 281.717 330.102 281.806C331.108 282.141 332.158 282.274 333.164 281.895C334.013 281.583 334.617 280.824 335.064 280.087C335.868 278.748 336.293 277.075 337.366 275.892C337.344 276.316 337.142 276.673 336.919 277.142C336.494 277.967 336.494 278.838 336.695 279.708C336.986 281.047 338.036 282.163 339.467 281.493C340.249 281.136 340.83 280.378 341.299 279.686C341.836 278.882 342.104 277.967 342.238 277.03C342.372 275.869 342.216 274.687 341.88 273.549C344.16 275.289 347.892 276.472 349.367 273.325C350.641 270.625 346.596 270.96 344.585 270.246C344.898 270.223 345.233 270.246 345.523 270.246C346.395 270.268 347.267 270.357 348.161 270.29C349.792 270.201 351.312 269.42 351.468 267.612C351.602 266.05 349.859 266.184 348.831 266.34C347.982 266.474 346.507 266.876 345.613 266.407C347.512 265.738 349.658 265.001 350.708 263.216C351.2 262.412 351.602 261.073 351.267 260.158C350.999 259.399 350.083 259.511 349.479 259.734C347.848 260.314 346.686 261.72 345.099 262.412C344.719 262.568 344.339 262.702 343.937 262.814C343.78 262.859 343.624 262.881 343.467 262.881C343.4 262.881 343.333 262.859 343.288 262.859C343.288 262.836 343.288 262.792 343.288 262.769C343.355 262.546 343.467 262.345 343.601 262.144C343.87 261.698 344.227 261.341 344.674 261.073C345.523 260.56 346.484 260.225 347.311 259.645C348.25 258.998 348.786 258.016 349.099 256.945C349.367 255.985 349.546 254.869 349.211 253.909C348.853 252.928 347.982 252.548 346.998 252.637C344.205 252.861 343.981 255.94 342.841 257.837C342.529 258.351 342.104 258.797 341.657 259.176C341.478 259.333 340.964 259.846 340.696 259.779C340.539 259.734 340.629 258.908 340.651 258.752C340.741 258.038 340.986 257.458 341.389 256.878C342.417 255.405 344.004 254.356 344.518 252.548C344.853 251.365 344.741 249.692 343.557 249C342.283 248.286 340.741 249.379 340.092 250.45C339.266 251.812 339.422 253.686 338.17 254.758C337.723 254.133 337.679 253.396 337.858 252.57C338.103 251.365 338.617 250.227 339.064 249.089C339.467 247.995 339.891 246.813 339.802 245.63C339.645 244.425 338.908 243.51 337.835 242.974Z" fill="#C3DFFA"/>
<path fill-rule="evenodd" clip-rule="evenodd" d="M365.283 331.393H343.001L335.715 302.626H372.055L365.283 331.393Z" fill="#C3DFFA"/>
<path d="M373.976 298.901H333.301V302.628H373.976V298.901Z" fill="url(#paint14_linear_28_30609)"/>
<path fill-rule="evenodd" clip-rule="evenodd" d="M353.885 302.626H335.715L343.001 331.393H353.885V302.626Z" fill="#A4D0FC"/>
<path d="M353.884 298.901H333.301V302.628H353.884V298.901Z" fill="url(#paint15_linear_28_30609)"/>
<path fill-rule="evenodd" clip-rule="evenodd" d="M365.283 331.817H343.001L335.715 327.934H372.055L365.283 331.817Z" fill="url(#paint16_linear_28_30609)"/>
<path fill-rule="evenodd" clip-rule="evenodd" d="M353.885 327.934H335.715L343.001 331.817H353.885V327.934Z" fill="url(#paint17_linear_28_30609)"/>
<path fill-rule="evenodd" clip-rule="evenodd" d="M212.767 165.445C211.94 170.533 214.443 173.122 220.276 173.211C227.249 148.818 228.277 121.234 226.668 101.506C227.696 102.086 228.702 102.689 229.73 103.314L231.205 101.908L230.154 103.582C231.227 104.251 232.3 104.921 233.35 105.613L235.853 103.135L234.088 106.103C234.96 106.684 235.831 107.286 236.703 107.911L238.424 106.773L237.127 108.224C238.491 109.206 239.854 110.21 241.195 111.236L243.005 109.585L241.843 111.75C243.095 112.732 244.324 113.736 245.531 114.763C245.821 108.804 243.497 104.564 238.558 102.042C235.831 100.658 232.3 99.7878 227.987 99.453L227.852 99.3637C228.881 99.1629 229.886 98.962 230.914 98.7835L231.071 96.7526L231.406 98.6942C232.658 98.471 233.909 98.2702 235.161 98.0917L235.384 94.5879L236.055 97.9801C237.105 97.8462 238.155 97.7123 239.206 97.6007L239.742 95.5921V97.5337C241.418 97.3552 243.095 97.2213 244.793 97.1097L245.061 94.6548L245.642 97.0428C247.229 96.9535 248.816 96.8865 250.403 96.8419C246.648 92.1999 242.089 90.5708 236.725 91.9545C234.088 92.6463 231.25 94.0746 228.21 96.217C228.344 96.0385 228.478 95.8599 228.612 95.6814L227.361 94.0746L228.925 95.2797C229.685 94.2754 230.49 93.2935 231.294 92.3115L229.082 89.5665L231.875 91.6197C232.546 90.8163 233.239 89.9906 233.931 89.2095L232.97 87.3795L234.289 88.8078C235.407 87.558 236.546 86.3082 237.708 85.0808L236.233 83.0946L238.29 84.4559C239.385 83.3178 240.502 82.2019 241.664 81.0861C235.742 80.1934 231.294 82.0903 228.277 86.7323C227.16 88.473 226.243 90.5931 225.528 93.0926C225.528 90.8832 225.282 88.8747 224.791 87.067C223.248 81.3539 219.36 77.5153 213.08 75.5737C213.884 77.1359 214.666 78.7204 215.404 80.2826L217.929 79.9702L215.806 81.1084C216.588 82.8045 217.348 84.4782 218.063 86.1743L219.851 85.4602L218.287 86.7099C218.734 87.7812 219.181 88.8524 219.583 89.9236L223.07 89.321L219.941 90.8163C220.187 91.4858 220.455 92.1553 220.701 92.8248C218.041 90.3923 215.426 88.5846 212.834 87.4018C207.023 84.746 201.324 85.2147 195.781 88.8078C197.614 89.2318 199.424 89.6781 201.234 90.1691L202.531 87.982L202.195 90.4146C204.118 90.9279 206.017 91.4858 207.895 92.066L208.409 90.1691L208.498 92.2446C209.682 92.624 210.867 93.0034 212.052 93.3828L213.705 90.2584L213.08 93.4943C206.755 92.7579 201.503 94.945 197.323 100.056C199.201 99.8993 201.056 99.7878 202.911 99.6762L203.469 97.199L203.894 99.6315C205.883 99.5423 207.872 99.4753 209.817 99.453L209.727 97.4891L210.442 99.4307C211.694 99.4084 212.923 99.4307 214.175 99.4307L214.8 95.9492L215.225 99.453C216.7 99.4753 218.175 99.5199 219.65 99.5869L219.941 97.6007L220.231 99.6092L220.522 99.6315C215.426 100.814 211.314 102.51 208.185 104.72C202.955 108.424 200.542 113.557 200.899 120.141C202.195 118.78 203.492 117.418 204.788 116.124L203.536 113.914L205.481 115.432C206.889 114.026 208.319 112.665 209.75 111.326L208.364 109.942L210.219 110.902C211.135 110.054 212.052 109.228 212.99 108.402L211.091 105.412L213.772 107.71C214.89 106.728 216.007 105.791 217.147 104.854L216.03 103.202L217.594 104.497C219.293 103.113 220.991 101.774 222.734 100.48C223.405 128.867 220.12 150.492 212.767 165.445ZM222.556 94.6995C222.489 94.6325 222.444 94.5656 222.377 94.5209L223.293 94.3424L222.556 94.6995ZM217.795 94.5879C217.684 94.5432 217.594 94.5209 217.482 94.4986L217.996 93.4497L217.795 94.5879Z" fill="#BBDBFA"/>
<path fill-rule="evenodd" clip-rule="evenodd" d="M203.965 183.053C204.658 187.36 202.535 189.547 197.595 189.636C191.673 168.97 190.801 145.582 192.164 128.867C191.293 129.358 190.421 129.871 189.572 130.407L188.32 129.224L189.214 130.63C188.298 131.188 187.404 131.768 186.51 132.37L184.387 130.273L185.884 132.794C185.147 133.285 184.409 133.799 183.672 134.334L182.219 133.352L183.314 134.58C182.152 135.406 181.012 136.254 179.872 137.146L178.33 135.74L179.314 137.593C178.263 138.418 177.213 139.266 176.185 140.137C175.939 135.071 177.928 131.5 182.107 129.358C184.409 128.175 187.404 127.461 191.069 127.171L191.181 127.104C190.309 126.925 189.46 126.769 188.589 126.613L188.455 124.894L188.186 126.546C187.136 126.367 186.063 126.189 185.013 126.032L184.834 123.064L184.275 125.943C183.381 125.832 182.487 125.72 181.593 125.608L181.146 123.912V125.564C179.738 125.408 178.308 125.296 176.878 125.207L176.654 123.131L176.162 125.162C174.821 125.073 173.48 125.028 172.117 124.984C175.291 121.033 179.157 119.672 183.694 120.855C185.929 121.435 188.343 122.64 190.913 124.47C190.801 124.314 190.689 124.158 190.578 124.024L191.65 122.663L190.332 123.689C189.684 122.841 189.013 121.993 188.343 121.167L190.22 118.846L187.873 120.587C187.292 119.895 186.711 119.203 186.13 118.534L186.957 116.972L185.84 118.199C184.901 117.128 183.94 116.079 182.934 115.052L184.186 113.379L182.443 114.539C181.504 113.579 180.565 112.62 179.582 111.683C184.588 110.924 188.365 112.531 190.913 116.458C191.874 117.931 192.634 119.717 193.237 121.837C193.237 119.984 193.461 118.266 193.863 116.726C195.159 111.883 198.467 108.625 203.786 106.974C203.093 108.313 202.445 109.629 201.819 110.968L199.696 110.701L201.506 111.683C200.836 113.111 200.21 114.539 199.607 115.967L198.087 115.365L199.428 116.414C199.048 117.329 198.668 118.221 198.311 119.136L195.36 118.623L198.02 119.895C197.797 120.453 197.595 121.033 197.372 121.591C199.607 119.538 201.842 117.998 204.032 116.994C208.971 114.74 213.776 115.142 218.492 118.199C216.927 118.556 215.408 118.936 213.888 119.337L212.793 117.485L213.083 119.56C211.452 120.007 209.843 120.475 208.256 120.944L207.831 119.337L207.764 121.1C206.759 121.413 205.753 121.748 204.769 122.06L203.361 119.404L203.898 122.149C209.262 121.524 213.709 123.377 217.263 127.706C215.676 127.572 214.089 127.461 212.525 127.394L212.033 125.296L211.675 127.349C209.977 127.26 208.323 127.215 206.647 127.193L206.736 125.541L206.133 127.193C205.082 127.193 204.032 127.193 202.982 127.193L202.467 124.247L201.976 127.193C200.724 127.215 199.473 127.26 198.221 127.304L197.975 125.631L197.729 127.327L197.484 127.349C201.797 128.353 205.284 129.782 207.921 131.656C212.346 134.803 214.402 139.155 214.089 144.734C212.994 143.574 211.899 142.435 210.781 141.32L211.832 139.445L210.178 140.717C208.971 139.534 207.764 138.374 206.557 137.236L207.742 136.075L206.177 136.879C205.395 136.164 204.613 135.45 203.831 134.758L205.44 132.237L203.16 134.178C202.222 133.352 201.261 132.549 200.3 131.746L201.261 130.34L199.92 131.433C198.489 130.25 197.037 129.134 195.562 128.019C194.958 152.054 197.752 170.376 203.965 183.053ZM195.696 123.109C195.74 123.064 195.807 122.997 195.852 122.953L195.07 122.796L195.696 123.109ZM199.719 123.02C199.808 122.997 199.897 122.975 199.987 122.93L199.562 122.038L199.719 123.02Z" fill="#BBDBFA"/>
<path fill-rule="evenodd" clip-rule="evenodd" d="M329.636 98.5371L313.522 83.9863L308.963 105.21L304.403 126.433L317.88 122.082C320.294 125.92 321.545 129.803 321.746 133.575C321.925 137.012 321.21 140.359 319.646 143.484C318.126 146.519 315.824 149.331 312.784 151.808C296.224 165.287 187.271 168.613 167.179 171.893C140.941 176.178 124.022 183.387 114.993 191.755C110.412 195.996 108.02 200.526 107.618 205.101C107.216 209.542 108.668 214.05 111.775 218.335C117.273 225.923 128 232.953 142.684 237.974C151.601 241.032 160.407 242.728 169.101 243.732C177.594 244.714 186.019 244.982 194.557 245.25C238.495 246.499 262.901 251.23 273.047 257.725C278.925 261.496 279.953 265.826 277.204 270.401C274.5 274.887 268.108 279.64 259.057 284.304C226.807 300.931 161.636 316.441 107.149 316.441C104.333 316.441 100.332 317.535 98.2313 318.874C96.1304 320.213 96.7115 321.306 99.5275 321.306C159.245 321.306 231.522 303.854 267.795 285.152C278.702 279.529 286.412 273.793 289.675 268.37C292.893 263.014 291.776 257.993 285.071 253.708C268.689 243.219 225.689 238.13 205.687 237.706C205.24 237.706 204.793 237.684 204.39 237.684C140.538 235.876 80.2177 195.058 173.727 179.794C206.916 174.37 303.04 168.189 324.093 151.049C327.758 148.059 330.485 144.756 332.228 141.274C333.927 137.882 334.709 134.267 334.508 130.584C334.307 126.478 332.876 122.26 330.172 118.087L345.75 113.065L329.636 98.5371Z" fill="url(#paint18_linear_28_30609)"/>
<path fill-rule="evenodd" clip-rule="evenodd" d="M104.601 37.7681C104.601 32.5905 108.803 28.4172 113.988 28.4172C119.173 28.4172 123.352 32.6128 123.352 37.7681C123.352 42.9456 119.151 47.1413 113.988 47.1413C108.803 47.1189 104.601 42.9233 104.601 37.7681ZM113.988 48.7481C120.067 48.7481 124.984 43.8383 124.984 37.7681C124.984 31.6978 120.067 26.7881 113.988 26.7881C107.909 26.7881 102.992 31.6978 102.992 37.7681C102.992 43.816 107.909 48.7481 113.988 48.7481Z" fill="white"/>
<path fill-rule="evenodd" clip-rule="evenodd" d="M113.987 32.7026C111.194 32.7026 108.914 34.979 108.914 37.7686C108.914 40.5582 111.194 42.8346 113.987 42.8346C116.781 42.8346 119.061 40.5582 119.061 37.7686C119.038 34.9567 116.781 32.7026 113.987 32.7026Z" fill="white"/>
<path fill-rule="evenodd" clip-rule="evenodd" d="M125.452 160.446C125.452 155.268 129.653 151.073 134.838 151.073C140.024 151.073 144.225 155.268 144.225 160.446C144.225 165.623 140.024 169.797 134.838 169.797C129.653 169.797 125.452 165.623 125.452 160.446ZM134.816 171.426C140.895 171.426 145.812 166.516 145.812 160.446C145.812 154.376 140.895 149.466 134.816 149.466C128.737 149.466 123.82 154.376 123.82 160.446C123.82 166.516 128.759 171.426 134.816 171.426Z" fill="#FEDACD"/>
<path fill-rule="evenodd" clip-rule="evenodd" d="M134.815 155.402C132.022 155.402 129.742 157.678 129.742 160.468C129.742 163.257 132.022 165.534 134.815 165.534C137.609 165.534 139.889 163.257 139.889 160.468C139.889 157.656 137.631 155.402 134.815 155.402Z" fill="#FEDACD"/>
<path fill-rule="evenodd" clip-rule="evenodd" d="M360.523 165.979C360.523 164.394 361.797 163.122 363.384 163.122C364.97 163.122 366.244 164.394 366.244 165.979C366.244 167.563 364.97 168.835 363.384 168.835C361.797 168.857 360.523 167.563 360.523 165.979ZM363.384 169.348C365.239 169.348 366.736 167.853 366.736 166.001C366.736 164.149 365.239 162.653 363.384 162.653C361.529 162.653 360.031 164.149 360.031 166.001C360.031 167.831 361.529 169.348 363.384 169.348Z" fill="white"/>
<path fill-rule="evenodd" clip-rule="evenodd" d="M363.382 164.439C362.533 164.439 361.84 165.131 361.84 165.979C361.84 166.827 362.533 167.519 363.382 167.519C364.231 167.519 364.924 166.827 364.924 165.979C364.924 165.131 364.231 164.439 363.382 164.439Z" fill="white"/>
<path fill-rule="evenodd" clip-rule="evenodd" d="M322.324 155.892L344.584 164.997L338.46 172.786L322.324 155.892Z" fill="#BBDBFA"/>
<path fill-rule="evenodd" clip-rule="evenodd" d="M347.712 161.314L323.016 155.936L353.768 158.167L347.712 161.314Z" fill="#BBDBFA"/>
<path fill-rule="evenodd" clip-rule="evenodd" d="M347.713 161.315L347.132 171.558L344.584 164.997L322.324 155.892L323.017 155.936L347.713 161.315Z" fill="url(#paint19_linear_28_30609)"/>
<path fill-rule="evenodd" clip-rule="evenodd" d="M347.131 171.558L341.879 168.456L344.583 164.997L347.131 171.558Z" fill="url(#paint20_linear_28_30609)"/>
<path fill-rule="evenodd" clip-rule="evenodd" d="M352.855 170.799C352.14 170.71 352.297 169.661 352.967 169.751L354.04 169.862C354.755 169.951 354.598 171 353.928 170.933L352.855 170.799ZM389.352 213.157C389.821 213.157 390.067 213.737 389.732 214.05C389.665 214.139 389.486 214.206 389.352 214.206H388.659C387.966 214.206 387.944 213.135 388.659 213.135L389.352 213.157ZM385.485 213.068C386.111 213.068 386.2 214.139 385.418 214.139L384.345 214.072C383.586 213.983 383.787 212.934 384.435 213.001L385.485 213.068ZM381.306 212.666C381.976 212.756 381.887 213.804 381.149 213.715L381.306 212.666ZM377.216 211.774C377.864 212.019 377.596 212.956 376.881 212.778C376.523 212.666 376.188 212.532 375.853 212.398C375.205 212.131 375.585 211.171 376.255 211.416C376.568 211.55 376.881 211.662 377.216 211.774ZM373.595 209.944C374.154 210.412 373.439 211.216 372.925 210.769C372.612 210.524 372.344 210.256 372.076 209.966C371.606 209.408 372.456 208.761 372.88 209.252C373.104 209.52 373.35 209.743 373.595 209.944ZM371.606 206.708C371.696 207.466 370.645 207.533 370.556 206.886C370.489 206.507 370.444 206.127 370.422 205.748C370.422 205.011 371.495 205.056 371.495 205.726C371.495 206.06 371.539 206.395 371.606 206.708ZM371.897 202.735C371.74 203.382 370.69 203.159 370.869 202.445C370.958 202.088 371.07 201.731 371.182 201.396C371.45 200.704 372.433 201.128 372.187 201.731C372.076 202.066 371.986 202.4 371.897 202.735ZM373.35 198.83C373.081 199.455 372.098 199.053 372.389 198.383C372.545 198.049 372.701 197.736 372.858 197.401C373.26 196.71 374.132 197.334 373.819 197.87C373.662 198.182 373.506 198.517 373.35 198.83ZM375.272 195.036C374.892 195.683 373.998 195.103 374.333 194.545L374.825 193.607C375.182 192.96 376.099 193.541 375.763 194.098C375.585 194.411 375.428 194.723 375.272 195.036ZM377.261 191.264C376.881 191.934 375.987 191.331 376.3 190.796L376.769 189.836C377.127 189.189 377.998 189.657 377.73 190.305L377.261 191.264ZM378.982 187.269C378.736 187.917 377.797 187.649 377.976 186.935C378.088 186.6 378.177 186.287 378.266 185.953C378.445 185.283 379.473 185.529 379.294 186.221C379.205 186.578 379.093 186.935 378.982 187.269ZM379.518 182.851C379.607 183.542 378.557 183.676 378.468 182.985C378.423 182.65 378.378 182.315 378.289 182.003C378.11 181.311 379.16 181.065 379.317 181.735C379.406 182.114 379.473 182.471 379.518 182.851ZM377.886 178.677C378.311 179.258 377.417 179.86 377.015 179.302C376.814 179.034 376.613 178.767 376.389 178.521C375.897 177.941 376.769 177.316 377.171 177.807C377.417 178.075 377.663 178.387 377.886 178.677ZM374.646 175.642C375.205 176.044 374.69 176.892 374.042 176.535C373.752 176.334 373.461 176.155 373.171 175.977C372.59 175.642 373.081 174.705 373.707 175.062C374.042 175.24 374.355 175.441 374.646 175.642ZM370.802 173.589C371.45 173.879 371.025 174.839 370.399 174.571C370.087 174.437 369.751 174.303 369.416 174.192C368.768 173.946 369.126 172.942 369.796 173.187C370.131 173.321 370.466 173.455 370.802 173.589ZM366.712 172.183C367.36 172.339 367.136 173.388 366.421 173.21L365.416 172.92C364.745 172.763 364.991 171.714 365.684 171.893L366.712 172.183ZM362.532 171.156C363.27 171.335 362.935 172.362 362.309 172.205L361.281 172.005C360.61 171.826 360.767 170.866 361.482 170.956L362.532 171.156ZM358.286 170.398C358.957 170.487 358.867 171.536 358.13 171.447L357.079 171.29C356.409 171.201 356.498 170.152 357.236 170.241L358.286 170.398Z" fill="url(#paint21_linear_28_30609)"/>
<path fill-rule="evenodd" clip-rule="evenodd" d="M284.218 122.886L261.98 131.991L268.082 139.78L284.218 122.886Z" fill="#BBDBFA"/>
<path fill-rule="evenodd" clip-rule="evenodd" d="M258.827 128.308L283.546 122.93L252.793 125.161L258.827 128.308Z" fill="#BBDBFA"/>
<path fill-rule="evenodd" clip-rule="evenodd" d="M258.828 128.309L259.409 138.552L261.979 131.991L284.217 122.886L283.546 122.93L258.828 128.309Z" fill="url(#paint22_linear_28_30609)"/>
<path fill-rule="evenodd" clip-rule="evenodd" d="M259.41 138.552L264.685 135.428L261.98 131.991L259.41 138.552Z" fill="url(#paint23_linear_28_30609)"/>
<path fill-rule="evenodd" clip-rule="evenodd" d="M253.689 137.793C254.404 137.704 254.247 136.655 253.577 136.722L252.504 136.833C251.789 136.923 251.945 137.972 252.616 137.882L253.689 137.793ZM217.215 180.151C216.745 180.151 216.499 180.731 216.835 181.044C216.924 181.133 217.081 181.2 217.215 181.2H217.908C218.6 181.2 218.623 180.129 217.908 180.129L217.215 180.151ZM221.059 180.062C220.433 180.062 220.344 181.133 221.126 181.133L222.199 181.066C222.958 180.977 222.757 179.928 222.109 179.995L221.059 180.062ZM225.26 179.66C224.59 179.749 224.679 180.798 225.417 180.709L225.26 179.66ZM229.35 178.745C228.702 178.99 228.97 179.928 229.686 179.749C230.043 179.638 230.378 179.504 230.714 179.392C231.362 179.102 230.982 178.165 230.311 178.41C229.998 178.544 229.663 178.656 229.35 178.745ZM232.971 176.937C232.412 177.406 233.105 178.209 233.641 177.763C233.932 177.517 234.222 177.25 234.491 176.96C234.96 176.402 234.111 175.754 233.686 176.245C233.463 176.513 233.217 176.736 232.971 176.937ZM234.96 173.701C234.871 174.46 235.943 174.527 236.01 173.88C236.077 173.5 236.122 173.121 236.145 172.742C236.145 172.005 235.072 172.05 235.072 172.719C235.049 173.054 235.027 173.389 234.96 173.701ZM234.669 169.729C234.826 170.376 235.876 170.153 235.698 169.439C235.608 169.082 235.496 168.725 235.385 168.39C235.116 167.698 234.133 168.122 234.379 168.725C234.491 169.059 234.58 169.394 234.669 169.729ZM233.194 165.823C233.463 166.448 234.446 166.046 234.155 165.377C233.999 165.042 233.843 164.73 233.686 164.395C233.306 163.703 232.412 164.328 232.725 164.864C232.904 165.176 233.06 165.489 233.194 165.823ZM231.295 162.029C231.675 162.677 232.569 162.096 232.233 161.538L231.742 160.601C231.362 159.954 230.468 160.534 230.803 161.092C230.959 161.405 231.138 161.717 231.295 162.029ZM229.306 158.258C229.686 158.927 230.58 158.325 230.267 157.789L229.797 156.83C229.44 156.182 228.568 156.651 228.836 157.298L229.306 158.258ZM227.562 154.263C227.808 154.91 228.747 154.642 228.568 153.928C228.456 153.594 228.367 153.281 228.278 152.946C228.099 152.277 227.071 152.522 227.249 153.214C227.361 153.571 227.451 153.928 227.562 154.263ZM227.048 149.844C226.959 150.536 228.009 150.67 228.099 149.978C228.143 149.643 228.211 149.309 228.278 148.996C228.456 148.304 227.406 148.059 227.249 148.728C227.16 149.108 227.093 149.465 227.048 149.844ZM228.68 145.671C228.255 146.251 229.149 146.854 229.551 146.296C229.753 146.028 229.954 145.76 230.177 145.515C230.669 144.934 229.797 144.31 229.395 144.801C229.127 145.068 228.903 145.381 228.68 145.671ZM231.898 142.636C231.339 143.038 231.853 143.886 232.502 143.529C232.792 143.328 233.083 143.149 233.373 142.971C233.977 142.636 233.463 141.699 232.837 142.056C232.524 142.234 232.211 142.435 231.898 142.636ZM235.765 140.583C235.116 140.873 235.541 141.832 236.167 141.565C236.48 141.431 236.815 141.297 237.15 141.185C237.798 140.94 237.441 139.935 236.77 140.181C236.435 140.315 236.1 140.449 235.765 140.583ZM239.854 139.177C239.206 139.333 239.43 140.382 240.145 140.203L241.173 139.913C241.844 139.757 241.598 138.708 240.905 138.887L239.854 139.177ZM244.034 138.15C243.296 138.329 243.632 139.355 244.257 139.199L245.285 138.998C245.956 138.82 245.799 137.86 245.084 137.949L244.034 138.15ZM248.258 137.391C247.587 137.481 247.677 138.53 248.414 138.44L249.465 138.284C250.135 138.195 250.046 137.146 249.308 137.235L248.258 137.391Z" fill="url(#paint24_linear_28_30609)"/>
<path fill-rule="evenodd" clip-rule="evenodd" d="M95.6126 17.7271L76.9062 32.5233L84.8849 38.2811L95.6126 17.7271Z" fill="#BBDBFA"/>
<path fill-rule="evenodd" clip-rule="evenodd" d="M72.9073 29.8905L94.966 17.9731L66.2695 28.5738L72.9073 29.8905Z" fill="#BBDBFA"/>
<path fill-rule="evenodd" clip-rule="evenodd" d="M72.9062 29.8899L76.281 39.4862L76.9068 32.5233L95.6131 17.7271L94.965 17.9725L72.9062 29.8899Z" fill="url(#paint25_linear_28_30609)"/>
<path fill-rule="evenodd" clip-rule="evenodd" d="M76.2812 39.4859L80.4382 35.0671L76.907 32.5229L76.2812 39.4859Z" fill="url(#paint26_linear_28_30609)"/>
<path fill-rule="evenodd" clip-rule="evenodd" d="M71.3186 35.6711C71.8326 35.381 72.2126 36.1397 71.7656 36.3852C71.5198 36.5415 71.2963 36.6754 71.0504 36.8316C70.514 37.144 70.1564 36.3629 70.5811 36.1174C70.8269 35.9835 71.0728 35.8273 71.3186 35.6711ZM95.6346 79.7027C95.5005 80.2383 94.6736 80.0374 94.8077 79.5018C94.8747 79.234 94.9418 78.9662 95.0088 78.6984C95.1429 78.1182 95.9699 78.3637 95.8358 78.8769C95.7687 79.1448 95.7017 79.4349 95.6346 79.7027ZM96.1933 76.2658C96.1933 76.7791 95.3441 76.8461 95.3441 76.2212C95.3664 75.9534 95.3664 75.6633 95.3664 75.3955C95.3664 74.8376 96.2157 74.8376 96.2157 75.3955C96.2157 75.6856 96.2157 75.9757 96.1933 76.2658ZM95.9922 72.7844C96.0593 73.3646 95.2994 73.4762 95.1653 72.9406C95.1206 72.6728 95.0536 72.405 94.9865 72.1372C94.8524 71.5793 95.6793 71.4007 95.8134 71.914C95.8581 72.2041 95.9252 72.4943 95.9922 72.7844ZM94.8748 69.4591C95.1206 69.9055 94.4278 70.3741 94.1149 69.8385C94.0031 69.6154 93.869 69.3252 93.7349 69.1021C93.4444 68.6111 94.2043 68.1871 94.4725 68.678C94.6066 68.9235 94.7407 69.1913 94.8748 69.4591ZM92.9527 66.5356C93.3326 66.9819 92.6622 67.5176 92.3046 67.0935C92.1258 66.8927 91.947 66.6918 91.7459 66.491C91.3659 66.1116 91.947 65.4867 92.3493 65.8884C92.5504 66.0893 92.7516 66.3124 92.9527 66.5356ZM90.4049 64.1477C90.8742 64.5271 90.2931 65.1519 89.8909 64.8172C89.6674 64.6387 89.4439 64.4824 89.2204 64.3262C88.751 63.9915 89.2651 63.2996 89.7121 63.6344C89.9579 63.7906 90.1814 63.9691 90.4049 64.1477ZM87.4995 62.2507C88.0135 62.5408 87.5665 63.255 87.0972 63.0095C86.8514 62.8756 86.6055 62.7417 86.3597 62.6301C85.8233 62.3177 86.315 61.6258 86.7396 61.8713C86.9855 61.9829 87.2313 62.1168 87.4995 62.2507ZM84.3482 60.8448C84.8846 61.0456 84.5717 61.8267 84.0577 61.6482L83.2755 61.358C82.7167 61.1572 83.052 60.3761 83.5437 60.5546C83.7895 60.6439 84.08 60.7332 84.3482 60.8448ZM81.0405 59.8182C81.5993 59.9521 81.3758 60.7778 80.8394 60.6439L80.0125 60.4654C79.4314 60.3315 79.6772 59.5057 80.1913 59.6396L81.0405 59.8182ZM77.6435 59.1933C78.2022 59.2602 78.0904 60.1083 77.5317 60.0413L76.7048 59.9521C76.1237 59.8851 76.2578 59.0371 76.7942 59.104C77.0847 59.104 77.3529 59.1486 77.6435 59.1933ZM74.224 58.9032C74.7827 58.9701 74.738 59.7512 74.1793 59.7512C73.8888 59.7289 73.5982 59.7289 73.33 59.7066C72.7266 59.6396 72.8831 58.7916 73.3971 58.8585L74.224 58.9032ZM70.8716 58.613C71.4304 58.68 71.3186 59.528 70.7599 59.4611C70.4693 59.4165 70.2011 59.3718 69.9106 59.3495C69.3742 59.2826 69.4636 58.4345 70.0447 58.5015C70.3129 58.5238 70.5811 58.5684 70.8716 58.613ZM67.5639 58.0105C68.1003 58.1444 67.8992 58.9701 67.3628 58.8362C67.0722 58.7693 66.8041 58.7023 66.5135 58.613C65.9995 58.4791 66.1783 57.6534 66.7594 57.7873C67.0052 57.8766 67.2957 57.9435 67.5639 58.0105ZM64.4127 56.9616C64.9044 57.1624 64.5915 57.9658 64.0551 57.7427C63.7869 57.6311 63.5187 57.4972 63.2505 57.3633C62.7588 57.0732 63.1835 56.359 63.6528 56.6268C63.8986 56.7384 64.1668 56.85 64.4127 56.9616ZM61.7084 55.1985C62.0884 55.6002 61.5073 56.2028 61.105 55.8011C60.8815 55.5779 60.6803 55.3547 60.5016 55.1316C60.1663 54.7522 60.7921 54.1496 61.172 54.6183C61.3285 54.8191 61.5073 54.9977 61.7084 55.1985ZM60.1887 52.4758C60.3228 52.9668 59.4958 53.2346 59.3617 52.6544C59.2947 52.3419 59.2723 52.0518 59.25 51.7394C59.25 51.1145 60.0993 51.1815 60.0993 51.6948C60.0993 51.9626 60.144 52.208 60.1887 52.4758ZM60.3675 49.3068C60.2334 49.8201 59.4064 49.6416 59.5405 49.0837C59.6076 48.7935 59.7193 48.5257 59.8087 48.2356C60.0099 47.7 60.7921 48.0124 60.6133 48.5257C60.5463 48.7935 60.4569 49.0613 60.3675 49.3068ZM61.7084 46.3163C61.4402 46.785 60.6803 46.3833 60.9709 45.8923C61.0826 45.6691 61.2838 45.379 61.4179 45.1558C61.6637 44.7318 62.4459 45.0889 62.133 45.6245C61.999 45.7807 61.7978 46.1155 61.7084 46.3163ZM63.6081 43.5713C63.2282 44.0177 62.6024 43.4597 62.9376 43.0357C63.1164 42.8126 63.2952 42.5894 63.4964 42.3662C63.854 41.9422 64.5021 42.4778 64.1445 42.9241C63.9657 43.1473 63.7869 43.3482 63.6081 43.5713ZM65.8654 41.0941C65.4631 41.4958 64.8597 40.8933 65.2619 40.4916C65.4631 40.2907 65.6642 40.0675 65.8877 39.889C66.2677 39.5096 66.8935 40.0899 66.4688 40.5139C66.2677 40.6924 66.0665 40.8933 65.8654 41.0941ZM68.3685 38.8401C67.9439 39.1972 67.3851 38.55 67.8321 38.1706L68.5026 37.635C68.9049 37.3002 69.486 37.9251 69.0166 38.3045C68.7931 38.483 68.5696 38.6616 68.3685 38.8401Z" fill="url(#paint27_linear_28_30609)"/>
<path fill-rule="evenodd" clip-rule="evenodd" d="M223.585 50.8009H144.379C144.938 48.3907 147.106 46.6053 149.698 46.6053C149.81 46.6053 149.944 46.6053 150.078 46.6277C151.33 43.5702 154.347 41.4055 157.856 41.4055C159.398 41.4055 160.828 41.8295 162.08 42.5436C163.599 37.5669 168.203 33.9516 173.679 33.9516C174.796 33.9516 175.869 34.1078 176.897 34.3756C179.557 28.5285 185.435 24.4668 192.273 24.4668C200.386 24.4668 207.158 30.18 208.767 37.8124C208.901 37.8124 209.035 37.8124 209.169 37.8124C214.354 37.8124 218.646 41.6956 219.294 46.7169C221.395 47.0963 223.093 48.7255 223.585 50.8009Z" fill="white"/>
<path fill-rule="evenodd" clip-rule="evenodd" d="M98.832 84.3429H168.629C168.137 82.2227 166.215 80.6605 163.958 80.6605C163.846 80.6605 163.734 80.6605 163.623 80.6828C162.527 77.9825 159.868 76.0855 156.784 76.0855C155.42 76.0855 154.169 76.4426 153.074 77.0898C151.733 72.7157 147.665 69.5243 142.838 69.5243C141.854 69.5243 140.916 69.6582 139.999 69.9037C137.653 64.7485 132.468 61.1777 126.456 61.1777C119.304 61.1777 113.337 66.2214 111.906 72.9388C111.795 72.9388 111.661 72.9388 111.549 72.9388C106.967 72.9388 103.19 76.3533 102.631 80.7721C100.754 81.0846 99.2567 82.5129 98.832 84.3429Z" fill="white"/>
<path fill-rule="evenodd" clip-rule="evenodd" d="M22.0391 77.0251H80.5271C80.1025 75.2397 78.5157 73.923 76.616 73.923C76.5266 73.923 76.4372 73.923 76.3478 73.923C75.4315 71.669 73.1966 70.0845 70.604 70.0845C69.4642 70.0845 68.4138 70.3969 67.4975 70.9325C66.38 67.2502 62.9606 64.5945 58.9154 64.5945C58.0885 64.5945 57.3062 64.7061 56.5463 64.9069C54.5796 60.5997 50.2438 57.5869 45.1929 57.5869C39.2033 57.5869 34.1971 61.8048 33.0126 67.4287C32.9008 67.4287 32.8114 67.4287 32.6997 67.4287C28.8556 67.4287 25.7043 70.2853 25.235 73.99C23.6482 74.2801 22.3967 75.4852 22.0391 77.0251Z" fill="white"/>
<defs>
<linearGradient id="paint0_linear_28_30609" x1="34.9695" y1="107.129" x2="140.729" y2="108.82" gradientUnits="userSpaceOnUse">
<stop stop-color="#0C1923"/>
<stop offset="1" stop-color="#15466F"/>
</linearGradient>
<linearGradient id="paint1_linear_28_30609" x1="60.5859" y1="117.427" x2="76.0045" y2="118.438" gradientUnits="userSpaceOnUse">
<stop stop-color="#15466F"/>
<stop offset="1" stop-color="#3387CA"/>
</linearGradient>
<linearGradient id="paint2_linear_28_30609" x1="48.1247" y1="195.013" x2="94.6239" y2="195.25" gradientUnits="userSpaceOnUse">
<stop stop-color="#15466F"/>
<stop offset="1" stop-color="#3387CA"/>
</linearGradient>
<linearGradient id="paint3_linear_28_30609" x1="50.2904" y1="118.645" x2="116.123" y2="119.413" gradientUnits="userSpaceOnUse">
<stop stop-color="#15466F"/>
<stop offset="1" stop-color="#3387CA"/>
</linearGradient>
<linearGradient id="paint4_linear_28_30609" x1="256.352" y1="-0.000191136" x2="334.99" y2="1.0021" gradientUnits="userSpaceOnUse">
<stop stop-color="#0C1923"/>
<stop offset="1" stop-color="#15466F"/>
</linearGradient>
<linearGradient id="paint5_linear_28_30609" x1="280.188" y1="28.7744" x2="304.801" y2="29.08" gradientUnits="userSpaceOnUse">
<stop stop-color="#0C1923"/>
<stop offset="1" stop-color="#15466F"/>
</linearGradient>
<linearGradient id="paint6_linear_28_30609" x1="356.06" y1="23.3525" x2="382.266" y2="24.0581" gradientUnits="userSpaceOnUse">
<stop stop-color="#0C1923"/>
<stop offset="1" stop-color="#15466F"/>
</linearGradient>
<linearGradient id="paint7_linear_28_30609" x1="354.502" y1="6.93648" x2="376.116" y2="7.31084" gradientUnits="userSpaceOnUse">
<stop stop-color="#0C1923"/>
<stop offset="1" stop-color="#15466F"/>
</linearGradient>
<linearGradient id="paint8_linear_28_30609" x1="333.604" y1="222.866" x2="363.634" y2="223.147" gradientUnits="userSpaceOnUse">
<stop stop-color="#0C1923"/>
<stop offset="1" stop-color="#15466F"/>
</linearGradient>
<linearGradient id="paint9_linear_28_30609" x1="361.054" y1="252.255" x2="397.498" y2="252.789" gradientUnits="userSpaceOnUse">
<stop stop-color="#0C1923"/>
<stop offset="1" stop-color="#15466F"/>
</linearGradient>
<linearGradient id="paint10_linear_28_30609" x1="313.043" y1="237.58" x2="343.477" y2="237.888" gradientUnits="userSpaceOnUse">
<stop stop-color="#0C1923"/>
<stop offset="1" stop-color="#15466F"/>
</linearGradient>
<linearGradient id="paint11_linear_28_30609" x1="354.342" y1="242.711" x2="371.207" y2="242.777" gradientUnits="userSpaceOnUse">
<stop stop-color="#0C1923"/>
<stop offset="1" stop-color="#15466F"/>
</linearGradient>
<linearGradient id="paint12_linear_28_30609" x1="342.549" y1="273.198" x2="353.405" y2="273.255" gradientUnits="userSpaceOnUse">
<stop stop-color="#0C1923"/>
<stop offset="1" stop-color="#15466F"/>
</linearGradient>
<linearGradient id="paint13_linear_28_30609" x1="337.289" y1="259.745" x2="369.082" y2="260.076" gradientUnits="userSpaceOnUse">
<stop stop-color="#0C1923"/>
<stop offset="1" stop-color="#15466F"/>
</linearGradient>
<linearGradient id="paint14_linear_28_30609" x1="336.293" y1="298.901" x2="372.803" y2="303.846" gradientUnits="userSpaceOnUse">
<stop stop-color="#0C1923"/>
<stop offset="1" stop-color="#15466F"/>
</linearGradient>
<linearGradient id="paint15_linear_28_30609" x1="334.815" y1="298.901" x2="353.542" y2="300.185" gradientUnits="userSpaceOnUse">
<stop stop-color="#15466F"/>
<stop offset="1" stop-color="#3387CA"/>
</linearGradient>
<linearGradient id="paint16_linear_28_30609" x1="338.388" y1="327.934" x2="371.163" y2="331.741" gradientUnits="userSpaceOnUse">
<stop stop-color="#0C1923"/>
<stop offset="1" stop-color="#15466F"/>
</linearGradient>
<linearGradient id="paint17_linear_28_30609" x1="337.051" y1="327.934" x2="353.604" y2="328.895" gradientUnits="userSpaceOnUse">
<stop stop-color="#15466F"/>
<stop offset="1" stop-color="#3387CA"/>
</linearGradient>
<linearGradient id="paint18_linear_28_30609" x1="115.268" y1="83.9858" x2="342.631" y2="86.9439" gradientUnits="userSpaceOnUse">
<stop stop-color="#15466F"/>
<stop offset="1" stop-color="#3387CA"/>
</linearGradient>
<linearGradient id="paint19_linear_28_30609" x1="324.192" y1="155.892" x2="347.389" y2="156.358" gradientUnits="userSpaceOnUse">
<stop stop-color="#0C1923"/>
<stop offset="1" stop-color="#15466F"/>
</linearGradient>
<linearGradient id="paint20_linear_28_30609" x1="342.265" y1="164.997" x2="347.065" y2="165.045" gradientUnits="userSpaceOnUse">
<stop stop-color="#15466F"/>
<stop offset="1" stop-color="#3387CA"/>
</linearGradient>
<linearGradient id="paint21_linear_28_30609" x1="355.145" y1="169.745" x2="389.419" y2="170.104" gradientUnits="userSpaceOnUse">
<stop stop-color="#0C1923"/>
<stop offset="1" stop-color="#15466F"/>
</linearGradient>
<linearGradient id="paint22_linear_28_30609" x1="260.696" y1="122.886" x2="283.893" y2="123.352" gradientUnits="userSpaceOnUse">
<stop stop-color="#0C1923"/>
<stop offset="1" stop-color="#15466F"/>
</linearGradient>
<linearGradient id="paint23_linear_28_30609" x1="259.798" y1="131.991" x2="264.619" y2="132.039" gradientUnits="userSpaceOnUse">
<stop stop-color="#15466F"/>
<stop offset="1" stop-color="#3387CA"/>
</linearGradient>
<linearGradient id="paint24_linear_28_30609" x1="219.436" y1="136.719" x2="253.689" y2="137.077" gradientUnits="userSpaceOnUse">
<stop stop-color="#0C1923"/>
<stop offset="1" stop-color="#15466F"/>
</linearGradient>
<linearGradient id="paint25_linear_28_30609" x1="74.5764" y1="17.727" x2="95.3285" y2="17.9958" gradientUnits="userSpaceOnUse">
<stop stop-color="#0C1923"/>
<stop offset="1" stop-color="#15466F"/>
</linearGradient>
<linearGradient id="paint26_linear_28_30609" x1="76.587" y1="32.5229" x2="80.3865" y2="32.5511" gradientUnits="userSpaceOnUse">
<stop stop-color="#15466F"/>
<stop offset="1" stop-color="#3387CA"/>
</linearGradient>
<linearGradient id="paint27_linear_28_30609" x1="61.969" y1="35.6059" x2="95.7544" y2="35.9549" gradientUnits="userSpaceOnUse">
<stop stop-color="#0C1923"/>
<stop offset="1" stop-color="#15466F"/>
</linearGradient>
</defs>
</svg>
