<svg width="1520" height="425" viewBox="0 0 1520 425" fill="none" xmlns="http://www.w3.org/2000/svg">
<g clip-path="url(#clip0_321_19651)">
<rect width="1520" height="425" fill="#F2F7FC"/>
<rect x="971.395" y="-303" width="603.629" height="901.964" transform="rotate(26 971.395 -303)" fill="url(#paint0_linear_321_19651)"/>
<path d="M1165.66 251.797H950.546C946.505 251.797 943.199 248.483 943.199 244.432V87.7837C943.199 83.7331 946.505 80.4189 950.546 80.4189H1165.66C1169.7 80.4189 1173.01 83.7331 1173.01 87.7837V244.432C1173.01 248.483 1169.7 251.797 1165.66 251.797Z" fill="#B5E1FF"/>
<path d="M1173.01 247.378H957.894C953.853 247.378 950.547 244.064 950.547 240.013V83.3648C950.547 79.3141 953.853 76 957.894 76H1173.01C1177.05 76 1180.35 79.3141 1180.35 83.3648V240.013C1180.35 244.064 1177.05 247.378 1173.01 247.378Z" fill="#FCFBFF"/>
<path d="M1173.01 247.378H957.894C953.853 247.378 950.547 244.064 950.547 240.013V83.3648C950.547 79.3141 953.853 76 957.894 76H1173.01C1177.05 76 1180.35 79.3141 1180.35 83.3648V240.013C1180.35 244.064 1177.05 247.378 1173.01 247.378Z" stroke="#B5E1FF" stroke-width="1.5" stroke-miterlimit="10" stroke-linecap="round" stroke-linejoin="round"/>
<path d="M1053.84 148.616H1029.96V188.533H1053.84V148.616Z" fill="url(#paint1_linear_321_19651)"/>
<path d="M1143.32 129.32H1119.45V188.459H1143.32V129.32Z" fill="url(#paint2_linear_321_19651)"/>
<path d="M1097.04 137.127H1073.16V188.533H1097.04V137.127Z" fill="#3387C9"/>
<path d="M1021.96 188.533H1151.77" stroke="url(#paint3_linear_321_19651)" stroke-width="1.5" stroke-miterlimit="10"/>
<path d="M1016.81 114.664C1012.77 106.047 1004.03 100.082 993.891 100.082V125.49L1016.81 114.664Z" fill="#3387C9"/>
<path d="M1016.81 114.664C1012.77 106.047 1004.03 100.082 993.891 100.082V125.49L1016.81 114.664Z" stroke="#B5E1FF" stroke-width="1.5" stroke-miterlimit="10" stroke-linecap="round" stroke-linejoin="round"/>
<path d="M993.893 150.899C1007.89 150.899 1019.24 139.523 1019.24 125.49C1019.24 111.458 1007.89 100.082 993.893 100.082C979.895 100.082 968.547 111.458 968.547 125.49C968.547 139.523 979.895 150.899 993.893 150.899Z" stroke="#B5E1FF" stroke-width="1.5" stroke-miterlimit="10" stroke-linecap="round" stroke-linejoin="round"/>
<path d="M1053.84 93.8223H1028.79V97.6519H1053.84V93.8223Z" fill="#3387C9"/>
<path d="M1068.53 101.556H1028.79V105.385H1068.53V101.556Z" fill="#B5E1FF"/>
<path d="M1068.53 107.963H1028.79V111.793H1068.53V107.963Z" fill="#B5E1FF"/>
<path d="M1055.02 197.003H1029.96V200.833H1055.02V197.003Z" fill="#3387C9"/>
<path d="M1069.71 204.735H1029.96V208.565H1069.71V204.735Z" fill="#B5E1FF"/>
<path d="M1055.02 211.217H1029.96V215.046H1055.02V211.217Z" fill="#B5E1FF"/>
<path d="M1116.66 197.003H1091.61V200.833H1116.66V197.003Z" fill="#3387C9"/>
<path d="M1131.35 204.735H1091.61V208.565H1131.35V204.735Z" fill="#B5E1FF"/>
<path d="M1116.66 211.217H1091.61V215.046H1116.66V211.217Z" fill="#B5E1FF"/>
<path d="M982.873 157.602H968.547V161.431H982.873V157.602Z" fill="url(#paint4_linear_321_19651)"/>
<path d="M991.322 165.334H968.547V169.164H991.322V165.334Z" fill="#B5E1FF"/>
<path d="M982.873 176.896H968.547V180.726H982.873V176.896Z" fill="url(#paint5_linear_321_19651)"/>
<path d="M991.322 184.63H968.547V188.46H991.322V184.63Z" fill="#B5E1FF"/>
<path d="M982.873 196.192H968.547V200.022H982.873V196.192Z" fill="url(#paint6_linear_321_19651)"/>
<path d="M991.322 203.926H968.547V207.755H991.322V203.926Z" fill="#B5E1FF"/>
<path d="M1114.15 102.926H1109.29V105.491C1109.5 105.231 1109.8 105.021 1110.19 104.861C1110.58 104.691 1110.99 104.606 1111.43 104.606C1112.23 104.606 1112.89 104.781 1113.4 105.131C1113.91 105.481 1114.28 105.931 1114.51 106.481C1114.74 107.021 1114.85 107.601 1114.85 108.221C1114.85 109.371 1114.52 110.296 1113.86 110.996C1113.21 111.696 1112.28 112.046 1111.07 112.046C1109.93 112.046 1109.02 111.761 1108.34 111.191C1107.66 110.621 1107.28 109.876 1107.19 108.956H1109.23C1109.32 109.356 1109.52 109.676 1109.83 109.916C1110.15 110.156 1110.55 110.276 1111.04 110.276C1111.63 110.276 1112.08 110.091 1112.38 109.721C1112.68 109.351 1112.83 108.861 1112.83 108.251C1112.83 107.631 1112.67 107.161 1112.36 106.841C1112.06 106.511 1111.62 106.346 1111.03 106.346C1110.61 106.346 1110.26 106.451 1109.98 106.661C1109.7 106.871 1109.5 107.151 1109.38 107.501H1107.37V101.081H1114.15V102.926ZM1116.45 106.436C1116.45 104.706 1116.76 103.351 1117.38 102.371C1118.01 101.391 1119.05 100.901 1120.5 100.901C1121.95 100.901 1122.98 101.391 1123.6 102.371C1124.23 103.351 1124.55 104.706 1124.55 106.436C1124.55 108.176 1124.23 109.541 1123.6 110.531C1122.98 111.521 1121.95 112.016 1120.5 112.016C1119.05 112.016 1118.01 111.521 1117.38 110.531C1116.76 109.541 1116.45 108.176 1116.45 106.436ZM1122.48 106.436C1122.48 105.696 1122.43 105.076 1122.33 104.576C1122.24 104.066 1122.05 103.651 1121.76 103.331C1121.48 103.011 1121.06 102.851 1120.5 102.851C1119.94 102.851 1119.51 103.011 1119.22 103.331C1118.94 103.651 1118.75 104.066 1118.65 104.576C1118.56 105.076 1118.52 105.696 1118.52 106.436C1118.52 107.196 1118.56 107.836 1118.65 108.356C1118.74 108.866 1118.93 109.281 1119.22 109.601C1119.51 109.911 1119.94 110.066 1120.5 110.066C1121.06 110.066 1121.48 109.911 1121.77 109.601C1122.06 109.281 1122.25 108.866 1122.34 108.356C1122.43 107.836 1122.48 107.196 1122.48 106.436ZM1135.58 97.8409L1131.53 114.761H1129.48L1133.53 97.8409H1135.58ZM1140.33 103.046V101.111H1143.95V112.046H1141.79V103.046H1140.33ZM1146.02 106.436C1146.02 104.706 1146.33 103.351 1146.95 102.371C1147.58 101.391 1148.62 100.901 1150.07 100.901C1151.52 100.901 1152.56 101.391 1153.18 102.371C1153.81 103.351 1154.12 104.706 1154.12 106.436C1154.12 108.176 1153.81 109.541 1153.18 110.531C1152.56 111.521 1151.52 112.016 1150.07 112.016C1148.62 112.016 1147.58 111.521 1146.95 110.531C1146.33 109.541 1146.02 108.176 1146.02 106.436ZM1152.05 106.436C1152.05 105.696 1152 105.076 1151.9 104.576C1151.81 104.066 1151.62 103.651 1151.33 103.331C1151.05 103.011 1150.63 102.851 1150.07 102.851C1149.51 102.851 1149.09 103.011 1148.8 103.331C1148.52 103.651 1148.33 104.066 1148.23 104.576C1148.14 105.076 1148.09 105.696 1148.09 106.436C1148.09 107.196 1148.14 107.836 1148.23 108.356C1148.32 108.866 1148.51 109.281 1148.8 109.601C1149.09 109.911 1149.51 110.066 1150.07 110.066C1150.63 110.066 1151.06 109.911 1151.35 109.601C1151.64 109.281 1151.83 108.866 1151.92 108.356C1152.01 107.836 1152.05 107.196 1152.05 106.436ZM1155.72 106.436C1155.72 104.706 1156.03 103.351 1156.65 102.371C1157.28 101.391 1158.32 100.901 1159.77 100.901C1161.22 100.901 1162.26 101.391 1162.88 102.371C1163.51 103.351 1163.82 104.706 1163.82 106.436C1163.82 108.176 1163.51 109.541 1162.88 110.531C1162.26 111.521 1161.22 112.016 1159.77 112.016C1158.32 112.016 1157.28 111.521 1156.65 110.531C1156.03 109.541 1155.72 108.176 1155.72 106.436ZM1161.75 106.436C1161.75 105.696 1161.7 105.076 1161.6 104.576C1161.51 104.066 1161.32 103.651 1161.03 103.331C1160.75 103.011 1160.33 102.851 1159.77 102.851C1159.21 102.851 1158.79 103.011 1158.5 103.331C1158.22 103.651 1158.03 104.066 1157.93 104.576C1157.84 105.076 1157.79 105.696 1157.79 106.436C1157.79 107.196 1157.84 107.836 1157.93 108.356C1158.02 108.866 1158.21 109.281 1158.5 109.601C1158.79 109.911 1159.21 110.066 1159.77 110.066C1160.33 110.066 1160.76 109.911 1161.05 109.601C1161.34 109.281 1161.53 108.866 1161.62 108.356C1161.71 107.836 1161.75 107.196 1161.75 106.436Z" fill="#3387C9"/>
<path d="M934.017 302.686C934.017 302.686 895.961 339.731 838.656 309.167L840.199 299.888L932.841 294.217L934.017 302.686Z" fill="#96BFDF"/>
<path d="M851.221 274.186L831.531 350.926H923.219C923.219 350.926 931.667 300.846 927.186 274.186H851.221Z" fill="#0C1923"/>
<path d="M927.627 277.794C927.48 276.542 927.333 275.29 927.113 274.186H851.221L847.621 288.179L927.627 277.794Z" fill="#164770"/>
<path d="M883.914 350.926L895.081 300.109L902.134 297.899" stroke="#164770" stroke-width="1.5" stroke-miterlimit="10" stroke-linecap="round" stroke-linejoin="round"/>
<path d="M858.127 190.006C858.127 190.006 849.458 182.788 851.515 170.268C853.572 157.748 863.123 155.686 863.123 155.686C863.123 155.686 851.956 144.05 864.959 129.026C864.959 129.026 869 125.196 873.922 124.607C873.922 124.607 877.963 105.827 899.269 107.889C920.574 109.951 914.036 130.719 908.011 133.444C908.011 133.444 911.611 143.166 906.175 148.027V154.508C906.175 154.508 920.721 158.19 922.558 173.656C924.395 189.122 908.011 194.645 908.011 194.645C908.011 194.645 866.061 198.033 858.127 190.006Z" fill="#0C1923"/>
<path d="M875.539 175.129L844.535 183.525C842.625 184.04 841.082 185.366 840.274 187.133C836.013 196.413 822.495 226.314 819.924 241.559C819.924 241.559 814.561 260.192 826.536 267.188C829.769 269.03 833.515 269.619 837.189 269.103L845.417 267.925L838.658 309.167C838.658 309.167 868.192 312.997 874.069 292.229L877.743 274.185H914.476C914.476 274.185 911.905 294.953 933.945 302.76L927.701 256.951L930.933 239.202L942.688 249.513C946.214 252.606 950.402 254.963 954.883 256.068C962.157 257.982 972.001 257.393 977.805 244.358C987.944 221.674 993.601 191.847 993.601 191.847L980.303 178.075L954.075 216.519L931.227 184.998C930.272 183.746 928.949 182.788 927.407 182.42L897.285 175.129H875.539V175.129Z" fill="#3387C9"/>
<path d="M918.074 220.128C916.898 206.871 903.16 183.525 897.282 175.129H875.609C875.609 175.129 886.776 236.698 877.813 274.185H914.547C914.547 274.185 918.882 229.702 918.074 220.128Z" fill="#FCFBFF"/>
<path d="M917.636 236.772C906.101 240.455 891.922 242.37 881.196 243.253C880.976 254.153 880.02 264.906 877.816 274.185H914.55C914.55 274.185 916.607 253.049 917.636 236.772Z" fill="#B5E1FF"/>
<path d="M897.282 175.129L896.695 166.88C898.09 166.88 899.413 166.659 900.735 166.217C910.653 162.903 908.082 150.752 906.613 144.123C905.951 141.104 905.07 137.716 903.674 134.696C895.886 137.642 887.878 133.444 887.878 133.444C884.94 139.704 879.43 140.662 879.43 140.662C879.65 145.375 878.107 148.247 877.079 149.647C877.446 150.899 875.609 175.129 875.609 175.129C875.609 175.129 877.887 189.49 878.915 198.991C881.928 199.212 885.013 199.359 888.246 199.359C896.033 199.359 903.454 198.549 910.139 197.149C905.658 188.091 900.368 179.548 897.282 175.129Z" fill="#F7C5A8"/>
<path d="M890.528 137.716C890.528 137.716 899.564 140.588 904.193 135.801C904.046 135.433 903.899 135.065 903.752 134.696C895.965 137.642 887.957 133.444 887.957 133.444C885.018 139.704 879.508 140.662 879.508 140.662C879.581 141.398 879.508 142.135 879.508 142.798C882.593 142.945 888.03 142.356 890.528 137.716Z" fill="#F4A695"/>
<path d="M878.624 147.07C880.828 149.5 880.902 153.109 878.771 155.097C876.641 157.086 873.041 156.717 870.837 154.287C868.633 151.857 868.559 148.248 870.69 146.259C872.82 144.345 876.42 144.639 878.624 147.07Z" fill="#F7C5A8"/>
<path d="M830.062 246.568C830.062 246.568 832.634 235.373 847.695 233.459C862.755 231.544 879.286 232.869 885.751 230.881L887.073 249.661C887.073 249.661 859.964 266.747 845.564 267.926L830.062 246.568Z" fill="#3387C9"/>
<path d="M848.133 233.31C848.133 233.31 849.896 228.892 853.276 214.53L852.688 233.016L848.133 233.31Z" fill="#96BFDF"/>
<path d="M896.698 166.88C896.698 166.88 888.543 166.512 883.988 158.632C883.988 158.632 884.723 168.795 897.065 172.257L896.698 166.88Z" fill="#F4A695"/>
<path d="M872.453 148.321L877.816 152.004" stroke="#F4A695" stroke-width="1.5" stroke-miterlimit="10" stroke-linecap="round" stroke-linejoin="round"/>
<path d="M931.007 239.129C931.007 239.129 933.946 228.303 934.019 220.055C934.019 214.605 928.73 207.903 927.113 201.422" stroke="#96BFDF" stroke-width="1.5" stroke-miterlimit="10" stroke-linecap="round" stroke-linejoin="round"/>
<path d="M936.002 254.816H897.652L904.632 204.588H942.982L936.002 254.816Z" fill="#B5E1FF"/>
<path d="M885.824 232.427C885.824 232.427 891.849 229.702 893.832 227.198C895.816 224.694 902.354 221.232 902.354 221.232L901.693 226.682C901.693 226.682 921.97 220.349 924.542 221.38C927.113 222.411 922.191 225.43 922.191 225.43C922.191 225.43 926.966 223.736 927.186 224.694C927.333 225.725 925.717 228.376 924.688 229.113C924.688 229.113 926.011 228.744 926.084 229.996C926.158 231.248 919.472 236.698 913.962 238.834C913.962 238.834 920.133 237.509 921.897 238.834C921.897 238.834 912.934 243.327 909.554 244.358C906.175 245.389 886.926 247.598 886.926 247.598L885.824 232.427Z" fill="#F7C5A8"/>
<path d="M922.119 225.356L905.516 230.88" stroke="#F4A695" stroke-width="1.5" stroke-miterlimit="10" stroke-linecap="round" stroke-linejoin="round"/>
<path d="M924.612 229.039C924.612 229.039 913.445 233.458 907.273 235.078" stroke="#F4A695" stroke-width="1.5" stroke-miterlimit="10" stroke-linecap="round" stroke-linejoin="round"/>
<path d="M913.889 238.834L908.379 240.381" stroke="#F4A695" stroke-width="1.5" stroke-miterlimit="10" stroke-linecap="round" stroke-linejoin="round"/>
<path d="M885.456 250.618C885.456 250.618 875.097 257.173 862.828 262.623" stroke="#96BFDF" stroke-width="1.5" stroke-miterlimit="10" stroke-linecap="round" stroke-linejoin="round"/>
<path d="M830.062 246.568C830.062 246.568 832.634 235.373 847.695 233.459C862.755 231.544 879.286 232.869 885.751 230.881" stroke="#96BFDF" stroke-width="1.5" stroke-miterlimit="10" stroke-linecap="round" stroke-linejoin="round"/>
<path d="M954.003 216.52C954.003 216.52 949.007 221.159 947.023 229.04" stroke="#96BFDF" stroke-width="1.5" stroke-miterlimit="10" stroke-linecap="round" stroke-linejoin="round"/>
<path d="M885.824 232.427L886.853 247.525L890.306 247.156L885.824 232.427Z" fill="#F4A695"/>
<path d="M981.184 178.959L991.469 165.187C991.469 165.187 995.51 160.695 1001.09 157.97C1008 154.729 1016.96 148.543 1016.96 148.543C1016.96 148.543 1019.97 150.458 1016.96 153.33L1008.81 161.284L1013.88 165.04C1015.86 166.439 1016.01 169.459 1014.02 170.785C1013.95 170.858 1013.8 170.932 1013.66 171.005C1013.66 171.005 1014.76 174.32 1011.45 175.866C1011.45 175.866 1011.53 178.223 1009.17 179.254C1006.82 180.285 1002.71 178.665 1002.71 178.665C1002.71 178.665 1001.83 183.599 994.628 184.999L991.469 189.491L981.184 178.959Z" fill="#F7C5A8"/>
<path d="M998.964 163.641L1013.66 162.241C1013.66 162.241 1015.05 166.292 1011.31 167.249C1007.56 168.207 1003.67 169.606 1003.67 169.606C1003.67 169.606 1004.25 175.424 998.523 176.971L998.964 163.641Z" fill="#F7C5A8"/>
<path d="M1001.54 163.419L1013.66 162.314C1013.66 162.314 1015.05 166.365 1011.31 167.322C1007.56 168.28 1003.67 169.679 1003.67 169.679C1003.67 169.679 1004.25 175.497 998.523 177.044" stroke="#F4A695" stroke-width="1.5" stroke-miterlimit="10" stroke-linecap="round" stroke-linejoin="round"/>
<path d="M1003.59 169.68C1003.59 169.68 1011.01 172.036 1013.73 171.153" stroke="#F4A695" stroke-width="1.5" stroke-miterlimit="10" stroke-linecap="round" stroke-linejoin="round"/>
<path d="M1002.78 173.804C1002.78 173.804 1007.12 176.529 1011.52 176.013" stroke="#F4A695" stroke-width="1.5" stroke-miterlimit="10" stroke-linecap="round" stroke-linejoin="round"/>
<path d="M1002.79 178.886C1002.79 178.886 1000.43 177.118 1000.66 176.087" stroke="#F4A695" stroke-width="1.5" stroke-miterlimit="10" stroke-linecap="round" stroke-linejoin="round"/>
<path d="M981.184 178.959L993.967 186.397L991.543 189.638L981.184 178.959Z" fill="#F4A695"/>
<path d="M895.374 146.113C895.448 146.923 895.007 147.585 894.493 147.585C893.905 147.659 893.464 146.996 893.391 146.26C893.317 145.45 893.758 144.787 894.272 144.787C894.787 144.713 895.301 145.376 895.374 146.113Z" fill="#0C1923"/>
<path d="M905.585 145.082C905.659 145.892 905.218 146.554 904.704 146.554C904.116 146.628 903.675 145.965 903.602 145.229C903.528 144.419 903.969 143.756 904.483 143.756C905.071 143.756 905.585 144.345 905.585 145.082Z" fill="#0C1923"/>
<path d="M890.012 142.061C890.012 142.061 891.995 139.484 895.228 140.736" stroke="#0C1923" stroke-width="3" stroke-miterlimit="10" stroke-linecap="round" stroke-linejoin="round"/>
<path d="M901.547 140.073C901.547 140.073 902.869 138.379 905.073 138.379" stroke="#0C1923" stroke-width="3" stroke-miterlimit="10" stroke-linecap="round" stroke-linejoin="round"/>
<path d="M898.681 146.259C898.681 149.205 896.551 151.635 893.979 151.635C891.334 151.635 889.277 149.205 889.277 146.259C889.277 143.313 891.408 140.883 893.979 140.883C896.624 140.883 898.681 143.24 898.681 146.259Z" stroke="#FCFBFF" stroke-width="1.5" stroke-miterlimit="10" stroke-linecap="round" stroke-linejoin="round"/>
<path d="M910.069 144.86C910.069 147.806 908.306 150.236 906.175 150.236C904.044 150.236 902.281 147.806 902.281 144.86C902.281 141.914 904.044 139.483 906.175 139.483C908.379 139.483 910.069 141.914 910.069 144.86Z" stroke="#FCFBFF" stroke-width="1.5" stroke-miterlimit="10" stroke-linecap="round" stroke-linejoin="round"/>
<path d="M898.68 145.522L902.28 144.859" stroke="#FCFBFF" stroke-width="1.5" stroke-miterlimit="10" stroke-linecap="round" stroke-linejoin="round"/>
<path d="M900.883 146.186C900.883 146.186 904.63 150.457 905.07 152.519C905.511 154.581 901.691 154.287 901.691 154.287" stroke="#F4A695" stroke-width="1.5" stroke-miterlimit="10" stroke-linecap="round" stroke-linejoin="round"/>
<path d="M896.626 156.055L902.062 156.791C902.062 156.791 901.916 159.222 898.903 158.853C895.891 158.485 896.626 156.055 896.626 156.055Z" fill="#FCFBFF"/>
<path d="M873.188 171.226C877.57 171.226 881.123 167.665 881.123 163.272C881.123 158.879 877.57 155.318 873.188 155.318C868.806 155.318 865.254 158.879 865.254 163.272C865.254 167.665 868.806 171.226 873.188 171.226Z" stroke="#FCFBFF" stroke-width="1.5" stroke-miterlimit="10" stroke-linecap="round" stroke-linejoin="round"/>
<path d="M919.252 204.588L918.664 208.565H932.256L932.77 204.588" stroke="#0C1923" stroke-width="1.5" stroke-miterlimit="10" stroke-linecap="round" stroke-linejoin="round"/>
<path d="M866.654 100.487L866.505 100.319H866.28H842.036C840.036 100.319 838.422 98.7027 838.422 96.6946V82.8489C838.422 80.8408 840.036 79.2246 842.036 79.2246H879.504C881.499 79.2246 883.123 80.837 883.192 82.8571V96.6946C883.192 98.7027 881.578 100.319 879.578 100.319H873.994H873.494V100.819V108.193L866.654 100.487Z" fill="#FCFBFF" stroke="#BFC7CE"/>
<path d="M851.001 91.4657C852.218 91.4657 853.205 90.4765 853.205 89.2563C853.205 88.0361 852.218 87.0469 851.001 87.0469C849.784 87.0469 848.797 88.0361 848.797 89.2563C848.797 90.4765 849.784 91.4657 851.001 91.4657Z" fill="#B5E1FF"/>
<path d="M863.709 89.2563C863.709 90.4347 862.754 91.4657 861.505 91.4657C860.329 91.4657 859.301 90.5083 859.301 89.2563C859.301 88.0779 860.256 87.0469 861.505 87.0469C862.68 87.0469 863.709 88.0043 863.709 89.2563Z" fill="#B5E1FF"/>
<path d="M873.185 89.2563C873.185 90.4347 872.23 91.4657 870.981 91.4657C869.732 91.4657 868.777 90.5083 868.777 89.2563C868.777 88.0779 869.732 87.0469 870.981 87.0469C872.23 87.0469 873.185 88.0043 873.185 89.2563Z" fill="#B5E1FF"/>
<path d="M1008.44 256.952L982.875 266.895C982.875 266.895 964.362 273.67 961.79 289.578C959.219 305.56 954.664 330.673 954.664 330.673L920.648 337.154V350.927H1074.34L1073.09 316.901L1091.83 315.649C1087.71 289.504 1083.16 268.736 1055.46 262.108L1030.41 255.7L1008.44 256.952Z" fill="#0C1923"/>
<path d="M1002.93 259.235C1002.93 259.235 1001.75 277.5 1019.39 276.616C1037.02 275.732 1035.99 257.1 1035.99 257.1" stroke="#164770" stroke-width="1.5" stroke-miterlimit="10" stroke-linecap="round" stroke-linejoin="round"/>
<path d="M983.68 319.479L956.938 318.227C955.689 325.444 954.734 330.747 954.734 330.747L920.719 337.228V351H983.607L983.68 319.479Z" fill="#F7C5A8"/>
<path d="M956.863 318.227L983.679 319.479V325.96L956.863 318.227Z" fill="#F4A695"/>
<path d="M1040.4 213.574C1039.22 207.314 1033.13 206.946 1033.13 206.946C1033.86 202.159 1029.16 198.55 1021.96 199.286C1014.76 200.023 1012.85 196.046 1004.62 195.015C996.391 193.984 992.718 202.011 994.628 208.934C996.538 215.857 1004.62 216.446 1004.62 216.446L1005.28 239.351L1025.41 239.94C1030.63 239.94 1034.89 235.963 1034.89 231.028C1034.89 230.292 1034.74 229.555 1034.59 228.819C1038.56 224.842 1041.28 217.919 1040.4 213.574Z" fill="#0C1923"/>
<path d="M1031.21 222.412C1028.79 222.412 1026.73 223.885 1025.85 226.02C1024.09 224.4 1022.47 221.602 1022.4 216.814C1022.4 216.814 1015.57 219.76 1012.99 217.256C1010.35 214.605 1010.5 211.144 1010.5 211.144C1010.5 211.144 1008.07 216.225 1002.27 214.605L999.917 235.889C999.917 235.889 998.007 245.39 1009.17 247.452L1008.07 259.383C1008.07 259.383 1007.34 270.209 1016.74 270.577C1030.48 271.166 1030.48 259.383 1030.48 259.383L1028.5 233.311C1029.3 233.68 1030.19 233.974 1031.14 233.974C1034.3 233.974 1036.94 231.397 1036.94 228.156C1037.02 224.989 1034.45 222.412 1031.21 222.412Z" fill="#F7C5A8"/>
<path d="M1022.4 216.814C1022.4 216.814 1015.57 219.76 1013 217.256C1010.35 214.605 1010.5 211.144 1010.5 211.144C1010.5 211.144 1008.07 216.225 1002.27 214.605C1002.27 214.605 1005.87 217.33 1010.06 216.225C1010.06 216.225 1012.85 221.97 1018.36 221.233C1018.36 221.233 1021.52 226.683 1025.78 225.947C1024.16 224.4 1022.55 221.602 1022.4 216.814Z" fill="#F4A695"/>
<path d="M1009.32 247.526C1009.32 247.526 1019.24 249.072 1022.98 240.014C1022.98 240.014 1022.18 251.797 1008.8 252.828L1009.32 247.526Z" fill="#F4A695"/>
<path d="M1028.05 229.261L1034.01 226.094" stroke="#F4A695" stroke-width="1.5" stroke-miterlimit="10" stroke-linecap="round" stroke-linejoin="round"/>
<path d="M1007.71 223.442L1003.81 229.776C1003.3 230.586 1003.67 231.617 1004.55 231.912L1007.71 233.09" stroke="#F4A695" stroke-width="1.5" stroke-miterlimit="10" stroke-linecap="round" stroke-linejoin="round"/>
<path d="M1005.65 235.962C1005.65 235.962 1010.13 237.362 1012.63 234.637" stroke="#F4A695" stroke-width="1.5" stroke-miterlimit="10" stroke-linecap="round" stroke-linejoin="round"/>
<path d="M1003.89 223.811C1004.46 223.811 1004.92 223.185 1004.92 222.412C1004.92 221.639 1004.46 221.013 1003.89 221.013C1003.32 221.013 1002.86 221.639 1002.86 222.412C1002.86 223.185 1003.32 223.811 1003.89 223.811Z" fill="#0C1923"/>
<path d="M1013.88 225.357C1014.44 225.357 1014.9 224.731 1014.9 223.958C1014.9 223.185 1014.44 222.559 1013.88 222.559C1013.31 222.559 1012.85 223.185 1012.85 223.958C1012.85 224.731 1013.31 225.357 1013.88 225.357Z" fill="#0C1923"/>
<path d="M1012.34 219.465C1012.34 219.465 1015.42 218.582 1017.33 221.38" stroke="#0C1923" stroke-width="3" stroke-miterlimit="10" stroke-linecap="round" stroke-linejoin="round"/>
<path d="M1001.61 218.655C1001.61 218.655 1003.45 217.92 1005.65 218.655" stroke="#0C1923" stroke-width="3" stroke-miterlimit="10" stroke-linecap="round" stroke-linejoin="round"/>
<path d="M983.391 350.19L983.978 301.067" stroke="#164770" stroke-width="1.5" stroke-miterlimit="10" stroke-linecap="round" stroke-linejoin="round"/>
<path d="M957.895 312.63L983.829 313.956" stroke="#164770" stroke-width="1.5" stroke-miterlimit="10" stroke-linecap="round" stroke-linejoin="round"/>
<path d="M1019.61 336.124L1002.2 327.433C1002.2 327.433 999.479 325.592 995.805 328.391C992.132 331.189 981.332 341.426 976.483 341.868C976.483 341.868 974.647 345.919 980.377 345.919C980.377 345.919 982.728 348.644 987.21 346.655C987.21 346.655 990.148 348.865 994.336 346.287C994.336 346.287 997.054 348.128 1001.46 347.024L1007.34 345.182C1007.34 345.182 1011.6 350.338 1019.61 350.927H1076.25C1076.25 350.927 1097.34 349.454 1094.62 331.779C1092.34 316.975 1091.75 315.576 1091.75 315.576L1059.94 317.786L1060.97 327.36L1019.61 336.124Z" fill="#F7C5A8"/>
<path d="M1059.95 317.785L1091.83 315.649L1092.86 320.584L1059.95 317.785Z" fill="#F4A695"/>
<path d="M1061.05 327.36C1061.05 327.36 1067.88 326.255 1073.1 330.232" stroke="#F4A695" stroke-width="1.5" stroke-miterlimit="10" stroke-linecap="round" stroke-linejoin="round"/>
<path d="M1019.61 336.124L1024.16 338.26" stroke="#F4A695" stroke-width="1.5" stroke-miterlimit="10" stroke-linecap="round" stroke-linejoin="round"/>
<path d="M1007.34 345.182L1011.97 343.341C1011.97 343.341 1016.01 348.643 1021.23 347.686" stroke="#F4A695" stroke-width="1.5" stroke-miterlimit="10" stroke-linecap="round" stroke-linejoin="round"/>
<path d="M994.336 346.287L1005.5 339.438" stroke="#F4A695" stroke-width="1.5" stroke-miterlimit="10" stroke-linecap="round" stroke-linejoin="round"/>
<path d="M987.281 346.656L999.918 336.492" stroke="#F4A695" stroke-width="1.5" stroke-miterlimit="10" stroke-linecap="round" stroke-linejoin="round"/>
<path d="M980.375 345.918L994.995 334.65" stroke="#F4A695" stroke-width="1.5" stroke-miterlimit="10" stroke-linecap="round" stroke-linejoin="round"/>
<path d="M1059.94 317.785L1057.08 298.121" stroke="#164770" stroke-width="1.5" stroke-miterlimit="10" stroke-linecap="round" stroke-linejoin="round"/>
<path d="M1059.21 312.63L1090.8 309.463" stroke="#164770" stroke-width="1.5" stroke-miterlimit="10" stroke-linecap="round" stroke-linejoin="round"/>
<path d="M1006.9 345.108H938.426V350.927H1006.9V345.108Z" fill="url(#paint7_linear_321_19651)"/>
<path d="M971.34 350.927H898.24L883.547 293.261H956.647L971.34 350.927Z" fill="#B5E1FF"/>
<path d="M956.647 293.261H951.504L966.197 350.927H971.34L956.647 293.261Z" fill="url(#paint8_linear_321_19651)"/>
<path d="M922.686 326.669C925.048 326.078 926.349 323.135 925.592 320.097C924.835 317.058 922.307 315.074 919.945 315.666C917.583 316.257 916.282 319.2 917.039 322.238C917.796 325.277 920.324 327.261 922.686 326.669Z" fill="#FCFBFF"/>
<path d="M1157.73 242.665C1157.73 242.665 1137.74 246.789 1124.81 232.796C1111.88 218.803 1131.57 198.403 1131.57 198.403C1131.57 198.403 1121.14 188.608 1126.06 179.254C1126.06 179.254 1130.98 172.479 1140.02 176.898C1140.02 176.898 1150.6 162.536 1168.16 170.638C1185.79 178.739 1185.57 201.569 1185.06 205.767C1185.06 205.694 1206.8 239.203 1157.73 242.665Z" fill="#0C1923"/>
<path d="M1139.14 269.104L1135.83 278.826L1108.28 250.25C1108.28 250.25 1109.61 245.316 1107.11 240.161C1104.68 235.005 1106.23 229.114 1106.23 229.114C1106.23 229.114 1103.66 227.862 1101.97 230.218L1099.32 238.467L1076.62 232.501C1076.18 232.354 1075.74 232.28 1075.3 232.28C1073.75 232.207 1070.52 232.354 1069.93 234.784C1069.93 234.784 1065.75 233.385 1063.4 237.067L1065.75 238.099C1065.75 238.099 1062.07 238.467 1061.19 240.897L1064.06 243.107C1064.06 243.107 1066.04 246.715 1067.8 247.894C1073.61 251.797 1092.93 255.774 1095.65 258.867L1120.63 301.435C1124.23 307.548 1129 312.998 1135.98 314.029C1140.68 314.692 1147.74 313.44 1151.26 308.579C1161.03 295.175 1166.1 283.539 1166.1 283.539L1139.14 269.104Z" fill="#F7C5A8"/>
<path d="M1135.84 278.826L1144.21 287.738" stroke="#F4A695" stroke-width="1.5" stroke-miterlimit="10" stroke-linecap="round" stroke-linejoin="round"/>
<path d="M1159.12 279.709L1155.16 303.35C1155.16 303.35 1163.75 288.989 1166.32 283.612L1159.12 279.709Z" fill="#F4A695"/>
<path d="M1070.01 234.858L1085.22 239.719" stroke="#F4A695" stroke-width="1.5" stroke-miterlimit="10" stroke-linecap="round" stroke-linejoin="round"/>
<path d="M1065.89 238.172L1082.79 243.327" stroke="#F4A695" stroke-width="1.5" stroke-miterlimit="10" stroke-linecap="round" stroke-linejoin="round"/>
<path d="M1063.54 242.665L1080.44 247.378" stroke="#F4A695" stroke-width="1.5" stroke-miterlimit="10" stroke-linecap="round" stroke-linejoin="round"/>
<path d="M1089.26 247.378C1089.26 247.378 1097.71 242.812 1101.09 251.06" stroke="#F4A695" stroke-width="1.5" stroke-miterlimit="10" stroke-linecap="round" stroke-linejoin="round"/>
<path d="M1241.92 262.476C1241.92 262.476 1258.67 264.464 1264.84 283.686C1270.94 302.908 1250.88 351 1250.88 351H1170.29L1200.19 296.869L1241.92 262.476Z" fill="#0C1923"/>
<path d="M1213.64 303.35L1218.19 306.664L1208.64 350.926" stroke="#013F81" stroke-width="1.5" stroke-miterlimit="10" stroke-linecap="round" stroke-linejoin="round"/>
<path d="M1233.32 269.546L1238.39 274.554C1243.83 279.93 1251.47 282.508 1259.04 281.55H1259.18" stroke="#013F81" stroke-width="1.5" stroke-miterlimit="10" stroke-linecap="round" stroke-linejoin="round"/>
<path d="M1243.54 350.926C1243.54 350.926 1261.68 294.88 1255.07 281.697" stroke="#013F81" stroke-width="1.5" stroke-miterlimit="10" stroke-linecap="round" stroke-linejoin="round"/>
<path d="M1218.19 218.288C1214.74 213.943 1209.89 211.586 1205.7 210.334C1201.73 209.156 1197.62 208.787 1193.51 209.082L1180.87 210.113L1164.12 220.35L1157.95 223.664C1153.25 226.168 1149.57 230.366 1147.88 235.448C1147.37 236.921 1146.93 238.615 1146.49 240.529C1144.28 250.987 1139.14 269.105 1139.14 269.105L1166.32 283.687L1172.72 270.578C1175.36 271.093 1177.56 270.872 1177.56 270.872C1184.4 274.923 1200.19 296.87 1200.19 296.87L1241.92 262.476C1241.92 262.476 1225.54 227.568 1218.19 218.288Z" fill="url(#paint9_linear_321_19651)"/>
<path d="M1172.72 270.504C1172.72 270.504 1165.44 270.43 1164.19 264.17C1162.72 257.174 1160.3 251.503 1160.3 251.503C1160.3 251.503 1162.06 274.407 1159.12 279.71L1166.4 283.613L1172.72 270.504Z" fill="#013F81"/>
<path d="M1180.87 210.187L1167.42 203.485C1169.48 202.675 1170.95 200.613 1170.95 198.182C1170.95 195.089 1168.6 192.511 1165.66 192.511C1162.72 192.511 1160.37 195.015 1160.37 198.182C1160.37 198.33 1160.37 198.477 1160.37 198.624C1160.29 198.55 1160.22 198.477 1160.15 198.403C1153.9 197.593 1141.71 182.643 1141.71 182.643C1140.53 184.042 1139.58 185.809 1139.28 188.24L1139.5 194.5L1134.88 202.601H1139.14C1139.14 202.601 1139.06 214.9 1144.94 217.846C1150.08 220.424 1155.01 218.656 1158.09 216.373L1164.04 220.497C1164.04 220.497 1165.88 235.448 1175.43 234.196C1187.18 232.576 1180.87 210.187 1180.87 210.187Z" fill="#F7C5A8"/>
<path d="M1158.31 197.814C1151.77 194.942 1141.71 182.643 1141.71 182.643C1140.68 183.895 1139.8 185.441 1139.43 187.503C1144.43 190.744 1152.14 195.605 1158.31 197.814Z" fill="#F4A695"/>
<path d="M1158.16 216.226C1158.16 216.226 1161.91 212.175 1163.38 208.935C1163.38 208.935 1164.48 216.005 1163.01 219.613L1158.16 216.226Z" fill="#F4A695"/>
<path d="M1163.75 200.466L1167.28 195.163" stroke="#F4A695" stroke-width="1.5" stroke-miterlimit="10" stroke-linecap="round" stroke-linejoin="round"/>
<path d="M1144.13 206.21L1150.16 203.779C1150.16 203.779 1151.11 207.02 1147.95 208.051C1145.31 208.861 1144.13 206.21 1144.13 206.21Z" fill="#FCFBFF"/>
<path d="M1143.4 196.488C1143.96 196.488 1144.42 195.862 1144.42 195.089C1144.42 194.316 1143.96 193.689 1143.4 193.689C1142.83 193.689 1142.37 194.316 1142.37 195.089C1142.37 195.862 1142.83 196.488 1143.4 196.488Z" fill="#0C1923"/>
<path d="M1141.71 189.787C1141.71 189.787 1144.8 188.903 1146.71 191.702" stroke="#0C1923" stroke-width="3" stroke-miterlimit="10" stroke-linecap="round" stroke-linejoin="round"/>
<path d="M1194.46 265.422L1194.82 275.733L1163.38 315.355L1141.85 324.045C1140.24 324.708 1138.84 325.887 1137.96 327.359L1127.6 344.814C1127.6 344.814 1130.98 346.655 1134.21 343.93L1132.89 346.581C1132.89 346.581 1137.74 347.76 1140.16 345.182L1139.06 347.318C1139.06 347.318 1141.41 348.423 1145.16 347.613C1145.16 347.613 1149.64 347.613 1151.4 345.845C1154.27 342.973 1158.6 336.639 1158.6 336.639C1158.6 336.639 1165.66 337.302 1168.74 332.883L1171.76 328.464L1211.35 302.393C1217.38 298.416 1221.27 291.788 1221.71 284.57L1222.96 265.496H1194.46V265.422Z" fill="#F7C5A8"/>
<path d="M1134.21 343.856L1141.93 330.452" stroke="#F4A695" stroke-width="1.5" stroke-miterlimit="10" stroke-linecap="round" stroke-linejoin="round"/>
<path d="M1140.16 345.108L1147.07 332.146" stroke="#F4A695" stroke-width="1.5" stroke-miterlimit="10" stroke-linecap="round" stroke-linejoin="round"/>
<path d="M1145.09 347.539L1151.84 334.65" stroke="#F4A695" stroke-width="1.5" stroke-miterlimit="10" stroke-linecap="round" stroke-linejoin="round"/>
<path d="M1194.46 265.422H1222.89L1222.52 270.651L1194.46 265.422Z" fill="#F4A695"/>
<path d="M1163.38 345.108H1094.91V350.927H1163.38V345.108Z" fill="url(#paint10_linear_321_19651)"/>
<path d="M1127.82 350.927H1054.72L1040.03 293.261H1113.13L1127.82 350.927Z" fill="#B5E1FF"/>
<path d="M1113.13 293.261H1107.99L1122.68 350.927H1127.82L1113.13 293.261Z" fill="url(#paint11_linear_321_19651)"/>
<path d="M1079.17 326.664C1081.53 326.073 1082.83 323.131 1082.08 320.092C1081.32 317.053 1078.79 315.069 1076.43 315.661C1074.07 316.252 1072.77 319.195 1073.52 322.233C1074.28 325.272 1076.81 327.256 1079.17 326.664Z" fill="#FCFBFF"/>
<path d="M1194.46 265.422L1192.77 231.176" stroke="#013F81" stroke-width="1.5" stroke-miterlimit="10" stroke-linecap="round" stroke-linejoin="round"/>
<path d="M1222.89 265.422V245.021" stroke="#013F81" stroke-width="1.5" stroke-miterlimit="10" stroke-linecap="round" stroke-linejoin="round"/>
<path d="M815 350.927H1268" stroke="#B5E1FF" stroke-width="3" stroke-miterlimit="10" stroke-linecap="round" stroke-linejoin="round"/>
</g>
<defs>
<linearGradient id="paint0_linear_321_19651" x1="1015.79" y1="-303.002" x2="1567.51" y2="-298.419" gradientUnits="userSpaceOnUse">
<stop stop-color="#D5E8F9"/>
<stop offset="1" stop-color="#AEDBFF" stop-opacity="0.17"/>
</linearGradient>
<linearGradient id="paint1_linear_321_19651" x1="1031.72" y1="148.616" x2="1053.54" y2="148.778" gradientUnits="userSpaceOnUse">
<stop stop-color="#15466F"/>
<stop offset="1" stop-color="#3387CA"/>
</linearGradient>
<linearGradient id="paint2_linear_321_19651" x1="1121.2" y1="129.32" x2="1143.03" y2="129.43" gradientUnits="userSpaceOnUse">
<stop stop-color="#15466F"/>
<stop offset="1" stop-color="#3387CA"/>
</linearGradient>
<linearGradient id="paint3_linear_321_19651" x1="1031.51" y1="188.533" x2="1064.5" y2="241.701" gradientUnits="userSpaceOnUse">
<stop stop-color="#15466F"/>
<stop offset="1" stop-color="#3387CA"/>
</linearGradient>
<linearGradient id="paint4_linear_321_19651" x1="969.601" y1="157.602" x2="982.667" y2="158.208" gradientUnits="userSpaceOnUse">
<stop stop-color="#15466F"/>
<stop offset="1" stop-color="#3387CA"/>
</linearGradient>
<linearGradient id="paint5_linear_321_19651" x1="969.601" y1="176.896" x2="982.667" y2="177.503" gradientUnits="userSpaceOnUse">
<stop stop-color="#15466F"/>
<stop offset="1" stop-color="#3387CA"/>
</linearGradient>
<linearGradient id="paint6_linear_321_19651" x1="969.601" y1="196.192" x2="982.667" y2="196.799" gradientUnits="userSpaceOnUse">
<stop stop-color="#15466F"/>
<stop offset="1" stop-color="#3387CA"/>
</linearGradient>
<linearGradient id="paint7_linear_321_19651" x1="943.462" y1="345.108" x2="1004.74" y2="354.059" gradientUnits="userSpaceOnUse">
<stop stop-color="#15466F"/>
<stop offset="1" stop-color="#3387CA"/>
</linearGradient>
<linearGradient id="paint8_linear_321_19651" x1="952.963" y1="293.261" x2="971.094" y2="293.338" gradientUnits="userSpaceOnUse">
<stop stop-color="#15466F"/>
<stop offset="1" stop-color="#3387CA"/>
</linearGradient>
<linearGradient id="paint9_linear_321_19651" x1="1146.7" y1="208.985" x2="1240.63" y2="210.349" gradientUnits="userSpaceOnUse">
<stop stop-color="#15466F"/>
<stop offset="1" stop-color="#3387CA"/>
</linearGradient>
<linearGradient id="paint10_linear_321_19651" x1="1099.95" y1="345.108" x2="1161.23" y2="354.059" gradientUnits="userSpaceOnUse">
<stop stop-color="#15466F"/>
<stop offset="1" stop-color="#3387CA"/>
</linearGradient>
<linearGradient id="paint11_linear_321_19651" x1="1109.45" y1="293.261" x2="1127.58" y2="293.338" gradientUnits="userSpaceOnUse">
<stop stop-color="#15466F"/>
<stop offset="1" stop-color="#3387CA"/>
</linearGradient>
<clipPath id="clip0_321_19651">
<rect width="1520" height="425" fill="white"/>
</clipPath>
</defs>
</svg>
