<svg xmlns="http://www.w3.org/2000/svg" width="51.063" height="52.907"><path d="M48.61 45.951C19.339 47.206 4.9 25.591 2.5 2.469 2.292.463-.238-1.131-.012 1.054 2.659 26.839 21.7 50.905 49.72 49.165c2.59-.164 1.03-3.304-1.11-3.214zm-17.979 6.792a52.551 52.551 0 0 1 18.345-3.82c2.058-.061 1.514-2.714-.084-3.122a32.115 32.115 0 0 1-15.836-9.371c-1.493-1.593-3.324-.85-1.556 1.036 3.108 3.315 10.977 8.075 15 10-4.264.653-12.939 1.36-17 3-2.327.94-.779 3.05 1.131 2.277z" fill="#5e0000" fill-rule="evenodd"/></svg>