<svg xmlns="http://www.w3.org/2000/svg" width="45.377" height="56.6"><defs><filter id="filter" x="961.063" y="12864.7" width="45.377" height="56.6" filterUnits="userSpaceOnUse"><feFlood result="flood" flood-color="#b63a32"/><feComposite result="composite" operator="in" in2="SourceGraphic"/><feBlend result="blend" in2="SourceGraphic"/></filter></defs><path id="Shape_1_copy_2" data-name="Shape 1 copy 2" d="M996.723 12918.6c6-27.7-12.117-45-33.643-51.2-1.868-.5-2.965-3.2-.93-2.6 24 6.9 43.69 29 37.432 55.4-.582 2.4-3.298.4-2.859-1.6zm9.4-16a50.52 50.52 0 0 0-6.642 16.8c-.4 2-2.822 1-2.945-.6a30.871 30.871 0 0 0-6.28-16.6c-1.265-1.7-.259-3.3 1.238-1.3 2.632 3.5 5.849 11.8 7.013 15.9 1.32-3.9 3.416-12.1 5.636-15.7 1.277-2 3.017-.2 1.977 1.5z" transform="translate(-961.063 -12864.7)" fill="#5e0000" fill-rule="evenodd" filter="url(#filter)"/></svg>