<svg xmlns="http://www.w3.org/2000/svg" width="45.375" height="56.6"><defs><filter id="filter" x="459.563" y="13381.7" width="45.375" height="56.6" filterUnits="userSpaceOnUse"><feFlood result="flood" flood-color="#b63a32"/><feComposite result="composite" operator="in" in2="SourceGraphic"/><feBlend result="blend" in2="SourceGraphic"/></filter></defs><path id="Shape_1_copy_2" data-name="Shape 1 copy 2" d="M469.277 13435.6c-6-27.7 12.117-45 33.643-51.2 1.868-.5 2.964-3.2.93-2.6-24 6.9-43.688 29-37.433 55.4.583 2.4 3.298.4 2.86-1.6zm-9.394-16a50.707 50.707 0 0 1 6.639 16.8c.395 2 2.822 1 2.945-.6a30.863 30.863 0 0 1 6.28-16.6c1.264-1.7.259-3.3-1.238-1.3-2.632 3.5-5.849 11.8-7.013 15.9-1.32-3.9-3.417-12.1-5.64-15.7-1.273-2-3.019-.2-1.973 1.5z" transform="translate(-459.563 -13381.7)" fill="#5e0000" fill-rule="evenodd" filter="url(#filter)"/></svg>