<svg width="135" height="138" fill="none" xmlns="http://www.w3.org/2000/svg"><path d="M120.815 16.374h-13.932l-4.644 67.83h23.22l-4.644-67.83z" fill="#ACABB1"/><path d="M74.374 105.254h18.577V138H74.375v-32.746z" fill="#57565C"/><path d="M14.002 109.933h9.288v14.034h-9.288v-14.034zm18.578 0h9.287v14.034h-9.288v-14.034zm18.575 0h9.288v14.034h-9.288v-14.034z" fill="#ACABB1"/><path d="M69.73 67.832l-23.22 18.71v-18.71l-23.22 18.71v-18.71L.07 81.865V138h69.66V67.832zm-46.44 56.135h-9.288v-14.034h9.288v14.034zm18.577 0h-9.288v-14.034h9.288v14.034zm18.576 0h-9.288v-14.034h9.288v14.034z" fill="#FFCD00"/><path d="M125.459 84.204H92.951V67.832l-23.22 18.71V138h4.643v-32.746h18.577V138h41.796V84.204h-9.288z" fill="#FFD733"/><path d="M113.849 9.357a5.865 5.865 0 01-5.129-3.148c-.766-1.113-1.053-1.53-2.302-1.53-.167.101-1.028.917-1.597 1.455a9.06 9.06 0 01-5.833 3.223 7.76 7.76 0 01-5.027-2.842c-.673-.634-1.925-1.815-2.404-1.836a11.005 11.005 0 00-1.954 1.637 8.46 8.46 0 01-5.475 3.04 8.11 8.11 0 01-5.197-2.918 8.59 8.59 0 00-2.25-1.759 2.33 2.33 0 01-2.315-2.347 2.332 2.332 0 012.331-2.33 8.401 8.401 0 015.414 3.02 9.03 9.03 0 002.09 1.662 9.717 9.717 0 002.237-1.792 8.03 8.03 0 015.12-2.89 8.605 8.605 0 015.572 3.1 9.45 9.45 0 001.956 1.589c.483 0 1.776-1.235 2.553-1.967A7.448 7.448 0 01106.418 0a6.851 6.851 0 016.119 3.548c.757 1.097.848 1.13 1.312 1.13a2.331 2.331 0 012.322 2.34 2.33 2.33 0 01-2.322 2.338z" fill="#898890"/></svg>