<svg width="138" height="136" fill="none" xmlns="http://www.w3.org/2000/svg"><path d="M113.162 55.661V28.355H79.16V55.66C64.525 62.177 54.322 76.846 54.322 93.9c0 23.106 18.732 41.838 41.839 41.838S138 117.007 138 93.9c0-17.053-10.204-31.723-24.838-38.239z" fill="#C9FFF7"/><path d="M129.533 93.901c0 18.402-14.97 33.37-33.374 33.37a33.142 33.142 0 01-16.634-4.45c-9.997-5.769-16.736-16.572-16.736-28.92 0-9.231 3.824-17.87 10.253-24.06h46.237c6.43 6.19 10.254 14.829 10.254 24.06z" fill="#F7D360"/><path d="M86.804 55.662v-7.557a7.412 7.412 0 017.412-7.413h18.946v-8.104l-6.742-6.136-6.35-1.693-20.909 7.828v23.075c-14.637 6.516-24.839 21.184-24.839 38.239 0 23.007 18.57 41.676 41.544 41.834-12.582-.29-22.73-18.909-22.73-41.834 0-17.055 5.616-31.723 13.668-38.239z" fill="#72CEC0"/><path d="M79.525 122.821c-9.997-5.769-16.736-16.572-16.736-28.92 0-9.231 3.824-17.87 10.253-24.06h4.282c-2.64 6.805-4.189 15.102-4.189 24.06 0 11.218 2.43 21.405 6.39 28.92z" fill="#E58E13"/><path d="M81.81 117.545L54.637 70.484v-24.35H28.816v24.35l-27.171 47.06c-4.669 8.086 1.166 18.194 10.504 18.194h59.157c9.337 0 15.172-10.108 10.503-18.194z" fill="#E6E6E6"/><path d="M54.638 46.134l-7.906-4.442-15.151.158-2.766 4.284v24.348l-27.17 47.064c-4.672 8.086 1.165 18.192 10.5 18.192h16.15c-4.24 0-6.89-10.106-4.77-18.192l12.34-47.064v-12.5a4.65 4.65 0 014.651-4.65h14.122v-7.198z" fill="#CCC"/><path d="M64 40.63a5.503 5.503 0 01-5.503 5.504H24.956a5.484 5.484 0 01-3.891-1.612 5.503 5.503 0 013.891-9.395h33.54c1.519 0 2.896.615 3.892 1.611A5.493 5.493 0 0164 40.631z" fill="#CCC"/><path d="M64 40.63a5.503 5.503 0 01-5.503 5.504H38.303a5.482 5.482 0 01-3.892-1.612 5.503 5.503 0 013.892-9.395h20.194c1.518 0 2.895.615 3.891 1.611A5.493 5.493 0 0164 40.631z" fill="#E6E6E6"/><path d="M122.641 27.084a5.503 5.503 0 01-5.503 5.503h-41.49a5.484 5.484 0 01-3.892-1.611 5.504 5.504 0 013.892-9.396h41.49c1.518 0 2.895.615 3.891 1.612a5.484 5.484 0 011.612 3.892z" fill="#72CEC0"/><path d="M122.641 27.084a5.503 5.503 0 01-5.504 5.503H88.508a5.492 5.492 0 01-3.892-1.611 5.503 5.503 0 013.892-9.396h28.629c1.519 0 2.896.615 3.892 1.612a5.484 5.484 0 011.612 3.892z" fill="#C9FFF7"/><path d="M74.476 125.441c-.395.685-1.332 1.83-3.169 1.83H12.149c-1.84 0-2.777-1.145-3.172-1.83-.395-.684-.92-2.069 0-3.661l19.967-34.585h25.568l19.964 34.585c.92 1.592.395 2.977 0 3.661z" fill="#FC5F61"/><path d="M23.525 117.546c-.832 3.176-.928 6.66-.482 9.725H12.149c-1.84 0-2.777-1.145-3.172-1.831-.395-.683-.92-2.068 0-3.66l19.967-34.585h2.538l-7.957 30.351zm22.754-6.221c-1.923 0-2.838-2.471-1.373-3.725 1.456-1.247 3.742.025 3.467 1.92a2.134 2.134 0 01-2.094 1.805zm-9.336-86.779c-1.848 0-2.797-2.31-1.496-3.615a2.138 2.138 0 012.67-.262 2.13 2.13 0 01.886 2.237 2.139 2.139 0 01-2.06 1.64zm8.424-8.044c-1.916 0-2.851-2.48-1.375-3.727a2.139 2.139 0 012.506-.178 2.136 2.136 0 01.93 2.266 2.14 2.14 0 01-2.061 1.64zM40.779 4.226a2.14 2.14 0 01-2.027-1.502 2.14 2.14 0 01.85-2.376c1.57-1.048 3.696.434 3.227 2.276a2.14 2.14 0 01-2.05 1.602z" fill="#E83842"/><path d="M114.746 82.965c-1.881 0-2.819-2.403-1.431-3.677 1.329-1.22 3.549-.246 3.549 1.56a2.14 2.14 0 01-2.118 2.117zm1.475 14.117c-1.844 0-2.81-2.311-1.496-3.613a2.14 2.14 0 012.494-.368 2.136 2.136 0 011.096 2.176 2.136 2.136 0 01-2.094 1.805zm-27.608 15.937a2.133 2.133 0 01-2.01-1.453 2.137 2.137 0 01.868-2.447c1.594-1.02 3.688.514 3.181 2.345a2.138 2.138 0 01-2.04 1.555zm-9.737-17.781c-1.913 0-2.842-2.467-1.383-3.716A2.14 2.14 0 0180 91.33a2.133 2.133 0 01.947 2.227 2.137 2.137 0 01-2.071 1.68zm25.821-5.08c-1.892 0-2.829-2.416-1.42-3.683a2.14 2.14 0 012.553-.22 2.137 2.137 0 01.945 2.202 2.14 2.14 0 01-2.078 1.701z" fill="#fff"/><path d="M31.465 115.709c-.85 0-1.63-.525-1.956-1.307a2.138 2.138 0 01.644-2.472c1.509-1.18 3.774.18 3.386 2.076a2.138 2.138 0 01-2.074 1.703zm5.503-13.697a2.133 2.133 0 01-1.993-1.403 2.135 2.135 0 01.782-2.45c1.507-1.043 3.62.28 3.295 2.099a2.138 2.138 0 01-2.084 1.754z" fill="#E83842"/></svg>