<svg width="136" height="136" fill="none" xmlns="http://www.w3.org/2000/svg"><path d="M68.107 135.786c37.496 0 67.893-30.397 67.893-67.893S105.603 0 68.107 0 .214 30.397.214 67.893s30.397 67.893 67.893 67.893z" fill="#84DBFF"/><path d="M68.107 135.786c37.496 0 67.893-30.397 67.893-67.893S105.603 0 68.107 0 .214 30.397.214 67.893s30.397 67.893 67.893 67.893z" fill="#40C5EC"/><path d="M40.95 92.27c0-.534 0-.962.107-1.496.213-1.283.855-2.46 1.603-3.529.107-.107.214-.32.321-.427.107-.107.32-.107.428-.107h2.78c.214 0 .32.213.534.32.535.428.856.963 1.07 1.604.427 1.283 0 2.673-.428 3.956-.214.535-.321 1.176-.535 1.711-.107.32-.214.641-.427.962-.428.535-1.07.856-1.604 1.07-.856.32-1.711.641-2.46.213-.534-.32-.748-.855-.962-1.39-.32-.855-.427-1.924-.427-2.886zm65.006-17.748c-2.566 2.78-4.277 3.956-6.843 6.736-.962 1.07-2.138 2.245-3.635 2.245-.214 0-.535-.107-.749-.107-.962-.32-1.71-1.069-2.352-1.817-2.673-2.887-5.239-6.095-8.34-8.554-3.314-2.673-7.377-4.383-10.477-7.377-1.283-1.283-3.422-1.176-5.133-1.39-1.39-.214-2.672.428-3.742 1.283-1.069.855-1.924 1.818-3.1 2.673-1.71 1.283-3.956 1.817-6.095 1.71-.641-.106-1.39-.213-1.924-.64-.535-.429-.855-1.177-.535-1.819.107-.32.428-.641.749-.855 2.031-2.138 1.924-5.987 4.49-7.484 1.07-.642 2.246-.749 3.422-1.176 1.069-.428 2.031-1.176 2.993-1.711.963-.534 2.032-.855 3.101-1.07 1.818-.427 3.742-.427 5.667-.427 1.924 0 3.849.107 5.666.642 1.39.427 2.673 1.069 4.17 1.39 2.138.427 4.277-.107 6.415-.428.428-.107.856-.107 1.176.107.214.107.428.32.535.428.641.641 1.39 1.283 2.031 1.924 4.919 4.598 9.944 9.516 12.51 15.717z" fill="#F9B54C"/><path d="M105.956 74.522c-2.566 2.78-4.277 3.956-6.843 6.736-.962 1.07-2.138 2.245-3.635 2.245-.214 0-.535-.107-.749-.107-.962-.32-1.71-1.069-2.352-1.817-2.673-2.887-5.239-6.095-8.34-8.554-3.314-2.673-7.377-4.383-10.477-7.377-1.283-1.283-3.422-1.176-5.133-1.39-1.39-.214-2.672.428-3.742 1.283-1.069.855-1.924 1.818-3.1 2.673-1.71 1.283-3.956 1.817-6.095 1.71-.213 0-.427 0-.641-.106-.428-.107-.962-.214-1.283-.535-.535-.428-.855-1.176-.535-1.817.107-.321.428-.642.749-.856.962-.962 1.39-2.352 1.924-3.635.535-1.497 1.176-2.994 2.566-3.85 1.07-.64 2.352-.748 3.422-1.175 1.069-.428 2.031-1.176 2.993-1.711.963-.534 2.032-.855 3.101-1.07 1.818-.427 3.742-.427 5.667-.427 1.924 0 3.849.107 5.666.642 1.39.427 2.673 1.176 4.17 1.39 2.138.427 4.277-.107 6.415-.428.428 0 .856-.107 1.176.107.214.107.428.32.535.428.641.641 1.39 1.283 2.031 1.924 4.919 4.598 9.944 9.516 12.51 15.717z" fill="#F9B54C"/><path d="M105.956 74.522c-2.566 2.78-4.277 3.956-6.843 6.736-.962 1.07-2.138 2.245-3.635 2.245-.214 0-.535-.107-.749-.107-.962-.32-1.71-1.069-2.352-1.817-2.673-2.887-5.239-6.095-8.34-8.554-3.314-2.673-7.377-4.383-10.477-7.377-1.283-1.283-3.422-1.176-5.133-1.39-1.39-.214-2.672.428-3.742 1.283-1.069.855-1.924 1.818-3.1 2.673-1.71 1.283-3.956 1.817-6.095 1.71-.213 0-.427 0-.641-.106-.428-.107-.962-.214-1.283-.535-.535-.428-.855-1.176-.535-1.817v-.107c.107-.321.428-.535.642-.749.962-.962 1.39-2.352 1.924-3.635 0-.107 0-.107.107-.214.535-1.39 1.176-2.78 2.46-3.635 1.069-.642 2.352-.749 3.42-1.176 1.07-.428 2.032-1.176 2.995-1.711.962-.534 2.03-.855 3.1-1.07 1.818-.427 3.742-.427 5.667-.427 1.924 0 3.849.107 5.666.642 1.39.427 2.673 1.176 4.17 1.39 2.139.427 4.277-.107 6.415-.428.428 0 .856-.107 1.176.107.214.107.428.32.535.428.641.641 1.39 1.283 2.031 1.924 5.026 4.598 10.051 9.516 12.617 15.717z" fill="#F9B54C"/><path d="M95.05 85.641c-.107 1.283-.855 2.46-2.031 2.994-1.176.535-2.566.535-3.636-.214.856 1.283 0 3.101-1.39 3.742-1.39.642-2.993.535-4.49.321.535.321.641 1.176.32 1.711-.32.535-.961.855-1.603 1.07-1.39.427-2.994.427-4.384.106.642.535.214 1.71-.427 2.245-1.818 1.711-4.49 2.246-6.95 1.711-2.46-.428-4.704-1.71-6.843-2.994-2.138-1.283-4.276-2.566-6.736-3.314-2.352-.642-4.918-.642-7.377-1.283-3.742-.962-6.843-3.529-9.73-5.988-.534-.427-1.069-.962-1.39-1.603-.213-.749 0-1.497.214-2.139 1.497-5.025 3.208-9.943 5.346-14.755.428-1.069.963-2.138 1.71-3.1 1.284-1.71 3.53-2.78 3.636-4.811.107-.749.32-1.497.749-2.139.107-.214.32-.32.427-.534.214-.107.428-.214.642-.214l7.056-1.925c1.818-.534 3.636-.962 5.56-.855 1.39.107 2.78.641 3.956 1.39-1.07.214-2.138.534-3.1 1.069-1.07.535-1.925 1.283-2.994 1.71-1.176.428-2.352.535-3.422 1.177-2.566 1.497-2.459 5.346-4.49 7.484-.214.32-.535.535-.749.855-.32.642 0 1.39.535 1.818.535.428 1.283.535 1.924.642 2.139.213 4.277-.428 6.095-1.711 1.069-.749 2.031-1.818 3.1-2.673 1.07-.855 2.353-1.497 3.743-1.283 1.817.214 3.849.107 5.132 1.39 3.1 2.993 7.056 4.811 10.478 7.377 3.1 2.46 5.666 5.667 8.34 8.554.64.748 1.496 1.497 2.352 1.817.427.749.534 1.497.427 2.352z" fill="#FFD05B"/><path d="M95.05 85.641c-.107 1.283-.855 2.46-2.031 2.994-.963.428-2.032.535-2.994.107l-.642-.32c.214.213.321.534.321.855.107 1.069-.641 2.352-1.71 2.886-1.177.535-2.567.535-3.85.428-.213 0-.427 0-.641-.107.32.214.535.642.535 1.07 0 .213-.107.534-.214.748-.321.534-.962.855-1.604 1.07-1.39.427-2.887.427-4.277.106h-.107c.321.214.428.642.321.962-.107.428-.32.963-.748 1.283-1.818 1.711-4.49 2.246-6.95 1.711-2.46-.428-4.704-1.71-6.843-2.994-2.138-1.283-4.276-2.673-6.736-3.314-2.352-.642-4.918-.642-7.377-1.283-3.742-.963-6.843-3.529-9.73-5.988-.534-.427-1.069-.962-1.39-1.603-.213-.642 0-1.39.214-2.139 1.497-5.025 3.208-9.943 5.346-14.755.428-1.069.963-2.138 1.71-3.1 1.284-1.71 3.53-2.78 3.636-4.811.107-.749.32-1.497.749-2.139.107-.214.32-.32.427-.535.214-.106.428-.213.642-.213l7.056-1.925c1.818-.534 3.636-.962 5.56-.855 1.39.107 2.78.641 3.956 1.39-1.07.214-2.138.534-3.1 1.069-.963.535-1.925 1.283-2.994 1.71-1.176.428-2.352.535-3.422 1.177-2.566 1.497-2.459 5.346-4.49 7.484-.214.32-.535.535-.749.855-.32.642 0 1.39.535 1.818.535.428 1.283.535 1.924.641 2.139.214 4.277-.427 6.095-1.71 1.069-.749 2.031-1.818 3.1-2.673 1.07-.855 2.353-1.497 3.743-1.283 1.817.214 3.849.107 5.132 1.39 3.1 2.993 7.056 4.704 10.478 7.377 3.1 2.46 5.666 5.667 8.34 8.554.64.748 1.496 1.497 2.352 1.817.427.642.534 1.39.427 2.245z" fill="#FFD05B"/><path d="M52.07 96.013c0-.749 0-1.39.213-2.032.107-.32.32-.534.535-.748.32-.428.855-.856 1.283-1.176 1.176-.642 2.566-.642 3.956-.642.214 0 .427 0 .641.107.428.214.749.748 1.176.962.107.107.321.214.428.321.32.214.428.642.428.962.107 1.604-.642 3.208-1.925 4.17-1.283.963-3.1 1.176-4.597.535-.428-.107-.749-.321-1.176-.535a3.247 3.247 0 01-.749-.534 4.745 4.745 0 01-.214-1.39zm17 3.1c-.428.214-.856.214-1.283.428-.214.107-.428.214-.535.32-.535.214-1.07.214-1.604.214-.748 0-1.497.107-2.138-.107a3.317 3.317 0 01-1.925-.962c-.32-.32-.534-.855-.641-1.283-.107-.214-.107-.428-.107-.641 0-.535.214-.963.534-1.39.642-.749 1.497-1.176 2.353-1.604.641-.32 1.176-.642 1.817-.962a9.478 9.478 0 011.818-.856 3.844 3.844 0 012.887.214c.855.428 1.497 1.39 1.497 2.352 0 .856-.428 1.711-.856 2.46-.641.748-1.069 1.496-1.817 1.817z" fill="#F9B54C"/><path d="M73.453 101.145c-.107.213-.32.534-.428.748-.427.428-.855.535-1.39.748-.855.214-1.71.428-2.566.428-.855-.107-1.71-.428-2.245-1.069-.214-.214-.32-.428-.32-.748 0-.535.32-.963.748-1.283 1.069-.856 2.459-1.07 3.421-1.925.214-.214.428-.428.749-.641.213-.107.427-.107.641-.107.428-.107.962-.107 1.39.106.428.214.641.535.855.856.107.855-.32 2.031-.855 2.887zm15.931-12.724c.214.214.32.535.32.856-.32-.107-.534-.428-.854-.749-1.711-1.924-4.277-2.78-6.202-4.383-.641-.535-1.283-1.176-1.924-1.604-.535-.428-1.176-.749-1.818-1.176-.855-.535-1.71-1.283-2.566-1.925-.748-.641-1.604-1.39-1.604-2.352v-.107c0-.107.107-.107.214-.107.749-.107 1.39.214 2.032.642.534.427.962 1.069 1.496 1.603 1.39 1.497 2.994 2.673 4.705 3.85 1.497 1.069 2.994 2.03 4.49 3.1.642.428 1.177.855 1.711 1.39.32.428.642.855.749 1.283-.321-.107-.535-.214-.749-.32z" fill="#F9B54C"/><path d="M32.717 78.371c.428-4.49 2.566-8.767 4.704-12.83 1.283-2.566 2.673-5.132 3.956-7.805.321-.642.642-1.283 1.07-1.71 1.282-1.498 3.635-1.925 5.452-.963.321.214.749.428.962.855.214.321.214.749.214 1.07.107 1.282.214 2.566 0 3.742-.214 1.069-.641 2.031-1.176 2.993l-8.66 17.642c-.214.428-.428.855-.748 1.283-1.177 1.39-3.529 1.497-4.812.214-1.069-1.176-1.176-2.887-.962-4.49z" fill="#E6E9EE"/><path d="M44.157 56.239c-2.78 9.516-6.308 18.925-10.798 27.799-.214.428-.535.962-1.07 1.176-.32.107-.748 0-1.069 0-2.245-.214-4.277 1.39-6.629 1.818-2.994.427-5.88-1.283-8.446-2.887C11.12 80.937 5.88 78.05.428 75.377.214 72.918 0 70.46 0 68c0-12.403 3.314-23.95 9.088-34 2.138 1.176 4.17 2.46 6.308 3.635 1.71.962 3.422 2.032 5.132 2.994 2.673 1.604 5.453 3.208 7.912 5.346 1.818 1.497 3.529 3.314 5.88 3.742.963.107 1.925 0 2.888.107 2.031.214 3.849 1.604 5.452 2.887.535.427 1.177.962 1.39 1.71.428.535.214 1.176.107 1.818z" fill="#324A5E"/><path d="M95.05 53.031c.214-.32.428-.641.749-.748.214-.107.428 0 .641 0 1.39.428 2.139 2.031 2.994 3.207.856 1.177 2.139 2.032 3.208 2.994 2.887 2.673 4.811 6.415 6.522 9.944.962 1.924 1.924 3.956 2.993 5.88 1.177 2.46 2.46 4.918 2.78 7.591-1.71-.32-3.635.535-5.132-.213-.641-.321-1.069-.856-1.497-1.39-2.031-2.567-3.742-5.453-5.239-8.34-1.283-2.566-2.459-5.346-4.704-7.164-.855-.748-1.924-1.283-2.566-2.031-.428-.535-.749-1.176-1.176-1.71-1.176-2.032-2.78-3.85-4.598-5.454 1.925 0 3.956-.962 5.025-2.566z" fill="#E6E9EE"/><path d="M136 67.893c0 1.71-.107 3.314-.214 4.918-5.453 3.422-10.585 7.484-15.61 11.654-.962.856-2.138 1.711-3.421 1.283a2.912 2.912 0 01-1.283-.962c-1.818-2.031-2.566-4.918-3.743-7.377-1.069-2.246-2.566-4.277-3.956-6.309L95.157 53.673c-.32-.428-.641-.962-.534-1.497.106-.428.534-.642.855-.962 1.71-1.176 3.528-2.46 5.239-3.636 1.817-1.283 3.528-2.566 5.453-3.528 1.817-.962 3.635-1.71 5.559-2.459 5.133-2.245 10.051-5.132 14.969-7.912C132.579 43.73 136 55.383 136 67.893z" fill="#324A5E"/><path d="M84.038 93.553c-.32-.213-.749-.427-1.07-.641-1.069-.642-2.138-1.39-3.207-2.138-.32-.214-.748-.428-1.07-.749-1.603-1.07-3.207-2.031-4.81-3.1-.749-.535-1.497-.963-2.032-1.711 1.283-.214 2.566.214 3.635.962 1.07.641 2.032 1.497 2.994 2.352a22.56 22.56 0 002.887 1.925c.748.427 1.497.748 2.138 1.283.321.214.535.534.856.855-.214 0-.428 0-.642-.107.214.214.32.642.32 1.07zM78.05 96.44l-3.207-1.283c-.535-.214-1.07-.428-1.604-.748-.428-.321-.855-.642-1.283-1.07-1.924-1.603-4.17-3.207-6.629-3.1-.32 0-.641 0-.855-.214-.214-.214 0-.642.214-.855.213-.214.641-.214.962-.214.962 0 1.925.214 2.887.641 1.283.535 2.459 1.497 3.742 2.139.534.213 1.176.427 1.71.748 1.498.642 2.78 1.604 3.957 2.78h-.107c.213.428.32.748.213 1.176z" fill="#F9B54C"/><path d="M57.736 65.006c-.107.428-.321.749-.535 1.07-.641.855-1.39 1.496-2.245 1.924-.32.107-.535.214-.856.214-.427 0-.748-.32-.855-.642 0-.107-.107-.213-.107-.32.107-.321.428-.535.642-.749.962-.962 1.39-2.352 1.924-3.635 0-.107 0-.107.107-.214s.321-.107.428-.107c.214 0 .32.214.428.321.641.642 1.176 1.39 1.069 2.138zm9.301 29.296c-.106-.428.107-.962.535-1.283.535-.428 1.176-.749 1.818-.749.641 0 1.39.428 1.604 1.07.213.641 0 1.497-.321 2.138-.107.214-.214.32-.32.428-.108.107-.322.107-.536.107-.427 0-.855.107-1.283 0-.427-.107-.855-.428-.962-.856m6.522 2.993a1.577 1.577 0 00-1.069-.961c-.855-.214-1.818.534-2.031 1.497-.107.427 0 .962.427 1.176.107 0 .214.107.321.107l2.138-.214c.321-.535.321-1.07.214-1.604z" fill="#FFFEFF"/></svg>