<svg width="128" height="126" fill="none" xmlns="http://www.w3.org/2000/svg"><path d="M15.094 6.469h56.062v36.656H15.094V6.469z" fill="#88BF40"/><path d="M10.781 103.5V4.312a4.313 4.313 0 018.625 0V103.5h-8.625z" fill="#ABBAC2"/><path d="M19.406 6.469h4.313v36.656h-4.313V6.469z" fill="#7CA540"/><path d="M43.125 21.563h56.062v36.656H43.125V21.562z" fill="#0093BA"/><path d="M38.813 103.5V19.406a4.312 4.312 0 018.624 0V103.5h-8.624z" fill="#ABBAC2"/><path d="M47.438 21.563h4.312v36.656h-4.313V21.562z" fill="#047FA7"/><path d="M71.156 36.656h56.063v36.657H71.156V36.656z" fill="#EF5249"/><path d="M66.844 103.5v-69a4.312 4.312 0 118.625 0v69h-8.625z" fill="#ABBAC2"/><path d="M75.469 36.656h4.312v36.657H75.47V36.656z" fill="#DF4034"/><path d="M86.25 79.781h30.187v4.313H86.25V79.78zm34.5 0h4.313v4.313h-4.313V79.78z" fill="#CCDCE5"/><path d="M75.469 120.75a4.31 4.31 0 00-4.313-4.312h6.469a4.312 4.312 0 000-8.625h6.469a4.312 4.312 0 000-8.625H79.78a4.313 4.313 0 000-8.625H69l-1.729-3.458a9.348 9.348 0 00-16.14-1.005l-3.93 5.895a6.469 6.469 0 01-5.382 2.88h-9.475v25.875H45.28a40.848 40.848 0 0018.268 4.312h7.607a4.312 4.312 0 004.313-4.312z" fill="#F5BE9A"/><path d="M73.313 114.281H69a2.157 2.157 0 000 4.313h4.313a2.157 2.157 0 000-4.313zm6.468-8.625h-8.625a2.157 2.157 0 000 4.313h8.625a2.157 2.157 0 000-4.313zm2.156-8.625h-8.624a2.156 2.156 0 100 4.313h8.624a2.157 2.157 0 000-4.313zm-15.093-8.625H62.53a2.156 2.156 0 000 4.313h4.313a2.156 2.156 0 000-4.313z" fill="#EC917F"/><path d="M0 90.563h36.656v34.499H0v-34.5z" fill="#0093BA"/><path d="M25.875 114.281h4.313v4.312h-4.313v-4.312z" fill="#7ECCE6"/></svg>