<svg width="707" height="654" fill="none" xmlns="http://www.w3.org/2000/svg"><path d="M237.186 60.147c222.314-164.647 470 64 470 64v419s-92.186 6.353-148 20c-77.809 19.024-214.186 109.784-394 86-189-25-168.122-411.165 72-589z" fill="#FEFFFF"/><mask id="mask0" maskUnits="userSpaceOnUse" x="0" y="47" width="744" height="574"><path d="M.136 349.142c0-16.716-.553-33.581.57-50.214A328.048 328.048 0 019.57 241.12c18.945-75.603 62.65-130.917 134.1-163.266 32.445-14.69 66.543-23.178 101.9-26.98 16.135-1.766 32.279-3.262 48.485-3.682A744.643 744.643 0 01403.718 52.8c38.261 4.672 76.11 11.657 113.81 19.512 37.881 7.872 74.654 19.797 111.657 30.837 38.745 11.595 76.648 26.011 114.815 39.34v416.538c-31.305 1.322-62.405-1.03-93.449-4.855-50.059-6.172-101.119-18.483-148.629-35.207-17.876-6.288-36.085-11.61-53.652-18.768-3.648-1.489-6.331-.879-9.148 2.019-5.595 5.757-11.372 11.379-17.409 16.63-16.239 14.032-32.888 27.502-50.337 40.07-31.282 22.537-64.787 40.545-101.6 52.13-26.043 8.204-52.711 12.148-79.972 8.711-43.144-5.393-77.915-25.974-105.746-59.123-19.491-23.218-34.534-49.097-47.29-76.434-1.829-3.92-3.633-7.919-5.247-11.926-4.48-11.023-8.681-22.086-12.567-33.315-7.122-20.454-13.785-41.012-15.921-62.726-.895-9.028-1.923-18.047-2.897-27.091z" fill="#000"/></mask><g mask="url(#mask0)"><path d="M-587 39H715.55v657H-587z"/></g><mask id="mask1" maskUnits="userSpaceOnUse" x="592" y="76" width="96" height="86"><path d="M640 77c-44.253 4.317-49.333 44.333-46.5 63 27.334 10.833 83.4 29.6 89 18 14.483-30-1.5-85-42.5-81z" fill="#C4C4C4"/></mask><g mask="url(#mask1)"><path d="M-587 38H715.55v657H-587z"/></g></svg>