<svg width="1473" height="160" fill="none" xmlns="http://www.w3.org/2000/svg"><path d="M339.474-1297.21C875.641-1694.35 1473-1142.84 1473-1142.84v1010.648s-222.33 15.325-356.94 48.24C928.404-38.063 599.495 180.857 165.827 123.486c-455.822-60.3-405.469-991.751 173.647-1420.695z" fill="#E8F5FD"/><path d="M895.101-274.783c0-26.734.884-53.706-.911-80.308a525.096 525.096 0 00-14.161-92.453c-30.27-120.911-100.102-209.375-214.264-261.11-51.841-23.494-106.323-37.07-162.817-43.15-25.781-2.824-51.574-5.217-77.469-5.889a1188.775 1188.775 0 00-175.22 8.967c-61.133 7.472-121.609 18.643-181.845 31.206-60.527 12.589-119.283 31.662-178.406 49.317-61.906 18.546-122.467 41.602-183.451 62.919v666.17c50.019 2.115 99.71-1.647 149.312-7.764 79.985-9.871 161.568-29.56 237.479-56.308 28.562-10.056 57.656-18.566 85.726-30.015 5.829-2.381 10.115-1.406 14.616 3.23 8.939 9.207 18.169 18.199 27.817 26.595 25.945 22.442 52.548 43.985 80.428 64.084 49.981 36.044 103.516 64.844 162.336 83.373 41.611 13.121 84.221 19.428 127.779 13.931 68.935-8.625 124.493-41.54 168.961-94.555 31.143-37.134 55.179-78.522 75.561-122.241 2.921-6.27 5.803-12.665 8.383-19.074 7.156-17.629 13.87-35.322 20.078-53.28 11.38-32.714 22.026-65.592 25.44-100.318 1.429-14.438 3.072-28.864 4.628-43.327z" fill="#DAEFFC"/></svg>