<svg width="43" height="30" fill="none" xmlns="http://www.w3.org/2000/svg"><path d="M37.319 16.616h5.052v9.783H37.32v-9.784zm-36.904 0h5.052v9.783H.415v-9.784zm33.197-.001h-6.37a7.65 7.65 0 00-.963-.964v-5.596h-9.772v5.596c-.35.292-.672.615-.964.964h-6.37V26.4h6.37a7.621 7.621 0 005.85 2.74 7.614 7.614 0 005.85-2.74h6.37l-.001-9.784z" fill="#fff"/><path d="M5.467 14.38h3.707v14.254H5.467V14.38zm28.145 0h3.707v14.254h-3.707V14.38zM14.274 6.328h14.238v3.71H14.274v-3.71z" fill="#B0DFF8"/><path d="M18.191 3.46h6.403v2.868h-6.403V3.461z" fill="#fff"/><path d="M31.936 0H10.902a1.73 1.73 0 000 3.46h21.032a1.73 1.73 0 000-3.46z" fill="#F29019"/><path d="M21.393 24.923a3.414 3.414 0 003.412-3.416 3.414 3.414 0 00-3.412-3.415 3.414 3.414 0 00-3.412 3.415 3.414 3.414 0 003.412 3.416z" fill="#B0DFF8"/></svg>