<svg width="43" height="41" fill="none" xmlns="http://www.w3.org/2000/svg"><path d="M3.982 30.488h34.823v7.545H3.982v-7.545z" fill="#fff"/><path d="M.415 27.752h3.566V40.77H.415V27.752zm41.956 13.017h-3.566V27.752h3.566V40.77zm-20.978-16.81c6.61 0 11.967-5.364 11.967-11.98C33.36 5.363 28.002 0 21.393 0 14.784 0 9.426 5.363 9.426 11.98c0 6.615 5.358 11.979 11.967 11.979z" fill="#B0DFF8"/><path d="M21.393 23.96c-.935 0-1.866-.11-2.775-.327v6.855h5.55v-6.857c-.909.218-1.84.328-2.775.33zm9.394-11.83a9.377 9.377 0 00-2.714-6.604c-.012-.015-.023-.03-.037-.045-.014-.014-.03-.025-.046-.037a9.37 9.37 0 00-13.194 0c-.015.012-.031.023-.045.037-.014.014-.025.03-.037.045a9.39 9.39 0 000 13.21c.01.015.023.03.035.044a.592.592 0 00.834 0l.003-.003.002-.002 1.483-1.484a.59.59 0 00-.834-.835l-1.052 1.053a8.153 8.153 0 01-1.985-4.787h1.492a.59.59 0 00.417-1.008.59.59 0 00-.417-.173h-1.488a8.19 8.19 0 011.985-4.788l1.052 1.054a.59.59 0 10.834-.835l-1.052-1.054a8.175 8.175 0 014.782-1.987v1.494a.59.59 0 101.18 0V3.93a8.175 8.175 0 014.782 1.987L25.715 6.97a.591.591 0 00.834.835l1.052-1.053a8.19 8.19 0 011.985 4.787h-1.493a.59.59 0 000 1.18h1.491a8.15 8.15 0 01-1.985 4.788l-1.052-1.053a.59.59 0 10-.834.835l1.489 1.49a.592.592 0 00.834 0c.013-.014.023-.029.034-.043a9.343 9.343 0 002.717-6.607z" fill="#fff"/><path d="M23.096 18.613H19.69a.59.59 0 000 1.18h3.406a.59.59 0 100-1.18z" fill="#D6D8D8"/><path d="M19.69 15.32c0-.94 1.703-6.415 1.703-6.415s1.703 5.475 1.703 6.416a1.706 1.706 0 01-1.703 1.704 1.702 1.702 0 01-1.703-1.704z" fill="#F29019"/></svg>