<svg width="40" height="40" viewBox="0 0 40 40" fill="none" xmlns="http://www.w3.org/2000/svg">
<rect width="40" height="40" rx="20" fill="white"/>
<path d="M13.2759 11.316C12.0901 12.5668 11.1951 13.7331 11 14.8765C11.0323 17.4561 13.4649 20.6502 16.3879 23.569C19.2956 26.4723 22.6632 29.3385 25.1114 28.9675C26.262 28.7719 27.4359 27.87 28.6973 26.6753C29.1023 26.2889 29.1021 25.4576 28.6892 25.0452L26.1997 22.5595C25.7703 22.1308 24.9375 22.1306 24.3906 22.42L22.7147 23.647C21.8203 24.409 19.9359 22.5393 18.685 21.2903C17.437 20.0442 15.5326 18.3522 16.3354 17.259L17.5607 15.5903C17.8464 15.0498 17.8462 14.2184 17.4368 13.8096L14.9571 11.3336C14.5148 10.8919 13.682 10.8917 13.2758 11.3161L13.2759 11.316Z" fill="#222222"/>
</svg>
