<svg width="40" height="40" viewBox="0 0 40 40" fill="none" xmlns="http://www.w3.org/2000/svg">
<circle cx="20" cy="20" r="20" fill="#222222"/>
<path d="M8.85715 25.7273C8.62985 25.7273 8.41173 25.6411 8.25102 25.4877C8.09031 25.3343 8 25.1261 8 24.9091V18.3636C8 18.0712 8.16339 17.8011 8.42857 17.655C8.69375 17.5089 9.02054 17.5089 9.28572 17.655C9.55089 17.8011 9.71429 18.0712 9.71429 18.3636V24.9091C9.71429 25.1261 9.62398 25.3343 9.46327 25.4877C9.30256 25.6411 9.08444 25.7273 8.85715 25.7273Z" fill="white"/>
<path d="M11.4286 22.4547H8.85713C8.55082 22.4547 8.26786 22.2988 8.1148 22.0456C7.96173 21.7925 7.96173 21.4806 8.1148 21.2275C8.26786 20.9743 8.55083 20.8184 8.85713 20.8184H11.4286C11.7349 20.8184 12.0178 20.9743 12.1709 21.2275C12.324 21.4806 12.324 21.7925 12.1709 22.0456C12.0178 22.2988 11.7349 22.4547 11.4286 22.4547Z" fill="white"/>
<path d="M25.1425 28.9999H16.5711C16.3013 28.9999 16.0472 28.8786 15.8853 28.6726L13.5711 25.7271H11.4282C11.2009 25.7271 10.9828 25.6409 10.8221 25.4875C10.6614 25.3341 10.571 25.1259 10.571 24.9089V17.5452C10.571 17.3283 10.6614 17.1201 10.8221 16.9666C10.9828 16.8132 11.2009 16.727 11.4282 16.727H13.1425V15.0907C13.1425 14.8737 13.2328 14.6655 13.3935 14.5121C13.5542 14.3587 13.7723 14.2725 13.9996 14.2725H22.5711C22.8319 14.2736 23.0779 14.3881 23.2396 14.5833L26.411 18.3634H26.8568V16.7271C26.8568 16.5101 26.9471 16.3019 27.1078 16.1485C27.2685 15.9951 27.4866 15.9089 27.7139 15.9089H29.4282C30.1103 15.9089 30.7642 16.1675 31.2466 16.6277C31.7287 17.0881 31.9996 17.7123 31.9996 18.3634V24.909C31.9996 25.5601 31.7287 26.1843 31.2466 26.6447C30.7642 27.1049 30.1103 27.3635 29.4282 27.3635H27.7139C27.4866 27.3635 27.2685 27.2773 27.1078 27.1239C26.9471 26.9705 26.8568 26.7623 26.8568 26.5453V24.909H25.9996V28.1817C25.9996 28.3987 25.9093 28.6069 25.7486 28.7603C25.5879 28.9137 25.3698 28.9999 25.1425 28.9999ZM16.9996 27.3635H24.2854V24.0908C24.2854 23.8738 24.3757 23.6656 24.5364 23.5122C24.6971 23.3588 24.9152 23.2726 25.1425 23.2726H27.7139C27.9412 23.2726 28.1594 23.3588 28.3201 23.5122C28.4808 23.6656 28.5711 23.8738 28.5711 24.0908V25.7271H29.4282C29.6555 25.7271 29.8736 25.6409 30.0344 25.4875C30.1951 25.3341 30.2854 25.1259 30.2854 24.9089V18.3634C30.2854 18.1465 30.1951 17.9382 30.0344 17.7848C29.8736 17.6314 29.6555 17.5452 29.4282 17.5452H28.5711V19.1816C28.5711 19.3986 28.4808 19.6068 28.3201 19.7602C28.1594 19.9136 27.9412 19.9998 27.7139 19.9998H25.9997C25.7389 19.9987 25.4928 19.8842 25.3312 19.689L22.1597 15.9088H14.8569V17.5452C14.8569 17.7622 14.7666 17.9704 14.6058 18.1238C14.4451 18.2772 14.227 18.3634 13.9997 18.3634H12.2854V24.0907H13.9997C14.2695 24.0907 14.5236 24.212 14.6854 24.418L16.9996 27.3635Z" fill="white"/>
<path d="M21.7148 12.6364H14.8576C14.5513 12.6364 14.2683 12.4804 14.1153 12.2273C13.9622 11.9742 13.9622 11.6622 14.1153 11.4091C14.2683 11.156 14.5513 11 14.8576 11H21.7148C22.0211 11 22.3041 11.156 22.4571 11.4091C22.6102 11.6622 22.6102 11.9742 22.4571 12.2273C22.3041 12.4804 22.0211 12.6364 21.7148 12.6364Z" fill="white"/>
<path d="M18.2856 15.9091C18.0583 15.9091 17.8402 15.8229 17.6795 15.6695C17.5188 15.5161 17.4285 15.3079 17.4285 15.0909V11.8182C17.4285 11.5258 17.5919 11.2557 17.857 11.1096C18.1222 10.9635 18.449 10.9635 18.7142 11.1096C18.9794 11.2557 19.1428 11.5258 19.1428 11.8182V15.0909C19.1428 15.3079 19.0524 15.5161 18.8917 15.6695C18.731 15.8229 18.5129 15.9091 18.2856 15.9091Z" fill="white"/>
</svg>
