<svg width="40" height="40" viewBox="0 0 40 40" fill="none" xmlns="http://www.w3.org/2000/svg">
<circle cx="20" cy="20" r="20" fill="#222222"/>
<path d="M11.3578 25.7015L11.2259 25.0235L10.553 25.1793C10.2871 25.2409 9.91652 25.1811 9.5171 25.0448C9.80304 24.851 10.0551 24.6446 10.2645 24.4562C10.518 24.2282 10.7225 24.0143 10.8645 23.8565C10.9357 23.7774 10.9917 23.7117 11.0308 23.6647C11.0504 23.6412 11.0658 23.6223 11.0768 23.6087L11.0899 23.5922L11.094 23.5871L11.0954 23.5853L11.0959 23.5846L11.0962 23.5843C11.0963 23.5842 11.0964 23.584 10.5706 23.1742L11.0964 23.584L12.6809 21.5516L10.3095 22.5607C10.1834 22.6144 10.0489 22.646 9.90998 22.6599C10.2223 22.4542 10.488 22.2453 10.7081 22.0518C10.9787 21.8138 11.1818 21.598 11.3197 21.4381C11.3887 21.3581 11.4417 21.2919 11.4788 21.2435C11.4973 21.2194 11.512 21.1996 11.5227 21.1849L11.5359 21.1665L11.5403 21.1603L11.542 21.1579L11.5427 21.1569L11.543 21.1564C11.5431 21.1562 11.5433 21.156 10.9947 20.7771L11.5433 21.156L12.601 19.6245L11.0669 20.0631C11.133 20.0166 11.1967 19.9707 11.2577 19.926C11.5337 19.7239 11.765 19.5376 11.9279 19.4014C12.0096 19.3331 12.0744 19.2771 12.1195 19.2375C12.1421 19.2177 12.1597 19.202 12.1721 19.191L12.1867 19.1778L12.1909 19.174L12.1923 19.1728L12.1927 19.1724L12.1929 19.1722C12.193 19.1721 12.1931 19.172 11.7437 18.6796L12.1931 19.172L13.9183 17.5975L11.6219 18.0242C11.5769 18.0325 11.5246 18.036 11.4664 18.035C11.7661 17.8508 12.0831 17.7102 12.3833 17.6046C12.6851 17.4983 12.9554 17.4325 13.1487 17.3935C13.245 17.3741 13.3211 17.3616 13.3713 17.3541C13.3963 17.3504 13.4148 17.3479 13.426 17.3465L13.4372 17.3452C13.4375 17.3451 13.4378 17.3451 13.438 17.3451C13.4383 17.345 13.4385 17.345 13.4384 17.345L15.3079 17.1468L13.7292 16.1229C13.5136 15.9831 13.2931 15.8675 13.079 15.7721C13.3093 15.6854 13.5322 15.6196 13.7377 15.57C14.0278 15.4999 14.2756 15.4637 14.4482 15.4452C14.5342 15.436 14.6009 15.4312 14.644 15.4288C14.6656 15.4275 14.6812 15.4269 14.6903 15.4266L14.699 15.4263C14.6996 15.4263 14.6998 15.4263 14.6996 15.4263L14.6989 15.4263L14.6983 15.4264L14.698 15.4264C14.6979 15.4264 14.6979 15.4264 14.6978 15.4223L14.7742 14.0986C14.5398 14.0682 14.2969 13.9946 14.0581 13.8949C14.0754 13.8906 14.0926 13.8862 14.1098 13.8817L14.11 13.8816C14.4847 13.7829 14.9337 13.773 15.3161 13.7962C15.5019 13.8075 15.6609 13.8258 15.7725 13.8412C15.8008 13.8451 15.826 13.8488 15.8476 13.8521C15.8907 13.8607 15.9343 13.8679 15.9785 13.8735L16.1869 12.5572L16.0614 13.212C16.1869 12.5572 16.1868 12.5572 16.1867 12.5572L16.1864 12.5571L16.1858 12.557L16.1842 12.5567L16.1798 12.5559L16.1659 12.5533C16.1545 12.5513 16.1387 12.5485 16.1189 12.5452C16.1103 12.5438 16.101 12.5423 16.091 12.5407C15.9845 12.5153 15.8433 12.4498 15.6709 12.3248C15.5941 12.269 15.5172 12.206 15.4413 12.1378C16.1066 12.1443 16.9723 12.1083 18.0402 11.9764L18.0403 11.9764C19.2387 11.8283 20.2648 12.105 20.9989 12.4251C21.3652 12.5849 21.6541 12.7535 21.8487 12.8801C21.9458 12.9432 22.0188 12.9955 22.0655 13.0303C22.0888 13.0477 22.1055 13.0607 22.1153 13.0684L22.1249 13.076L22.1251 13.0762L22.1257 13.0767L22.9473 13.7616L23.1988 12.7195C23.3306 12.1732 23.6003 11.6657 23.8706 11.2622C23.94 11.3683 24.0097 11.4636 24.0762 11.5476C24.2005 11.7045 24.3165 11.8258 24.4042 11.9102C24.4481 11.9525 24.4853 11.9858 24.5132 12.0099C24.5272 12.022 24.539 12.0319 24.5482 12.0394L24.56 12.049L24.5644 12.0526L24.5662 12.054L24.567 12.0546L24.5674 12.0549C24.5676 12.0551 24.5678 12.0552 24.9795 11.5309L24.5678 12.0552L25.1727 12.5304L25.3577 12.2096C25.3633 12.3367 25.3712 12.4584 25.3803 12.5722C25.409 12.9336 25.4531 13.2575 25.4898 13.4909C25.5082 13.6079 25.5249 13.703 25.5372 13.7698C25.5434 13.8032 25.5485 13.8296 25.5521 13.8481L25.5564 13.8699L25.5577 13.8762L25.5581 13.8782L25.5582 13.8788L25.5583 13.8791C25.5583 13.8792 25.5583 13.8793 26.2113 13.7448L25.5583 13.8793L25.6229 14.1931L25.9083 14.3387C26.7702 14.7784 27.0772 15.3511 27.5229 16.2711C27.5355 16.2972 27.5482 16.3234 27.561 16.3499C28.0115 17.2809 28.5786 18.4532 29.9652 19.7534C31.0012 20.7249 31.295 21.3667 31.3296 21.7653C31.3601 22.1163 31.1997 22.4411 30.7785 22.8392L30.7784 22.8393C30.3829 23.2131 30.1091 23.3971 29.928 23.4816C29.8409 23.5222 29.7848 23.5352 29.7542 23.5394C29.7261 23.5431 29.7129 23.5404 29.7068 23.5389C29.6874 23.5342 29.6437 23.5172 29.5272 23.4182C29.513 23.4061 29.4946 23.3898 29.4728 23.3704C29.3737 23.2824 29.2035 23.1312 29.0322 23.0304C27.6092 22.1917 26.6969 22.087 25.8302 22.094C25.7147 22.0949 25.6034 22.0974 25.4944 22.0999C24.8529 22.1144 24.2881 22.1272 23.3944 21.8028L23.3944 21.8028C22.5871 21.5099 21.7776 21.3703 21.1065 21.5331C20.7574 21.6178 20.4283 21.7894 20.1775 22.0789C19.9262 22.3689 19.7952 22.7292 19.7602 23.1188C19.6932 23.8667 19.9715 24.7919 20.5323 25.8658C20.9975 26.7568 21.6865 27.8051 22.6339 29.0213C22.5898 29.0289 22.5445 29.0366 22.498 29.0443C21.7512 29.1683 20.6996 29.2995 19.4855 29.3278C17.1209 29.3828 14.2082 29.0456 11.722 27.5732L11.3578 25.7015Z" stroke="white" stroke-width="1.33333"/>
</svg>
