<svg width="40" height="40" viewBox="0 0 40 40" fill="none" xmlns="http://www.w3.org/2000/svg">
<circle cx="20" cy="20" r="20" fill="#222222"/>
<path d="M26.2999 17.1427H27.2C28.1899 17.1427 29 16.3713 29 15.4284L28.9998 11.7143C28.9998 10.7715 28.1898 10 27.1997 10H26.2997C25.3098 10 24.4997 10.7715 24.4997 11.7143V12.8571H21.6797L20.6598 11.8857C20.6299 11.8572 20.5997 11.8572 20.5698 11.8285C20.4198 11.7143 20.2099 11.6284 19.9998 11.6284C19.8198 11.6284 19.6399 11.6856 19.4898 11.7713C19.4298 11.7998 19.3998 11.8285 19.3398 11.8855L18.3801 12.8571H15.5001V11.7144C15.5001 10.7715 14.6901 10 13.7001 10H12.8C11.8101 10 11 10.7715 11 11.7144V15.4286C11 16.3714 11.81 17.143 12.8 17.143H13.7001C14.69 17.143 15.5001 16.3715 15.5001 15.4286V14.2859H18.3801L19.4 15.2572V25.7141H15.5001V24.5714C15.5001 23.6286 14.6901 22.8571 13.7001 22.8571H12.8C11.8101 22.8571 11 23.6285 11 24.5714V28.2857C11 29.2285 11.81 30 12.8 30H13.7001C14.69 30 15.5001 29.2285 15.5001 28.2857V27.1429H24.4998V28.2857C24.4998 29.2285 25.3099 30 26.2999 30H27.1999C28.1899 30 29 29.2285 29 28.2857L28.9997 24.5714C28.9997 23.6286 28.1897 22.8571 27.1997 22.8571H26.2997C25.3097 22.8571 24.4996 23.6285 24.4996 24.5714V25.7141H20.9V15.0287L21.6799 14.2859H24.4999V15.4286C24.4999 16.3714 25.3099 17.143 26.2999 17.143L26.2999 17.1427ZM25.6998 11.7143C25.6998 11.4 25.9697 11.1429 26.2997 11.1429H27.1997C27.5297 11.1429 27.7997 11.4 27.7997 11.7143V15.4285C27.7997 15.7428 27.5297 15.9999 27.1997 15.9999H26.2997C25.9697 15.9999 25.6998 15.7428 25.6998 15.4285V11.7143ZM14.3002 15.4283C14.3002 15.7426 14.0302 15.9997 13.7002 15.9997H12.8002C12.4702 15.9997 12.2003 15.7426 12.2003 15.4283L12.2001 11.7143C12.2001 11.4 12.47 11.1429 12.8 11.1429H13.7C14.03 11.1429 14.2999 11.4 14.2999 11.7143L14.3002 15.4283ZM14.3002 28.2852C14.3002 28.5995 14.0302 28.8566 13.7002 28.8566H12.8002C12.4702 28.8566 12.2003 28.5995 12.2003 28.2852L12.2001 24.5711C12.2001 24.2569 12.47 23.9998 12.8 23.9998H13.7C14.03 23.9998 14.2999 24.2569 14.2999 24.5711L14.3002 28.2852ZM25.6998 24.5711C25.6998 24.2569 25.9697 23.9998 26.2997 23.9998H27.1997C27.5297 23.9998 27.7997 24.2569 27.7997 24.5711V28.2854C27.7997 28.5997 27.5297 28.8568 27.1997 28.8568H26.2997C25.9697 28.8568 25.6998 28.5997 25.6998 28.2854V24.5711ZM20.03 14.2285L19.34 13.5714L20.03 12.9144L20.7199 13.5714L20.03 14.2285Z" fill="white"/>
</svg>
