<svg width="40" height="40" viewBox="0 0 40 40" fill="none" xmlns="http://www.w3.org/2000/svg">
<circle cx="20" cy="20" r="20" fill="#222222"/>
<path fill-rule="evenodd" clip-rule="evenodd" d="M17.3 11.878C17.3 11.3931 16.8972 11 16.4001 11C15.903 11 15.5 11.3931 15.5 11.878V12.3224C15.0537 12.3291 14.6571 12.3447 14.3077 12.3803C13.6603 12.4464 13.0732 12.5889 12.5512 12.9414C12.195 13.1818 11.8863 13.483 11.6398 13.8305C11.2784 14.3397 11.1325 14.9124 11.0648 15.544C11.0054 16.0988 11.0005 16.7758 11 17.5853V17.72V17.8127V22.9158C10.9999 24.1047 10.9999 25.0851 11.1068 25.8611C11.2191 26.6757 11.4639 27.3953 12.0544 27.9714C12.6449 28.5474 13.3824 28.7863 14.2174 28.8958C15.0128 29.0001 16.0178 29 17.2365 29H22.7634C23.9822 29 24.9872 29.0001 25.7826 28.8958C26.6176 28.7863 27.3552 28.5474 27.9456 27.9714C28.5361 27.3953 28.7809 26.6757 28.8932 25.8611C29.0001 25.0851 29 24.1047 29 22.9158V17.8127V17.7325V17.5853C28.9995 16.7758 28.9946 16.0988 28.9352 15.544C28.8676 14.9124 28.7216 14.3397 28.3603 13.8305C28.1138 13.483 27.8049 13.1819 27.4488 12.9414C26.9268 12.5889 26.3397 12.4464 25.6923 12.3803C25.3429 12.3447 24.9463 12.3291 24.5001 12.3224V11.878C24.5001 11.393 24.097 11 23.5999 11C23.1029 11 22.7 11.393 22.7 11.878V12.3171H17.2999L17.3 11.878ZM27.1999 17.5854C27.1993 16.7631 27.1936 16.1814 27.1449 15.7266C27.0925 15.2382 26.9986 14.9971 26.88 14.8298C26.7568 14.6562 26.6025 14.5056 26.4244 14.3853C26.2531 14.2697 26.0058 14.1781 25.5052 14.1269C25.2254 14.0984 24.8987 14.085 24.5 14.0787V14.5122C24.5 14.9972 24.097 15.3904 23.5999 15.3904C23.1028 15.3904 22.7 14.9972 22.7 14.5122V14.0733H17.2999V14.5122C17.2999 14.9972 16.897 15.3904 16.3999 15.3904C15.9028 15.3904 15.4998 14.9972 15.4998 14.5122V14.0787C15.1011 14.085 14.7745 14.0984 14.4947 14.1269C13.994 14.1781 13.7467 14.2697 13.5754 14.3853C13.3973 14.5056 13.243 14.6563 13.1198 14.8298C13.0012 14.9971 12.9072 15.2382 12.8549 15.7266C12.8063 16.1814 12.8005 16.7631 12.7999 17.5854H27.1999ZM12.7998 19.3415V22.8537C12.7998 24.1203 12.8018 24.9818 12.8907 25.627C12.9761 26.247 13.1268 26.5341 13.327 26.7294C13.5274 26.9249 13.8217 27.0719 14.4572 27.1553C15.1185 27.242 16.0018 27.2439 17.2999 27.2439H22.7C23.9983 27.2439 24.8814 27.242 25.5427 27.1553C26.1783 27.0719 26.4725 26.9249 26.6728 26.7294C26.8732 26.5341 27.0238 26.247 27.1092 25.627C27.1981 24.9818 27.2001 24.1203 27.2001 22.8537V19.3415H12.7998Z" fill="white"/>
</svg>
