<svg width="40" height="40" viewBox="0 0 40 40" fill="none" xmlns="http://www.w3.org/2000/svg">
<circle cx="20" cy="20" r="20" fill="#222222"/>
<path fill-rule="evenodd" clip-rule="evenodd" d="M13.0625 10.625V28.75H12.4375C12.0925 28.75 11.8125 29.0294 11.8125 29.375C11.8125 29.7206 12.0925 30 12.4375 30H26.1875C26.5325 30 26.8125 29.7206 26.8125 29.375C26.8125 29.0294 26.5325 28.75 26.1875 28.75H25.5625V26.25H27.4375V26.2501C29.1606 26.2501 30.5625 24.8482 30.5625 23.1251L30.5625 17.5L30.5625 15.6251C30.5625 15.6219 30.5625 15.6186 30.5624 15.6153C30.5599 15.4526 30.4946 15.2977 30.3793 15.1832L28.5043 13.3082C28.5033 13.3071 28.5022 13.3061 28.5012 13.305L27.2545 12.0583C27.01 11.8139 26.6151 11.8139 26.3707 12.0583C26.1263 12.3027 26.1263 12.6977 26.3707 12.9421L26.8854 13.4568C26.8389 13.5442 26.8125 13.644 26.8125 13.75V17.5C26.8125 17.8456 27.0925 18.125 27.4375 18.125H29.3125V23.125C29.3125 24.1587 28.4712 25 27.4375 25H25.5625V10.625C25.5625 10.2794 25.2825 10 24.9375 10H13.6875C13.3425 10 13.0625 10.2794 13.0625 10.625ZM29.3125 16.875V15.8839L28.0625 14.6339V16.875H29.3125ZM14.3125 28.75H24.3125V11.25H14.3125V28.75ZM16.1875 18.75H22.4375C22.7825 18.75 23.0625 18.4706 23.0625 18.125V13.125C23.0625 12.7794 22.7825 12.5 22.4375 12.5H16.1875C15.8425 12.5 15.5625 12.7794 15.5625 13.125V18.125C15.5625 18.4706 15.8425 18.75 16.1875 18.75ZM21.8125 17.5H16.8125V13.75H21.8125V17.5Z" fill="white"/>
</svg>
