<svg xmlns="http://www.w3.org/2000/svg" width="24" height="24"><path fill="#99d72c" d="M6.955 16.201c-.25-.07-.673-.084-.719-.222-.132-.406-.279-.945-.11-1.273.17-.33.702-.643 1.09-.66 1.1-.05 2.05-.712 2.306-1.76.22-.895.399-1.81.728-2.667.561-1.459 1.57-2.48 3.174-2.795 2.185-.43 3.922 1.353 3.423 3.522-.325 1.416-1.239 2.37-2.526 2.9-.98.403-2.08.517-3.054.931-.677.288-1.235.862-1.827 1.332-.064.051-.045.274.003.39.246.595.119 1.144-.395 1.453-.318.191-.83.237-1.195.134-.61-.172-.777-.719-.707-1.329.007-.056-.006-.114-.01-.172-.06.073-.12.145-.181.216zm5.015 7.47C5.517 23.67.268 18.42.268 11.969S5.517.268 11.97.268c6.452 0 11.7 5.249 11.7 11.701 0 6.452-5.248 11.702-11.7 11.702zm0-21.723c-5.526 0-10.022 4.495-10.022 10.021 0 5.526 4.495 10.022 10.022 10.022 5.525 0 10.021-4.496 10.021-10.022S17.495 1.948 11.97 1.948z"/></svg>