<svg xmlns="http://www.w3.org/2000/svg" width="24" height="24"><path fill="#99d72c" d="M11.576 15.707c-1.756-.077-3.125-1.781-2.595-3.579 1.228.453 2.229 1.125 2.51 2.518.071.35.096.704.085 1.061zm-2.6-.171c1.236.454 2.24 1.128 2.513 2.522.06.303.065.617.094.925.003.043-.01.089-.014.132-1.638-.065-3.113-1.646-2.594-3.58zm.001-6.822c.737.284 1.425.622 1.93 1.246.357.442.548.954.624 1.512.028.203.037.409.05.614.005.07-.005.143-.008.215-1.692-.078-3.117-1.701-2.596-3.587zm1.964-3.792c.456.443.867.908 1.128 1.485.384.846.303 1.689-.024 2.529-.033.085-.07.169-.106.253-.007.016-.019.031-.028.046-1.487-.675-2.211-2.781-.97-4.313zm1.508 6.49c-.105-1.716.689-2.94 2.58-3.574m-2.579 6.986c-.11-1.72.692-2.948 2.584-3.579m-2.583 6.99c-.103-1.695.64-2.91 2.574-3.583m-3.059 9.018C5.514 23.67.265 18.42.265 11.968S5.514.266 11.966.266c6.453 0 11.702 5.25 11.702 11.702S18.418 23.67 11.966 23.67zm0-21.724c-5.526 0-10.021 4.496-10.021 10.022S6.44 21.99 11.966 21.99c5.526 0 10.022-4.496 10.022-10.022S17.492 1.946 11.966 1.946z"/></svg>