<svg xmlns="http://www.w3.org/2000/svg" width="24" height="24"><path fill="#99d72c" d="M15.73 13.914c0 2.478-1.697 4.22-3.79 4.22s-3.789-1.742-3.789-4.22c0-3.407 3.345-8.76 3.79-8.76.406 0 3.789 5.103 3.789 8.76zm-2.956-1.229c-.046.35 1.162.905 1.338-.445.17-1.298-1.842-5.443-1.842-5.443s.715 4.29.504 5.888zm1.499 2.05a.733.733 0 0 0-.743-.72.732.732 0 0 0-.744.72c0 .4.332.722.744.722.41 0 .743-.323.743-.722zm-2.307 8.935C5.514 23.67.265 18.42.265 11.968S5.514.266 11.966.266c6.453 0 11.702 5.25 11.702 11.702S18.418 23.67 11.966 23.67zm0-21.724c-5.526 0-10.021 4.496-10.021 10.022S6.44 21.99 11.966 21.99c5.526 0 10.022-4.496 10.022-10.022S17.492 1.946 11.966 1.946z"/></svg>