<svg xmlns="http://www.w3.org/2000/svg" width="92" height="85"><path d="M91.25 31.73a21.434 21.434 0 0 0-2.36-6.4c-.21-.17.99 2.28 1.83 5.74a30.278 30.278 0 0 0-4.55-10.11 33.8 33.8 0 0 0-7.66-7.85 26.589 26.589 0 0 0-5.93-3.45c-.37-.05 1.93 1.08 4.82 3.1a34.429 34.429 0 0 1 7.06 6.53 30.389 30.389 0 0 1 4.84 8.41c-.19-.17.81 2.39 1.37 5.9a37.871 37.871 0 0 1-1.18 16.26 43.762 43.762 0 0 1-4.43 10.43 44.325 44.325 0 0 0 5.05-13.09 38.111 38.111 0 0 0 .89-9.49 30.856 30.856 0 0 0-1.81-9.47 29.747 29.747 0 0 0-4.72-8.43 34 34 0 0 0-7-6.56A44.367 44.367 0 0 0 60.06 6.1a28.762 28.762 0 0 0-6.79-.64c-.02.11 3.03.29 6.74 1a43.259 43.259 0 0 1 18.77 8.22c-.05.09 1.76 1.51 3.83 3.79l-.54-.57a35.769 35.769 0 0 0-8.54-6.47 44.264 44.264 0 0 0-9.87-3.95 27.161 27.161 0 0 0-6.7-1.13.241.241 0 0 0 .08.03c-.72-.08-1.43-.15-2.15-.21a51.758 51.758 0 0 0-8.53-.07 49.386 49.386 0 0 0-11.21 2.12c-.55.17-1.05.34-1.52.51l.07-.03c3.29-1.24 5.53-1.78 4.67-1.69a34.094 34.094 0 0 0-8.29 2.8 41.714 41.714 0 0 0-4.774 2.69c.035-.02.069-.05.1-.07 2.981-1.95 5.492-3.2 5.3-3.23a29.52 29.52 0 0 0-5.96 3.22 42.036 42.036 0 0 0-13.27 13.99 17.545 17.545 0 0 0-1.884 3.32 39.528 39.528 0 0 1 4.154-7.14 42.049 42.049 0 0 1 7.764-8.03c2.805-2.23 5.213-3.69 5.021-3.7a28.2 28.2 0 0 0-5.676 3.76 41.9 41.9 0 0 0-8.119 8.76 40.912 40.912 0 0 0-5.239 10.71 49.143 49.143 0 0 0-2.195 11.82 52.5 52.5 0 0 0-.078 6.02 30.623 30.623 0 0 0 .873 5.8 25.914 25.914 0 0 0 5.182 10.29 29.3 29.3 0 0 0 9.1 7.23A39.852 39.852 0 0 0 31.617 79a49.923 49.923 0 0 0 11.97.64 51.9 51.9 0 0 0 22.83-6.9 39.858 39.858 0 0 0 19.87-28.32 30.517 30.517 0 0 0-.19-11.67 25.612 25.612 0 0 0-4.98-10.37 31.066 31.066 0 0 0-8.96-7.53 44.716 44.716 0 0 0-23.12-5.46 45.913 45.913 0 0 0-11.92 1.89 40.962 40.962 0 0 0-8.085 3.39c.474-.3.958-.59 1.46-.87a39.594 39.594 0 0 1 4.635-1.96 46.823 46.823 0 0 1 23-1.95 43.561 43.561 0 0 1 11.06 3.3 34.073 34.073 0 0 1 9.47 6.31 26.419 26.419 0 0 1 6.33 9.2 27.328 27.328 0 0 1 1.92 11.02 39.666 39.666 0 0 1-7.33 21.44 43.8 43.8 0 0 1-17.83 14.26 53.217 53.217 0 0 1-22.63 4.61 46.461 46.461 0 0 1-11.451-1.6A36.424 36.424 0 0 1 17.21 73.8a27.757 27.757 0 0 1-8.008-7.93 27.226 27.226 0 0 1-4.047-10.53 33.858 33.858 0 0 1-.443-5.74 58.063 58.063 0 0 1 .29-5.86 47.983 47.983 0 0 1 2.522-11.39 41.026 41.026 0 0 1 5.4-10.27 42.959 42.959 0 0 1 8.055-8.42c2.758-2.2 4.828-3.49 4.3-3.29a23.588 23.588 0 0 0-3.418 2.17 55.924 55.924 0 0 1 16.5-8.46c3.32-1.06 5.51-1.54 4.79-1.5a35.918 35.918 0 0 0-7.13 1.91 54.712 54.712 0 0 0-16.246 9.19l-.062.04a52.984 52.984 0 0 1 8.255-5.67q2.369-1.32 4.883-2.45c1.67-.75 3.38-1.44 5.2-2.1.92-.34 1.85-.66 2.95-1.04l.9-.31c.33-.12.69-.24 1.14-.42.23-.09.48-.2.77-.33l.21-.11.12-.06.15-.09.02-.01.13-.08a1.779 1.779 0 0 0 .23-.19.41.41 0 0 0 .17-.38.671.671 0 0 0-.45-.31 5.312 5.312 0 0 0-1.42-.18 14.71 14.71 0 0 0-1.75.13 31.21 31.21 0 0 0-2.87.55c-1.07.25-2.06.53-3.02.83a55.565 55.565 0 0 0-10.717 4.64 50.553 50.553 0 0 0-9.379 6.77A45.335 45.335 0 0 0 2.71 32.24 52.962 52.962 0 0 0 .323 43.49c-.2 1.9-.3 3.8-.328 5.69a39.775 39.775 0 0 0 .308 5.85 32.637 32.637 0 0 0 3.593 11.33 31.61 31.61 0 0 0 7.556 9.21 37.758 37.758 0 0 0 10.081 5.97 46.939 46.939 0 0 0 11.138 2.94 57.206 57.206 0 0 0 22.57-1.47 53.753 53.753 0 0 0 20.22-10.19 44.761 44.761 0 0 0 13.46-18.36 46.375 46.375 0 0 0 2.81-11.1 35.045 35.045 0 0 0-.481-11.63zM25.92 12.64c.041-.03.435-.3.982-.63s1.225-.73 1.953-1.12q.612-.33 1.236-.63l-.7.38c-.623.35-.841.52-.221.26.6-.24 1.935-.84 3.655-1.49a48.026 48.026 0 0 0-4.97 2.2c-.711.37-1.349.72-1.693.91s-.249.14-.242.12zm4.453 2.35a41.4 41.4 0 0 1 11.357-3.9 46.519 46.519 0 0 1 11.89-.69 45 45 0 0 1 11.59 2.32 36.3 36.3 0 0 1 10.25 5.41 27.089 27.089 0 0 1 7.38 8.49 25.007 25.007 0 0 1 2.96 10.74 34.425 34.425 0 0 1-1.45 11.42 38 38 0 0 1-4.84 10.53 42.239 42.239 0 0 1-17.74 14.84 52.005 52.005 0 0 1-23.03 4.66A45.067 45.067 0 0 1 27.165 77a34.085 34.085 0 0 1-10.316-5.01 25.759 25.759 0 0 1-7.438-8.32A26.822 26.822 0 0 1 6.217 52.9c-.086-.95-.126-1.91-.128-2.88 0-1 .022-2 .068-2.99a53.473 53.473 0 0 1 .609-5.92 43.765 43.765 0 0 1 3.356-11.25 39.169 39.169 0 0 1 6.359-9.78c.3-.34.606-.67.917-1a.278.278 0 0 0-.011.09.527.527 0 0 0 .455-.19 12.232 12.232 0 0 0 1.038-.78c.845-.68 1.571-1.26 2.216-1.75 1.279-.99 2.344-1.73 3.353-2.38s1.939-1.21 2.878-1.72c-.389.27.066.06 1.057-.42a34.065 34.065 0 0 0-5.23 3.79c-.47.42-.941.86-1.472 1.42-.267.28-.546.58-.886.98-.17.21-.355.44-.579.73a11.957 11.957 0 0 0-.808 1.25 5.575 5.575 0 0 0-.458 1.07 1.728 1.728 0 0 0-.078.62c.122.38-.025.12.195.36a1.42 1.42 0 0 0 1.152-.26 12.308 12.308 0 0 0 1.044-.67c.543-.39.885-.66 1.17-.88l.694-.55c.762-.59 1.259-.97 1.77-1.36.988-.73 1.873-1.33 2.775-1.9s1.792-1.07 2.7-1.54zm-8.579 4.06c.041.09.164.08.3.03a1.558 1.558 0 0 0 .374-.18 5.989 5.989 0 0 0 .531-.34l.4-.28 1.322-.97.156-.11.212-.04-.278.2-1.4 1.02-.435.31a6.317 6.317 0 0 1-.6.4 2.408 2.408 0 0 1-.448.23.294.294 0 0 1-.378-.03.284.284 0 0 1-.011-.17 1.2 1.2 0 0 1 .073-.21 2.259 2.259 0 0 1 .218-.37 8.184 8.184 0 0 1 .742-.92c.22-.23.426-.45.633-.65.28-.27.559-.52.841-.77l-.068.17c-.232.21-.464.42-.7.65-.193.19-.387.39-.588.6a7.5 7.5 0 0 0-.66.82 1.949 1.949 0 0 0-.181.31.893.893 0 0 0-.057.17.191.191 0 0 0 .002.13zm31.026-12a44.754 44.754 0 0 0-23.387 5.43l-.188.11c-.464.24-.914.48-1.361.73l.43-.27A40.843 40.843 0 0 1 39.99 8.27a48.576 48.576 0 0 1 14.77-1.19c1.41.13 2.82.32 4.21.56a50.785 50.785 0 0 0-6.15-.59zM40.29 1.43l.02-.01-.04.02zm-.03-.01h-.01l-.04.01-.04.01zm-.12.07l.03-.01-.04.02zm-.08-.04zm-.04.1h.01l.04-.02-.08.04zm-.18.1l.03-.01-.05.03zm-.17.11l.08-.06-.1.07zm-.16.1l.05-.03-.07.05zm-.68-.35zm-17.342 8.61c.4-.29.8-.58 1.212-.86.666-.43 1.34-.85 2.022-1.25-.733.46-1.457.94-2.17 1.43-.741.49-1.471.99-2.188 1.52.371-.29.747-.57 1.124-.84z" fill="#fff" fill-rule="evenodd"/></svg>