<svg width="24" height="24" fill="none" xmlns="http://www.w3.org/2000/svg"><path d="M22.383 1.908L18.16.965c-.988-.225-1.976.27-2.336 1.168l-1.976 4.582a2.026 2.026 0 00.584 2.38l1.796 1.483c-1.257 2.336-3.234 4.268-5.57 5.57l-1.482-1.796a2.026 2.026 0 00-2.381-.584l-4.582 1.931a2.09 2.09 0 00-1.168 2.381l.943 4.223c.225.943 1.078 1.572 2.022 1.572C15.016 23.875 24 14.98 24 3.93c0-.944-.674-1.797-1.617-2.022zM4.1 21.718l-.944-4.042 4.403-1.887 2.515 3.055c4.447-2.112 6.739-4.403 8.85-8.85L15.869 7.48l1.887-4.403 4.088.944C21.799 13.769 13.848 21.675 4.1 21.72z" fill="#5B4D99"/></svg>