<svg width="26" height="21" fill="none" xmlns="http://www.w3.org/2000/svg"><path d="M25.605 10.016L23 7.859V3.547c0-.18-.18-.36-.36-.36h-1.437c-.224.045-.36.18-.36.36v2.56L14.51.897c-.36-.315-1.078-.54-1.572-.54-.54 0-1.258.225-1.618.54L.225 10.015a.829.829 0 00-.225.539c0 .135.045.36.135.449l.494.584c.09.135.36.225.539.225.135 0 .36-.045.45-.135l1.257-1.034V19a1.42 1.42 0 001.438 1.438h5.75c.763 0 1.392-.63 1.437-1.438v-4.672h2.875V19a1.42 1.42 0 001.438 1.438h5.75c.763 0 1.392-.63 1.437-1.393v-8.4l1.213 1.033c.09.09.314.18.45.18.179 0 .448-.135.583-.27l.45-.584a.796.796 0 00.179-.45c0-.179-.135-.404-.27-.538zM20.8 18.28h-4.27v-4.67a1.546 1.546 0 00-1.437-1.437H10.78c-.808.045-1.437.674-1.437 1.437v4.672H5.03V8.893l7.907-6.514 7.906 6.514-.045 9.388z" fill="#5B4D99"/></svg>