<svg width="23" height="18" fill="none" xmlns="http://www.w3.org/2000/svg"><path d="M20.844.75H2.156A2.157 2.157 0 000 2.906v12.938C0 17.057.943 18 2.156 18h18.688A2.157 2.157 0 0023 15.844V2.906C23 1.738 22.012.75 20.844.75zm0 2.156v1.842c-1.034.854-2.65 2.111-6.065 4.807-.763.584-2.246 2.021-3.279 1.976-1.078.045-2.56-1.392-3.324-1.976-3.414-2.696-5.031-3.953-6.02-4.807V2.906h18.688zM2.156 15.844v-8.31c.989.808 2.47 1.976 4.672 3.728.988.763 2.74 2.47 4.672 2.425 1.887.045 3.594-1.662 4.627-2.425a733.144 733.144 0 014.717-3.729v8.31H2.156z" fill="#5B4D99"/></svg>