<svg xmlns="http://www.w3.org/2000/svg" xmlns:xlink="http://www.w3.org/1999/xlink" width="16" height="16"><defs><path id="a4jea" d="M779.32 1874.33v-5a.64.64 0 0 0-.2-.47.64.64 0 0 0-.46-.2h-5c-.29 0-.5.14-.61.41-.12.29-.07.53.14.73l1.5 1.5-5.55 5.56a.64.64 0 0 0-.2.46c0 .19.06.34.2.47l1.06 1.07c.13.13.28.2.47.2.18 0 .33-.07.46-.2l5.56-5.56 1.5 1.5c.12.13.28.2.47.2.08 0 .17-.02.26-.06.27-.12.4-.32.4-.61zm1.8-7.45c.59.59.88 1.3.88 2.12v10c0 .83-.3 1.53-.88 2.12-.59.59-1.3.88-2.12.88h-10c-.83 0-1.53-.3-2.12-.88a2.89 2.89 0 0 1-.88-2.12v-10c0-.83.3-1.53.88-2.12.59-.59 1.3-.88 2.12-.88h10c.83 0 1.53.3 2.12.88z"/></defs><use fill="#4b5a5a" xlink:href="#a4jea" transform="translate(-766 -1866)"/></svg>