<svg width="24" height="24" viewBox="0 0 24 24" fill="none" xmlns="http://www.w3.org/2000/svg">
<path fill-rule="evenodd" clip-rule="evenodd" d="M3.00023 12C3.00023 11.4477 3.44794 11 4.00023 11L20.0002 11C20.5525 11 21.0002 11.4477 21.0002 12C21.0002 12.5523 20.5525 13 20.0002 13L4.00023 13C3.44794 13 3.00023 12.5523 3.00023 12Z" fill="white"/>
<path fill-rule="evenodd" clip-rule="evenodd" d="M12.0002 3C12.5525 3 13.0002 3.44772 13.0002 4L13.0002 20C13.0002 20.5523 12.5525 21 12.0002 21C11.4479 21 11.0002 20.5523 11.0002 20L11.0002 4C11.0002 3.44772 11.4479 3 12.0002 3Z" fill="white"/>
</svg>
