<svg width="24" height="24" fill="none" xmlns="http://www.w3.org/2000/svg"><path d="M6 8.584c.13-.762.727-1.54 1.517-2.373.271-.283.826-.283 1.121.011l1.653 1.651c.273.273.273.827.083 1.187l-.817 1.113c-.488.664.524 1.66 1.337 2.46l.23.227c.833.833 2.09 2.08 2.686 1.571l1.117-.818c.365-.193.92-.192 1.206.093l1.66 1.658c.275.274.275.829.005 1.086-.84.797-1.623 1.398-2.39 1.528-1.633.248-3.878-1.663-5.816-3.599C7.643 12.434 6.022 10.304 6 8.584z" fill="#fff"/><path fill-rule="evenodd" clip-rule="evenodd" d="M24 12c0 6.627-5.373 12-12 12S0 18.627 0 12 5.373 0 12 0s12 5.373 12 12zm-2 0c0 5.523-4.477 10-10 10S2 17.523 2 12 6.477 2 12 2s10 4.477 10 10z" fill="#fff"/></svg>