<svg width="24" height="24" fill="none" xmlns="http://www.w3.org/2000/svg"><path fill-rule="evenodd" clip-rule="evenodd" d="M12.001 5C9.244 5 7 7.36 7 10.258c0 2.829 4.605 8.409 4.8 8.644a.26.26 0 00.201.098.258.258 0 00.2-.098c.197-.235 4.799-5.816 4.799-8.644C17 7.36 14.759 5 12.001 5zM15 10a3 3 0 11-6 0 3 3 0 016 0z" fill="#fff"/><path fill-rule="evenodd" clip-rule="evenodd" d="M24 12c0 6.627-5.373 12-12 12S0 18.627 0 12 5.373 0 12 0s12 5.373 12 12zm-2 0c0 5.523-4.477 10-10 10S2 17.523 2 12 6.477 2 12 2s10 4.477 10 10z" fill="#fff"/></svg>