<svg width="24" height="24" fill="none" xmlns="http://www.w3.org/2000/svg"><path d="M6 15v-5l6 4 6-4v5a2 2 0 01-2 2H8a2 2 0 01-2-2z" fill="#fff"/><path d="M6.898 9.131L12 12.5l5.102-3.369c.56-.37.97-1.07.537-1.583A1.535 1.535 0 0016.462 7H7.538c-.472 0-.895.213-1.177.548-.433.514-.024 1.213.537 1.583z" fill="#fff"/><path fill-rule="evenodd" clip-rule="evenodd" d="M12 24c6.627 0 12-5.373 12-12S18.627 0 12 0 0 5.373 0 12s5.373 12 12 12zm0-2c5.523 0 10-4.477 10-10S17.523 2 12 2 2 6.477 2 12s4.477 10 10 10z" fill="#fff"/></svg>