<svg width="24" height="24" viewBox="0 0 24 24" fill="none" xmlns="http://www.w3.org/2000/svg">
<path d="M6 15V10L12 14L18 10V15C18 16.1046 17.1046 17 16 17H8C6.89543 17 6 16.1046 6 15Z" fill="white"/>
<path d="M6.89802 9.13138L12 12.5L17.102 9.13138C17.6627 8.76119 18.0716 8.0619 17.6388 7.54801C17.3566 7.21291 16.9339 7 16.4615 7H7.53846C7.06607 7 6.6434 7.21291 6.36119 7.54801C5.9284 8.0619 6.33734 8.76119 6.89802 9.13138Z" fill="white"/>
<path fill-rule="evenodd" clip-rule="evenodd" d="M12 24C18.6274 24 24 18.6274 24 12C24 5.37258 18.6274 0 12 0C5.37258 0 0 5.37258 0 12C0 18.6274 5.37258 24 12 24ZM12 22C17.5228 22 22 17.5228 22 12C22 6.47715 17.5228 2 12 2C6.47715 2 2 6.47715 2 12C2 17.5228 6.47715 22 12 22Z" fill="white"/>
</svg>
