<svg width="24" height="24" viewBox="0 0 24 24" fill="none" xmlns="http://www.w3.org/2000/svg">
<path d="M13 7C13 6.44772 12.5523 6 12 6C11.4477 6 11 6.44772 11 7V12C11 12.2652 11.1054 12.5196 11.2929 12.7071L14.2929 15.7071C14.6834 16.0976 15.3166 16.0976 15.7071 15.7071C16.0976 15.3166 16.0976 14.6834 15.7071 14.2929L13 11.5858V7Z" fill="white"/>
<path fill-rule="evenodd" clip-rule="evenodd" d="M24 12C24 18.6274 18.6274 24 12 24C5.37258 24 0 18.6274 0 12C0 5.37258 5.37258 0 12 0C18.6274 0 24 5.37258 24 12ZM22 12C22 17.5228 17.5228 22 12 22C6.47715 22 2 17.5228 2 12C2 6.47715 6.47715 2 12 2C17.5228 2 22 6.47715 22 12Z" fill="white"/>
</svg>
