<svg id="SVGDoc" width="26" height="26" xmlns="http://www.w3.org/2000/svg" xmlns:xlink="http://www.w3.org/1999/xlink"><defs><path d="M1041.54 4418.193c.17.17.17.444 0 .614l-2.589 2.587a2.166 2.166 0 1 1-3.784 1.44 2.169 2.169 0 0 1-2.167-2.167 2.17 2.17 0 0 1 2.167-2.167c.534 0 1.045.199 1.438.549l1.722-1.723a.434.434 0 0 1 .613.613l-2.046 2.046a.445.445 0 0 1-.344.126.436.436 0 0 1-.318-.186 1.3 1.3 0 1 0-1.065 2.041c.12 0 .243-.02.39-.068a.435.435 0 0 1 .544.546 1.27 1.27 0 0 0-.068.39c0 .716.584 1.3 1.3 1.3a1.298 1.298 0 1 0 .74-2.366.436.436 0 0 1-.058-.662l2.912-2.913a.434.434 0 0 1 .613 0zm9.57-13.037a.43.43 0 0 1 0-.611l1.94-1.94a2.165 2.165 0 0 1 1.617-3.606 2.17 2.17 0 0 1 2.166 2.168c1.195 0 2.167.971 2.167 2.166a2.17 2.17 0 0 1-2.167 2.167c-.534 0-1.045-.2-1.438-.548l-1.939 1.938a.44.44 0 0 1-.306.126.432.432 0 0 1-.306-.739l2.262-2.263a.437.437 0 0 1 .662.061c.244.35.642.56 1.065.56a1.302 1.302 0 0 0 0-2.602c-.12 0-.244.023-.39.069a.432.432 0 1 1-.545-.543c.047-.149.069-.274.069-.392a1.3 1.3 0 0 0-2.6 0c0 .422.208.822.559 1.065a.434.434 0 0 1 .06.663l-2.263 2.26a.432.432 0 0 1-.613 0zm-18.11-1.823c0-1.195.972-2.166 2.167-2.166a2.17 2.17 0 0 1 2.166-2.168 2.165 2.165 0 1 1 1.618 3.605l1.939 1.94a.432.432 0 1 1-.613.611l-2.262-2.26a.434.434 0 0 1 .059-.663 1.297 1.297 0 0 0-.74-2.364 1.3 1.3 0 0 0-1.3 1.299c0 .118.021.243.068.391a.433.433 0 0 1-.107.437.432.432 0 0 1-.437.108 1.284 1.284 0 0 0-.391-.071 1.302 1.302 0 0 0 0 2.602c.423 0 .822-.21 1.065-.559a.431.431 0 0 1 .662-.06l2.262 2.263a.432.432 0 1 1-.612.612l-1.94-1.938a2.171 2.171 0 0 1-1.437.548 2.17 2.17 0 0 1-2.167-2.167zm13.867 8.666a1.734 1.734 0 0 1 3.466 0c0 .957-.777 1.734-1.733 1.734a1.735 1.735 0 0 1-1.733-1.734zm.866 0c0 .479.389.868.867.868a.868.868 0 0 0 0-1.734.867.867 0 0 0-.867.866zm4.334 5.2h-1.734c-.342 0-.43.453-.439.504l-.433 2.601a.434.434 0 0 1-.428.363h-1.733a.434.434 0 0 1-.433-.434v-1.733a.434.434 0 0 1 .866 0v1.301h.933l.373-2.24c.066-.42.422-1.227 1.294-1.227h1.367l.373-2.239a.428.428 0 0 1 .12-.234c.318-.318.74-.856.74-1.862 0-3.821-3.11-6.933-6.933-6.933s-6.933 3.112-6.933 6.933c0 .755.241 1.363.74 1.862a.424.424 0 0 1 .12.234l.373 2.239h1.367c.923 0 1.253.821 1.298 1.255l.369 2.212h.933v-1.301a.434.434 0 0 1 .866 0v1.301h.434a.432.432 0 1 1 0 .866h-2.6a.434.434 0 0 1-.428-.363l-.433-2.6c-.017-.135-.09-.504-.44-.504h-1.733a.434.434 0 0 1-.427-.362l-.411-2.467c-.594-.643-.895-1.44-.895-2.372 0-4.3 3.5-7.8 7.8-7.8s7.8 3.5 7.8 7.8c0 .945-.293 1.723-.894 2.372l-.412 2.467a.434.434 0 0 1-.427.362zm-7.367-1.3c0-.599.272-1.733 1.3-1.733.975 0 1.27 1.02 1.298 1.636a.434.434 0 0 1-.423.532h-1.742a.434.434 0 0 1-.433-.434zm.93-.432h.74c-.056-.217-.165-.435-.37-.435s-.314.218-.37.435zm-.497-3.468c0 .957-.777 1.734-1.733 1.734a1.734 1.734 0 1 1 1.733-1.734zm-.866 0a.867.867 0 1 0-1.734.002.867.867 0 0 0 1.734-.002zm14.733 8.668a2.169 2.169 0 0 1-2.167 2.167 2.169 2.169 0 0 1-2.166 2.166 2.166 2.166 0 1 1-1.618-3.605l-2.589-2.588a.433.433 0 0 1 .613-.614l2.912 2.912a.433.433 0 0 1-.059.663 1.298 1.298 0 0 0 .74 2.366c.717 0 1.3-.584 1.3-1.3 0-.12-.021-.244-.068-.39a.436.436 0 0 1 .544-.546c.148.048.273.068.391.068a1.3 1.3 0 0 0 0-2.599c-.424 0-.822.208-1.065.558a.436.436 0 0 1-.318.186.446.446 0 0 1-.344-.126l-2.046-2.045a.433.433 0 0 1 .613-.614l1.722 1.723a2.16 2.16 0 0 1 1.438-.549 2.17 2.17 0 0 1 2.167 2.167z" id="Path-0"/></defs><use xlink:href="#Path-0" transform="translate(-1033 -4399)"/></svg>