<svg xmlns="http://www.w3.org/2000/svg" width="20" height="25.94"><path id="Forma_1" data-name="Forma 1" d="M1055.57 4514.5c-6.35 0-9.2-3.26-9.24-3.3a.438.438 0 0 0-.66 0c-.03.03-2.85 3.3-9.24 3.3a.433.433 0 0 0-.43.43v8.26a14.62 14.62 0 0 0 5.45 11.48 13.444 13.444 0 0 0 4.43 2.31.37.37 0 0 0 .24 0 13.444 13.444 0 0 0 4.43-2.31 14.62 14.62 0 0 0 5.45-11.48v-8.25a.435.435 0 0 0-.43-.44zm-.44 8.69a13.742 13.742 0 0 1-5.12 10.8 4.84 4.84 0 0 1-8.02 0 13.742 13.742 0 0 1-5.12-10.8v-7.83c5.32-.11 8.2-2.37 9.13-3.26.93.89 3.81 3.15 9.13 3.26v7.83zm-9.37-8.69a15.519 15.519 0 0 1-6.77 2.44.432.432 0 0 0-.38.43v5.82a12.019 12.019 0 0 0 4.46 9.44 11.43 11.43 0 0 0 2.77 1.6.442.442 0 0 0 .32 0 11.43 11.43 0 0 0 2.77-1.6 12.019 12.019 0 0 0 4.46-9.44v-5.82a.432.432 0 0 0-.38-.43 15.519 15.519 0 0 1-6.77-2.44.422.422 0 0 0-.48 0zm6.76 3.25v5.44a11.148 11.148 0 0 1-4.12 8.76 2.748 2.748 0 0 1-4.8 0 11.148 11.148 0 0 1-4.12-8.76v-5.44a16.292 16.292 0 0 0 6.52-2.37 16.292 16.292 0 0 0 6.52 2.37zm-10.13 1.64a.431.431 0 1 0-.61.61l3.72 3.7-3.73 3.92a.429.429 0 0 0 .02.61.423.423 0 0 0 .61-.02l3.71-3.9 3.93 3.91a.435.435 0 0 0 .62-.61l-3.95-3.93 3.52-3.69a.432.432 0 0 0-.63-.59l-3.5 3.67z" transform="translate(-1036 -4511.06)" fill-rule="evenodd"/></svg>