<svg xmlns="http://www.w3.org/2000/svg" width="22.03" height="25"><path id="Forma_1" data-name="Forma 1" d="M1056.48 4629.43a.5.5 0 0 0-.62-.17l-16.23 7.44a.492.492 0 0 0 .21.94h5.07l-9.48 6.74a.5.5 0 0 0 .29.9h4.65l-5.75 8.16a.484.484 0 0 0 .04.62.519.519 0 0 0 .36.16.5.5 0 0 0 .26-.08l17.68-11.01a.5.5 0 0 0 .16-.68.55.55 0 0 0-.37-.23h-.05l-4.87-.01 7.67-6.3a.484.484 0 0 0 .16-.55.5.5 0 0 0-.47-.32h-3.79l5.02-4.98a.5.5 0 0 0 .06-.63zm-15.65 20.09l-4 2.49 4-5.67v3.18zm5.13-6.81v3.62l-4.14 2.58v-4.16a.213.213 0 0 0-.03-.12v-.02a.257.257 0 0 1-.02-.05h-.01a.169.169 0 0 0-.03-.06.01.01 0 0 0-.01-.01.085.085 0 0 0-.03-.03.02.02 0 0 0-.01-.02.151.151 0 0 0-.04-.04h-.01a.138.138 0 0 0-.04-.03l-.01-.01c-.02-.01-.03-.02-.05-.03h-.01a.257.257 0 0 0-.05-.02h-.02a.06.06 0 0 0-.04-.01c-.01 0-.02 0-.02-.01h-4.13l5.9-4.19v2.89a.49.49 0 1 0 .98 0v-3.59l1.82-1.29v4.6zm5.01.5l-4.02 2.5v-2.51zm2.84-7.18l-3.12 2.56v-2.56h3.12zm-3.96-.85a.236.236 0 0 1-.05.05.02.02 0 0 1-.01.02.219.219 0 0 0-.03.05l-.03.06v.01a.277.277 0 0 0-.03.13v3.9l-2.75 2.26v-4.56l-.01-.01v-.05a.031.031 0 0 1-.01-.02c0-.01 0-.02-.01-.02a.048.048 0 0 0-.01-.04.02.02 0 0 0-.01-.02c0-.01 0-.02-.01-.02a.02.02 0 0 0-.01-.02c0-.01-.01-.01-.01-.02a.01.01 0 0 0-.01-.01c-.01-.01-.01-.02-.02-.03a.01.01 0 0 0-.01-.01l-.06-.06a.01.01 0 0 0-.01-.01.038.038 0 0 1-.02-.02.02.02 0 0 1-.02-.01c-.01 0-.01-.01-.02-.01s-.01-.01-.02-.01-.01-.01-.02-.01a.02.02 0 0 0-.02-.01.037.037 0 0 0-.03-.01.031.031 0 0 0-.02-.01h-.03c0-.01-.01-.01-.02-.01h-.04a.09.09 0 0 0-.05-.01h-4.35l11.64-5.33zm-6.2 9.11a.5.5 0 0 0 0 .99.5.5 0 0 0 0-.99z" transform="translate(-1034.53 -4629.22)" fill-rule="evenodd" opacity=".9"/></svg>