<svg xmlns="http://www.w3.org/2000/svg" fill="none" viewBox="0.68 0 26 26"><path xmlns="http://www.w3.org/2000/svg" id="Vector" d="M13.6836 0C6.50434 0 0.683594 5.82075 0.683594 13C0.683594 15.4388 1.36863 17.7126 2.53711 19.6629L0.799967 26L7.27246 24.3009C9.16539 25.3772 11.3506 26 13.6836 26C20.8628 26 26.6836 20.1793 26.6836 13C26.6836 5.82075 20.8628 0 13.6836 0ZM9.23389 6.93587C9.44514 6.93587 9.66219 6.93459 9.84961 6.94434C10.0814 6.94975 10.3338 6.96673 10.5754 7.50081C10.8624 8.13565 11.4875 9.72823 11.5677 9.88965C11.6479 10.0511 11.7047 10.2412 11.5931 10.4525C11.4869 10.6691 11.4317 10.8003 11.2757 10.992C11.1143 11.1784 10.9374 11.4098 10.7912 11.5506C10.6298 11.712 10.4631 11.889 10.6494 12.2108C10.8357 12.5325 11.4829 13.5873 12.4395 14.4388C13.669 15.5373 14.7065 15.8749 15.0293 16.0363C15.3521 16.1977 15.5391 16.1726 15.7254 15.9559C15.9172 15.7446 16.5307 15.0198 16.7474 14.6969C16.9586 14.3741 17.1743 14.43 17.4668 14.5361C17.7636 14.6423 19.3466 15.4221 19.6694 15.5835C19.9923 15.7449 20.2039 15.8248 20.2852 15.9559C20.3686 16.0913 20.3687 16.736 20.1011 17.4878C19.8335 18.2385 18.5195 18.9645 17.9302 19.0155C17.3354 19.0707 16.7804 19.2828 14.0645 18.2135C10.7885 16.9233 8.72245 13.5679 8.56104 13.3512C8.39962 13.14 7.24919 11.6067 7.24919 10.0251C7.24919 8.43798 8.08131 7.66072 8.37272 7.33789C8.66956 7.01506 9.01722 6.93587 9.23389 6.93587Z" fill="#0C1923"/></svg>