<svg xmlns="http://www.w3.org/2000/svg" fill="none" viewBox="97.3 0 35.02 26"><path xmlns="http://www.w3.org/2000/svg" id="Vector_3" d="M131.339 4.46875C131.016 2.68188 129.473 1.38062 127.683 0.974365C125.004 0.40625 120.047 0 114.683 0C109.323 0 104.286 0.40625 101.604 0.974365C99.8169 1.38062 98.2712 2.59937 97.9475 4.46875C97.6206 6.5 97.2969 9.34375 97.2969 13C97.2969 16.6562 97.6206 19.5 98.0269 21.5312C98.3538 23.3181 99.8962 24.6194 101.683 25.0256C104.527 25.5938 109.402 26 114.766 26C120.129 26 125.004 25.5938 127.848 25.0256C129.635 24.6194 131.177 23.4006 131.504 21.5312C131.828 19.5 132.234 16.5737 132.317 13C132.152 9.34375 131.746 6.5 131.339 4.46875ZM110.297 18.6875V7.3125L120.209 13L110.297 18.6875Z" fill="#0C1923"/></svg>