<svg width="32" height="32" fill="none" xmlns="http://www.w3.org/2000/svg"><path d="M0 12C0 5.373 5.373 0 12 0h8c6.627 0 12 5.373 12 12v8c0 6.627-5.373 12-12 12h-8C5.373 32 0 26.627 0 20v-8z" fill="url(#paint0_linear_802_18622)"/><path fill-rule="evenodd" clip-rule="evenodd" d="M16 11a5 5 0 100 10 5 5 0 000-10zm0 8.125A3.13 3.13 0 0112.875 16 3.129 3.129 0 0116 12.875 3.129 3.129 0 0119.125 16 3.13 3.13 0 0116 19.125z" fill="#fff"/><path d="M21.736 11.01a.725.725 0 11-1.45 0 .725.725 0 011.45 0z" fill="#fff"/><path fill-rule="evenodd" clip-rule="evenodd" d="M19.75 6h-7.5A6.25 6.25 0 006 12.25v7.5A6.25 6.25 0 0012.25 26h7.5A6.25 6.25 0 0026 19.75v-7.5A6.25 6.25 0 0019.75 6zm4.375 13.75a4.38 4.38 0 01-4.375 4.375h-7.5a4.38 4.38 0 01-4.375-4.375v-7.5a4.38 4.38 0 014.375-4.375h7.5a4.38 4.38 0 014.375 4.375v7.5z" fill="#fff"/><defs><linearGradient id="paint0_linear_802_18622" x1="0" y1="0" x2="32" y2="32" gradientUnits="userSpaceOnUse"><stop offset=".063" stop-color="#FFE33D"/><stop offset=".409" stop-color="#CE466C"/><stop offset=".568" stop-color="#C12E74"/><stop offset=".927" stop-color="#6500DC"/></linearGradient></defs></svg>