<svg width="20" height="20" fill="none" xmlns="http://www.w3.org/2000/svg"><g clip-path="url(#clip0_736_3696)"><path d="M19.431 6.667H.569C1.942 2.783 5.646 0 10 0c4.354 0 8.058 2.783 9.431 6.667z" fill="#fff"/><path d="M19.431 13.333A9.984 9.984 0 0020 10c0-1.169-.2-2.29-.569-3.333H.569A9.984 9.984 0 000 10c0 1.169.2 2.29.569 3.333h18.862z" fill="#0039A6"/><path d="M9.98 20a10.005 10.005 0 01-9.411-6.667h18.862A10.004 10.004 0 0110.021 20h-.042z" fill="#D52B1E"/></g><rect x=".5" y=".5" width="19" height="19" rx="9.5" stroke="#CCC"/><defs><clipPath id="clip0_736_3696"><rect width="20" height="20" rx="10" fill="#fff"/></clipPath></defs></svg>