<svg xmlns="http://www.w3.org/2000/svg" fill="none" viewBox="198.32 0 26 26"><path xmlns="http://www.w3.org/2000/svg" id="Vector_5" d="M223.2 14.579C223.269 14.061 223.316 13.536 223.316 13C223.316 6.373 217.943 1 211.316 1C210.78 1 210.255 1.047 209.737 1.116C208.595 0.413 207.255 0 205.816 0C201.674 0 198.316 3.358 198.316 7.5C198.316 8.939 198.729 10.279 199.432 11.421C199.363 11.939 199.316 12.464 199.316 13C199.316 19.627 204.689 25 211.316 25C211.852 25 212.377 24.953 212.895 24.884C214.037 25.587 215.377 26 216.816 26C220.958 26 224.316 22.642 224.316 18.5C224.316 17.061 223.903 15.721 223.2 14.579ZM211.465 20C207.569 20 205.332 17.958 205.332 15.954C205.332 14.932 206.402 14.605 206.83 14.605C207.819 14.605 208.148 15.412 208.328 15.782C209.333 17.848 210.299 17.576 211.251 17.666C212.092 17.745 214.066 17.374 214.066 15.932C214.066 15.794 214.283 14.856 212.579 14.391C211.49 14.093 209.57 13.728 207.99 13.12C206.504 12.548 205.632 11.37 205.632 9.852C205.632 9.093 206.021 6 211.283 6C214.795 6 216.667 7.799 216.667 9.382C216.667 9.746 216.528 10.067 216.249 10.356C215.97 10.645 215.184 11.068 214.323 10.517C214.106 10.378 213.927 10.089 213.713 9.714C213.455 9.243 213.033 8.333 211.09 8.333C209.205 8.333 208.682 9.232 208.682 9.607C208.682 10.867 211.087 11.132 211.733 11.299C214.091 11.907 217.299 12.466 217.299 15.645C217.299 19.295 213.501 20 211.465 20Z" fill="#0C1923"/></svg>