<svg xmlns="http://www.w3.org/2000/svg" fill="none" viewBox="152.32 0 26 26"><path xmlns="http://www.w3.org/2000/svg" id="Vector_4" d="M159.898 0C155.717 0 152.316 3.40378 152.316 7.58545V18.4188C152.316 22.5994 155.72 26 159.902 26H170.735C174.916 26 178.316 22.5962 178.316 18.4146V7.58122C178.316 3.40063 174.913 0 170.731 0H159.898ZM172.9 4.33333C173.498 4.33333 173.983 4.81867 173.983 5.41667C173.983 6.01467 173.498 6.5 172.9 6.5C172.302 6.5 171.816 6.01467 171.816 5.41667C171.816 4.81867 172.302 4.33333 172.9 4.33333ZM165.316 6.5C168.901 6.5 171.816 9.41525 171.816 13C171.816 16.5848 168.901 19.5 165.316 19.5C161.732 19.5 158.816 16.5848 158.816 13C158.816 9.41525 161.732 6.5 165.316 6.5ZM165.316 8.66667C164.167 8.66667 163.065 9.12321 162.252 9.93587C161.44 10.7485 160.983 11.8507 160.983 13C160.983 14.1493 161.44 15.2515 162.252 16.0641C163.065 16.8768 164.167 17.3333 165.316 17.3333C166.466 17.3333 167.568 16.8768 168.381 16.0641C169.193 15.2515 169.65 14.1493 169.65 13C169.65 11.8507 169.193 10.7485 168.381 9.93587C167.568 9.12321 166.466 8.66667 165.316 8.66667Z" fill="#0C1923"/></svg>