<svg xmlns="http://www.w3.org/2000/svg" fill="none" viewBox="46.68 0 30.61 26"><path xmlns="http://www.w3.org/2000/svg" id="Vector_2" d="M57.9977 0C51.7583 0 46.6836 4.32857 46.6836 9.65023C46.6836 12.4917 48.0537 15.0473 50.5546 16.8983L48.7998 22.1654L54.2878 18.7675C55.8113 19.2459 57.6701 19.4149 59.4639 19.2173C60.9198 22.0354 64.2084 23.9592 67.9807 23.9592C69.1271 23.9592 70.1878 23.7434 71.1731 23.4497L75.7305 26L74.4592 21.6402C76.175 20.2156 77.2981 18.232 77.2981 15.9728C77.2981 11.8392 73.7027 8.54275 69.1453 8.05659C68.251 3.42906 63.5663 0 57.9977 0ZM54.0045 5.32427C54.7376 5.32427 55.3355 5.92221 55.3355 6.65533C55.3355 7.38846 54.7376 7.9864 54.0045 7.9864C53.2713 7.9864 52.6734 7.38846 52.6734 6.65533C52.6734 5.92221 53.2713 5.32427 54.0045 5.32427ZM61.9909 5.32427C62.724 5.32427 63.3219 5.92221 63.3219 6.65533C63.3219 7.38846 62.724 7.9864 61.9909 7.9864C61.2577 7.9864 60.6598 7.38846 60.6598 6.65533C60.6598 5.92221 61.2577 5.32427 61.9909 5.32427ZM67.9807 9.31747C72.4704 9.31747 75.9671 12.3358 75.9671 15.9728C75.9671 17.9408 74.9636 19.667 73.3075 20.8941L72.9358 21.1723L73.5415 23.2495L71.3785 22.0354L71.0978 22.129C70.167 22.441 69.1038 22.6281 67.9807 22.6281C63.4909 22.6281 59.9943 19.6098 59.9943 15.9728C59.9943 12.3358 63.4909 9.31747 67.9807 9.31747ZM64.9858 13.3107C64.4528 13.3107 63.9875 13.776 63.9875 14.309C63.9875 14.8419 64.4528 15.3073 64.9858 15.3073C65.5187 15.3073 65.9841 14.8419 65.9841 14.309C65.9841 13.776 65.5187 13.3107 64.9858 13.3107ZM70.9756 13.3107C70.4426 13.3107 69.9773 13.776 69.9773 14.309C69.9773 14.8419 70.4426 15.3073 70.9756 15.3073C71.5085 15.3073 71.9739 14.8419 71.9739 14.309C71.9739 13.776 71.5085 13.3107 70.9756 13.3107Z" fill="#0C1923"/></svg>