<svg width="32" height="32" fill="none" xmlns="http://www.w3.org/2000/svg"><path d="M0 12C0 5.373 5.373 0 12 0h8c6.627 0 12 5.373 12 12v8c0 6.627-5.373 12-12 12h-8C5.373 32 0 26.627 0 20v-8z" fill="#20CD43"/><path fill-rule="evenodd" clip-rule="evenodd" d="M19.221 15.949l1.545 1.202c.344.24.55.618.55 1.03.034.412-.138.824-.412 1.098l-1.34 1.34c-.446.48-1.098.72-1.716.72-.378 0-.756-.068-1.133-.274a14.387 14.387 0 01-3.297-2.438 13.683 13.683 0 01-2.438-3.296c-.48-.962-.309-2.13.447-2.884l1.339-1.34a1.423 1.423 0 011.098-.412c.412 0 .79.206 1.03.55l1.202 1.58c.344.48.31 1.132-.103 1.544l-.446.447c.206.343.446.686.721.961.31.275.618.515.962.721l.446-.446a1.157 1.157 0 011.545-.103zm-.618 3.708l1.34-1.339v-.069c0-.034-.035-.034-.035-.034L18.5 17.116l-.48.481c-.344.343-.86.446-1.305.206a5.61 5.61 0 01-1.443-1.064 5.611 5.611 0 01-1.064-1.443 1.144 1.144 0 01.206-1.339l.446-.412-1.098-1.442c0-.017 0-.026-.005-.03-.004-.004-.013-.004-.03-.004h-.034l-1.34 1.339a1.102 1.102 0 00-.205 1.27 12.43 12.43 0 002.197 2.988 12.427 12.427 0 002.987 2.197c.413.206.928.138 1.271-.206z" fill="#fff"/><path fill-rule="evenodd" clip-rule="evenodd" d="M18.157 7.261c3.193.79 5.734 3.331 6.558 6.49.824 3.159-.171 6.661-2.609 8.893-2.61 2.404-6.387 3.022-9.649 1.683-.6.171-1.21.334-1.82.497-.61.164-1.219.327-1.82.498-.377.103-.927-.206-.858-.652.086-.618.163-1.236.24-1.854.078-.618.155-1.236.24-1.854-2.197-3.434-1.854-7.967.86-10.988C11.495 7.5 14.963 6.47 18.156 7.26zm-5.288 15.761c3.33 1.511 7.382.378 9.443-2.644 1.682-2.507 1.785-5.803.206-8.378-1.545-2.506-4.533-3.949-7.52-3.537-2.884.344-5.425 2.438-6.318 5.22-.515 1.579-.48 3.33.069 4.91.171.446.377.892.618 1.305.064.128.142.244.217.355.044.066.088.13.126.194.12.24.083.505.049.751l-.015.107a460 460 0 01-.154 1.22l-.155 1.218c.481-.137.962-.266 1.443-.395.48-.128.961-.257 1.442-.395a.826.826 0 01.515.07h.034z" fill="#fff"/></svg>