<svg width="32" height="32" fill="none" xmlns="http://www.w3.org/2000/svg"><path d="M0 12C0 5.373 5.373 0 12 0h8c6.627 0 12 5.373 12 12v8c0 6.627-5.373 12-12 12h-8C5.373 32 0 26.627 0 20v-8z" fill="#00AEF0"/><path d="M22.975 10.036l-2.732 11.137a.85.85 0 01-1.21.546l-3.456-1.765-1.634 2.644c-.444.721-1.57.408-1.57-.434v-2.946c0-.228.097-.445.263-.604l6.734-6.358c-.006-.08-.091-.149-.177-.09l-8.035 5.531-2.7-1.377a.833.833 0 01.049-1.51l13.31-5.739c.638-.275 1.324.292 1.158.965z" fill="#fff"/></svg>