<svg width="20" height="20" viewBox="0 0 20 20" fill="none" xmlns="http://www.w3.org/2000/svg">
<g clip-path="url(#clip0_736_3696)">
<path d="M19.431 6.66667H0.569019C1.94181 2.78269 5.64594 0 10 0C14.3541 0 18.0582 2.78269 19.431 6.66667Z" fill="white"/>
<path d="M19.431 13.3334C19.7995 12.2908 20 11.1688 20 10C20 8.83122 19.7995 7.70926 19.431 6.66667H0.569019C0.200519 7.70926 0 8.83122 0 10C0 11.1688 0.200517 12.2908 0.569026 13.3334H19.431Z" fill="#0039A6"/>
<path d="M9.97929 20C5.63419 19.9912 1.93963 17.2112 0.569026 13.3334H19.431C18.0604 17.2112 14.3658 19.9912 10.0207 20H9.97929Z" fill="#D52B1E"/>
</g>
<rect x="0.5" y="0.5" width="19" height="19" rx="9.5" stroke="#CCCCCC"/>
<defs>
<clipPath id="clip0_736_3696">
<rect width="20" height="20" rx="10" fill="white"/>
</clipPath>
</defs>
</svg>
