<svg width="20" height="20" fill="none" xmlns="http://www.w3.org/2000/svg"><g clip-path="url(#clip0_802_17195)"><path d="M0 10C0 4.477 4.477 0 10 0s10 4.477 10 10-4.477 10-10 10S0 15.523 0 10z" fill="#00247D"/><path d="M8.2.198h-1v5.937L3.208 3.439l-.23-.159a10.016 10.016 0 00-1.925 2.87l.222.152 1.326.896H.2v1h8v-8zm0 19.602h-1v-5.937L3.208 16.56l-.23.16a10.015 10.015 0 01-1.925-2.87l.222-.153 1.326-.895H.2v-1h8v8zM12.8.198h-1v8h8v-1h-2.402l1.327-.896.222-.152a10.014 10.014 0 00-1.926-2.87l-.229.16L12.8 6.134V.198zm-1 19.602h1v-5.937l3.992 2.696.23.16a10.013 10.013 0 001.925-2.87l-.222-.153-1.327-.895H19.8v-1h-8v8z" fill="#fff"/><path d="M11.8 0H8.2v8.198H0v3.604h8.2V20h3.6v-8.198H20V8.198h-8.2V0z" fill="#CF142B"/><path d="M1.888 4.635a9.88 9.88 0 00-.64 1.102l2.166 1.46H5.7L1.888 4.636zm16.864 9.628a9.88 9.88 0 01-.64 1.102L14.3 12.802h2.286l2.166 1.461zM17.367 3.66c.27.311.52.64.749.982l-3.789 2.556H12.8v-.521l4.567-3.017zM1.884 15.358c.23.343.48.67.749.982L7.2 13.323v-.52H5.673l-3.789 2.555z" fill="#CF142B"/></g><rect x=".5" y=".5" width="19" height="19" rx="9.5" stroke="#CCC"/><defs><clipPath id="clip0_802_17195"><rect width="20" height="20" rx="10" fill="#fff"/></clipPath></defs></svg>