<svg width="48" height="48" xmlns="http://www.w3.org/2000/svg"><g id="icon_5" stroke="none" stroke-width="1" fill="none" fill-rule="evenodd"><path d="M17.218 10.012c-1.2 0-2.206 1.055-2.206 2.363v23.25c0 1.308 1.005 2.363 2.206 2.363h12.565c1.2 0 2.205-1.054 2.205-2.363v-23.25c0-1.309-1.005-2.363-2.205-2.363H17.218zm0-2.024h12.565c2.34 0 4.229 1.982 4.229 4.387v23.25c0 2.405-1.889 4.387-4.229 4.387H17.218c-2.34 0-4.23-1.982-4.23-4.387v-23.25c0-2.405 1.89-4.387 4.23-4.387zM29 12.986H18a1.014 1.014 0 0 0 0 2.028h11a1.014 1.014 0 0 0 0-2.028zm0 20H18a1.014 1.014 0 0 0 0 2.028h11a1.014 1.014 0 0 0 0-2.028zm-1.172-12.597c-1.593-2.27-4.558-1.633-6.815.624-2.257 2.257-2.894 5.221-.625 6.815a1.012 1.012 0 0 0 1.163-1.656c-.942-.661-.604-2.232.893-3.729 1.496-1.496 3.067-1.834 3.728-.892a1.011 1.011 0 1 0 1.656-1.162z" id="Combined-Shape" fill="#000" fill-rule="nonzero"/></g></svg>