<svg width="48" height="48" xmlns="http://www.w3.org/2000/svg"><g id="icon_3" stroke="none" stroke-width="1" fill="none" fill-rule="evenodd"><g id="Group" transform="translate(6 7)" fill="#000" fill-rule="nonzero"><path d="M4.161 12.017c-.618 0-1.128.51-1.128 1.129v14.71c0 .618.51 1.127 1.128 1.127h21.694c.619 0 1.128-.51 1.128-1.128v-14.71c0-.618-.51-1.128-1.128-1.128H4.161zm3.604-2.034a1.03 1.03 0 0 1 .034-.02l5.513-3.26 8.946-5.29c1.48-.875 3.384-.353 4.231 1.151l7.115 12.62c.84 1.49.34 3.404-1.126 4.27l-1.417.839a1.011 1.011 0 1 1-1.03-1.741l1.417-.839c.514-.303.696-1 .394-1.535l-7.115-12.62a1.042 1.042 0 0 0-1.439-.404l-8.946 5.29-2.604 1.54h14.117a3.168 3.168 0 0 1 3.162 3.162v14.71a3.167 3.167 0 0 1-3.162 3.16H4.161A3.167 3.167 0 0 1 1 27.857v-14.71a3.168 3.168 0 0 1 3.16-3.164h3.604z" id="Combined-Shape"/><path d="M24 19.988a1.012 1.012 0 1 1 0 2.024H2a1.012 1.012 0 1 1 0-2.024h22z" id="Stroke-3"/><path d="M24 23.988a1.012 1.012 0 1 1 0 2.024H2a1.012 1.012 0 1 1 0-2.024h22z" id="Stroke-5"/></g></g></svg>