<svg width="48" height="48" xmlns="http://www.w3.org/2000/svg"><g id="icon_2" stroke="none" stroke-width="1" fill="none" fill-rule="evenodd"><path d="M8 20.973c0-6.69 6.994-11.984 15.506-11.984s15.505 5.294 15.505 11.984c0 5.737-4.994 10.176-11.336 11.547-.135.024-.252.046-.377.072l-.31.066a7.939 7.939 0 0 1-.82.13 1.012 1.012 0 0 1-.23-2.01l.168-.02c.174-.024.302-.046.47-.08l.313-.067c.144-.03.281-.056.398-.076 5.472-1.183 9.702-4.943 9.702-9.562 0-5.43-5.985-9.961-13.483-9.961s-13.483 4.53-13.483 9.96c0 3.545 2.564 6.816 6.707 8.607.37.16.61.525.61.929v4.843l3.728-4.111a1.012 1.012 0 0 1 1.499 1.359l-5.489 6.053c-.621.686-1.76.246-1.76-.68v-6.814C10.835 29.009 8 25.208 8 20.973zm22.088-4.983a1.01 1.01 0 0 1 0 2.02H17a1.01 1.01 0 1 1 0-2.02h13.088zm0 4a1.01 1.01 0 0 1 0 2.02H17a1.01 1.01 0 1 1 0-2.02h13.088zM24 23.991a1.009 1.009 0 0 1 0 2.018h-7a1.009 1.009 0 0 1 0-2.018h7z" id="Combined-Shape" fill="#000" fill-rule="nonzero"/></g></svg>