<svg width="48" height="48" xmlns="http://www.w3.org/2000/svg"><g id="icon_4" stroke="none" stroke-width="1" fill="none" fill-rule="evenodd"><path d="M30.033 17.012c-.548 0-1.021.497-1.021 1.125v14.726c0 .628.473 1.126 1.02 1.126h7.936c.547 0 1.02-.498 1.02-1.126V18.137c0-.628-.473-1.125-1.02-1.125h-7.935zM19.064 36.01a1.027 1.027 0 0 1-.128 0H14a1.01 1.01 0 1 1 0-2.02h3.988V32a1.012 1.012 0 0 1 2.024 0v1.99H24a1.01 1.01 0 1 1 0 2.02h-4.936zm7.924-5.998H8A1.012 1.012 0 0 1 6.989 29V12A1.01 1.01 0 0 1 8 10.989h24a1.012 1.012 0 0 1 0 2.022H9.011v14.977h17.977v-9.851c0-1.723 1.357-3.149 3.045-3.149h7.935c1.688 0 3.043 1.426 3.043 3.149v14.726c0 1.723-1.355 3.148-3.043 3.148h-7.935c-1.688 0-3.045-1.425-3.045-3.148v-2.851zm9.84-7.039c-1.11-1.581-3.103-1.153-4.556.3-1.452 1.452-1.88 3.445-.299 4.555a1.011 1.011 0 0 0 1.162-1.656c-.253-.178-.125-.777.568-1.47.692-.692 1.291-.82 1.47-.567a1.012 1.012 0 0 0 1.655-1.162z" id="Combined-Shape" fill="#000" fill-rule="nonzero"/></g></svg>