<svg xmlns="http://www.w3.org/2000/svg" xmlns:xlink="http://www.w3.org/1999/xlink" width="52" height="48" viewBox="0 0 52 48"><defs><path id="ovx9a" d="M636.5 1329c-.96 0-1.75-.9-1.75-2s.79-2 1.75-2 1.75.9 1.75 2-.79 2-1.75 2zm0-6c-1.93 0-3.5 1.8-3.5 4s1.57 4 3.5 4 3.5-1.8 3.5-4-1.57-4-3.5-4z"/><path id="ovx9b" d="M646.22 1328.39h-1.12c-.44 0-.82.3-.91.71-.21 1.01-.62 1.96-1.22 2.82-.24.36-.2.83.12 1.13l.8.76a.86.86 0 0 1-.01 1.26.95.95 0 0 1-1.31 0l-.8-.76a.96.96 0 0 0-1.16-.11c-.9.57-1.89.96-2.94 1.17a.9.9 0 0 0-.74.87v1.07c0 .5-.41.9-.93.9a.91.91 0 0 1-.93-.9v-1.07a.9.9 0 0 0-.74-.87 8.47 8.47 0 0 1-2.94-1.17.95.95 0 0 0-1.17.1l-.79.77a.94.94 0 0 1-1.31 0 .87.87 0 0 1 0-1.26l.79-.76c.31-.3.36-.77.12-1.13-.6-.86-1-1.8-1.22-2.82a.92.92 0 0 0-.91-.71h-1.12a.91.91 0 0 1-.92-.9c0-.49.41-.89.92-.89h1.12c.44 0 .82-.3.91-.71.21-1.01.62-1.96 1.22-2.82a.87.87 0 0 0-.12-1.13l-.8-.76a.86.86 0 0 1 .01-1.26.95.95 0 0 1 1.31 0l.8.76c.3.3.8.35 1.16.11.9-.57 1.89-.96 2.94-1.17a.9.9 0 0 0 .74-.87v-1.07c0-.5.4-.9.93-.9.51 0 .93.4.93.9v1.07c0 .42.3.79.74.87 1.05.2 2.04.6 2.94 1.17.36.24.85.2 1.17-.1l.79-.77c.17-.17.4-.26.65-.26s.48.1.66.26c.36.35.36.92 0 1.26l-.79.76a.87.87 0 0 0-.12 1.13c.6.86 1 1.8 1.22 2.82.09.41.47.71.9.71h1.13c.5 0 .92.4.92.9 0 .49-.41.89-.92.89zm0-3.57h-.39a9.48 9.48 0 0 0-.91-2.1l.27-.27a2.6 2.6 0 0 0 0-3.79 2.82 2.82 0 0 0-1.97-.79c-.74 0-1.44.28-1.96.79l-.28.26a10.3 10.3 0 0 0-2.2-.87v-.37A2.74 2.74 0 0 0 636 1315a2.74 2.74 0 0 0-2.79 2.68v.37c-.76.2-1.5.5-2.19.87l-.28-.26a2.87 2.87 0 0 0-3.93 0 2.61 2.61 0 0 0 0 3.79l.27.26c-.39.67-.7 1.38-.91 2.11h-.39a2.74 2.74 0 0 0-2.78 2.68 2.74 2.74 0 0 0 2.78 2.68h.39c.22.73.52 1.44.91 2.1l-.27.27a2.6 2.6 0 0 0 0 3.79c.53.5 1.22.79 1.97.79.74 0 1.44-.28 1.96-.79l.28-.26c.7.37 1.43.66 2.2.87v.37A2.74 2.74 0 0 0 636 1340c1.54 0 2.79-1.2 2.79-2.68v-.37c.76-.2 1.5-.5 2.19-.87l.28.26a2.87 2.87 0 0 0 3.93 0 2.61 2.61 0 0 0 0-3.79l-.27-.26c.39-.67.7-1.38.91-2.11h.39c1.53 0 2.78-1.2 2.78-2.68a2.74 2.74 0 0 0-2.78-2.68z"/><path id="ovx9c" d="M662.78 1319.07a2.08 2.08 0 1 1 0 0zm.28-4.5a3.97 3.97 0 0 0-5.49 1.37 4 4 0 1 0 5.49-1.37z"/><path id="ovx9d" d="M671.31 1315.71a.9.9 0 0 0-.68.92c.05 1.11-.12 2.2-.49 3.25a.9.9 0 0 0 .39 1.08l.99.6a1 1 0 0 1 .33 1.37 1 1 0 0 1-1.37.34l-.98-.59a.9.9 0 0 0-1.14.17 8.55 8.55 0 0 1-2.64 1.95.9.9 0 0 0-.49 1.04l.28 1.11a1 1 0 0 1-.73 1.22 1 1 0 0 1-1.21-.73l-.28-1.12a.9.9 0 0 0-.88-.68h-.04c-1.1.05-2.2-.12-3.25-.49a.9.9 0 0 0-1.08.39l-.59.98a.99.99 0 0 1-1.37.34 1 1 0 0 1-.35-1.37l.6-.98a.9.9 0 0 0-.17-1.14 8.56 8.56 0 0 1-1.95-2.64.9.9 0 0 0-1.04-.49l-1.11.28a.99.99 0 0 1-1.22-.73 1 1 0 0 1 .73-1.22l1.12-.27a.9.9 0 0 0 .68-.92c-.05-1.11.12-2.2.49-3.25a.9.9 0 0 0-.39-1.08l-.99-.6a1 1 0 0 1-.34-1.37 1 1 0 0 1 1.38-.34l.98.59a.9.9 0 0 0 1.14-.17 8.55 8.55 0 0 1 2.64-1.95.9.9 0 0 0 .49-1.04l-.28-1.11a1 1 0 0 1 1.94-.49l.28 1.12c.1.41.5.7.92.68 1.1-.05 2.2.12 3.25.49a.9.9 0 0 0 1.08-.39l.59-.98a.99.99 0 0 1 1.37-.34 1 1 0 0 1 .34 1.37l-.59.98a.9.9 0 0 0 .17 1.14 8.56 8.56 0 0 1 1.95 2.64.9.9 0 0 0 1.04.49l1.11-.28a.99.99 0 0 1 1.21.73 1 1 0 0 1-.72 1.22zm1.56 1.48a2.82 2.82 0 0 0-1.36-5.46l-.42.1c-.42-.73-.92-1.4-1.5-2l.23-.38a2.8 2.8 0 0 0-.96-3.86 2.79 2.79 0 0 0-3.87.96l-.22.37c-.8-.22-1.64-.34-2.47-.37l-.1-.42a2.81 2.81 0 0 0-5.47 1.36l.1.43c-.72.4-1.4.9-2 1.48l-.38-.22a2.8 2.8 0 0 0-4.18 3.1 2.8 2.8 0 0 0 1.28 1.73l.37.22c-.22.8-.34 1.64-.37 2.47l-.42.1a2.8 2.8 0 0 0-2.05 3.42 2.82 2.82 0 0 0 3.42 2.05l.42-.1c.4.72.9 1.4 1.48 2l-.22.38a2.8 2.8 0 0 0 .96 3.86 2.8 2.8 0 0 0 3.87-.96l.22-.37c.8.22 1.64.34 2.47.37l.1.42a2.8 2.8 0 0 0 3.42 2.04 2.8 2.8 0 0 0 2.05-3.4l-.1-.43c.72-.4 1.4-.9 2-1.48l.38.22a2.8 2.8 0 0 0 3.86-.96 2.8 2.8 0 0 0-.96-3.87l-.37-.22c.22-.8.34-1.64.37-2.47z"/><path id="ovx9e" d="M640.73 1304.4a1.52 1.52 0 1 1-2.46-1.8 1.52 1.52 0 0 1 2.46 1.8zm.83-3.73a3.5 3.5 0 1 0 .77 4.89 3.5 3.5 0 0 0-.77-4.9z"/><path id="ovx9f" d="M645.78 1306.3l.72.53c.14.1.22.24.25.4a.61.61 0 0 1-.11.46.6.6 0 0 1-.85.13l-.73-.53a.88.88 0 0 0-1.12.07 6.54 6.54 0 0 1-2.13 1.3.88.88 0 0 0-.57.97l.14.89a.6.6 0 0 1-.5.7.6.6 0 0 1-.7-.5l-.14-.9a.88.88 0 0 0-.84-.74 6.53 6.53 0 0 1-2.43-.59.88.88 0 0 0-1.08.29l-.53.72a.6.6 0 0 1-.85.14.61.61 0 0 1-.14-.85l.53-.73a.88.88 0 0 0-.07-1.12 6.51 6.51 0 0 1-1.3-2.13.89.89 0 0 0-.97-.57l-.89.15a.6.6 0 0 1-.7-.51.61.61 0 0 1 .51-.7l.89-.14a.88.88 0 0 0 .74-.84 6.5 6.5 0 0 1 .59-2.43.88.88 0 0 0-.29-1.08l-.72-.53a.6.6 0 0 1-.14-.85c.2-.28.58-.34.85-.14l.73.53c.34.25.8.22 1.12-.07a6.52 6.52 0 0 1 2.13-1.3c.4-.15.63-.55.57-.97l-.14-.89a.6.6 0 0 1 .5-.7c.34-.05.65.18.7.51l.14.89c.07.41.42.73.84.74.84.04 1.66.24 2.43.59.39.17.84.05 1.08-.29l.53-.73a.6.6 0 0 1 .85-.13.61.61 0 0 1 .14.85l-.53.73c-.24.34-.22.8.07 1.12a6.53 6.53 0 0 1 1.3 2.13c.15.4.56.63.97.57l.89-.14a.6.6 0 0 1 .7.5.61.61 0 0 1-.51.7l-.89.14a.88.88 0 0 0-.74.84 6.52 6.52 0 0 1-.59 2.43.88.88 0 0 0 .29 1.08zm2.72.66a2.36 2.36 0 0 0-.95-1.55l-.17-.12c.2-.55.33-1.12.4-1.7l.21-.03a2.36 2.36 0 0 0 1.98-2.72 2.38 2.38 0 0 0-2.72-1.98l-.2.04a8.3 8.3 0 0 0-.91-1.49l.12-.17a2.36 2.36 0 0 0-.53-3.32 2.36 2.36 0 0 0-3.32.52l-.12.18a8.26 8.26 0 0 0-1.7-.4l-.03-.22a2.38 2.38 0 0 0-4.7.75l.04.2c-.53.26-1.02.56-1.49.91l-.17-.12a2.38 2.38 0 0 0-2.8 3.85l.18.12c-.2.55-.33 1.12-.4 1.7l-.22.03a2.38 2.38 0 0 0 .75 4.7l.2-.04c.26.53.56 1.02.91 1.49l-.12.17a2.38 2.38 0 0 0 3.85 2.8l.12-.18c.55.2 1.12.33 1.7.4l.03.21a2.36 2.36 0 0 0 2.34 2.01 2.38 2.38 0 0 0 2.36-2.75l-.04-.2a8.3 8.3 0 0 0 1.49-.91l.17.12a2.36 2.36 0 0 0 3.32-.53c.37-.51.52-1.14.42-1.77z"/></defs><g><g transform="translate(-623 -1292)"><g><use fill="#353535" xlink:href="#ovx9a"/></g><g><use fill="#353535" xlink:href="#ovx9b"/></g><g><use fill="#353535" xlink:href="#ovx9c"/></g><g><use fill="#353535" xlink:href="#ovx9d"/></g><g><use fill="#353535" xlink:href="#ovx9e"/></g><g><use fill="#353535" xlink:href="#ovx9f"/></g></g></g></svg>
