<svg xmlns="http://www.w3.org/2000/svg" xmlns:xlink="http://www.w3.org/1999/xlink" width="48" height="50" viewBox="0 0 48 50"><defs><path id="pgxna" d="M225.34 1321.67c0-.37-.42-.67-.94-.67h-5.66c-.52 0-.94.3-.94.67 0 .36.42.66.94.66h5.66c.52 0 .94-.3.94-.66z"/><path id="pgxnb" d="M221.57 1300.16v-4.3a.86.86 0 1 0-1.71 0v4.3a4.3 4.3 0 0 0 4.29 4.3h7.71v16.35a.86.86 0 1 0 1.71 0v-17.2a.86.86 0 0 0-.85-.87h-8.57a2.58 2.58 0 0 1-2.58-2.58z"/><path id="pgxnc" d="M224.45 1311h-7.13c-.5 0-.89.3-.89.67 0 .36.4.66.9.66h7.12c.5 0 .9-.3.9-.66 0-.37-.4-.67-.9-.67z"/><path id="pgxnd" d="M215.74 1311.67c0-.37-.42-.67-.94-.67h-5.66c-.52 0-.94.3-.94.67 0 .36.42.66.94.66h5.66c.52 0 .94-.3.94-.66z"/><path id="pgxne" d="M209.06 1315.67c-.48 0-.86.3-.86.67 0 .36.38.66.86.66h1.71c.47 0 .86-.3.86-.66 0-.37-.39-.67-.86-.67z"/><path id="pgxnf" d="M209.06 1306.33h8.57c.47 0 .86-.3.86-.66 0-.37-.39-.67-.86-.67h-8.57c-.48 0-.86.3-.86.67 0 .36.38.66.86.66z"/><path id="pgxng" d="M213.86 1317h8.57c.47 0 .86-.3.86-.66 0-.37-.39-.67-.86-.67h-8.57c-.48 0-.86.3-.86.67 0 .36.38.66.86.66z"/><path id="pgxnh" d="M218.66 1325.67c-.48 0-.86.3-.86.67 0 .36.38.66.86.66h1.71c.47 0 .86-.3.86-.66 0-.37-.39-.67-.86-.67z"/><path id="pgxni" d="M216.22 1321h-7.13c-.5 0-.89.3-.89.67 0 .36.4.66.9.66h7.12c.5 0 .9-.3.9-.66 0-.37-.4-.67-.9-.67z"/><path id="pgxnj" d="M216.22 1325.67h-7.13c-.5 0-.89.3-.89.67 0 .36.4.66.9.66h7.12c.5 0 .9-.3.9-.66 0-.37-.4-.67-.9-.67z"/><path id="pgxnk" d="M234.72 1328.4l-1.12 1.1-4-3.89 1.12-1.1c.7-.67 1.57-.67 2.26 0l1.74 1.7c.71.69.71 1.51 0 2.2zm-9.94 9.7l-1.38-1.35 7.58-7.39 1.38 1.35zm-5.23 1.2v-3.9l4 3.9zm8.81-12.49l1.38 1.35-7.58 7.38-1.38-1.34zm7.6-1.8l-1.75-1.7a3.34 3.34 0 0 0-4.72 0l-11.43 11.14a.84.84 0 0 0-.26.6v5.1c0 .47.4.85.87.85h5.24c.23 0 .45-.1.61-.25l11.44-11.14a3.06 3.06 0 0 0 0-4.6z"/><path id="pgxnl" d="M215.13 1339.33H193.2a2.52 2.52 0 0 1-2.52-2.5v-41.66c0-1.38 1.13-2.5 2.52-2.5h26.63l8.18 8.09c.33.32.86.32 1.19 0a.83.83 0 0 0 0-1.18l-8.43-8.34a.85.85 0 0 0-.6-.24h-26.97a4.2 4.2 0 0 0-4.21 4.17v41.66a4.2 4.2 0 0 0 4.21 4.17h21.92c.46 0 .84-.37.84-.83a.84.84 0 0 0-.84-.84z"/><path id="pgxnm" d="M216.22 1331h-7.13c-.5 0-.89.3-.89.67 0 .36.4.66.9.66h7.12c.5 0 .9-.3.9-.66 0-.37-.4-.67-.9-.67z"/><path id="pgxnn" d="M203.56 1310.5h-3.76v-3.67h3.76zm1.9-4.58c0-.5-.43-.92-.95-.92h-5.66a.93.93 0 0 0-.94.92v5.5c0 .5.42.91.94.91h5.66c.52 0 .94-.4.94-.91z"/><path id="pgxno" d="M199.8 1327.5h3.76v3.67h-3.76zm-.95 5.5h5.66c.52 0 .94-.4.94-.91v-5.5c0-.5-.42-.92-.94-.92h-5.66a.93.93 0 0 0-.94.92v5.5c0 .5.42.91.94.91z"/><path id="pgxnp" d="M200.07 1322.73a.96.96 0 0 0 1.45-.13l3.77-5.5a.9.9 0 0 0-.26-1.28.96.96 0 0 0-1.3.26l-3.14 4.57-1.07-1.04a.96.96 0 0 0-1.33 0 .9.9 0 0 0 0 1.3z"/></defs><g><g transform="translate(-189 -1291)"><g><use fill="#353535" xlink:href="#pgxna"/><use fill="#fff" fill-opacity="0" stroke-miterlimit="50" stroke-width="0" xlink:href="#pgxna"/></g><g><use fill="#353535" xlink:href="#pgxnb"/><use fill="#fff" fill-opacity="0" stroke-miterlimit="50" stroke-width="0" xlink:href="#pgxnb"/></g><g><use fill="#353535" xlink:href="#pgxnc"/><use fill="#fff" fill-opacity="0" stroke-miterlimit="50" stroke-width="0" xlink:href="#pgxnc"/></g><g><use fill="#353535" xlink:href="#pgxnd"/><use fill="#fff" fill-opacity="0" stroke-miterlimit="50" stroke-width="0" xlink:href="#pgxnd"/></g><g><use fill="#353535" xlink:href="#pgxne"/><use fill="#fff" fill-opacity="0" stroke-miterlimit="50" stroke-width="0" xlink:href="#pgxne"/></g><g><use fill="#353535" xlink:href="#pgxnf"/><use fill="#fff" fill-opacity="0" stroke-miterlimit="50" stroke-width="0" xlink:href="#pgxnf"/></g><g><use fill="#353535" xlink:href="#pgxng"/><use fill="#fff" fill-opacity="0" stroke-miterlimit="50" stroke-width="0" xlink:href="#pgxng"/></g><g><use fill="#353535" xlink:href="#pgxnh"/><use fill="#fff" fill-opacity="0" stroke-miterlimit="50" stroke-width="0" xlink:href="#pgxnh"/></g><g><use fill="#353535" xlink:href="#pgxni"/><use fill="#fff" fill-opacity="0" stroke-miterlimit="50" stroke-width="0" xlink:href="#pgxni"/></g><g><use fill="#353535" xlink:href="#pgxnj"/><use fill="#fff" fill-opacity="0" stroke-miterlimit="50" stroke-width="0" xlink:href="#pgxnj"/></g><g><use fill="#353535" xlink:href="#pgxnk"/><use fill="#fff" fill-opacity="0" stroke-miterlimit="50" stroke-width="0" xlink:href="#pgxnk"/></g><g><use fill="#353535" xlink:href="#pgxnl"/><use fill="#fff" fill-opacity="0" stroke-miterlimit="50" stroke-width="0" xlink:href="#pgxnl"/></g><g><use fill="#353535" xlink:href="#pgxnm"/><use fill="#fff" fill-opacity="0" stroke-miterlimit="50" stroke-width="0" xlink:href="#pgxnm"/></g><g><use fill="#353535" xlink:href="#pgxnn"/><use fill="#fff" fill-opacity="0" stroke-miterlimit="50" stroke-width="0" xlink:href="#pgxnn"/></g><g><use fill="#353535" xlink:href="#pgxno"/><use fill="#fff" fill-opacity="0" stroke-miterlimit="50" stroke-width="0" xlink:href="#pgxno"/></g><g><use fill="#353535" xlink:href="#pgxnp"/><use fill="#fff" fill-opacity="0" stroke-miterlimit="50" stroke-width="0" xlink:href="#pgxnp"/></g></g></g></svg>