<svg xmlns="http://www.w3.org/2000/svg" xmlns:xlink="http://www.w3.org/1999/xlink" width="53" height="43" viewBox="0 0 53 43"><defs><path id="zypva" d="M1061.43 1306.2a2.7 2.7 0 1 1 0-5.4 2.7 2.7 0 0 1 0 5.4zm.07-7.2a4.5 4.5 0 1 0-.02 8.98 4.5 4.5 0 0 0 .02-8.98z"/><path id="zypvb" d="M1099 1305.4c-.8 0-1.4-.6-1.4-1.4 0-.8.6-1.4 1.4-1.4.8 0 1.4.6 1.4 1.4 0 .8-.6 1.4-1.4 1.4zm0-4.4a3 3 0 1 0 .01 6.01 3 3 0 0 0-.01-6.01z"/><path id="zypvc" d="M1099.74 1313.3c-1.72-2.29-4.55-6.54-4.55-8.7 0-2.48 2.04-4.5 4.55-4.5 2.5 0 4.55 2.02 4.55 4.5 0 2.1-2.84 6.41-4.55 8.7zm-38.1 3.46c-2.37-3.2-6.93-9.8-6.93-13.2a6.9 6.9 0 0 1 6.93-6.86 6.9 6.9 0 0 1 6.93 6.86c0 3.2-4.55 9.93-6.93 13.2zm44.36-12.09c0-3.46-2.83-6.2-6.26-6.2a6.23 6.23 0 0 0-6.26 6.2c0 3.07 3.75 8.3 5.14 10.07l-20.24 20.06a5.48 5.48 0 0 1-7.51 0 5.21 5.21 0 0 1 0-7.39l17.27-17.18a6.94 6.94 0 0 0 0-9.8 7.09 7.09 0 0 0-9.9 0l-11 10.97c1.65-2.8 3.03-5.75 3.03-7.84a8.63 8.63 0 1 0-17.27 0c0 5.03 7.65 14.7 7.98 15.1l.66.85.59-.72 17.27-17.19a5.48 5.48 0 0 1 7.51 0 5.16 5.16 0 0 1 1.52 3.73c0 1.37-.53 2.67-1.52 3.72l-17.27 17.12a6.94 6.94 0 0 0 4.95 11.83c1.84 0 3.62-.72 4.94-2.03l20.1-19.93.07.07.33-.4.27-.26-.07-.06.13-.13c.6-.72 5.54-7.26 5.54-10.59z"/></defs><g><g transform="translate(-1053 -1295)"><g><use fill="#353535" xlink:href="#zypva"/></g><g><use fill="#353535" xlink:href="#zypvb"/></g><g><use fill="#353535" xlink:href="#zypvc"/></g></g></g></svg>