<svg xmlns="http://www.w3.org/2000/svg" xmlns:xlink="http://www.w3.org/1999/xlink" width="192" height="80" viewBox="0 0 192 80"><defs><path id="apz3e" d="M188.96 77.48h1.1c1.7 0 3.39-.6 3.34-2.18 0-1.06-.89-1.59-1.97-1.59-1.2 0-2.37.44-3.26.88l-.7-2.37A9.4 9.4 0 0 1 192.2 71c2.42 0 4.8 1.06 4.8 3.72 0 2.07-1.68 3.45-3.58 3.89l-.02.05c1.63.34 2.9 1.58 2.9 3.42 0 3.38-3.3 4.92-6.6 4.92a9.2 9.2 0 0 1-4.7-1.24l1.06-2.5c.7.38 2.13.94 3.6.94 1.53 0 3.07-.74 3.07-2.26 0-1.45-1.7-1.97-2.95-1.97h-1.3z"/><path id="apz3f" d="M204.22 86.74c.02-.68.1-1.45.16-2.28h-.07c-1.05 1.9-2.5 2.54-3.84 2.54-2.06 0-3.47-1.6-3.47-4 0-3.87 2.55-8 8.2-8 1.36 0 2.84.26 3.8.56l-1.22 6.02c-.28 1.47-.5 3.73-.44 5.16zm.97-9.09c-.25-.04-.58-.09-.9-.09-2.18 0-3.77 2.68-3.77 4.81 0 1.13.44 1.9 1.38 1.9 1 0 2.24-1.14 2.76-3.96z"/><path id="apz3g" d="M222.52 72.77c-.6.21-1.28.28-1.96.35-1.69.16-3.4.28-4.84 1.68-.7.7-1.3 1.81-1.53 2.7h.12a4.47 4.47 0 0 1 3.76-2.14c2.53 0 3.95 1.95 3.93 4.47-.03 3.77-2.56 7.17-6.46 7.17-2.83 0-4.54-1.98-4.54-5.57 0-3.28.94-6.28 2.85-8.29 2.01-2.14 4.2-2.53 6.94-2.77.8-.07 1.62-.18 2.21-.37zm-3.92 7.29c0-1.07-.44-2.3-1.62-2.3-.69 0-1.3.44-1.76 1.06-.64.82-1 2-1 3.24 0 1.28.5 2.46 1.69 2.46 1.89 0 2.69-2.74 2.69-4.46z"/><path id="apz3h" d="M233.53 86.1c-1.38.69-3.1.9-4.4.9-3.39 0-5.13-1.86-5.13-4.85 0-3.5 2.61-7.15 6.9-7.15 2.38 0 4.1 1.3 4.1 3.44 0 2.94-2.92 4-7.66 3.88 0 .33.12.84.36 1.17.46.6 1.26.9 2.27.9a7.6 7.6 0 0 0 3.31-.73zm-3.07-8.63c-1.62 0-2.54 1.3-2.78 2.38 2.7.02 4.06-.36 4.06-1.4 0-.58-.49-.98-1.28-.98z"/><path id="apz3i" d="M237.07 75.8a9.8 9.8 0 0 1 3.9-.8c2.62 0 4.03 1.22 4.03 3.15 0 2.03-1.85 3.04-4.1 3.9-1.33.57-2.22 1.02-2.22 1.68 0 .47.34.8 1.23.8 1.26 0 2.52-.5 3.31-.9l.4 2.4c-1.14.57-2.82 1-4.27.97-2.67 0-4.35-1.08-4.35-3.15 0-2.4 2.2-3.27 4.3-4.1 1.18-.47 2.24-.9 2.24-1.5 0-.45-.5-.76-1.3-.78-1.02 0-2 .28-2.8.61z"/><path id="apz3j" d="M251.96 79.72h1.3c1.08 0 2.3-.33 2.3-1.2 0-.76-.7-1.11-1.58-1.11-.86 0-1.95.3-2.74.73l-.54-2.08a8.7 8.7 0 0 1 4.02-1.06c1.81 0 4.28.59 4.28 3 0 1.6-1.43 2.46-2.83 2.74v.02c1.2.22 2.5 1.07 2.5 2.67 0 2.8-3.09 3.57-5.28 3.57a7.6 7.6 0 0 1-4.39-1.18l.84-2.27a6.2 6.2 0 0 0 3.19.97c1.04 0 2.2-.4 2.2-1.32 0-.97-1.07-1.28-2.27-1.28h-1.31z"/><path id="apz3k" d="M268.22 86.74c.02-.68.1-1.45.16-2.28h-.07c-1.05 1.9-2.5 2.54-3.84 2.54-2.06 0-3.47-1.6-3.47-4 0-3.87 2.55-8 8.2-8 1.36 0 2.84.26 3.8.56l-1.22 6.02c-.28 1.47-.49 3.73-.44 5.16zm.97-9.09c-.25-.04-.58-.09-.9-.09-2.18 0-3.77 2.68-3.77 4.81 0 1.13.44 1.9 1.38 1.9 1 0 2.24-1.14 2.76-3.96z"/><path id="apz3a" d="M170 94.66h7.85v8.29H170z"/><path id="apz3m" d="M177.85 97.92c0 2.9-1.92 5.03-4.6 5.03-1.94 0-3.25-1.31-3.25-3.28 0-2.75 1.86-5.01 4.6-5.01 2.05 0 3.25 1.46 3.25 3.26m-5.5 1.7c0 .93.44 1.55 1.22 1.55 1.25 0 1.95-1.87 1.95-3.23 0-.73-.3-1.51-1.22-1.51-1.3 0-1.97 1.96-1.96 3.2"/><path id="apz3n" d="M187.64 92.96c-.44.14-.96.2-1.47.24-1.27.12-2.55.2-3.63 1.19-.53.49-.97 1.28-1.14 1.9h.08a3.4 3.4 0 0 1 2.82-1.5c1.9 0 2.96 1.37 2.95 3.15-.02 2.66-1.92 5.06-4.84 5.06-2.13 0-3.41-1.4-3.41-3.93 0-2.32.7-4.44 2.14-5.85 1.5-1.51 3.15-1.8 5.2-1.96.6-.05 1.21-.13 1.66-.26zm-2.94 5.14c0-.75-.33-1.63-1.22-1.63-.51 0-.97.32-1.31.76a3.63 3.63 0 0 0-.76 2.3c0 .9.38 1.74 1.27 1.74 1.42 0 2.02-1.95 2.02-3.17z"/><path id="apz3o" d="M196 95l-1.5 7.87h-2.3l1.15-6.1h-1.75l-.3 1.51c-.4 2-.9 3.11-1.71 3.84-.58.54-1.3.86-2.45.88l-.14-1.84c.48-.04.87-.2 1.14-.48.48-.43.84-1.3 1.06-2.44l.61-3.24z"/><path id="apz3p" d="M201.81 102.83c.02-.46.06-.97.11-1.52h-.05c-.7 1.27-1.67 1.69-2.56 1.69-1.37 0-2.31-1.06-2.31-2.66 0-2.59 1.7-5.34 5.47-5.34.9 0 1.89.17 2.53.38l-.81 4a18.6 18.6 0 0 0-.3 3.45zm.66-6.06a3.5 3.5 0 0 0-.61-.06c-1.45 0-2.52 1.78-2.52 3.2 0 .75.3 1.26.93 1.26.67 0 1.5-.76 1.84-2.64z"/><path id="apz3q" d="M209.87 95l-.63 3.29h.23l2.72-3.29H215l-3.55 3.57c.76.3 1.14 1.2 1.36 2.37.16.72.33 1.54.53 2.06h-2.36c-.16-.4-.3-1.2-.46-1.9-.25-.96-.57-1.44-1.35-1.44h-.2l-.65 3.34H206l1.54-8z"/><path id="apz3r" d="M218.81 102.83c.02-.46.06-.97.11-1.52h-.05c-.7 1.27-1.67 1.69-2.56 1.69-1.37 0-2.31-1.06-2.31-2.66 0-2.59 1.7-5.34 5.47-5.34.9 0 1.89.17 2.53.38l-.81 4a18.6 18.6 0 0 0-.3 3.45zm.66-6.06a3.5 3.5 0 0 0-.61-.06c-1.45 0-2.52 1.78-2.52 3.2 0 .75.3 1.26.93 1.26.67 0 1.5-.76 1.84-2.64z"/><path id="apz3b" d="M283.47 75.54h60.11V129h-60.11z"/><path id="apz3t" d="M343.58 129L310.4 75.58l-26.93-.04 33.7 53.46z"/><path id="apz3u" d="M324 58.01L306 58l13.66 8z"/><path id="apz3v" d="M291 77l13.8-19 8.2 4.7z"/><path id="apz3w" d="M346 103l-25-8.86 8.59-9.14 15.55 11.69z"/><path id="apz3x" d="M282 129l12.9-9.88L302 104l-4.54 18.37z"/><path id="apz3y" d="M319.52 94L306 88.3 322.98 58 336 76.06z"/><path id="apz3z" d="M335.08 100l9.92 3.62L323 121z"/><path id="apz3A" d="M298 121l8.32-33L320 93.28l-10.31 18.79z"/><path id="apz3B" d="M323 58h12.03L352 82.39 342.85 85z"/><path id="apz3c" d="M348.65 65.38h13.23v16.03h-13.23z"/><path id="apz3D" d="M348.65 75.38l4.08 6.03 9.15-16.03z"/><path id="apz3d" d="M336.72 49.45h15.74V63.8h-15.74z"/><path id="apz3F" d="M341.35 63.8h5.14l5.97-10.9-9.83-3.45-5.91 7.63z"/><path id="apz3G" d="M297 96.16L276.7 128 263 106.98 283.6 75z"/><path id="apz3H" d="M242 115.7l-8.45 12.3H206l22.38-33z"/><path id="apz3I" d="M285 117.08c-.12.06-.25.13-.36.21a.12.12 0 0 1-.15 0 2.26 2.26 0 0 0-2.4-.27c.08.66.03 1.37-.15 2.06a3.85 3.85 0 0 1-3.66 2.94 3.09 3.09 0 0 1-2.88-1.7c-.4-.77-.49-1.65-.26-2.49a2.46 2.46 0 0 1 3.05-1.81c.52.15.95.51 1.2 1.01.27.5.33 1.08.18 1.63-.24.92-1.15 1.45-2 1.2-.07-.03-.11-.1-.1-.17.03-.07.1-.11.16-.1.73.23 1.5-.22 1.7-1 .13-.49.08-1-.15-1.43-.23-.43-.6-.75-1.05-.89-1.19-.36-2.42.38-2.75 1.64-.21.77-.12 1.58.24 2.28.37.7.97 1.2 1.7 1.42 1.87.57 3.84-.6 4.38-2.6.18-.7.23-1.4.14-2.05-.66-2.92-3.06-4.96-5.84-4.96-3 0-5.55 2.6-6 5.67 0 0 4.39 7 4.44 7.02.69.28.85.21 1.56.21.23 0 .46-.02.74-.05.03 0 .07 0 .1.03a4.62 4.62 0 0 0 2.63 1.12z"/><path id="apz3J" d="M229.13 96c-.28.06-.48.14-.73.28-1.35.7-1.8 2.26-1.01 3.46.79 1.21 2.52 1.62 3.87.91.3-.15.53-.33.74-.57z"/><path id="apz3K" d="M214 117.1c.56 5.44 4.9 9.74 10.27 9.9 4.92.14 9.25-3.26 10.56-8.26.2-1.11.14-2.33-.15-3.53a6.25 6.25 0 0 0-7.6-4.71 4.99 4.99 0 0 0-3.06 2.37 5.33 5.33 0 0 0-.56 3.92 3.92 3.92 0 0 0 4.78 2.95 3.1 3.1 0 0 0 1.9-1.48c.43-.74.55-1.6.35-2.44a2.43 2.43 0 0 0-2.96-1.83.22.22 0 0 1-.27-.17.23.23 0 0 1 .16-.28c1.54-.4 3.1.56 3.5 2.16.23.96.09 1.95-.4 2.8a3.55 3.55 0 0 1-2.17 1.68 4.36 4.36 0 0 1-5.31-3.28 5.79 5.79 0 0 1 .6-4.26 5.42 5.42 0 0 1 3.32-2.59 6.43 6.43 0 0 1 1.84-.2 6.76 6.76 0 0 1 6.3 5.24c.3 1.21.36 2.43.18 3.56a4.2 4.2 0 0 0 1.73.46c.91.02 2.44.17 3-.3l1.99-2.96-8.15-12.65s-1.55-.18-2.06-.2a8.16 8.16 0 0 0-5.4 1.85c-.05.03-.13.09-.17.04-.2-.28-2.52-1.46-4.2.22-.08.06-8.02 12-8.02 12"/><path id="apz3L" d="M284.13 76c-.28.06-.48.14-.73.28-1.35.7-1.8 2.26-1.01 3.46.79 1.21 2.52 1.62 3.87.91.3-.15.53-.33.74-.57z"/><path id="apz3M" d="M269 98.13c.56 5.43 5 8.71 10.35 8.87 4.9.14 9.21-3.26 10.5-8.26.2-1.11.16-2.33-.13-3.53a6.22 6.22 0 0 0-7.58-4.71 4.97 4.97 0 0 0-3.04 2.37 5.35 5.35 0 0 0-.55 3.92 3.9 3.9 0 0 0 4.75 2.95 3.1 3.1 0 0 0 1.9-1.48c.42-.74.54-1.6.34-2.44a2.42 2.42 0 0 0-2.94-1.83.22.22 0 0 1-.27-.17.23.23 0 0 1 .16-.28c1.53-.4 3.1.56 3.48 2.16a3.8 3.8 0 0 1-.4 2.8 3.54 3.54 0 0 1-2.16 1.68 4.34 4.34 0 0 1-5.28-3.28 5.81 5.81 0 0 1 .6-4.26 5.4 5.4 0 0 1 3.3-2.59 6.39 6.39 0 0 1 1.83-.2 6.74 6.74 0 0 1 6.28 5.24c.3 1.21.34 2.43.17 3.56.55.28 1.15.44 1.72.46.91.02 2.43.17 2.98-.3.02 0 1.99-2.96 1.99-2.96l-7.95-12.57s-1.7-.26-2.21-.28a8.1 8.1 0 0 0-5.38 1.84c-.05.04-.13.1-.17.05a3.06 3.06 0 0 0-4.01.28c-.07.07-8.28 12.96-8.28 12.96"/><path id="apz3N" d="M276 129l-21.48-34-26.52.04 5.13 8.13.3.49 15.91 25.22z"/><clipPath id="apz3l"><use xlink:href="#apz3a"/></clipPath><clipPath id="apz3s"><use xlink:href="#apz3b"/></clipPath><clipPath id="apz3C"><use xlink:href="#apz3c"/></clipPath><clipPath id="apz3E"><use xlink:href="#apz3d"/></clipPath></defs><g><g transform="translate(-170 -49)"><g><use fill="#fefefe" xlink:href="#apz3e"/></g><g><use fill="#fefefe" xlink:href="#apz3f"/></g><g><use fill="#fefefe" xlink:href="#apz3g"/></g><g><use fill="#fefefe" xlink:href="#apz3h"/></g><g><use fill="#fefefe" xlink:href="#apz3i"/></g><g><use fill="#fefefe" xlink:href="#apz3j"/></g><g><use fill="#fefefe" xlink:href="#apz3k"/></g><g><g/><g clip-path="url(#apz3l)"><use fill="#fefefe" xlink:href="#apz3m"/></g></g><g><use fill="#fefefe" xlink:href="#apz3n"/></g><g><use fill="#fefefe" xlink:href="#apz3o"/></g><g><use fill="#fefefe" xlink:href="#apz3p"/></g><g><use fill="#fefefe" xlink:href="#apz3q"/></g><g><use fill="#fefefe" xlink:href="#apz3r"/></g><g><g/><g clip-path="url(#apz3s)"><use fill="#24394f" xlink:href="#apz3t"/></g></g><g><use fill="#fefefe" xlink:href="#apz3u"/></g><g><use fill="#fefefe" xlink:href="#apz3v"/></g><g><use fill="#fefefe" xlink:href="#apz3w"/></g><g><use fill="#fefefe" xlink:href="#apz3x"/></g><g><use fill="#fefefe" xlink:href="#apz3y"/></g><g><use fill="#fefefe" xlink:href="#apz3z"/></g><g><use fill="#fefefe" xlink:href="#apz3A"/></g><g><use fill="#fefefe" xlink:href="#apz3B"/></g><g><g/><g clip-path="url(#apz3C)"><use fill="#fefefe" xlink:href="#apz3D"/></g></g><g><g/><g clip-path="url(#apz3E)"><use fill="#fefefe" xlink:href="#apz3F"/></g></g><g><use fill="#3fa8e0" xlink:href="#apz3G"/></g><g><use fill="#3fa8e0" xlink:href="#apz3H"/></g><g><use fill="#fefefe" xlink:href="#apz3I"/></g><g><use fill="#fefefe" xlink:href="#apz3J"/></g><g><use fill="#fefefe" xlink:href="#apz3K"/></g><g><use fill="#fefefe" xlink:href="#apz3L"/></g><g><use fill="#fefefe" xlink:href="#apz3M"/></g><g><use fill="#24394f" xlink:href="#apz3N"/></g></g></g></svg>