<svg width="165" height="23" fill="none" xmlns="http://www.w3.org/2000/svg"><path d="M127 7a3 3 0 013-3h32a3 3 0 013 3v9a3 3 0 01-3 3h-32a3 3 0 01-3-3V7z" fill="#fff"/><path d="M131.553 16.11a.994.994 0 01-.724-.297.996.996 0 01-.299-.725c0-.278.1-.517.299-.716a.994.994 0 01.724-.298c.273 0 .511.1.716.298a.961.961 0 01.307.716c0 .188-.048.36-.145.516a1.1 1.1 0 01-.371.37.974.974 0 01-.507.137zm9.748-5.782h-1.867a1.826 1.826 0 00-.209-.643 1.632 1.632 0 00-.405-.486 1.772 1.772 0 00-.571-.307 2.18 2.18 0 00-.694-.106c-.452 0-.845.112-1.181.336-.335.222-.595.546-.779.972-.185.423-.277.937-.277 1.542 0 .623.092 1.145.277 1.569.187.423.449.742.784.958a2.1 2.1 0 001.163.324c.247 0 .476-.033.686-.098a1.642 1.642 0 00.976-.75c.111-.182.188-.389.23-.622l1.867.009a3.475 3.475 0 01-1.134 2.152 3.63 3.63 0 01-1.15.69 4.235 4.235 0 01-1.505.251c-.778 0-1.474-.176-2.088-.528-.611-.352-1.094-.862-1.449-1.53-.352-.668-.528-1.476-.528-2.425 0-.951.179-1.761.537-2.429.358-.667.844-1.176 1.457-1.525.614-.352 1.304-.529 2.071-.529.506 0 .975.071 1.407.213.434.143.819.35 1.154.623.336.27.608.6.819.993.213.392.349.84.409 1.346zm8.843 1.308c0 .952-.181 1.762-.542 2.43a3.753 3.753 0 01-1.465 1.53c-.617.349-1.31.523-2.08.523-.776 0-1.472-.176-2.088-.528-.617-.352-1.104-.862-1.462-1.53-.358-.668-.537-1.476-.537-2.425 0-.951.179-1.761.537-2.429.358-.667.845-1.176 1.462-1.525.616-.352 1.312-.529 2.088-.529.77 0 1.463.177 2.08.529.619.35 1.107.858 1.465 1.525.361.668.542 1.478.542 2.43zm-1.871 0c0-.616-.092-1.136-.277-1.56-.182-.423-.439-.744-.771-.962a2.078 2.078 0 00-1.168-.328c-.446 0-.835.109-1.168.328-.332.218-.591.54-.775.963-.182.423-.273.943-.273 1.56 0 .616.091 1.136.273 1.559.184.423.443.744.775.963.333.219.722.328 1.168.328.446 0 .835-.11 1.168-.328.332-.219.589-.54.771-.963.185-.423.277-.943.277-1.56zm2.737-4.363h2.276l2.403 5.863h.103l2.403-5.863h2.276V16h-1.79v-5.68h-.073l-2.258 5.637h-1.219l-2.258-5.659h-.073V16h-1.79V7.273z" fill="#2FABEB"/><path fill-rule="evenodd" clip-rule="evenodd" d="M72.55 7.368c1.347-2.218 3.837-3.583 6.564-3.583 2.754 0 4.695 1.26 5.891 2.935 1.145 1.602 1.58 3.529 1.58 5.018 0 1.491-.438 3.591-1.893 5.352-1.508 1.826-3.942 3.083-7.506 3.083-2.842 0-6.022-.986-8.736-2.119a45.698 45.698 0 01-6.029-3.069v4.018h-3.55V3.99h5.877c1.18 0 2.196.22 3.046.66.856.44 1.514 1.044 1.973 1.814.459.763.688 1.636.688 2.619 0 .97-.23 1.815-.688 2.536-.459.722-1.117 1.286-1.973 1.691a5.7 5.7 0 01-.868.322c.871.442 1.826.891 2.824 1.308 2.58 1.076 5.265 1.858 7.436 1.858 2.702 0 4.124-.912 4.905-1.858.835-1.01 1.12-2.285 1.12-3.203 0-.922-.288-2.128-.951-3.057C81.648 7.826 80.697 7 79.114 7c-1.611 0-2.977.962-3.68 2.119a3.668 3.668 0 00-.522 1.655c-.06.862 0 2.3.818 4.314-1.135-.15-2.357-.456-3.6-.864-.19-.415-.448-1.187-.57-2.486a7.079 7.079 0 01.99-4.37zm-10.129 3.747v-4.33h2.327c.5 0 .904.11 1.215.33.31.213.536.495.677.845.149.35.223.732.223 1.145 0 .385-.074.732-.223 1.041a1.55 1.55 0 01-.677.711c-.31.172-.715.258-1.215.258h-2.327zM51.878 13.91h-2.327v5.093H46V3.99h5.878c1.18 0 2.196.22 3.046.66.856.44 1.514 1.044 1.973 1.814.458.763.688 1.636.688 2.619 0 .97-.23 1.815-.688 2.536-.459.722-1.117 1.286-1.973 1.691-.85.399-1.865.598-3.046.598zm-2.327-7.125v4.33h2.327c.5 0 .904-.086 1.215-.258a1.55 1.55 0 00.677-.711c.149-.31.223-.656.223-1.041 0-.413-.074-.794-.223-1.145a1.84 1.84 0 00-.678-.845c-.31-.22-.715-.33-1.214-.33h-2.327zM91.845 3.99v6.62l1.234-1.907 3.177-4.712h4.381l-4.972 6.63 4.622 7.792 5.201-14.422h3.349l5.443 15.012h-3.825l-.852-2.805h-4.864l-.85 2.805h-7.45l-3.14-5.583-1.454 1.62v3.963h-3.551V3.99h3.551zm13.74 9.414l1.583-5.224 1.587 5.224h-3.17z" fill="#fff"/><path d="M119.568 19.003V6.785H124V3.99h-12.313v2.794h4.33v12.218h3.551zM20 5.04v1.04a.5.5 0 00.787.41l3.628-2.54a.5.5 0 000-.82L20.787.592a.5.5 0 00-.787.41v1.04h-5.615a3.5 3.5 0 00-2.59 1.145L8.283 7.05c-.27.296-.71.515-1.284.584-1.328.159-2.989.553-4.364 1.407C1.211 9.925 0 11.383 0 13.54c0 2.073.583 3.55 1.634 4.476 1.017.894 2.197 1.024 2.866 1.024h.953c.875 1.838 2.893 3 5.047 3s4.172-1.162 5.047-3h1.106L15.2 17.934a.49.49 0 010-.79l1.453-1.104h-3.468l-.206 1.258c-.137.841-1.06 1.742-2.479 1.742s-2.342-.9-2.48-1.742l-.205-1.258H4.5c-.33 0-.65-.071-.884-.277-.2-.175-.616-.696-.616-2.223 0-.845.412-1.451 1.218-1.952.856-.532 2.034-.845 3.137-.976 1.105-.133 2.28-.591 3.148-1.545l3.512-3.864a.5.5 0 01.37-.163H20z" fill="#fff"/><path d="M23.962 5.04h-1.105l1.558-1.09a.5.5 0 000-.82l-1.558-1.09h1.105a4.5 4.5 0 012.773.956l5.685 4.36.007.005c.174.137.257.178.304.197.048.02.137.047.362.07.158.017.333.034.53.052l.074.007c1.21.113 3.151.294 4.805.981.863.358 1.744.89 2.413 1.707.69.844 1.085 1.905 1.085 3.165 0 2.438-.95 3.936-2.168 4.749a4.568 4.568 0 01-2.06.737l-.272.015h-.953c-.875 1.838-2.893 3-5.047 3s-4.172-1.162-5.047-3H20v1.493a.512.512 0 01-.438.498.545.545 0 01-.426-.103L15.2 17.935a.49.49 0 010-.79l3.936-2.993a.541.541 0 01.44-.1.51.51 0 01.424.495v1.494h8.815l.206 1.258c.137.841 1.06 1.742 2.479 1.742 1.42 0 2.342-.9 2.48-1.742l.205-1.258h3.29l.012-.002a1.568 1.568 0 00.681-.247c.282-.187.832-.688.832-2.252 0-.594-.171-.977-.406-1.263-.257-.314-.663-.598-1.242-.838-1.197-.497-2.718-.651-4.01-.772h-.005l-.555-.054a4.25 4.25 0 01-1.171-.272 4.19 4.19 0 01-1.03-.615l-5.685-4.36-.007-.005a1.5 1.5 0 00-.927-.32z" fill="#2FABEB"/></svg>