<svg width="254" height="47" fill="none" xmlns="http://www.w3.org/2000/svg"><path fill-rule="evenodd" clip-rule="evenodd" d="M22.334 41.255c8.775-5.645 9.376-16.821 12.082-5.511.736 3.078-7.388 3.936-12.082 5.511zM6.682 16.327c1.77 8.43 4.46 5.506 5.883 1.496.897-2.526 2.64-4.794 4.05-5.191 4.552-1.281.78-1.796-9.933 3.695zm12.986 2.571c2.11 0 3.83 1.795 3.83 3.996s-1.72 3.997-3.83 3.997c-2.11 0-3.83-1.796-3.83-3.997 0-2.2 1.72-3.996 3.83-3.996z" fill="#fff"/><path fill-rule="evenodd" clip-rule="evenodd" d="M35.72 35.546c-.203-2.036-.76-4.201-2-5.704-.574-5.566-3.034-9.726-6.963-12.733-1.251-.93-3.402-1.975-3.848-3.806-.815.301-1.597.707-2.333 1.22.554 1.567 2.15 2.1 3.378 2.657 4.72 2.17 7.946 5.863 8.944 11.916-.945-.59-1.806-.324-2.554.525-.896-3.793-3.057-6.714-6.093-7.516-.364-2.296-2.282-4.056-4.583-4.056-1.706 0-3.202.969-4.01 2.405-.498-1.012-.734-2.273-.762-3.508 4.255-6.402 11.156-7.95 17.404-4.787.492.273.98.566 1.466.882-2.392.869-.707 4.102-.027 5.798.388.975.758 1.956 1.095 2.958 1.437 4.525 1.774 9.01.886 13.749z" fill="#fff"/><path fill-rule="evenodd" clip-rule="evenodd" d="M13.568 19.314c.235 1.417.721 2.796 1.463 3.867.143 2.536 2.171 4.558 4.637 4.558 2.213 0 4.073-1.63 4.534-3.797 2.118.53 3.767 2.49 4.708 4.997.201.657.367 1.343.497 2.056-.912 1.561-1.755 3.14-2.84 4.549.312-3.342-.951-6.764-4.195-6.326-1.477.253-2.796.615-4.306.394 1.406.35 2.762.182 4.173.328 3.268.496 3.501 4.614 2.51 7.595-1.354 1.244-2.864 2.176-4.5 2.786 1.16-3.163-1.989-4.145-3.85-5.098-1.231-.645-2.39-1.383-3.487-2.312 1.234 1.228 2.614 2.19 3.873 3.368 1.54 1.512 1.638 3.164.095 4.774-3.148.217-6.2-.708-8.94-2.534 2.602-.616 1.353-3.403.57-5.286a86.49 86.49 0 01-1.103-2.74c-1.544-4.273-2.124-8.53-1.563-13.155.402 2.303 1.387 5.154 3.338 6.183 1.491 5.495 5.261 8.954 10.096 9.47-.955-.388-1.905-.764-2.822-1.269-2.891-1.66-4.92-4.407-5.908-8.029 1.492-.478 2.31-2.956 3.02-4.379z" fill="#fff"/><path fill-rule="evenodd" clip-rule="evenodd" d="M5.338 5.703h31.434c2.48 0 4.51 2.415 4.51 5.365v29.766c0 2.951-2.03 5.366-4.51 5.366H5.338c-2.48 0-4.51-2.415-4.51-5.366V11.068c0-2.95 2.03-5.365 4.51-5.365zM7.44 8.411h27.23c2.15 0 3.907 2.091 3.907 4.647v25.786c0 2.557-1.758 4.648-3.907 4.648H7.44c-2.149 0-3.907-2.091-3.907-4.648V13.058c0-2.556 1.758-4.647 3.907-4.647z" fill="#fff"/><path d="M53.557 32.173H228.84" stroke="#fff" stroke-width=".3" stroke-miterlimit="22.926"/><path d="M57.924 6.547h7.068l.711 10.59 4.735-10.59h7.044l-3.317 17.406h-4.389l2.53-13.273-5.935 13.273H62.4l-.863-13.273-2.53 13.273h-4.4l3.317-17.406zm21.347 0h5.838l1.037 7.173 3.74-7.173h5.47L87.09 19.985c-.677 1.086-1.236 1.897-1.686 2.432-.45.53-1.051.973-1.797 1.317-.75.344-1.722.514-2.916.514-.632 0-1.703-.088-3.211-.27l.685-3.6c.893.098 1.548.142 1.965.142 1.243 0 2.084-.462 2.531-1.386l-3.39-12.587zm30.616 17.406h-5.372l2.503-13.13h-4.203l-1.02 5.353c-.419 2.2-.841 3.818-1.273 4.85-.431 1.034-1.118 1.792-2.068 2.274-.95.483-2.381.726-4.296.726-.587 0-1.247-.065-1.98-.19l.672-3.526h.805c.73 0 1.274-.162 1.635-.483.36-.32.622-.908.785-1.763L98.27 6.547h14.934l-3.317 17.406zm10.982-10.7h2.87c2.632 0 4.494.467 5.592 1.4 1.094.927 1.454 2.374 1.08 4.335-.306 1.61-1.123 2.837-2.452 3.688-1.328.851-3.081 1.277-5.263 1.277h-9.23l3.317-17.406h5.364l-1.278 6.707zm-1.326 6.96h2.749c1.684 0 2.642-.609 2.874-1.828.204-1.07-.536-1.605-2.22-1.605h-2.749l-.654 3.432zm14.798-13.666h16.331l-.819 4.3h-5.482l-2.498 13.106h-5.372l2.498-13.106h-5.478l.82-4.3zm35.402 0l-3.317 17.406h-5.052l1.821-9.556-8.335 9.556h-5.064l3.317-17.406h5.064l-1.835 9.629 8.385-9.63h5.016zm3.534 0h7.069l.711 10.589 4.734-10.59h7.044l-3.317 17.407h-4.388l2.529-13.273-5.934 13.273h-3.972l-.863-13.273-2.529 13.273h-4.401l3.317-17.406zm39.626 0l-3.317 17.406h-5.052l1.821-9.556-8.335 9.556h-5.065l3.318-17.406h5.064l-1.835 9.629 8.385-9.63h5.016zm3.571 0h8.93c1.944 0 3.313.462 4.104 1.39.791.924 1.025 2.245.7 3.95-.335 1.76-1.123 3.134-2.368 4.122-1.245.99-2.951 1.484-5.117 1.484h-2.939l-1.231 6.46h-5.396l3.317-17.406zm3.982 7.42h1.316c1.036 0 1.795-.178 2.285-.539.485-.36.784-.823.891-1.382.104-.547.01-1.013-.282-1.39-.288-.381-.936-.572-1.939-.572h-1.531l-.74 3.883zM59.695 45.512h-1.783l-.019-4.368h-1.965l.019 4.368h-1.785l-.024-5.79h5.533l.024 5.79zm42.044 0h-1.788l-.018-4.368h-1.398l.008 1.781c.003.732-.033 1.27-.11 1.614-.076.344-.256.596-.54.756-.285.16-.746.242-1.383.242-.195 0-.419-.022-.67-.064l-.006-1.173h.268c.243 0 .413-.054.512-.16.1-.107.149-.302.147-.586l-.016-3.832h4.969l.025 5.79zm40.275-.956h-2.037l-.276.956h-1.826l2.149-5.79h1.949l2.199 5.79h-1.87l-.288-.956zm-.38-1.252l-.649-2.082-.626 2.082h1.275zm42.489-.158l1.568.475c-.103.44-.268.806-.492 1.101a2.14 2.14 0 01-.841.668c-.334.15-.761.225-1.278.225-.629 0-1.144-.092-1.542-.274-.4-.183-.746-.506-1.037-.966-.291-.462-.439-1.05-.442-1.77-.004-.958.248-1.695.755-2.209.507-.515 1.226-.773 2.157-.773.728 0 1.302.148 1.721.443.418.295.73.748.934 1.359l-1.576.352a1.403 1.403 0 00-.176-.389 1.04 1.04 0 00-.368-.315 1.052 1.052 0 00-.486-.11c-.404 0-.715.162-.929.489-.162.242-.243.622-.24 1.142.002.643.103 1.082.297 1.32.197.24.471.358.822.358.342 0 .6-.095.775-.289.174-.19.3-.47.378-.837zm37.55-3.424h5.434l.005 1.43h-1.823l.018 4.36h-1.787l-.019-4.36h-1.822l-.006-1.43z" fill="#fff"/><path clip-rule="evenodd" d="M244.655 1c4.921 0 8.91 2.563 8.91 5.726 0 3.162-3.989 5.726-8.91 5.726s-8.909-2.564-8.909-5.726c0-3.163 3.988-5.726 8.909-5.726z" stroke="#fff" stroke-width=".25" stroke-miterlimit="22.926"/><path d="M243.395 6.017h-1.163v3.024h-1.607V6.017h-1.164V4.845h3.934v1.172zm6.381 3.024h-1.357V6.407l-.992 2.634h-.967l-1.079-2.634V9.04h-1.357V4.845h1.924l.997 2.412.908-2.412h1.923V9.04z" fill="#fff"/></svg>