<svg width="301" height="55" fill="none" xmlns="http://www.w3.org/2000/svg"><path fill-rule="evenodd" clip-rule="evenodd" d="M25.527 48.733c10.416-6.693 11.13-19.945 14.342-6.535.874 3.65-8.77 4.668-14.342 6.535z" fill="#009846"/><path fill-rule="evenodd" clip-rule="evenodd" d="M6.948 19.175c2.1 9.996 5.294 6.528 6.984 1.773 1.064-2.995 3.133-5.684 4.807-6.155 5.403-1.519.926-2.13-11.79 4.382z" fill="#393185"/><path fill-rule="evenodd" clip-rule="evenodd" d="M22.363 22.224c2.505 0 4.548 2.128 4.548 4.738 0 2.61-2.043 4.738-4.548 4.738s-4.547-2.129-4.547-4.738c0-2.61 2.043-4.738 4.547-4.738z" fill="#009846"/><path fill-rule="evenodd" clip-rule="evenodd" d="M41.417 41.964c-.242-2.415-.903-4.981-2.374-6.764-.682-6.6-3.601-11.533-8.265-15.098-1.486-1.102-4.039-2.341-4.568-4.513-.968.357-1.895.839-2.77 1.446.658 1.858 2.552 2.49 4.01 3.152 5.603 2.573 9.433 6.951 10.618 14.129-1.123-.7-2.145-.385-3.032.622-1.064-4.498-3.629-7.961-7.233-8.913-.431-2.721-2.71-4.809-5.44-4.809-2.025 0-3.8 1.15-4.759 2.853-.592-1.201-.872-2.696-.906-4.16 5.052-7.592 13.243-9.428 20.659-5.676.584.323 1.164.67 1.74 1.045-2.839 1.03-.839 4.864-.032 6.875.46 1.157.9 2.32 1.3 3.507 1.706 5.366 2.106 10.684 1.052 16.304z" fill="#393185"/><path fill-rule="evenodd" clip-rule="evenodd" d="M15.122 22.717c.28 1.68.857 3.315 1.737 4.585.17 3.006 2.577 5.405 5.504 5.405 2.627 0 4.835-1.932 5.382-4.503 2.514.628 4.472 2.953 5.588 5.925.24.78.437 1.593.59 2.438-1.082 1.852-2.082 3.723-3.371 5.394.37-3.963-1.129-8.02-4.979-7.501-1.753.3-3.319.729-5.111.467 1.67.415 3.278.216 4.953.389 3.88.588 4.156 5.47 2.98 9.006-1.607 1.474-3.4 2.58-5.342 3.304 1.377-3.751-2.361-4.916-4.57-6.045-1.462-.766-2.836-1.64-4.139-2.742 1.465 1.456 3.103 2.596 4.597 3.994 1.828 1.792 1.944 3.752.113 5.66-3.737.257-7.36-.839-10.611-3.004 3.087-.73 1.604-4.035.677-6.268a102.46 102.46 0 01-1.31-3.25c-1.834-5.066-2.522-10.114-1.856-15.597.477 2.73 1.647 6.111 3.962 7.331 1.77 6.516 6.245 10.617 11.985 11.23-1.135-.461-2.262-.907-3.35-1.505-3.432-1.97-5.841-5.227-7.013-9.521 1.77-.567 2.743-3.505 3.584-5.192z" fill="#009846"/><path fill-rule="evenodd" clip-rule="evenodd" d="M5.354 6.577h37.311c2.945 0 5.354 2.863 5.354 6.362v35.295c0 3.5-2.409 6.362-5.354 6.362H5.354C2.409 54.596 0 51.733 0 48.234V12.94c0-3.5 2.41-6.363 5.354-6.363zm2.494 3.21h32.323c2.55 0 4.638 2.48 4.638 5.512v30.575c0 3.032-2.087 5.511-4.638 5.511H7.848c-2.55 0-4.637-2.48-4.637-5.51V15.298c0-3.031 2.087-5.511 4.637-5.511z" fill="#393185"/><path d="M62.59 37.964h208.06" stroke="#2B2A29" stroke-width=".3" stroke-miterlimit="22.926"/><path d="M67.773 7.578h8.39l.844 12.556 5.62-12.556h8.361l-3.937 20.639h-5.21l3.003-15.738L77.8 28.217h-4.714l-1.024-15.738-3.003 15.738h-5.224l3.938-20.64zm25.339 0h6.929l1.232 8.505 4.439-8.505h6.492l-9.811 15.934c-.803 1.288-1.467 2.249-2.001 2.883-.533.63-1.248 1.154-2.134 1.562-.89.409-2.043.61-3.46.61-.75 0-2.022-.105-3.812-.322l.814-4.267c1.06.115 1.837.168 2.332.168 1.475 0 2.473-.547 3.004-1.643L93.112 7.578zm36.342 20.639h-6.377l2.97-15.57h-4.988l-1.211 6.348c-.498 2.61-.998 4.527-1.51 5.752-.512 1.225-1.328 2.124-2.456 2.696-1.128.572-2.826.86-5.099.86-.697 0-1.48-.077-2.35-.226l.798-4.18h.956c.865 0 1.512-.193 1.94-.572.428-.38.738-1.077.931-2.09l2.606-13.657h17.727l-3.937 20.639zm13.035-12.687h3.407c3.124 0 5.335.553 6.637 1.658 1.299 1.1 1.727 2.816 1.283 5.142-.364 1.908-1.334 3.364-2.911 4.373-1.576 1.009-3.657 1.514-6.247 1.514h-10.956l3.937-20.64h6.367l-1.517 7.953zm-1.574 8.251h3.263c1.999 0 3.136-.72 3.412-2.167.242-1.269-.637-1.903-2.636-1.903h-3.262l-.777 4.07zM158.48 7.578h19.385l-.972 5.098h-6.507l-2.965 15.54h-6.377l2.965-15.54h-6.501l.972-5.098zm42.023 0l-3.937 20.639h-5.997l2.162-11.331-9.894 11.33h-6.011l3.937-20.638h6.011l-2.178 11.417 9.953-11.417h5.954z" fill="#009846"/><path d="M204.698 7.578h8.391l.843 12.556 5.62-12.556h8.361l-3.937 20.639h-5.209l3.002-15.738-7.044 15.738h-4.714l-1.024-15.738-3.003 15.738h-5.223l3.937-20.64zm47.036 0l-3.938 20.639h-5.997l2.162-11.331-9.894 11.33h-6.011l3.937-20.638h6.012l-2.178 11.417 9.953-11.417h5.954zm4.239 0h10.6c2.307 0 3.932.547 4.871 1.648.939 1.095 1.217 2.661.831 4.685-.398 2.085-1.333 3.715-2.811 4.887-1.478 1.172-3.503 1.759-6.073 1.759h-3.489l-1.462 7.66h-6.405l3.938-20.64zm4.726 8.798h1.562c1.23 0 2.131-.211 2.712-.639.576-.428.931-.976 1.058-1.639.123-.649.013-1.201-.335-1.648-.341-.452-1.11-.678-2.302-.678h-1.816l-.879 4.604z" fill="#393185"/><path d="M69.876 53.782h-2.118l-.021-5.18h-2.333l.022 5.18h-2.118l-.03-6.867h6.568l.03 6.867zm49.905 0h-2.121l-.022-5.18h-1.66l.01 2.112c.003.868-.039 1.506-.13 1.914-.091.407-.304.706-.642.897-.338.19-.885.286-1.641.286-.232 0-.497-.026-.796-.076l-.006-1.39h.318c.288 0 .49-.064.608-.19.118-.127.176-.359.175-.696l-.02-4.544h5.899l.028 6.867zm47.807-1.134h-2.417l-.328 1.134h-2.168l2.552-6.867h2.313l2.611 6.867h-2.221l-.342-1.134zm-.451-1.485l-.77-2.469-.744 2.47h1.514zm50.435-.187l1.861.563c-.122.521-.317.956-.584 1.306-.267.35-.6.614-.997.791-.398.18-.904.267-1.518.267-.747 0-1.358-.108-1.83-.324-.475-.218-.886-.6-1.232-1.146-.344-.547-.52-1.246-.524-2.098-.004-1.137.294-2.011.896-2.62.602-.611 1.456-.916 2.56-.916.865 0 1.546.174 2.043.524.497.35.867.887 1.109 1.611l-1.871.418a1.658 1.658 0 00-.208-.46 1.245 1.245 0 00-.437-.375 1.253 1.253 0 00-.578-.13c-.479 0-.848.193-1.102.58-.192.287-.288.738-.285 1.354.003.762.122 1.283.353 1.566.234.283.558.424.976.424.406 0 .712-.113.919-.342.208-.227.356-.558.449-.993zm44.573-4.06h6.449l.007 1.696h-2.165l.022 5.17h-2.122l-.022-5.17h-2.163l-.006-1.697z" fill="#2B2A29"/><path clip-rule="evenodd" d="M289.425 1C295.265 1 300 4.04 300 7.79s-4.735 6.789-10.575 6.789c-5.842 0-10.576-3.04-10.576-6.79S283.583 1 289.425 1z" stroke="#393185" stroke-width=".25" stroke-miterlimit="22.926"/><path d="M287.929 6.95h-1.381v3.586h-1.908V6.949h-1.381V5.56h4.67v1.39zm7.574 3.586h-1.611V7.41l-1.178 3.125h-1.147l-1.281-3.125v3.125h-1.611V5.559h2.284l1.183 2.86 1.079-2.86h2.282v4.977z" fill="#393185"/></svg>