<svg width="176" height="26" viewBox="0 0 176 26" fill="none" xmlns="http://www.w3.org/2000/svg">
<g id="&#208;&#187;&#208;&#190;&#208;&#179;&#208;&#190;">
<g id="Group">
<path id="Vector" d="M17.8764 14.0355L15.8662 16.261L17.4097 12.9945L17.6969 13.6406L11.3791 0H0L11.9894 24.8762H22.9378L17.8764 14.0355Z" fill="#6CA9E0"/>
</g>
<path id="Vector_2" d="M23.4407 0L17.4102 12.9945L22.8305 24.8762L34.8199 0H23.4407Z" fill="#243340"/>
<path id="Vector_3" d="M22.832 24.8765L28.7549 16.7998H34.8214V24.8765H22.832Z" fill="#243340"/>
<path id="Vector_4" d="M14.6462 16.6921C14.1795 16.4768 14 15.9383 14.2154 15.4717L16.9436 9.65644C17.1589 9.18979 17.6974 9.0103 18.164 9.22568C18.6307 9.44106 18.8102 9.97951 18.5948 10.4462L15.8667 16.2973C15.6513 16.728 15.1128 16.9075 14.6462 16.6921Z" fill="#243340"/>
<g id="Group_2">
<path id="Vector_5" d="M13.9272 25.5583C13.4606 25.7737 12.9221 25.5942 12.7067 25.1276L9.90683 19.3124C9.69145 18.8457 9.87094 18.3073 10.3376 18.0919C10.8042 17.8765 11.3427 18.056 11.5581 18.5227L14.358 24.3379C14.5734 24.7686 14.358 25.343 13.9272 25.5583Z" fill="#243340"/>
<path id="Vector_6" d="M16.5132 25.5583C16.0465 25.7737 15.5081 25.5942 15.2927 25.1276L12.4928 19.3124C12.2774 18.8457 12.4569 18.3073 12.9235 18.0919C13.3902 17.8765 13.9286 18.056 14.144 18.5227L16.9439 24.3379C17.1593 24.7686 16.9798 25.343 16.5132 25.5583Z" fill="#243340"/>
<path id="Vector_7" d="M19.0952 25.5583C18.6285 25.7737 18.0901 25.5942 17.8747 25.1276L15.0748 19.3124C14.8594 18.8457 15.0389 18.3073 15.5056 18.0919C15.9722 17.8765 16.5107 18.056 16.726 18.5227L19.5259 24.3379C19.7772 24.7686 19.5618 25.343 19.0952 25.5583Z" fill="#243340"/>
<path id="Vector_8" d="M21.7163 25.5583C21.2496 25.7737 20.7112 25.5942 20.4958 25.1276L17.6959 19.3124C17.4805 18.8457 17.66 18.3073 18.1266 18.0919C18.5933 17.8765 19.1317 18.056 19.3471 18.5227L22.147 24.3379C22.3624 24.7686 22.1829 25.343 21.7163 25.5583Z" fill="#243340"/>
</g>
<g id="Group_3">
<path id="Vector_9" d="M111.061 7.07129H106.609V21.4657H111.061V7.07129Z" fill="#243340"/>
<path id="Vector_10" d="M75.1995 7.07129H64.5742V10.7327H67.6613V21.4298H72.1125V10.7327H75.1995V7.07129Z" fill="#243340"/>
<path id="Vector_11" d="M100.65 7.07129H96.1992V21.4298H105.137V17.8761H100.65V7.07129Z" fill="#243340"/>
<path id="Vector_12" d="M78.9359 7.07129L74.0898 21.4298H78.8282L79.582 18.7376H79.6179L80.5153 15.6146L81.8434 11.0199L83.2075 15.6146L84.1408 18.7376L84.9305 21.4298H89.633L84.8229 7.07129H78.9359Z" fill="#243340"/>
<path id="Vector_13" d="M50.0021 15.7223L47.0586 7.07129H42.3203L47.9201 21.4298H52.0482L57.7199 7.07129H52.9456L50.0021 15.7223Z" fill="#243340"/>
<path id="Vector_14" d="M63.1035 7.07129H58.6523V21.4657H63.1035V7.07129Z" fill="#243340"/>
<path id="Vector_15" d="M171.154 7.07129H165.303L160.457 21.4298H165.159L166.882 15.6146L167.493 13.5326L168.211 11.0199V11.0558V11.0199L169.575 15.6146L170.472 18.7376H170.508L171.298 21.4298H176L171.154 7.07129Z" fill="#243340"/>
<path id="Vector_16" d="M161.567 7.07129H150.941V10.7327H154.029V21.4298H158.48V10.7327H161.567V7.07129Z" fill="#243340"/>
<path id="Vector_17" d="M127.43 21.4298H136.511V17.8761H131.881V15.9018H136.152V12.5275H131.881V10.6609H136.511V7.07129H127.43V21.4298Z" fill="#243340"/>
<path id="Vector_18" d="M149.398 14.1785C149.864 13.4965 150.116 12.7068 150.116 11.8094C150.116 10.2299 149.613 9.04535 148.608 8.21973C147.675 7.43001 146.347 7.03516 144.695 7.03516H138.629V21.4296H143.044V16.2246L143.152 16.2605L145.844 21.4296H151.193L147.316 15.6144C148.177 15.3631 148.895 14.8965 149.398 14.1785ZM143.654 13.4965H143.044V10.3735H143.654C144.911 10.3735 145.557 10.8761 145.557 11.9171C145.593 12.958 144.947 13.4965 143.654 13.4965Z" fill="#243340"/>
<path id="Vector_19" d="M122.512 13.4965C123.804 12.8863 124.414 11.9529 124.414 10.6607C124.414 9.65558 124.055 8.82997 123.373 8.18383C122.583 7.43001 121.399 7.03516 119.855 7.03516H113.609V21.4296H120.143C121.973 21.4296 123.373 21.0347 124.306 20.2091C125.168 19.4553 125.599 18.4502 125.599 17.1938C125.599 16.2246 125.312 15.399 124.773 14.7529C124.271 14.1426 123.481 13.7119 122.512 13.4965ZM118.025 10.1581H118.814C119.891 10.1581 120.43 10.5889 120.43 11.4863C120.43 12.3837 119.784 12.8145 118.527 12.8145H118.025V10.1581ZM120.501 17.9835C120.143 18.1989 119.712 18.3066 119.137 18.3066H117.989V15.5426H119.317C120.501 15.5426 121.076 16.0092 121.076 16.9784C121.076 17.4092 120.896 17.7323 120.501 17.9835Z" fill="#243340"/>
</g>
<path id="Vector_20" d="M78.8281 21.4305L81.8434 11.0205L84.9305 21.4305H78.8281Z" fill="#6CA9E0"/>
<path id="Vector_21" d="M165.16 21.4307L168.211 11.0566L171.298 21.4307H165.16Z" fill="#6CA9E0"/>
</g>
</svg>
