<svg xmlns="http://www.w3.org/2000/svg" xmlns:xlink="http://www.w3.org/1999/xlink" width="20" height="14"><defs><path id="8ukqa" d="M182.6 6588.9a.33.33 0 0 1-.21-.08l-3.72-3.3a.3.3 0 0 1-.01-.42.33.33 0 0 1 .45-.02l3.72 3.3c.13.1.13.3.01.42a.33.33 0 0 1-.23.1z"/><path id="8ukqb" d="M170.32 6588.9a.33.33 0 0 1-.23-.1.3.3 0 0 1 .01-.43l3.72-3.29a.34.34 0 0 1 .45.02.3.3 0 0 1-.01.43l-3.72 3.29a.33.33 0 0 1-.22.08z"/><path id="8ukqc" d="M167.61 6578.64a.96.96 0 0 0-.97.95v10.81c0 .53.44.95.97.95h16.79c.53 0 .97-.42.97-.95v-10.81a.96.96 0 0 0-.97-.95zM184.4 6592h-16.8a1.6 1.6 0 0 1-1.61-1.59v-10.82c0-.88.72-1.59 1.61-1.59h16.78c.89 0 1.61.71 1.61 1.59v10.82a1.6 1.6 0 0 1-1.61 1.59z"/><path id="8ukqd" d="M176.5 6587c-.42 0-.85-.14-1.17-.42l-8.22-7.03a.31.31 0 0 1-.03-.44.33.33 0 0 1 .45-.03l8.22 7.03c.41.35 1.1.35 1.5 0l8.22-7.02c.13-.12.33-.1.45.03s.1.33-.03.44l-8.2 7.02c-.33.28-.76.42-1.18.42z"/></defs><g opacity=".7" fill="#fff" transform="translate(-166 -6578)"><g opacity=".7"><use xlink:href="#8ukqa" opacity=".7"/><use xlink:href="#8ukqb" opacity=".7"/></g><use xlink:href="#8ukqc" opacity=".7"/><use xlink:href="#8ukqd" opacity=".7"/></g></svg>