<svg xmlns="http://www.w3.org/2000/svg" width="29" height="35"><path id="Forma_1" data-name="Forma 1" d="M452.405 10764.3a.7.7 0 1 0 .69.7.688.688 0 0 0-.69-.7zm-13.81 0a.7.7 0 1 0 .691.7.687.687 0 0 0-.686-.7zm20.138-3.5a7.765 7.765 0 0 0-3.1-2.8.524.524 0 0 0-.392-.1 6.974 6.974 0 0 0-2.839-.6h-2.072v-1.8a7.85 7.85 0 0 0 2.479-3.9h.291a2.727 2.727 0 0 0 2.762-2.7 2.877 2.877 0 0 0-.733-1.9c.043 0 .086-.1.126-.1a2.016 2.016 0 0 0 .607-1.4 2.157 2.157 0 0 0-1.4-2 7.712 7.712 0 0 0-5.541-6.7 2.184 2.184 0 0 0-2.031-1.8h-2.762a2.184 2.184 0 0 0-2.031 1.8 7.711 7.711 0 0 0-5.54 6.7 2.448 2.448 0 0 0-.8.5 2.073 2.073 0 0 0-.607 1.5 1.984 1.984 0 0 0 .734 1.5 2.878 2.878 0 0 0-.734 1.9 2.727 2.727 0 0 0 2.762 2.7h.281a8.009 8.009 0 0 0 1.933 3.4 2.932 2.932 0 0 1 .548.5v1.8H438.6a6.974 6.974 0 0 0-2.839.6.524.524 0 0 0-.392.1 7.986 7.986 0 0 0-4.364 7v4.3a.687.687 0 0 0 .69.7h27.62a.687.687 0 0 0 .69-.7v-4.3a7.694 7.694 0 0 0-1.272-4.2zm-23.59 7.8h-2.762v-3.6a6.268 6.268 0 0 1 2.762-5.2v8.8zm17.952-18.4h-.031c.02-.2.031-.4.031-.6v-2.1a1.374 1.374 0 0 1 1.381 1.4 1.355 1.355 0 0 1-1.376 1.3zm-11.047-11.9v3.1a.7.7 0 0 0 1.381 0v-4.1a.855.855 0 0 1 .69-.9h2.762a.855.855 0 0 1 .69.9v4.1a.7.7 0 0 0 1.381 0v-3.1a6.246 6.246 0 0 1 4.105 5.1h-15.114a6.246 6.246 0 0 1 4.105-5.1zm-4.143 11.9a1.355 1.355 0 0 1-1.381-1.3 1.374 1.374 0 0 1 1.381-1.4v2.1c0 .2.011.4.031.6h-.031zm0-4.1h-.691a.673.673 0 0 1-.69-.6.641.641 0 0 1 .2-.5.49.49 0 0 1 .488-.2h16.572a.687.687 0 0 1 .69.7.593.593 0 0 1-.2.4.49.49 0 0 1-.488.2h-15.881zm1.506 4.7a6.107 6.107 0 0 1-.121-1.2v-2.1h12.428v2.1a6.107 6.107 0 0 1-.121 1.2 6.282 6.282 0 0 1-2.406 3.8 5.869 5.869 0 0 1-7.367 0 2.983 2.983 0 0 1-.7-.6 6.449 6.449 0 0 1-1.713-3.2zm5.4 17.8h-5.524v-1.5a.691.691 0 1 0-1.381 0v1.5h-1.381v-9.6a6.508 6.508 0 0 1 1.381-.3v4.3a.7.7 0 0 0 1.381 0v-4.3h1.775l3.749 3.8v6.1zm-2.762-10.9v-1.3a7.07 7.07 0 0 0 6.9 0v1.3l-3.452 3.6zm12.428 10.9H453.1v-1.5a.691.691 0 1 0-1.381 0v1.5h-5.529v-6.1l3.749-3.8h1.775v4.3a.7.7 0 0 0 1.381 0v-4.3a6.508 6.508 0 0 1 1.381.3v9.6zm4.143 0h-2.762v-8.8a6.268 6.268 0 0 1 2.762 5.2v3.6z" transform="translate(-431 -10735)" fill="#fff" fill-rule="evenodd"/></svg>