<svg xmlns="http://www.w3.org/2000/svg" width="41" height="41"><defs><linearGradient id="cysla" x1="21" x2="20" y1="41" y2="-.01" gradientUnits="userSpaceOnUse"><stop offset="0" stop-color="#dd9824"/><stop offset="1" stop-color="#bf7b0a"/></linearGradient></defs><path fill="#dd9824" d="M20.5-.006c11.321 0 20.5 9.178 20.5 20.5s-9.18 20.501-20.5 20.501c-11.322 0-20.5-9.18-20.5-20.5C0 9.171 9.178-.007 20.5-.007z"/><path fill="url(#cysla)" d="M20.5-.006c11.321 0 20.5 9.178 20.5 20.5s-9.18 20.501-20.5 20.501c-11.322 0-20.5-9.18-20.5-20.5C0 9.171 9.178-.007 20.5-.007z"/><path fill="#ffd13e" d="M21.858 20.502l-5.444-5.93a1.579 1.579 0 0 1-.415-1.104c0-.437.138-.805.415-1.106l.84-.913a1.32 1.32 0 0 1 1.014-.453c.4 0 .737.15 1.014.453l7.304 7.943c.276.298.414.668.414 1.102 0 .436-.138.805-.414 1.104l-7.304 7.945c-.277.301-.615.45-1.014.45-.4 0-.738-.149-1.014-.45l-.84-.917a1.563 1.563 0 0 1-.415-1.098c0-.43.138-.801.415-1.11z"/></svg>