<svg xmlns="http://www.w3.org/2000/svg" width="18.75" height="18.75"><path d="M18.03 14.669l-3.67-3.674a1.137 1.137 0 0 0-1.6 0l-.95.956a1.126 1.126 0 0 0-.29 1.108l-.36.359c-.25.257-1.85-.136-3.78-2.064s-2.32-3.52-2.06-3.777l.36-.361a1.056 1.056 0 0 0 .31.043 1.09 1.09 0 0 0 .79-.327l.96-.955a1.124 1.124 0 0 0 0-1.591L4.06.713a1.1 1.1 0 0 0-.79-.331 1.12 1.12 0 0 0-.8.331l-.95.954a1.126 1.126 0 0 0-.29 1.108s-.3.309-.32.328C-.11 4.232-.3 6.011.38 8.137A17.473 17.473 0 0 0 10.6 18.355a7.858 7.858 0 0 0 2.33.395 3.886 3.886 0 0 0 2.84-1.049l.2-.2a1.057 1.057 0 0 0 .31.045 1.139 1.139 0 0 0 .8-.329l.95-.955a1.124 1.124 0 0 0 0-1.593zM3.27 1.508l3.68 3.675-.96.955-.01-.015L4.15 4.3 2.31 2.462zm11.7 15.4c-.81.81-2.24.943-4.03.378a16.406 16.406 0 0 1-9.49-9.485c-.57-1.787-.43-3.217.38-4.025l.1-.1 2.85 2.85-.26.262c-1.09 1.086.22 3.522 2.07 5.368 1.38 1.382 3.09 2.461 4.32 2.461a1.429 1.429 0 0 0 1.05-.4l.26-.259 2.85 2.849zm1.31-.484l-3.68-3.673.96-.956 3.68 3.674zM14.23 4.515a5.627 5.627 0 0 0-4.01-1.66.563.563 0 0 0 0 1.126 4.537 4.537 0 0 1 4.54 4.539.569.569 0 0 0 .57.562.561.561 0 0 0 .56-.562 5.625 5.625 0 0 0-1.66-4.009zm2.02-2.017A8.47 8.47 0 0 0 10.22.004a.562.562 0 0 0 0 1.124 7.4 7.4 0 0 1 7.4 7.392.56.56 0 1 0 1.12 0 8.45 8.45 0 0 0-2.49-6.026zm-4.04 4.033a2.768 2.768 0 0 0-1.99-.822.563.563 0 0 0 0 1.125 1.678 1.678 0 0 1 1.69 1.686.561.561 0 0 0 .56.562.569.569 0 0 0 .57-.562 2.761 2.761 0 0 0-.83-1.993z" fill-rule="evenodd" opacity=".5"/></svg>