<svg xmlns="http://www.w3.org/2000/svg" xmlns:xlink="http://www.w3.org/1999/xlink" width="20" height="20"><defs><path id="gbv1a" d="M183.62 6513.76c-.8.82-2.47.78-4.55-.09a22.6 22.6 0 0 1-6.87-4.87 22.6 22.6 0 0 1-4.87-6.87c-.87-2.08-.9-3.74-.1-4.55l1.1-1.1 3.76 6.55-.25.26c-.5.49-.54 1.27-.1 1.81a28.75 28.75 0 0 0 4.36 4.36c.54.44 1.32.4 1.81-.1l.23-.23 6.57 3.75zm-14.17-18.1c.28.03.52.2.66.44l2.84 4.93c.2.35.15.8-.14 1.08l-.24.25-3.77-6.54a.89.89 0 0 1 .65-.16zm15.45 15.23a.9.9 0 0 1 .28 1.3l-6.56-3.74.27-.26a.9.9 0 0 1 1.08-.14zm.33-.57l-4.94-2.84a1.55 1.55 0 0 0-1.86.25l-.97.97a.71.71 0 0 1-.96.06 28.09 28.09 0 0 1-4.26-4.26.71.71 0 0 1 .06-.96l.97-.97c.5-.49.6-1.26.25-1.86l-2.84-4.94c-.25-.42-.66-.7-1.14-.76-.48-.06-.95.1-1.3.44l-1.46 1.47c-1.02 1.02-1.04 2.89-.05 5.26.96 2.28 2.74 4.8 5.02 7.07a23.25 23.25 0 0 0 7.07 5.02c1.17.49 2.21.73 3.1.73.9 0 1.64-.26 2.16-.78l1.47-1.46c.34-.35.5-.82.44-1.3-.07-.48-.34-.9-.76-1.14z"/></defs><use fill="#fff" xlink:href="#gbv1a" opacity=".7" transform="translate(-166 -6495)"/></svg>