<svg xmlns="http://www.w3.org/2000/svg" xmlns:xlink="http://www.w3.org/1999/xlink" width="16" height="23"><defs><path id="bbrta" d="M176 6546.13a2.14 2.14 0 1 1 0-4.28 2.14 2.14 0 0 1 0 4.28zm0-5.13a3 3 0 1 0 0 6 3 3 0 0 0 0-6z"/><path id="bbrtb" d="M181.72 6549.2l-5.72 8.32-5.73-8.33c-2.17-2.91-1.86-7.7.66-10.24a7.1 7.1 0 0 1 10.14 0c2.52 2.54 2.83 7.33.65 10.25zm-.06-10.84a7.92 7.92 0 0 0-11.32 0c-2.8 2.81-3.14 8.11-.75 11.32L176 6559l6.4-9.3c2.4-3.23 2.05-8.53-.74-11.34z"/></defs><g opacity=".7" fill="#fff" transform="translate(-168 -6536)"><use xlink:href="#bbrta" opacity=".7"/><use xlink:href="#bbrtb" opacity=".7"/></g></svg>