<svg xmlns="http://www.w3.org/2000/svg" width="16" height="20"><path d="M7.99 0a8.018 8.018 0 0 0-8 8.017 7.929 7.929 0 0 0 .142 1.506c0 .029.021.117.054.268a7.91 7.91 0 0 0 .536 1.58 22.455 22.455 0 0 0 6.912 8.5.565.565 0 0 0 .711 0 22.491 22.491 0 0 0 6.913-8.5 7.782 7.782 0 0 0 .535-1.58 5.67 5.67 0 0 0 .055-.268 8.269 8.269 0 0 0 .142-1.506A8.031 8.031 0 0 0 7.99 0zm6.741 9.326v.025c0 .008-.017.084-.038.18v.008a6.626 6.626 0 0 1-.464 1.368s0 .013-.008.016a20.964 20.964 0 0 1-6.227 7.782 20.953 20.953 0 0 1-6.227-7.782s0-.012-.008-.016a7.093 7.093 0 0 1-.465-1.368V9.53a1.792 1.792 0 0 1-.037-.18v-.029a6.868 6.868 0 1 1 13.608-1.308 6.809 6.809 0 0 1-.134 1.312zM7.99 3.015a5.091 5.091 0 1 0 5.077 5.091A5.092 5.092 0 0 0 7.99 3.014zm0 9.049a3.958 3.958 0 1 1 3.948-3.958 3.958 3.958 0 0 1-3.948 3.957z" fill-rule="evenodd" opacity=".5"/></svg>