<svg xmlns="http://www.w3.org/2000/svg" width="40" height="48"><path id="Forma_1" data-name="Forma 1" d="M1074.98 13697l-4.78-19.1v-3.1a5.707 5.707 0 0 0-3.2-5.1v-18.9a.83.83 0 0 0-.8-.8h-3.2a.83.83 0 0 0-.8.8v18.9a5.707 5.707 0 0 0-3.2 5.1v3.1l-4.78 19.1a.852.852 0 0 0 .59 1h19.39a.83.83 0 0 0 .8-.8 1.355 1.355 0 0 0-.02-.2zm-11.18-45.4h1.6v17.7a4.3 4.3 0 0 0-1.6 0v-17.7zm-3.2 23.2a4 4 0 0 1 8 0v2.4h-8v-2.4zm8 21.6v-7.2a.8.8 0 1 0-1.6 0v7.2h-1.6v-7.2a.8.8 0 0 0-1.6 0v7.2h-1.6v-7.2a.8.8 0 1 0-1.6 0v7.2h-4.58l4.4-17.6h8.36l4.4 17.6h-4.58zm8.8-5.6a2.4 2.4 0 1 0 2.4 2.4 2.414 2.414 0 0 0-2.4-2.4zm0 3.2a.8.8 0 1 1 .8-.8.83.83 0 0 1-.8.8zm3.2-8.8a2.4 2.4 0 1 0 2.4 2.4 2.414 2.414 0 0 0-2.4-2.4zm0 3.2a.8.8 0 1 1 .8-.8.83.83 0 0 1-.8.8zm-28.8 4.8h-.8v-.8a.8.8 0 0 0-1.6 0v.8h-.8a.8.8 0 0 0 0 1.6h.8v.8a.8.8 0 0 0 1.6 0v-.8h.8a.8.8 0 1 0 0-1.6zm-4.8-4h-.8v-.8a.8.8 0 0 0-1.6 0v.8h-.8a.8.8 0 0 0 0 1.6h.8v.8a.8.8 0 0 0 1.6 0v-.8h.8a.8.8 0 1 0 0-1.6z" transform="translate(-1043 -13650)" fill-rule="evenodd" opacity=".2"/></svg>