<svg xmlns="http://www.w3.org/2000/svg" width="50" height="50"><path id="Forma_1" data-name="Forma 1" d="M976.167 13672.3h1.666v6.7h-1.666v-6.7zm32.323-12.3a.739.739 0 0 0-.6-.3.708.708 0 0 0-.62.2l-29.362 29.4a.742.742 0 0 0 0 1.1c.016.1.032.1.048.1a21.645 21.645 0 0 0 30.534-30.5zm-12.955 14h3.965v3.3h-7.3zm-3.523 20a20.165 20.165 0 0 1-12.272-4.2l10.795-10.8H1007a.843.843 0 0 0 .83-.8v-5a.864.864 0 0 0-.83-.9h-9.8l10.6-10.6a20.028 20.028 0 0 1-15.788 32.3zm9.158-16.7v-3.3h5v3.3h-5zM992 13649a25 25 0 1 0 25 25 25 25 0 0 0-25-25zm0 48.3a23.3 23.3 0 1 1 23.33-23.3 23.3 23.3 0 0 1-23.33 23.3zm14.04-39.8a21.651 21.651 0 0 0-30.533 30.5.736.736 0 0 0 .6.3h.034a1.136 1.136 0 0 0 .589-.2l29.36-29.4a.719.719 0 0 0 .24-.6.99.99 0 0 0-.29-.6zm-20.908 19.8h-3.965v-3.3h7.3zm5-5h-9.8a.867.867 0 0 0-.833.9v5a.846.846 0 0 0 .833.8h3.132l-7.261 7.3a20.01 20.01 0 0 1 28.056-28.1zm.2-8.3h-6.666a.846.846 0 0 1-.834-.8.867.867 0 0 1 .834-.9h4.166a2.488 2.488 0 0 0 2.5-2.5v-1.6h-1.666v1.6a.867.867 0 0 1-.834.9h-4.166a2.488 2.488 0 0 0-2.5 2.5 2.553 2.553 0 0 0 2.5 2.5h6.666a.8.8 0 1 1 0 1.6h-11.665a2.553 2.553 0 0 0-2.5 2.5v.9h1.666v-.9a.846.846 0 0 1 .834-.8h11.666a2.5 2.5 0 1 0 0-5z" transform="translate(-967 -13649)" fill-rule="evenodd" opacity=".2"/></svg>