<svg xmlns="http://www.w3.org/2000/svg" width="50" height="50"><path id="Forma_1" data-name="Forma 1" d="M926.33 13695.7a18.35 18.35 0 1 0-18.33-18.4 18.341 18.341 0 0 0 18.33 18.4zm-14.165-19.2h-2.457a16.666 16.666 0 0 1 15.789-15.8v2.5a.834.834 0 0 0 1.666 0v-2.5a16.666 16.666 0 0 1 15.789 15.8h-3.29a.846.846 0 0 0-.834.8.867.867 0 0 0 .834.9h3.29a16.743 16.743 0 0 1-15.789 15.8v-2.5a.834.834 0 0 0-1.666 0v2.5a16.743 16.743 0 0 1-15.789-15.8h2.457a.867.867 0 0 0 .833-.9.846.846 0 0 0-.833-.8zm32.925-10c-.248-.4-.511-.8-.789-1.3l2.057-2a.858.858 0 0 0 0-1.2l-4.707-4.7a.885.885 0 0 0-1.179 0l-2.06 2.1a20.718 20.718 0 0 0-11.249-3.7v-5H933a.867.867 0 0 0 .833-.9.846.846 0 0 0-.833-.8h-13.336a.846.846 0 0 0-.833.8.867.867 0 0 0 .833.9h5.836v5a21.766 21.766 0 0 0-17.915 10.8H903a.846.846 0 0 0-.833.8.867.867 0 0 0 .833.9h5c.021 0 .04 0 .062-.1a.62.62 0 0 0 .727-.4 20 20 0 1 1 7.944 27.2 20.247 20.247 0 0 1-7.944-8 .964.964 0 0 0-.726-.4H903a.846.846 0 0 0-.833.8.867.867 0 0 0 .833.9h4.583a21.666 21.666 0 0 0 37.507-21.7zm-5.317-6.1l1.288-1.3 3.53 3.5-1.29 1.3a20.5 20.5 0 0 0-3.528-3.5zm-33.441 16.9a.846.846 0 0 0-.833-.8h-6.666a.846.846 0 0 0-.833.8.867.867 0 0 0 .833.9h6.667a.867.867 0 0 0 .832-.9zm-5.832-4.1h5.832a.867.867 0 0 0 .834-.9.846.846 0 0 0-.834-.8H900.5a.846.846 0 0 0-.833.8.866.866 0 0 0 .833.9zm6.666 9.1a.846.846 0 0 0-.834-.8H900.5a.846.846 0 0 0-.833.8.867.867 0 0 0 .833.9h5.832a.867.867 0 0 0 .834-.9zm16.908.6a.885.885 0 0 0 1.179 0l11.582-11.6a.743.743 0 0 0-.021-1.1.709.709 0 0 0-1.158 0l-10.992 10.9-4.958-4.9a.841.841 0 1 0-1.178 1.2z" transform="translate(-898 -13649)" fill-rule="evenodd" opacity=".2"/></svg>