<svg width="48" height="48" fill="none" xmlns="http://www.w3.org/2000/svg"><rect width="48" height="48" rx="12" fill="#222"/><path d="M29.643 8a4.328 4.328 0 00-.533.039l-14.63 1.94h-.045c-.383 0-.723.047-1.019.145a2 2 0 00-.419.191 1.85 1.85 0 00-.767.95c-.28.747-.226 1.611-.226 2.53v22.389c0 .919-.054 1.788.226 2.535.14.373.389.72.768.95.378.228.859.331 1.437.331h17.343C34.09 40 36 38.307 36 36.184V13.795c0-1.61-1.1-2.973-2.64-3.537-.518-1.41-2.08-2.279-3.716-2.258zm.01.923c.992-.01 1.935.416 2.466 1.069a4.127 4.127 0 00-.342-.014h-10.28l7.745-1.027c.138-.018.275-.027.41-.028h.001zm-15.219 1.982h17.343c1.832 0 3.263 1.297 3.263 2.89v22.388c0 1.593-1.431 2.895-3.263 2.895H14.434c-.458 0-.74-.082-.922-.192-.18-.11-.292-.248-.38-.48-.174-.466-.17-1.284-.17-2.223V13.795c0-.94-.004-1.752.17-2.218.088-.233.2-.371.38-.48.18-.11.464-.192.922-.192zM24 17.275c-2.333 0-4.366 1.26-5.392 3.109a.454.454 0 00-.05.093 5.605 5.605 0 000 5.272.45.45 0 00.05.093c1.026 1.848 3.059 3.11 5.392 3.11 2.332 0 4.362-1.26 5.388-3.105a.456.456 0 00.057-.104 5.605 5.605 0 000-5.26.453.453 0 00-.055-.101c-1.026-1.847-3.057-3.107-5.39-3.107zm0 .922c.05 0 .157.033.322.24.165.208.347.56.5 1.014.075.221.143.467.204.732H22.97a7.34 7.34 0 01.202-.732c.153-.454.336-.806.502-1.013.165-.208.276-.24.326-.24zm-1.412.188a5.45 5.45 0 00-.328.785 8.93 8.93 0 00-.271 1.013h-2.12a5.139 5.139 0 012.719-1.798zm2.823 0a5.14 5.14 0 012.72 1.798H26.01a8.962 8.962 0 00-.271-1.013 5.43 5.43 0 00-.33-.785zm-6.105 2.72h2.527a15.191 15.191 0 00-.12 1.544h-2.83c.053-.545.2-1.065.423-1.544zm3.495 0h2.396c.068.48.113 1 .13 1.544h-2.652a14.44 14.44 0 01.126-1.544zm3.367 0h2.527c.223.479.37.999.422 1.544h-2.83a15.107 15.107 0 00-.12-1.544zm-7.285 2.466h2.83c.015.54.056 1.058.12 1.545h-2.53a4.724 4.724 0 01-.42-1.544zm3.792 0h2.652a14.19 14.19 0 01-.13 1.545H22.8c-.067-.48-.11-1-.126-1.544zm3.611 0h2.831a4.725 4.725 0 01-.42 1.545h-2.528c.063-.487.103-1.005.117-1.544zm-6.416 2.472h2.118c.077.364.168.704.273 1.013.097.289.205.551.327.785a5.14 5.14 0 01-2.718-1.798zm3.101 0h2.055a7.878 7.878 0 01-.203.727c-.153.454-.335.81-.5 1.018-.166.208-.272.24-.322.24-.05 0-.161-.032-.326-.24-.166-.207-.35-.564-.502-1.018a7.647 7.647 0 01-.202-.727zm3.041 0h2.118a5.14 5.14 0 01-2.718 1.798c.122-.234.231-.496.329-.785.104-.309.195-.649.271-1.013zm-7.662 5.743a.471.471 0 00-.478.459c0 .122.05.24.14.327a.49.49 0 00.338.137h11.296a.49.49 0 00.341-.136.452.452 0 00.141-.328.472.472 0 00-.483-.458H18.35z" fill="#fff"/></svg>