<svg width="48" height="48" fill="none" xmlns="http://www.w3.org/2000/svg"><rect width="48" height="48" rx="12" fill="#222"/><path d="M34.386 33.383h-5.73v1.498h5.73v-1.498z" fill="#fff"/><path fill-rule="evenodd" clip-rule="evenodd" d="M28.955 26.162l6.766 2.382a4.99 4.99 0 012.374 1.763c.586.808.902 1.77.905 2.756V39H9v-5.927a4.714 4.714 0 01.906-2.76 4.983 4.983 0 012.378-1.764l6.843-2.397v-1.797a6.005 6.005 0 01-.94-2.328 3.246 3.246 0 01-1.577-2.139 3.153 3.153 0 01.583-2.564 6.899 6.899 0 01-.135-1.333 6.748 6.748 0 011.995-4.89A7.244 7.244 0 0124.041 9a7.245 7.245 0 014.987 2.1 6.749 6.749 0 011.996 4.886 6.899 6.899 0 01-.134 1.333c.56.737.771 1.668.582 2.564a3.246 3.246 0 01-1.576 2.14 6.004 6.004 0 01-.94 2.326v1.813zM18.61 18.038c-.326.32-.512.75-.517 1.198 0 .344.105.68.302.965.197.286.477.51.805.643l.424.175.047.444c.082.801.38 1.567.863 2.223l.145.194v2.921c.696 1.156 1.978 1.866 3.362 1.863 1.388 0 2.673-.709 3.378-1.863v-2.92l.145-.195c.483-.656.78-1.422.863-2.223l.047-.444.424-.175c.548-.222.947-.69 1.068-1.252a1.703 1.703 0 00-.463-1.56l-.29-.294.073-.419a5.36 5.36 0 000-2.716c-1.748-.49-3.062-1.424-3.528-2.547-.682 1.683-3.268 2.931-6.372 2.931h-.693a5.348 5.348 0 00.078 2.357l.098.394-.259.3zm-8.064 19.464h26.897l-.016-4.444a3.247 3.247 0 00-.62-1.9 3.432 3.432 0 00-1.635-1.216l-6.507-2.292c-.99 1.556-2.747 2.504-4.64 2.504-1.891 0-3.648-.948-4.639-2.504l-6.574 2.307a3.433 3.433 0 00-1.64 1.214 3.245 3.245 0 00-.626 1.902v4.43z" fill="#fff"/></svg>