<svg width="48" height="48" fill="none" xmlns="http://www.w3.org/2000/svg"><rect width="48" height="48" rx="12" fill="#222"/><path d="M24 8C15.573 8 8.672 14.517 8.05 22.784A.495.495 0 008 23c0 .05.01.098.023.143a16.026 16.026 0 000 1.714A.492.492 0 008 25c0 .078.019.15.05.216C8.674 33.483 15.574 40 24 40c8.836 0 16-7.163 16-16 0-8.836-7.163-16-16-16zm5.238 15.762a5.23 5.23 0 00-1.514-3.46l6.675-2.28c.278.482.523.985.733 1.505l-5.894 4.235zM24 28.25A4.255 4.255 0 0119.75 24 4.255 4.255 0 0124 19.75 4.255 4.255 0 0128.25 24 4.255 4.255 0 0124 28.25zm2.796-8.688a5.217 5.217 0 00-5.502-.055L14.2 17.086C16.376 14.012 19.956 12 24 12c4.073 0 7.677 2.042 9.847 5.154l-7.051 2.408zm-13.151-1.616c.02.01.038.02.06.027l6.636 2.265a5.23 5.23 0 00-1.57 3.35l-5.848-4.2c.208-.5.45-.98.722-1.442zm-1.08 2.415l6.261 4.499a5.239 5.239 0 001.972 3.294l1.229 7.68C16.346 34.89 12 29.944 12 23.999c0-1.268.2-2.49.566-3.638zM23.06 35.96l-1.142-7.14a5.236 5.236 0 004.165-.001l-1.142 7.141c-.31.024-.624.04-.94.04-.317 0-.63-.016-.94-.04zm4.142-7.805a5.243 5.243 0 001.94-3.092l6.339-4.554a11.99 11.99 0 01.52 3.492c0 5.945-4.347 10.89-10.028 11.835l1.229-7.681zm9.786-4.654h2c.005.166.012.332.012.5 0 .167-.007.333-.013.5h-2c.007-.167.013-.333.013-.5 0-.168-.006-.334-.012-.5zM24 9c7.765 0 14.17 5.93 14.924 13.5h-2.013a12.908 12.908 0 00-.67-2.88.487.487 0 00-.064-.176C34.33 14.512 29.577 11 24 11c-6.673 0-12.168 5.027-12.912 11.5H9.075C9.83 14.93 16.235 9 24 9zM9 24c0-.168.007-.334.013-.5h2A11.83 11.83 0 0011 24c0 .167.006.334.013.5h-2C9.007 24.333 9 24.167 9 24zm15 15c-7.765 0-14.17-5.931-14.925-13.5h2.014c.744 6.472 6.239 11.5 12.91 11.5 6.672 0 12.168-5.028 12.911-11.5h2.014C38.169 33.069 31.764 39 24 39z" fill="#fff"/></svg>