<svg width="48" height="48" fill="none" xmlns="http://www.w3.org/2000/svg"><rect width="48" height="48" rx="12" fill="#222"/><path fill-rule="evenodd" clip-rule="evenodd" d="M12.579 33H35.42a1.56 1.56 0 001.579-1.552V16.552A1.558 1.558 0 0035.421 15H12.58a1.56 1.56 0 00-1.579 1.552v14.93c0 .828.702 1.518 1.579 1.518zm-.176-16.448c0-.104.07-.173.176-.173H35.42c.105 0 .175.07.175.173v14.93c0 .104-.07.173-.175.173H12.579c-.106 0-.176-.069-.176-.172V16.552zm11.439 13.654h8.702c.456 0 .877-.206 1.193-.551.28-.345.42-.793.315-1.207a5.911 5.911 0 00-3.509-4.31 3.438 3.438 0 001.158-2.553c0-1.896-1.579-3.448-3.509-3.448s-3.508 1.552-3.508 3.448c0 1 .456 1.931 1.158 2.552a5.911 5.911 0 00-3.51 4.31c-.07.449.036.897.317 1.208.316.345.737.551 1.193.551zm2.245-8.62c0-1.138.948-2.07 2.106-2.07s2.105.932 2.105 2.07-.947 2.069-2.105 2.069-2.106-.931-2.106-2.07zm2.105 3.448a4.567 4.567 0 014.492 3.655c0 .035 0 .07-.035.104 0 .034-.035.034-.105.034h-8.702a.153.153 0 01-.105-.035c-.035-.034-.035-.069-.035-.103a4.565 4.565 0 014.49-3.655zm-7.719-4.483h-4.912a.698.698 0 01-.702-.69c0-.379.316-.69.702-.69h4.912c.386 0 .702.311.702.69 0 .38-.316.69-.702.69zm-4.912 3.793h4.912c.386 0 .702-.31.702-.69a.698.698 0 00-.702-.689h-4.912a.698.698 0 00-.702.69c0 .379.316.69.702.69zm4.912 3.794h-4.912a.698.698 0 01-.702-.69c0-.379.316-.69.702-.69h4.912c.386 0 .702.311.702.69 0 .38-.316.69-.702.69z" fill="#fff"/></svg>