<svg width="13" height="14" fill="none" xmlns="http://www.w3.org/2000/svg"><path d="M7.969 8.59C8.656 7.85 9 6.96 9 5.923 9 4.885 8.656 4 7.969 3.264c-.683-.74-1.505-1.11-2.469-1.11s-1.79.37-2.477 1.11C2.341 4 2 4.885 2 5.924 2 6.96 2.341 7.85 3.023 8.59c.688.735 1.513 1.102 2.477 1.102s1.786-.367 2.469-1.102zM13 12.923c0 .292-.099.544-.297.757A.929.929 0 0112 14a.898.898 0 01-.703-.32l-2.68-2.877A5.088 5.088 0 015.5 11.846a5.139 5.139 0 01-2.14-.463 5.638 5.638 0 01-1.758-1.262A6.132 6.132 0 01.43 8.228 6.29 6.29 0 010 5.923c0-.802.143-1.568.43-2.297a6.003 6.003 0 011.172-1.893A5.463 5.463 0 013.359.471 5.061 5.061 0 015.5 0a5.01 5.01 0 012.133.471 5.38 5.38 0 011.758 1.262 5.821 5.821 0 011.171 1.893c.292.73.438 1.495.438 2.297 0 1.234-.323 2.353-.969 3.357l2.68 2.886c.193.207.289.46.289.757z" fill="#fff"/></svg>