<svg width="13" height="14" fill="none" xmlns="http://www.w3.org/2000/svg"><path d="M7.982 8.59c.686-.74 1.029-1.63 1.029-2.667 0-1.038-.343-1.924-1.029-2.659-.68-.74-1.5-1.11-2.462-1.11-.96 0-1.784.37-2.47 1.11-.68.735-1.02 1.621-1.02 2.66 0 1.037.34 1.926 1.02 2.666.686.735 1.51 1.102 2.47 1.102.961 0 1.782-.367 2.462-1.102zM13 12.923c0 .292-.099.544-.296.757a.925.925 0 01-.701.32.894.894 0 01-.701-.32l-2.673-2.877a5.066 5.066 0 01-3.109 1.043 5.113 5.113 0 01-2.135-.463 5.623 5.623 0 01-1.753-1.262A6.134 6.134 0 01.464 8.228a6.306 6.306 0 01-.429-2.305c0-.802.143-1.568.429-2.297.29-.735.68-1.366 1.168-1.893A5.449 5.449 0 013.385.471 5.036 5.036 0 015.52 0c.743 0 1.452.157 2.127.471A5.36 5.36 0 019.4 1.733a5.823 5.823 0 011.17 1.893c.29.73.435 1.495.435 2.297 0 1.234-.322 2.353-.966 3.357l2.673 2.886c.192.207.288.46.288.757z" fill="#393185"/></svg>