<svg xmlns="http://www.w3.org/2000/svg" width="28" height="28"><path fill="#fff" d="M12.6 10.904a1.548 1.548 0 0 1 1.547-1.576c.857 0 1.54.69 1.544 1.558a1.544 1.544 0 0 1-1.536 1.565 1.547 1.547 0 0 1-1.555-1.547zm15.5 3.094c0 7.622-6.179 13.8-13.8 13.8S.5 21.62.5 13.998C.5 6.378 6.68.2 14.3.2s13.8 6.177 13.8 13.798zm-17.11-3.117c-.01 1.746 1.406 3.193 3.132 3.198a3.171 3.171 0 0 0 3.177-3.15c.01-1.784-1.392-3.228-3.14-3.232-1.742-.005-3.159 1.418-3.168 3.184zm6.758 3.525a.715.715 0 0 0-.824-.33c-.171.043-.32.13-.458.238-1.397.95-3.31.923-4.701-.044a1.52 1.52 0 0 0-.214-.127c-.387-.185-.758-.099-.98.221-.258.374-.225.738.102 1.056.084.081.18.152.273.226.747.59 1.62.83 2.587.933-.069.073-.112.124-.16.172-.709.719-1.418 1.438-2.13 2.156-.147.148-.252.313-.263.529a.858.858 0 0 0 .49.79c.291.143.59.098.84-.152.557-.555 1.112-1.114 1.657-1.681.137-.143.21-.174.366-.01.531.56 1.084 1.103 1.626 1.655.141.143.3.246.505.26.323.023.652-.186.799-.502.134-.291.083-.6-.16-.849-.717-.732-1.439-1.459-2.157-2.189-.05-.049-.088-.093-.168-.18.529-.065 1.064-.16 1.552-.351a3.825 3.825 0 0 0 1.368-.894c.252-.262.254-.59.05-.927z"/></svg>