<svg xmlns="http://www.w3.org/2000/svg" width="28" height="28"><path fill="#fff" d="M13.7 16.64a2.641 2.641 0 1 1 0-5.283 2.641 2.641 0 0 1 0 5.283zm6.177-7.315c.109.28.238.699.273 1.472.038.835.046 1.086.046 3.201 0 2.117-.008 2.367-.046 3.203-.035.773-.164 1.192-.273 1.471a2.621 2.621 0 0 1-1.504 1.504c-.279.108-.699.238-1.471.273-.836.038-1.086.046-3.202.046-2.116 0-2.367-.008-3.202-.046-.773-.035-1.193-.165-1.472-.273a2.456 2.456 0 0 1-.911-.592 2.47 2.47 0 0 1-.593-.912c-.108-.28-.237-.698-.272-1.47-.039-.837-.047-1.087-.047-3.204 0-2.115.008-2.366.047-3.201.035-.773.164-1.193.272-1.472.127-.344.33-.656.593-.911.256-.263.567-.466.911-.593.28-.109.7-.237 1.472-.272.835-.038 1.086-.046 3.202-.046 2.116 0 2.366.008 3.202.046.773.035 1.192.163 1.471.272.344.127.656.33.911.593.264.255.466.567.593.91zM13.7 18.068a4.07 4.07 0 1 0-.002-8.14 4.07 4.07 0 0 0 .002 8.14zm4.23-7.35a.95.95 0 1 0 0-1.9.95.95 0 0 0 0 1.9zM13.7.199c7.62 0 13.8 6.18 13.8 13.8 0 7.621-6.18 13.8-13.8 13.8-7.62 0-13.8-6.179-13.8-13.8 0-7.62 6.18-13.8 13.8-13.8zm7.876 17.068c.04-.845.048-1.115.048-3.268 0-2.151-.009-2.42-.047-3.266-.04-.845-.173-1.42-.37-1.924a3.878 3.878 0 0 0-.913-1.404 3.89 3.89 0 0 0-1.404-.914c-.504-.196-1.08-.33-1.923-.368-.845-.038-1.115-.047-3.267-.047s-2.422.009-3.267.047c-.844.038-1.42.172-1.924.368-.529.2-1.007.511-1.403.914a3.873 3.873 0 0 0-.914 1.404c-.196.504-.33 1.079-.368 1.924-.04.845-.048 1.115-.048 3.266 0 2.153.009 2.423.048 3.268.038.843.172 1.42.368 1.923.199.529.51 1.008.914 1.403a3.87 3.87 0 0 0 1.403.914c.504.197 1.08.33 1.924.369.845.038 1.115.048 3.267.048s2.422-.01 3.267-.048c.844-.039 1.42-.172 1.923-.369a4.053 4.053 0 0 0 2.318-2.317c.196-.504.33-1.08.368-1.923z"/></svg>