<svg xmlns="http://www.w3.org/2000/svg" width="28" height="28"><path fill="#fff" d="M27.497 13.973c0 7.455-6.044 13.5-13.5 13.5C6.544 27.472.5 21.427.5 13.972S6.543.473 13.998.473c7.455 0 13.5 6.045 13.5 13.5zm-7.907 3.481c-.033-.055-.237-.49-1.221-1.39-1.03-.94-.892-.789.349-2.415.755-.991 1.057-1.596.963-1.855-.09-.248-.645-.182-.645-.182l-1.85.012s-.137-.018-.239.04c-.1.059-.163.196-.163.196s-.293.767-.683 1.42c-.823 1.376-1.153 1.447-1.287 1.363-.313-.2-.235-.8-.235-1.228 0-1.333.206-1.89-.4-2.033-.2-.048-.35-.079-.863-.084-.66-.007-1.218.002-1.535.154-.21.101-.372.328-.274.34.123.016.4.074.547.272.189.252.182.822.182.822s.11 1.57-.254 1.765c-.25.134-.591-.14-1.326-1.388-.375-.64-.66-1.346-.66-1.346s-.054-.132-.152-.203a.79.79 0 0 0-.284-.113l-1.757.011s-.264.008-.361.122c-.086.099-.006.307-.006.307s1.375 3.167 2.932 4.763c1.429 1.464 3.051 1.368 3.051 1.368h.735s.222-.025.335-.144c.105-.111.102-.318.102-.318s-.015-.971.443-1.114c.452-.141 1.03.938 1.645 1.353.465.314.818.245.818.245l1.642-.022s.859-.052.451-.718z"/></svg>