<svg width="502" height="502" fill="none" xmlns="http://www.w3.org/2000/svg"><mask id="mask0" maskUnits="userSpaceOnUse" x="-550" y="-70" width="1507" height="629"><path d="M174.953-68.184L-548.01 343.241M197.909-61.871l-722.963 411.425M220.865-55.558L-502.13 355.858M243.788-49.254L-479.174 362.17M266.744-42.941l-722.962 411.425M289.7-36.628l-722.995 411.416M312.624-30.324L-410.339 381.1M335.58-24.011l-722.962 411.425M358.536-17.698l-722.995 411.416M381.459-11.395l-722.962 411.426M404.416-5.081l-722.963 411.425M427.371 1.231l-722.994 411.416M450.296 7.535L-272.667 418.96M473.251 13.848l-722.962 411.425M496.207 20.161l-722.995 411.416M519.131 26.465L-203.831 437.89M542.087 32.778l-722.963 411.425M565.043 39.091l-722.995 411.416M587.967 45.395L-134.996 456.82M610.923 51.708L-112.04 463.133M633.879 58.02L-89.116 469.438M656.802 64.325L-66.16 475.75M679.758 70.638L-43.204 482.063M702.715 76.95L-20.248 488.377M725.638 83.255L2.675 494.68M748.594 89.568L25.632 500.993M771.55 95.88L48.588 507.306m745.918-405.113L71.511 513.61M817.43 108.497L94.467 519.923M840.386 114.81L117.423 526.235m745.919-405.112L140.347 532.539m745.919-405.112L163.303 538.852M909.221 133.74L186.259 545.165m745.919-405.112L209.183 551.469m745.918-405.112L232.138 557.782" stroke="#fff" stroke-width="2" stroke-linecap="round" stroke-linejoin="round"/></mask><g mask="url(#mask0)"><circle cx="251.213" cy="251.245" r="203.902" transform="rotate(15.361 251.213 251.245)" fill="#40C5EC" fill-opacity=".25"/></g></svg>