<svg xmlns="http://www.w3.org/2000/svg" width="128.437" height="136.25"><path id="Мы_не_кусаемся_просто_позвони_сейчас_" data-name="Мы не кусаемся, просто позвони сейчас!" d="M374.48 308.851a.666.666 0 0 0-.317.1 1.762 1.762 0 0 0-.328.195q-.141.113.059.416a4.1 4.1 0 0 1 .471.753q.221.446.444 1.006a11.5 11.5 0 0 0 1.314 2.827 1.509 1.509 0 0 1 .222.33q.471.87 1.136 2.091t1.419 2.831l.625 1.115.022.028.04.107-.022-.028-3.852-3.043c-.392-.33-.7-.59-.929-.776s-.4-.327-.506-.424-.183-.16-.223-.19a.469.469 0 0 1-.082-.072l-.023-.029q-.3-.262-.706-.586a10.172 10.172 0 0 0-.88-.631l-.023-.027-1.841-1.524a2.565 2.565 0 0 0-.8-.507.445.445 0 0 0-.4.047l-.168.137a.64.64 0 0 0-.144.278.884.884 0 0 1 0 .166.878.878 0 0 0 0 .205.155.155 0 0 1-.013.127.28.28 0 0 0 .1.151 3.31 3.31 0 0 1 .286.325c.106.131.2.26.291.389s.172.24.247.334q1.68 1.79 3.293 3.725c.366.415.734.849 1.1 1.307l1.189 1.468 3.624 4.478q.52.645.974 1.2t.855 1.115q.424.582.968 1.253c.363.447.763.943 1.2 1.483q.633.784 1.169 1.416t1.038 1.2a.306.306 0 0 0 .219-.015.715.715 0 0 0 .23-.117q.178-.237.067-.145a.237.237 0 0 0 0-.282.166.166 0 0 0-.059-.044.172.172 0 0 1-.06-.045l-.09-.112-1.511-1.7-.861-1.064q-.384-.476-.742-.974l-.181-.224q-.4-.552-.785-1.055t-.858-1.089l-4.8-5.932q-1.063-1.314-2.53-3.07t-3.085-3.64l-.045-.056q.592.449 1.223 1.025t1.076.958l1.084.883q1.176.993 2.288 1.853t2.563 1.908l.023.028a11.972 11.972 0 0 0 1.341 1 1.825 1.825 0 0 0 1.051.353 5.943 5.943 0 0 0-.581-1.775q-.464-.946-1.026-1.927-.369-.627-.7-1.212a10.682 10.682 0 0 1-.5-.962q-.585-1.01-1.25-2.346t-1.252-2.576l2.5 3.207c.167.206.32.4.462.6s.28.375.416.543l.793.98c.166.205.333.4.5.59s.327.376.478.562l4.439 5.485 5.377 6.3a.246.246 0 0 0 .183-.031 1 1 0 0 0 .271-.151.381.381 0 0 0 .12-.167.735.735 0 0 0 .042-.149.951.951 0 0 1-.077-.123 2.95 2.95 0 0 0-.235-.319c-.06-.075-.144-.168-.252-.283s-.216-.219-.325-.316q-1.171-1.274-2.937-3.458l-3.081-3.806q-.384-.474-.716-.856c-.221-.253-.436-.51-.648-.772l-1.132-1.4q-.159-.195-.3-.338a3.978 3.978 0 0 1-.252-.283l-.43-.531q-.408-.5-.8-1.02t-.75-1.013l-.793-.98c-.136-.167-.264-.334-.382-.5s-.247-.333-.383-.5zm14.6 3.51l8.765 10.829a.45.45 0 0 0 .316.161.345.345 0 0 0 .185-.057.619.619 0 0 0 .156-.265 1.193 1.193 0 0 0-.359-.729l-1.291-1.594c-.211-.262-.435-.528-.67-.8s-.5-.586-.784-.94l-8.765-10.83a.33.33 0 0 0-.316-.162.651.651 0 0 0-.269.126c-.081.128-.1.177-.067.146a1 1 0 0 0 .325.8q.8.879 1.37 1.578t1.4 1.735zm6.779 12.5a1.78 1.78 0 0 0 .227-.854 2.847 2.847 0 0 0-.223-1.07 5.193 5.193 0 0 0-.821-1.327l-1.772-2.132a6.124 6.124 0 0 0-1.55-1.432 3.559 3.559 0 0 0-1.412-.525 2.546 2.546 0 0 0-1.2.137 3.491 3.491 0 0 0-.96.546 5.074 5.074 0 0 0-.868 1.027l-4.643-5.737-.991-1.282-.257.162a.883.883 0 0 0-.2.232.278.278 0 0 0-.045.244l3.256 4.08 1.744 2.155q.294.365.648.772t.784.941l.68.839q.2.252.393.515c.126.176.273.366.439.571l1.246 1.539c.272.336.552.674.84 1.01s.554.656.8.954l.928 1.148a.276.276 0 0 0 .237-.1q.162-.13.368-.3l.224-.182c.037-.029.11-.081.22-.154s.191-.132.247-.177a2.175 2.175 0 0 0 .341-.23l.348-.281.221-.179a1.667 1.667 0 0 0 .228-.231 2.951 2.951 0 0 0 .527-.674zm-3.1 1.192l-1.183-1.4-.974-1.2q-.906-1.12-1.345-1.691a18.72 18.72 0 0 1-.66-.9 1.637 1.637 0 0 1-.133-.194 1.848 1.848 0 0 0-.133-.193 1.153 1.153 0 0 1-.122-.179 1.459 1.459 0 0 0-.122-.18l-.227-.279a2.77 2.77 0 0 1 .683-.969 2.387 2.387 0 0 1 1.5-.638 2.488 2.488 0 0 1 1.344.441 6.114 6.114 0 0 1 1.269 1.173q.625.744 1.3 1.583a5.368 5.368 0 0 1 1.239 2.24 1.8 1.8 0 0 1-.69 1.669l-1.482 1.061zm5-27.159l-.168.135c-.206.167-.247.324-.127.473l.227.281q.3.312.857.973t1.237 1.5l.51.63q.26.321.552.711c.194.259.41.556.648.887s.522.721.851 1.165l.226.279a3.455 3.455 0 0 0-.712.438q-.559.453-.987.868t-.987.868l-.159-.195a.833.833 0 0 1-.226-.164l-.17-.21-.226-.28q-.494-.666-1.017-1.284t-.971-1.23l-2.526-3.234a.463.463 0 0 0-.4.136.358.358 0 0 0 .014.475 5.955 5.955 0 0 0 .5.757q.313.417.657.811c.228.264.4.469.523.619l.023.027c.076.093.18.233.314.417l.437.6c.157.215.313.426.47.638s.3.4.439.571l2.015 2.489c.346.427.693.848 1.041 1.259s.687.82 1.018 1.229l1.468 1.814q.292.361.623.741t.736.88c.286.355.539.695.76 1.026s.421.605.6.829c.195.241.371.305.529.195s.263-.191.319-.236l-.273-.566c-.073-.127-.145-.245-.219-.356s-.148-.212-.223-.305q-.369-.4-.685-.789t-.566-.7q-.974-1.2-1.459-1.83c-.322-.418-.578-.752-.764-1s-.34-.458-.459-.625-.307-.407-.564-.724l-.294-.364a2.8 2.8 0 0 0-.207-.227 2.9 2.9 0 0 1-.229-.254l-.045-.056a.559.559 0 0 1-.04-.593 1.478 1.478 0 0 1 .237-.308 2.25 2.25 0 0 1 .489-.511c.166-.118.305-.224.417-.315l.308-.249a3.381 3.381 0 0 1 .387-.266 1.707 1.707 0 0 1 .583-.194l1.624 1.834q.549.623 1 1.116t.945 1.111l2.8 3.52a.345.345 0 0 0 .174-.071 2.67 2.67 0 0 0 .263-.189.275.275 0 0 0 .157-.265 2.814 2.814 0 0 0-.125-.269.874.874 0 0 0-.226-.278 5.131 5.131 0 0 1-.457-.508l-.429-.53q-.113-.138-.273-.309a6.943 6.943 0 0 1-.319-.365l-.2-.252a1.448 1.448 0 0 1-.144-.206 1.218 1.218 0 0 0-.122-.178l-.835-1.032-.609-.754q-.678-.837-1.205-1.4t-1.182-1.375l-.237-.293a1.858 1.858 0 0 1-.209-.316 2.6 2.6 0 0 1-.406-.386l-.283-.35-.159-.2c-.3-.374-.591-.74-.869-1.1s-.535-.709-.773-1.041l-.023-.029q-.312-.441-.617-.82t-.6-.742q-.522-.642-1.03-1.157a13.185 13.185 0 0 0-1.052-.955zm15.414 7.347a.663.663 0 0 0-.007.792l.091.112q.314.673.56 1.121a6.787 6.787 0 0 1 .358.729.887.887 0 0 1 .079.469.707.707 0 0 1-.284.392 1.759 1.759 0 0 1-1.378.444 3.342 3.342 0 0 1-1.545-.764 15.511 15.511 0 0 1-1.88-1.837q-1.041-1.171-2.377-2.823c-.091-.112-.181-.231-.269-.361s-.186-.258-.292-.389l-.34-.42a1.122 1.122 0 0 1 .277-.317q.181-.145.405-.328 1.131-.777 1.537-1.1l.518-.419a.58.58 0 0 0 .277-.688q-1.686-1.968-2.849-3.2a14.459 14.459 0 0 0-1.983-1.821 2.706 2.706 0 0 0-1.435-.6 1.828 1.828 0 0 0-1.2.462 1.6 1.6 0 0 0-.6 1 2.989 2.989 0 0 0 .239 1.5 11.314 11.314 0 0 0 1.179 2.172q.84 1.267 2.244 3 .68.84 1.61 1.962t1.834 2.152q.9 1.027 1.689 1.828a6.1 6.1 0 0 0 1.2 1.023l.163.144a2.423 2.423 0 0 0 3.28.218 5.98 5.98 0 0 0 .547-.7 1.421 1.421 0 0 0 .225-.809 2.6 2.6 0 0 0-.273-1.052 7.121 7.121 0 0 0-.949-1.431 1.249 1.249 0 0 0-.712-.536zM401.8 297.9a2.046 2.046 0 0 1-.118-.946 1.446 1.446 0 0 1 .25-.551l.14-.112a1.117 1.117 0 0 1 .628-.254 1.667 1.667 0 0 1 .967.422 11.757 11.757 0 0 1 1.572 1.484q.952 1.034 2.448 2.882l.226.279c-.056.045-.2.176-.425.39s-.416.383-.565.5a9.4 9.4 0 0 0-.871.613l-.629.51-.2-.252q-.345-.369-.663-.761t-.679-.839a18.562 18.562 0 0 1-1.2-1.649 9.668 9.668 0 0 1-.858-1.691zm23.017 1.055a3.306 3.306 0 0 1-.5-.334q-.885-.581-1.783-1.174t-1.738-1.118q-.842-.524-1.549-.969c-.472-.3-.868-.548-1.188-.752l-.863-.552-.2-.252-.224-.791-.83-2.57-.715-2.2-.264-.9c-.073-.281-.144-.57-.215-.868a1.657 1.657 0 0 0-.22-.586.385.385 0 0 0-.613-.014 1.107 1.107 0 0 0-.023 1.107 16.954 16.954 0 0 0 .645 1.817l.539 1.462c.054.141.094.256.119.344s.056.194.095.317l.023.027q.426 1.323.874 2.7a16.635 16.635 0 0 1 .619 2.44l-.09-.112q-.668-.711-1-1.117t-.645-.8l-.431-.531q-.317-.393-.812-1.033t-1.357-1.7c-.075-.093-.157-.2-.246-.333s-.179-.249-.269-.361l-.023-.028a2.547 2.547 0 0 0-.244-.359l-.271-.336a2.555 2.555 0 0 0-.6-.558.387.387 0 0 0-.449-.077q-.263.213.045.681t.851 1.142l.793.979.305.377c.114.14.265.318.456.535s.418.488.682.814l.985 1.217 1.789 2.211q.883 1.09 2.013 2.516t2.625 3.272a10.149 10.149 0 0 0 .923.989c.345.323.616.405.815.242.112-.09.088-.271-.07-.544a5.3 5.3 0 0 0-.42-.633l-.2-.252q-.345-.367-.73-.844l-.815-1.009-1.291-1.594q-.657-.812-1.082-1.394l-.09-.112-.227-.79c-.074-.278-.16-.565-.258-.856a.81.81 0 0 1-.092-.481c.274.15.61.348 1.009.6l1.294.8q.695.435 1.422.909t1.426.884l1.042.778q.429.3.832.6a6.152 6.152 0 0 0 .768.491 4.357 4.357 0 0 0 .648.285.437.437 0 0 0 .424-.019.507.507 0 0 0 .052-.736c-.161-.086-.342-.194-.541-.326s-.356-.229-.468-.294q-.228-.095-.471-.223zm1.45.818l.022.029a1.325 1.325 0 0 0 .218.125 1.953 1.953 0 0 0-.308-.238zm-6.482-18.05c.158.275.393.64.7 1.1l1.344 2.062 1.282 1.926q.7 1.1 1.378 2.218t1.374 2.27l.023.028q.453.792.911 1.555t.894 1.476q-.815-.775-1.608-1.5t-1.614-1.45q-.8-.7-1.605-1.411t-1.576-1.432l-2.894-2.661-.724-.664-.022-.028-.656-.581-.96-.844c-.094-.078-.263-.019-.5.177a.4.4 0 0 0 .008.411l.2.251q.6.627 1.159 1.146c.373.346.763.7 1.169 1.046l1.08.932 2.221 2 1.966 1.744q.982.871 2.006 1.849l.842.754q.492.437 1.006.9t1 .949l.022.029.232.229c.015.019.027.024.037.017s.029.007.059.045a3.8 3.8 0 0 1 .314.3 2.407 2.407 0 0 0 .387.336l.068.083q.289.416.6.882t.575.854q.487.717.808 1.2a2.653 2.653 0 0 1 .407.875c.038.123.073.243.1.357s.064.232.1.356l.022.028q.132.448.25.909a3.839 3.839 0 0 1 .126.871 1.43 1.43 0 0 1-.137.689.9.9 0 0 1-.543.417.143.143 0 0 0-.1-.036.466.466 0 0 1-.149-.041.279.279 0 0 1-.107.039l-.157.035a.284.284 0 0 0-.218.361 2.329 2.329 0 0 0 .15.528c.015.018.014.027 0 .026s-.018 0 0 .024l.023.029a.384.384 0 0 0 .3.082 1.284 1.284 0 0 0 .444-.081.393.393 0 0 1 .121-.051.4.4 0 0 0 .12-.052l.023.028a1.49 1.49 0 0 0 1.131-1.263 4.9 4.9 0 0 0-.343-2.57 11.9 11.9 0 0 0-.976-2.035q-.661-1.131-1.558-2.584l-1.929-3.07q-.522-.873-1-1.641c-.322-.512-.607-.959-.857-1.345l-.136-.167-6.314-10.035q-.022-.027-.009-.039c.009-.007.007-.02-.009-.039a.538.538 0 0 0-.459.233.177.177 0 0 1-.281 0 7.028 7.028 0 0 0 .455.968zm15.255 7.152a4.368 4.368 0 0 0 .211.432.392.392 0 0 1 .065.108.4.4 0 0 0 .065.11l.046.056a7.345 7.345 0 0 1 .638 1.475.959.959 0 0 1-.124.934l-.112.09a1.49 1.49 0 0 1-.825.3 1.878 1.878 0 0 1-1.229-.488 5.588 5.588 0 0 1-.971-.857q-.447-.5-.878-1.028l-.928-1.147a10.351 10.351 0 0 0-.482-.652l-.516-.627q-.567-.7-1.249-1.515t-1.276-1.491l-.453-.559q-.278-.285-.526-.593t-.521-.643a13.4 13.4 0 0 1-1.5-2.258 2.376 2.376 0 0 1-.163-2.09l.279-.227a1.033 1.033 0 0 1 .846-.128 2.641 2.641 0 0 1 1.244.707l.045.055c.03.038.049.053.059.045s.029.008.059.044q.21.2.41.363a.712.712 0 0 0 .51.145l.022.027.14-.113a.19.19 0 0 0 .032-.3l-.068-.085a1.5 1.5 0 0 0-.2-.3 5.254 5.254 0 0 0-1.359-1.194 2.676 2.676 0 0 0-1.282-.466 3.467 3.467 0 0 0-.622.318 5.707 5.707 0 0 0-.633.419 2.081 2.081 0 0 0-.592.757 1.389 1.389 0 0 0-.073.939l.023.029a5.3 5.3 0 0 0 .814 1.864q.63.949 1.258 1.784l1.246 1.539 1.257 1.553q.6.743 1.268 1.451l2.151 2.66q.589.728 1.234 1.409a5.3 5.3 0 0 0 1.372 1.066l.023.028a2.758 2.758 0 0 0 1.5.453 2.032 2.032 0 0 0 1.287-.44 1.649 1.649 0 0 0 .541-.763 1.8 1.8 0 0 0 .006-1.023 6.675 6.675 0 0 0-.445-1.122 5.952 5.952 0 0 0-.721-1.176.667.667 0 0 0-.844-.244.294.294 0 0 0-.063.373zm2.37-8.726q-.565-.7-1.175-1.481t-1.129-1.424q-.838-1.036-1.656-1.9a13.1 13.1 0 0 0-1.54-1.417 3.844 3.844 0 0 0-1.359-.706 1.187 1.187 0 0 0-1.084.207 1.622 1.622 0 0 0-.386.552 3.156 3.156 0 0 0-.264.932 3.557 3.557 0 0 0 .03 1.124 2.361 2.361 0 0 0 .512 1.091c.2.243.36.31.492.2a.428.428 0 0 0 .147-.4 8.15 8.15 0 0 0-.068-.547 3.1 3.1 0 0 1-.1-.639 5.349 5.349 0 0 1 0-.694 3.2 3.2 0 0 1 .09-.583.667.667 0 0 1 .18-.354.585.585 0 0 1 .642.012 4.43 4.43 0 0 1 .9.59 14.393 14.393 0 0 1 1.862 1.867l.113.14a.232.232 0 0 0 .082.072.181.181 0 0 1 .059.045l1.9 2.346a1.875 1.875 0 0 1 .406.734.923.923 0 0 1 0 .513.875.875 0 0 1-.189.315 3.008 3.008 0 0 1-.144.14 3.8 3.8 0 0 0-.5 3.043 8.9 8.9 0 0 0 1.766 3.193 6.822 6.822 0 0 0 .983.984 5.623 5.623 0 0 0 1.124.731 3.365 3.365 0 0 0 1.128.335 1.792 1.792 0 0 0 1.016-.175l.14-.113a3.2 3.2 0 0 0 .932-1.079 1.756 1.756 0 0 0 .158-1.007 2.4 2.4 0 0 0-.385-.962 12.003 12.003 0 0 0-.694-.944q-.59-.728-1.322-1.548t-1.253-1.462zm3.935 7.56a1.028 1.028 0 0 1-.2.253l-.172.138a.761.761 0 0 1-.788.2q-.357-.151-1.205-.437l-.023-.028a2.188 2.188 0 0 1-.729-.521 9.916 9.916 0 0 1-.7-.777 10.959 10.959 0 0 1-.835-1.177 6.517 6.517 0 0 1-.555-1.125l-.022-.028a3.144 3.144 0 0 1-.051-2.113 3.192 3.192 0 0 1 .913-1.272l.748.924q.09.111.455.534c.244.282.513.6.81.943s.584.685.866 1.013.5.585.648.771a10.566 10.566 0 0 1 .845 1.193 1.331 1.331 0 0 1 .249.979 4.012 4.012 0 0 1-.258.534zm4.8-8.142a.663.663 0 0 0-.006.793l.09.112c.209.448.4.823.56 1.121a7.027 7.027 0 0 1 .359.729.893.893 0 0 1 .078.468.693.693 0 0 1-.284.393 1.751 1.751 0 0 1-1.378.444 3.332 3.332 0 0 1-1.545-.764 15.436 15.436 0 0 1-1.88-1.837q-1.041-1.171-2.377-2.823c-.091-.112-.18-.232-.269-.36s-.186-.26-.292-.39l-.34-.42a1.106 1.106 0 0 1 .277-.316c.121-.1.256-.208.406-.328q1.131-.777 1.537-1.106l.518-.419a.582.582 0 0 0 .277-.687q-1.687-1.969-2.849-3.2a14.494 14.494 0 0 0-1.984-1.823 2.723 2.723 0 0 0-1.434-.6 1.837 1.837 0 0 0-1.2.463 1.6 1.6 0 0 0-.6 1 2.982 2.982 0 0 0 .239 1.5 11.262 11.262 0 0 0 1.179 2.172q.838 1.265 2.243 3 .679.84 1.611 1.962t1.819 2.149q.9 1.031 1.688 1.829a6.011 6.011 0 0 0 1.2 1.022l.164.146a2.421 2.421 0 0 0 3.279.217 5.648 5.648 0 0 0 .547-.7 1.423 1.423 0 0 0 .226-.807 2.638 2.638 0 0 0-.273-1.054 7.188 7.188 0 0 0-.95-1.43 1.243 1.243 0 0 0-.711-.535zm-11.381-8.341a2.021 2.021 0 0 1-.118-.947 1.429 1.429 0 0 1 .25-.549l.14-.114a1.129 1.129 0 0 1 .628-.254 1.672 1.672 0 0 1 .967.422 11.822 11.822 0 0 1 1.571 1.484q.952 1.037 2.448 2.882l.226.28c-.056.045-.2.176-.425.39s-.416.383-.565.5a9.488 9.488 0 0 0-.871.612l-.629.509-.2-.251q-.345-.369-.662-.762l-.68-.839a17.792 17.792 0 0 1-1.195-1.649 9.6 9.6 0 0 1-.859-1.69zm3.735-4.922q1.389 1.887 2.792 3.622c.167.206.409.5.728.87s.684.8 1.1 1.267q.888 1.041 1.89 2.221t1.727 2.077l.577.713a3.174 3.174 0 0 1 .323.457q.567.7.983 1.242t.728.986l.023.028c.147.221.274.4.379.527s.212.26.317.391q.363.448.587.266a4 4 0 0 0 .24-.218.3.3 0 0 0 .134-.178l-3.829-4.959q-.565-.7-1.1-1.332t-1.129-1.309q-.368-.4-.741-.858l-.759-.939q-.565-.7-1.135-1.374t-1.135-1.373l-.068-.084q.88.631 2.03 1.622t2.2 1.947q.356.267.746.577c.26.207.5.407.717.6q.944.767 1.881 1.466a6.75 6.75 0 0 0 1.776.994q-.4-1.067-1.1-2.471t-1.5-2.91q-.8-1.5-1.628-3.012t-1.559-2.814l.045.056q.38.526.711.907a30 30 0 0 1 .671.8l.815 1.007q1.088 1.343 2.132 2.605t1.907 2.3q.864 1.038 1.492 1.757t.832.97l.272.336.373.462c.129.158.241.307.337.445s.167.235.213.291a3.316 3.316 0 0 1 .2.277 2.581 2.581 0 0 0 .178.249c.121.15.294.134.517-.047.131-.106.09-.319-.124-.641s-.471-.667-.773-1.041q-1.043-1.287-1.863-2.244t-1.551-1.8q-.616-.7-1.185-1.378t-1.181-1.431q-1.018-1.26-1.939-2.482T445 263.358a8.414 8.414 0 0 0-.641-.592 2.356 2.356 0 0 0-.572-.277l-.046-.057-.253-.026a.555.555 0 0 0-.382.1 2.816 2.816 0 0 0-.314.184q.261.438.517.924.239.409.517.925c.186.344.388.691.608 1.037q.414.685.76 1.283t.54.953l3.329 6.059v.051l-.853-.653q-1.486-1.2-2.59-2.142t-1.924-1.661q-.819-.726-1.443-1.241a11.86 11.86 0 0 0-1.274-.915 8.075 8.075 0 0 1-.911-.7q-.411-.363-.67-.569c-.094-.079-.161-.132-.2-.163a.145.145 0 0 0-.172.047 1.457 1.457 0 0 0-.26.279.625.625 0 0 0-.13.268zm20.332 3.32a4.261 4.261 0 0 0 .211.432.383.383 0 0 1 .065.109.387.387 0 0 0 .065.11l.046.055a7.321 7.321 0 0 1 .638 1.475.958.958 0 0 1-.124.934l-.112.091a1.5 1.5 0 0 1-.825.3 1.876 1.876 0 0 1-1.229-.487 5.594 5.594 0 0 1-.971-.858q-.447-.495-.878-1.027l-.928-1.147a9.831 9.831 0 0 0-.482-.653l-.509-.629q-.567-.7-1.249-1.514t-1.276-1.491l-.453-.56q-.277-.285-.526-.592l-.521-.644a13.436 13.436 0 0 1-1.5-2.257 2.378 2.378 0 0 1-.163-2.091l.279-.227a1.033 1.033 0 0 1 .846-.128 2.641 2.641 0 0 1 1.244.707l.045.056c.03.037.05.052.059.044s.029.008.059.045q.21.2.41.363a.712.712 0 0 0 .51.144l.022.028.14-.114a.191.191 0 0 0 .032-.3l-.068-.083a1.5 1.5 0 0 0-.2-.3 5.209 5.209 0 0 0-1.359-1.192 2.686 2.686 0 0 0-1.282-.469 3.565 3.565 0 0 0-.622.319 5.855 5.855 0 0 0-.633.419 2.081 2.081 0 0 0-.592.757 1.389 1.389 0 0 0-.073.939l.023.029a5.3 5.3 0 0 0 .814 1.864q.63.951 1.258 1.784l1.246 1.54 1.257 1.553q.6.741 1.268 1.451l2.151 2.658q.589.728 1.234 1.41a5.28 5.28 0 0 0 1.372 1.066l.023.028a2.749 2.749 0 0 0 1.5.453 2.032 2.032 0 0 0 1.287-.44 1.644 1.644 0 0 0 .541-.763 1.8 1.8 0 0 0 .006-1.023 6.675 6.675 0 0 0-.445-1.122 5.952 5.952 0 0 0-.721-1.176.667.667 0 0 0-.844-.243.293.293 0 0 0-.075.371zm-6.331-15.208a.508.508 0 0 1 .147-.164l.254-.206 1.612-1.12a.5.5 0 0 1 .677-.084 3.527 3.527 0 0 1 .6.676l3.1 3.834 1.869 2.309q.916 1.132 1.523 1.94.453.559.8 1.018t.666.85l1 1.232 2.186 2.816a.2.2 0 0 1 .017.24.742.742 0 0 1-.179.215l-.267.216q-.249-.308-.456-.534c-.138-.15-.289-.329-.456-.534l-.724-.9q-.5-.617-1.051-1.328t-1.025-1.323q-.472-.613-.677-.865l-.249-.308a4.628 4.628 0 0 1-.543.718 5.165 5.165 0 0 1-.492.49l-.141.114.181.225.609 1.244q.252.513.453.906t.371.719c.114.216.227.434.34.651q.284.465.561.982t.794 1.58a.768.768 0 0 1-.294.33c-.178.145-.311.161-.4.048a19.787 19.787 0 0 1-1.09-1.85q-.582-1.1-1.151-2.265l-.956-1.865-.249-.308a3.662 3.662 0 0 1-1.683-.422 7.53 7.53 0 0 1-2.565-2.253q-.545-.672-.864-1.039a19.48 19.48 0 0 1-.489-.576 2.525 2.525 0 0 0-.252-.282 1.033 1.033 0 0 1-.1-.1l-.114-.139a14.323 14.323 0 0 1-1.215-1.7 4.389 4.389 0 0 1-.539-1.3 2.018 2.018 0 0 1 .02-1.011 2.578 2.578 0 0 1 .464-.84zm2.38-.814l-.831.534a2.747 2.747 0 0 0-.419.293l-.367.3a1.343 1.343 0 0 0-.4 1.76 14.756 14.756 0 0 0 1.926 2.842l.934 1.1q.52.645 1.109 1.255a6.935 6.935 0 0 0 1.189 1.006 2.674 2.674 0 0 0 1.211.456 1.626 1.626 0 0 0 1.2-.418 3.583 3.583 0 0 0 .424-.459 1.822 1.822 0 0 0 .373-.7l-.2-.252-.311-.442q-.289-.414-.64-.848l-.691-.854zm13.9 10.1l.112-.091a.238.238 0 0 1 .318.021 4.2 4.2 0 0 1 .432.391l.748.924c.256.317.5.649.739 1a7.4 7.4 0 0 1 .662 1.247l.023.029q.125.268.265.641a4 4 0 0 1 .2.764 4.118 4.118 0 0 1 .054.7.55.55 0 0 1-.174.442.128.128 0 0 1-.2-.021 1.186 1.186 0 0 1-.125-.27l-.068-.083c-.015-.02-.006-.026.028-.023s.043 0 .028-.022q-.166-.606-.312-1.045a8.682 8.682 0 0 0-.323-.827 4.994 4.994 0 0 0-.454-.79 16.32 16.32 0 0 0-.731-.96 2.408 2.408 0 0 0-.345-.37.818.818 0 0 0-.242-.127 1.976 1.976 0 0 1-.3-.173 1.109 1.109 0 0 1-.223-.189.988.988 0 0 1-.211-.547.78.78 0 0 1 .148-.561zm0 0l-.023-.028c-.022.049-.014.058.023.028zm-68.88 80.335l8.334 10.3.239.41.249.308a.985.985 0 0 0 .138.142 1.044 1.044 0 0 1 .139.142c.181.224.35.443.507.655s.293.411.411.594a17.745 17.745 0 0 0 .963 1.304 1.613 1.613 0 0 0 .562.494.357.357 0 0 0 .385-.01c.094-.075.054-.267-.118-.575s-.4-.665-.681-1.07-.592-.818-.932-1.238l-.849-1.048-1.608-1.988c-.121-.149-.277-.331-.467-.548s-.5-.585-.92-1.108l-4.473-5.642-.5-.616c.034 0 .018-.045-.048-.145s-.243-.33-.53-.684l-.351-.434q-.1-.125-.379-.41l-.212.31-.229.232a1.762 1.762 0 0 1-.257.254l-.28.227-.644.521a3.3 3.3 0 0 0-.458.463 3.2 3.2 0 0 1-.425.39l-1.413.773-.045-.055-.14.112a.254.254 0 0 0-.023.343 3.161 3.161 0 0 0 .365.538l.34.42a2.237 2.237 0 0 0 .207.227 2.218 2.218 0 0 1 .206.226c.076.094.18.242.312.442s.4.545.787 1.03l1.5 1.847.566.7a6.527 6.527 0 0 0 .481.537l.566.7q1 1.231 1.549 1.942t1 1.27l1.291 1.6 1.178 1.455q.635.783.934 1.1l.967 1.024a.494.494 0 0 0 .3-.149.4.4 0 0 0 .172-.416L406.873 359l-1.744-2.155q-2.159-2.838-3.472-4.461l-.566-.7-.5-.615c-.2-.243-.41-.486-.64-.733l-.045-.056-3.1-3.834 1.176-.951c.183-.117.441-.3.775-.558s.622-.481.865-.677zm11.594-.908q-.7-.867-1.423-1.673a17.128 17.128 0 0 0-1.436-1.432 7.047 7.047 0 0 0-1.457-1 2.982 2.982 0 0 0-1.461-.345 1.7 1.7 0 0 0-1 .483 2.784 2.784 0 0 0-.889 1.392 2.709 2.709 0 0 0 .228 1.969l.023.028a8.838 8.838 0 0 0 .843 1.471q.49.692 1.079 1.418.612.757 1.262 1.5t1.319 1.457l.022.028.94 1.047 3.147 3.751 3.079 3.714q.69.738 1.271 1.425t1.191 1.445l.918 1.133c.309.382.6.776.861 1.178q1.041 1.287 1.5 1.887t.711.907l.317.391a1.808 1.808 0 0 0 .6.511.512.512 0 0 0 .584-.079l.016-.152a1.74 1.74 0 0 0-.221-.331c-.106-.129-.226-.279-.362-.447a2.643 2.643 0 0 1-.179-.248 2.6 2.6 0 0 0-.156-.223q-.516-.693-1.036-1.337l-1.087-1.343q-.635-.784-1.282-1.556t-1.305-1.583q-.635-.786-1.28-1.581t-1.3-1.61l-.187-.174a2.233 2.233 0 0 0 1.065-.1 2.945 2.945 0 0 0 .928-.5 2.228 2.228 0 0 0 .7-.957 2.155 2.155 0 0 0 0-1.362 7.809 7.809 0 0 0-.925-2.007 20.794 20.794 0 0 0-1.461-2.037l-.747-.923-1.065-1.315q-.521-.644-1.024-1.209zm5.632 10.124a1.61 1.61 0 0 1-.457.647 1.261 1.261 0 0 1-.95.213 3.587 3.587 0 0 1-1.431-.556l-.022-.028a12.212 12.212 0 0 1-1.537-1.465q-.756-.848-1.509-1.72c-.136-.168-.28-.336-.433-.506s-.3-.339-.433-.507q-.317-.39-.648-.772t-.7-.777l-.022-.029q-.5-.564-1.03-1.158t-1.047-1.236q-.294-.363-.632-.809c-.224-.3-.44-.593-.648-.887a8.144 8.144 0 0 1-.535-.864 3.7 3.7 0 0 1-.315-.765q-.057-.648-.075-1.19a1.916 1.916 0 0 1 .118-.835l-.023-.029a.817.817 0 0 1 .175-.187l.2-.161a1.328 1.328 0 0 1 1.264-.026 5.159 5.159 0 0 1 1.8 1.158c.169.172.377.389.622.654l.769.836c.269.292.535.594.8.9s.512.605.739.885l.555.685a3.969 3.969 0 0 0 .424.467 8.262 8.262 0 0 1 .614.731q.315.417.677.864l.77.952q.635.783 1.217 1.562a15.937 15.937 0 0 1 1.006 1.5 6.972 6.972 0 0 1 .623 1.348 1.7 1.7 0 0 1 .05 1.072zm-1.668-18.936a7.578 7.578 0 0 0-.92-.482 3.476 3.476 0 0 0-1.02-.263 2.132 2.132 0 0 0-1.853.388 2.261 2.261 0 0 0-.721 1.047 5.168 5.168 0 0 0-.163 1.336 9.962 9.962 0 0 0 .647 2.509 27.81 27.81 0 0 0 1.153 2.564 12.183 12.183 0 0 0 .654 1.207 11.123 11.123 0 0 0 .771 1.067l.725.895a18.233 18.233 0 0 0 5.054 4.385 5 5 0 0 0 4.222.38l.308-.248a2.68 2.68 0 0 0 1.024-1.825 4.541 4.541 0 0 0-.452-2.389q-.49-1.039-1.05-1.976t-1.137-1.762q-.357-.5-.637-.874t-.575-.739q-.565-.7-1.095-1.266t-1.015-1.055a16.783 16.783 0 0 0-3.915-2.9zm5.523 5.858a33.747 33.747 0 0 1 2.226 3.293 9.011 9.011 0 0 1 1.135 2.74 2.39 2.39 0 0 1-.1 1.24 2.051 2.051 0 0 1-.621.826 9.963 9.963 0 0 1-.167.136.477.477 0 0 1-.189.107q-1.889.741-4.6-1.237a15.852 15.852 0 0 1-1.693-1.408 17.931 17.931 0 0 1-1.538-1.674q-.747-.922-1.428-1.877a12.2 12.2 0 0 1-1.159-2l-.023-.029q-.206-.482-.366-.907c-.107-.285-.2-.576-.293-.875l-.333-.981-.023-.028a6.929 6.929 0 0 1-.222-1.811 5.29 5.29 0 0 1 .252-.713 1.2 1.2 0 0 1 .327-.45q.584-.474 2.305.173l.022.027a5 5 0 0 0 .644.312 5.445 5.445 0 0 1 .645.312c.3.188.634.414.989.682l1.125.849q.7.638 1.427 1.393t1.338 1.511zm8.33-.35a4.262 4.262 0 0 0 .21.432.387.387 0 0 1 .066.109.4.4 0 0 0 .065.109l.045.056a7.3 7.3 0 0 1 .638 1.475.956.956 0 0 1-.124.934l-.112.091a1.5 1.5 0 0 1-.825.3 1.878 1.878 0 0 1-1.228-.489 5.512 5.512 0 0 1-.972-.857q-.447-.493-.877-1.026l-.929-1.148a10.07 10.07 0 0 0-.481-.652l-.51-.629q-.566-.7-1.248-1.514t-1.276-1.491l-.453-.561a8.26 8.26 0 0 1-.527-.593l-.52-.643a13.361 13.361 0 0 1-1.5-2.258 2.374 2.374 0 0 1-.164-2.089l.28-.227a1.033 1.033 0 0 1 .845-.129 2.646 2.646 0 0 1 1.244.707l.042.054c.031.037.05.052.06.044s.029.008.059.045q.209.2.41.363a.709.709 0 0 0 .509.143l.023.028.14-.113a.191.191 0 0 0 .032-.3l-.068-.084a1.544 1.544 0 0 0-.2-.3 5.209 5.209 0 0 0-1.359-1.192 2.686 2.686 0 0 0-1.282-.468 3.576 3.576 0 0 0-.622.318 5.983 5.983 0 0 0-.633.42 2.052 2.052 0 0 0-.592.757 1.382 1.382 0 0 0-.073.939l.022.028a5.305 5.305 0 0 0 .815 1.865q.628.95 1.258 1.784l1.246 1.538 1.257 1.553q.6.743 1.267 1.453l2.152 2.658q.59.728 1.233 1.41a5.327 5.327 0 0 0 1.373 1.066l.022.028a2.742 2.742 0 0 0 1.5.452 2.027 2.027 0 0 0 1.288-.44 1.641 1.641 0 0 0 .541-.762 1.823 1.823 0 0 0 .006-1.023 6.763 6.763 0 0 0-.445-1.122 5.962 5.962 0 0 0-.721-1.177.668.668 0 0 0-.845-.242.292.292 0 0 0-.061.37zm-2.993-17.586a.385.385 0 0 0-.444.082c-.2.133-.377.259-.526.38q-.744.741-1.108 1.035l-.727.589-.588.476a5.8 5.8 0 0 1-.526.379c-.183.118-.348.22-.493.306a.411.411 0 0 0-.163.086l-.14.113q-.476.386-.368.575c.309.306.548.392.716.255a3.785 3.785 0 0 0 .618-.523c.229-.233.422-.442.579-.631.078-.093.146-.171.2-.234a1.446 1.446 0 0 1 .143-.139c.13-.105.284-.068.461.113s.363.391.559.634l1.651 2.038q.429.531.856 1.087t.879 1.114a77.804 77.804 0 0 0 2.316 2.748c.354.362.7.746 1.028 1.156s.693.857 1.085 1.341q.837 1.034 1.772 2.217a39.632 39.632 0 0 1 1.467 1.956.471.471 0 0 1 .2-.209.54.54 0 0 0 .02-.663 4.082 4.082 0 0 0-.589-.957l-5-6.172q-.87-.96-1.29-1.451t-.67-.8l-.52-.642q-.248-.308-.607-.779t-1.015-1.283q-.317-.39-.466-.548c-.1-.1-.187-.2-.263-.3l-.384-.475a.255.255 0 0 1-.054-.1.245.245 0 0 0-.054-.1l-.067-.083a.97.97 0 0 0-.153-.246l-.249-.307c.22-.148.427-.283.619-.408a6.456 6.456 0 0 0 .54-.392l.518-.419a4.2 4.2 0 0 1 .619-.408c.018-.015.012-.042-.019-.08l-.072-.09zm8.34-3.461a7.814 7.814 0 0 0-.921-.483 3.46 3.46 0 0 0-1.019-.262 2.138 2.138 0 0 0-1.853.388 2.264 2.264 0 0 0-.721 1.046 5.184 5.184 0 0 0-.163 1.337 9.962 9.962 0 0 0 .647 2.509 27.81 27.81 0 0 0 1.153 2.564 12.441 12.441 0 0 0 .654 1.208 10.988 10.988 0 0 0 .771 1.065l.725.9a18.25 18.25 0 0 0 5.054 4.385 5.005 5.005 0 0 0 4.222.381l.307-.249a2.678 2.678 0 0 0 1.025-1.825 4.538 4.538 0 0 0-.453-2.39q-.489-1.038-1.05-1.975t-1.141-1.762q-.357-.5-.637-.873t-.574-.742q-.565-.7-1.1-1.268t-1.016-1.054a16.779 16.779 0 0 0-3.914-2.9zm5.522 5.858a33.89 33.89 0 0 1 2.227 3.293 9.021 9.021 0 0 1 1.135 2.74 2.4 2.4 0 0 1-.1 1.241 2.074 2.074 0 0 1-.621.826l-.167.136a.5.5 0 0 1-.189.106q-1.889.743-4.595-1.237a15.521 15.521 0 0 1-1.693-1.408 17.783 17.783 0 0 1-1.538-1.673q-.747-.924-1.428-1.878a12.086 12.086 0 0 1-1.159-2l-.023-.028a15.465 15.465 0 0 1-.659-1.782l-.333-.98-.023-.028a6.941 6.941 0 0 1-.222-1.811 5.259 5.259 0 0 1 .252-.714 1.2 1.2 0 0 1 .327-.45q.584-.472 2.3.172l.023.028a4.99 4.99 0 0 0 .644.313 5.064 5.064 0 0 1 .644.312c.305.186.634.413.99.681l1.125.85q.7.638 1.427 1.393t1.337 1.51zm4.26-16.647l8.335 10.3.238.41.249.308a1.044 1.044 0 0 0 .139.142 1 1 0 0 1 .138.143c.182.223.351.442.507.654s.294.412.411.595q.244.359.468.663t.5.64a1.637 1.637 0 0 0 .563.5.361.361 0 0 0 .385-.012q.139-.113-.119-.575t-.68-1.07q-.423-.607-.932-1.237t-.85-1.049l-1.608-1.988c-.12-.149-.276-.331-.467-.548s-.5-.585-.919-1.108l-4.474-5.642-.5-.616c.033 0 .017-.044-.049-.145s-.243-.328-.529-.684c-.166-.2-.284-.349-.351-.433s-.195-.221-.38-.411l-.211.31-.23.232a1.821 1.821 0 0 1-.257.255l-.28.226-.643.521a3.41 3.41 0 0 0-.459.463 3.133 3.133 0 0 1-.425.39l-1.412.773-.046-.055-.139.112a.254.254 0 0 0-.024.343 3.175 3.175 0 0 0 .366.538l.34.42a2.241 2.241 0 0 0 .206.227 2.462 2.462 0 0 1 .207.226c.075.094.179.242.311.442s.395.546.788 1.031l1.494 1.846.567.7a6.7 6.7 0 0 0 .481.537l.566.7q1 1.231 1.548 1.942t1.006 1.271l1.291 1.6 1.177 1.455q.635.783.934 1.1l.967 1.024a.486.486 0 0 0 .3-.148.4.4 0 0 0 .172-.417l-1.692-1.918-1.748-2.172q-2.159-2.838-3.472-4.461l-.566-.7-.5-.615a15.77 15.77 0 0 0-.639-.733l-.045-.056-3.1-3.833 1.175-.952c.183-.117.442-.3.776-.558s.622-.481.865-.677zm9.418-4.75a7.517 7.517 0 0 0-.921-.482 3.493 3.493 0 0 0-1.019-.264 2.138 2.138 0 0 0-1.853.389 2.247 2.247 0 0 0-.721 1.047 5.166 5.166 0 0 0-.163 1.335 9.958 9.958 0 0 0 .647 2.51 27.428 27.428 0 0 0 1.153 2.564 12.183 12.183 0 0 0 .654 1.207 10.879 10.879 0 0 0 .771 1.067l.725.9a18.244 18.244 0 0 0 5.054 4.384 5 5 0 0 0 4.221.381l.308-.249a2.674 2.674 0 0 0 1.024-1.824 4.523 4.523 0 0 0-.452-2.39q-.489-1.039-1.05-1.976t-1.141-1.762q-.357-.5-.638-.874t-.574-.739q-.567-.7-1.1-1.267t-1.015-1.054a16.807 16.807 0 0 0-3.914-2.9zm5.522 5.859a33.944 33.944 0 0 1 2.227 3.292 9.011 9.011 0 0 1 1.135 2.74 2.391 2.391 0 0 1-.1 1.24 2.07 2.07 0 0 1-.621.827l-.167.135a.49.49 0 0 1-.189.107q-1.889.741-4.595-1.237a15.647 15.647 0 0 1-1.693-1.409 17.526 17.526 0 0 1-1.538-1.672q-.747-.924-1.428-1.878a12.237 12.237 0 0 1-1.16-2l-.022-.028q-.205-.483-.367-.908t-.293-.874l-.333-.981-.022-.029a6.926 6.926 0 0 1-.222-1.811 5.126 5.126 0 0 1 .252-.714 1.2 1.2 0 0 1 .326-.449q.585-.472 2.305.172l.023.028a4.808 4.808 0 0 0 .644.312 5.2 5.2 0 0 1 .644.313c.305.186.634.413.99.681l1.125.849q.7.637 1.426 1.393t1.338 1.51zm3.748-8.36a12.8 12.8 0 0 0-1-1.411l-.43-.531a5.787 5.787 0 0 0-1.094-1.037 4.233 4.233 0 0 0-1.314-.65 3.422 3.422 0 0 0-1.37-.12 2.482 2.482 0 0 0-1.262.559 5.089 5.089 0 0 0-.9.895 1.948 1.948 0 0 0-.232 1.315 3.727 3.727 0 0 0 .2.93 2.445 2.445 0 0 0 .612.87.579.579 0 0 1 .229-.231.585.585 0 0 0 .132-.524l-.294-.85a1.076 1.076 0 0 1-.085-.649 1.746 1.746 0 0 1 .4-.764 5.311 5.311 0 0 1 .526-.5 1.515 1.515 0 0 1 .944-.351 2.431 2.431 0 0 1 1.082.251 5.765 5.765 0 0 1 1.133.712 8.684 8.684 0 0 1 1.1 1.041l.022.027a9.033 9.033 0 0 1 .7 1.04 8.648 8.648 0 0 1 .655 1.353 3.676 3.676 0 0 1 .26 1.351 1.32 1.32 0 0 1-.511 1.057l-.224.18a1.359 1.359 0 0 0-.275.176l-.224.182a1.243 1.243 0 0 0-.216.39.449.449 0 0 0-.009.247.343.343 0 0 0 .1.158.79.79 0 0 1 .1.09.267.267 0 0 0 .262-.02 6.162 6.162 0 0 0 .961-.586l.252-.2a1.292 1.292 0 0 1 1.071-.308 3.141 3.141 0 0 1 1.144.469 6.411 6.411 0 0 1 1.111.915q.532.546.965 1.079a12.036 12.036 0 0 1 .838 1.321 6.1 6.1 0 0 1 .563 1.382 3.044 3.044 0 0 1 .074 1.265 1.5 1.5 0 0 1-.548.954 1.781 1.781 0 0 1-1.51.366 9.361 9.361 0 0 1-1.824-.537.464.464 0 0 0-.158.4.654.654 0 0 0 .1.382 1.309 1.309 0 0 0 .387.335 2.424 2.424 0 0 0 .454.188l.326.06.046.057a1.986 1.986 0 0 0 1.455-.033 6.387 6.387 0 0 0 1.244-.809 2.035 2.035 0 0 0 .755-1.213 3.733 3.733 0 0 0-.022-1.487 5.8 5.8 0 0 0-.568-1.533 8.418 8.418 0 0 0-.86-1.318l-.407-.5a9.862 9.862 0 0 0-1.694-1.663 4.034 4.034 0 0 0-1.936-.818l-.317-.392a2.566 2.566 0 0 0 0-.742 23.259 23.259 0 0 0-.161-.657 10.05 10.05 0 0 0-.757-1.563zm13.195 5.392a1.738 1.738 0 0 0 .136-1.013 4.166 4.166 0 0 0-.475-1.306 11.3 11.3 0 0 0-1.209-1.754l-1.119-1.318a4.6 4.6 0 0 0-1.3-1.057q-.676-.357-1.24-.6l-.775.072-.34-.419.022-.2-.046-.056a2.331 2.331 0 0 0-.115-1.458 5.764 5.764 0 0 0-1-1.757.867.867 0 0 0-.161-.17.556.556 0 0 1-.116-.115l-.328-.406q-.261-.323-.628-.719l-.453-.559a4.978 4.978 0 0 0-1.421-1.213 2.826 2.826 0 0 0-1.27-.338 2.314 2.314 0 0 0-1.085.256 5.09 5.09 0 0 0-.852.55 6.772 6.772 0 0 0-.917.927l-.246.154a.981.981 0 0 0-.2.234.188.188 0 0 0-.047.2l2.939 3.688a2.451 2.451 0 0 0 .218.241 2.09 2.09 0 0 1 .172.184l.136.168q.448.611.935 1.213l1.076 1.328 1.359 1.68q.565.7 1.237 1.5t1.486 1.808l1.608 1.986a3.635 3.635 0 0 0 .729.729.658.658 0 0 0 .779-.19l.225-.183a2.413 2.413 0 0 1 .251-.179 2.635 2.635 0 0 1 .245-.129c.109-.057.209-.116.3-.175a4.035 4.035 0 0 0 .335-.248l.282-.228a2.538 2.538 0 0 0 .287-.278 3.328 3.328 0 0 0 .587-.85zm-4.523-.137l-1.789-2.211q-.406-.5-.781-.965t-.731-.961a.686.686 0 0 1-.108-.191.684.684 0 0 0-.108-.19l-.226-.28a2.537 2.537 0 0 1 .368-.575 3.357 3.357 0 0 1 .341-.323l.2-.158a1.865 1.865 0 0 1 1.251-.457 3.03 3.03 0 0 1 1.3.341 4.934 4.934 0 0 1 1.2.882 13.464 13.464 0 0 1 1.021 1.119l.611.755a5.6 5.6 0 0 1 1.284 2.272 1.764 1.764 0 0 1-.828 1.667l-.252.2-.154.125a.743.743 0 0 1-.205.12l-.93.567-.226-.28zm-9.574-11.888l.29-.328a2.617 2.617 0 0 1 .288-.3 1.152 1.152 0 0 0 .232-.257 2.329 2.329 0 0 1 .5-.217c.185-.057.454-.134.806-.233l.315-.069.045.055a2.673 2.673 0 0 1 1.283.5 6.42 6.42 0 0 1 1.015 1.03l.433.533a4.657 4.657 0 0 0 .414.456l.023.028a6.65 6.65 0 0 1 1.333 2.363 1.609 1.609 0 0 1-.608 1.794.52.52 0 0 1-.123.077.593.593 0 0 0-.123.077.4.4 0 0 1-.11.065.588.588 0 0 0-.137.088l-.874.522-.228-.28c-.3-.376-.607-.741-.912-1.1s-.609-.724-.913-1.1l-.023-.028a8.665 8.665 0 0 0-.4-.557l-.455-.562zm11.609-7.034a7.814 7.814 0 0 0-.921-.483 3.46 3.46 0 0 0-1.019-.262 2.138 2.138 0 0 0-1.853.388 2.264 2.264 0 0 0-.721 1.046 5.184 5.184 0 0 0-.163 1.337 9.962 9.962 0 0 0 .647 2.509 27.546 27.546 0 0 0 1.153 2.564 12.441 12.441 0 0 0 .654 1.208 10.988 10.988 0 0 0 .771 1.065l.725.9a18.233 18.233 0 0 0 5.054 4.385 5.005 5.005 0 0 0 4.222.381l.307-.249a2.681 2.681 0 0 0 1.025-1.825 4.538 4.538 0 0 0-.453-2.39q-.489-1.038-1.05-1.975t-1.141-1.762q-.357-.5-.637-.873t-.575-.739q-.567-.7-1.095-1.268t-1.016-1.054a16.807 16.807 0 0 0-3.914-2.9zm5.522 5.858a33.89 33.89 0 0 1 2.227 3.293 9.021 9.021 0 0 1 1.135 2.74 2.4 2.4 0 0 1-.1 1.241 2.067 2.067 0 0 1-.621.826l-.167.136a.5.5 0 0 1-.189.106q-1.889.743-4.6-1.236a15.647 15.647 0 0 1-1.693-1.409 17.783 17.783 0 0 1-1.538-1.673q-.747-.924-1.428-1.878a12.162 12.162 0 0 1-1.16-2l-.022-.028a15.465 15.465 0 0 1-.66-1.782l-.332-.98-.023-.028a6.941 6.941 0 0 1-.222-1.811 5.126 5.126 0 0 1 .252-.714 1.2 1.2 0 0 1 .327-.45q.583-.472 2.3.172l.023.028a4.99 4.99 0 0 0 .644.313 5.064 5.064 0 0 1 .644.312c.305.186.634.413.99.681l1.125.85q.7.638 1.426 1.393t1.338 1.51zm-.57-13.293l-.168.136c-.2.167-.247.323-.126.473l.226.28q.3.313.858.973t1.237 1.5l.509.629q.261.321.552.71t.649.888q.357.5.85 1.165l.226.279a3.444 3.444 0 0 0-.711.437q-.559.453-.987.869t-.988.868l-.158-.195a.811.811 0 0 1-.226-.165l-.17-.209-.227-.28q-.492-.668-1.016-1.285t-.971-1.229l-2.526-3.235a.47.47 0 0 0-.4.137.36.36 0 0 0 .014.475 5.861 5.861 0 0 0 .5.756q.314.418.656.811c.229.264.4.471.524.619l.023.029c.075.092.18.232.314.416l.436.6.471.639c.156.213.3.4.439.57l2.014 2.49c.346.427.693.848 1.041 1.258s.688.82 1.019 1.23l1.467 1.813c.2.242.4.489.624.741s.465.547.736.881q.429.531.759 1.025t.6.829c.195.242.371.306.528.195s.263-.19.319-.235l-.273-.567c-.072-.126-.145-.244-.218-.355s-.148-.212-.224-.306q-.368-.4-.685-.788l-.566-.7q-.974-1.2-1.458-1.83t-.765-1q-.281-.375-.459-.624t-.563-.725l-.3-.364a2.785 2.785 0 0 0-.206-.227 2.731 2.731 0 0 1-.229-.254l-.046-.056a.56.56 0 0 1-.039-.594 1.464 1.464 0 0 1 .237-.307 2.189 2.189 0 0 1 .489-.511c.166-.119.305-.225.417-.315l.308-.249a3.454 3.454 0 0 1 .386-.266 1.692 1.692 0 0 1 .584-.194l1.624 1.835c.366.413.7.786 1 1.115s.613.7.945 1.111l2.8 3.52a.358.358 0 0 0 .174-.071 2.766 2.766 0 0 0 .263-.19.276.276 0 0 0 .156-.265 2.492 2.492 0 0 0-.125-.268.855.855 0 0 0-.225-.279 4.978 4.978 0 0 1-.457-.507l-.429-.53c-.075-.093-.166-.195-.274-.309s-.213-.235-.318-.366l-.2-.251a1.388 1.388 0 0 1-.145-.207 1.212 1.212 0 0 0-.121-.178l-.835-1.032-.61-.753q-.677-.837-1.2-1.4t-1.182-1.375l-.237-.293a1.849 1.849 0 0 1-.209-.315 2.554 2.554 0 0 1-.406-.388q-.147-.183-.284-.349l-.158-.2q-.453-.56-.869-1.1T482 283.2l-.022-.028q-.312-.441-.618-.82t-.6-.742a15.388 15.388 0 0 0-1.03-1.157 13.174 13.174 0 0 0-1.051-.955zm7.616 4.835q.926 1.175 1.6 2.038t1.184 1.52q.506.656.914 1.158.447.611.853 1.14c.27.353.563.724.88 1.117.287.354.55.66.787.914a.948.948 0 0 0 .587.382.813.813 0 0 0 .441-.542l-.458-.509q-.137-.168-.286-.324c-.1-.105-.21-.231-.331-.381l-.612-.756q-.543-.672-.631-.809a.51.51 0 0 1-.067-.339.4.4 0 0 0-.012-.13 2.434 2.434 0 0 0-.165-.375l-.022-.029-4.576-11.719.068.085q.962 1.074 1.789 2.1l1.642 2.029q.384.476.824 1.047t.8 1.069q.357.5.728.986t.76.957q.317.391.535.632c.145.161.27.306.376.437l.838 1.035c.136.168.308.392.518.669s.481.623.813 1.033q.657.811 1.123.433a.23.23 0 0 0 .087-.278 1.159 1.159 0 0 0-.194-.33q-.859-1.062-1.678-2.046t-1.475-1.793l-1.382-1.706c-.045-.057-.116-.154-.212-.292s-.261-.36-.493-.666-.56-.72-.982-1.243l-1.654-2.042q-1.063-1.317-1.959-2.422t-1.835-2.382l-.2.159a.958.958 0 0 0-.17 1.088q.225.768.566 1.648l.465 1.153q.3.827.659 1.736t.709 1.741q.624 1.579 1.243 3.093a23.6 23.6 0 0 1 .966 2.807l-.113-.14-7.492-9.544a1.364 1.364 0 0 0-.438-.339.565.565 0 0 0-.468.193.553.553 0 0 0 .115.486 5.9 5.9 0 0 0 .368.512l.864 1.068c.136.168.318.385.546.647s.584.693 1.067 1.29q1.266 1.563 2.187 2.734zm-55.2 100.135a4.135 4.135 0 0 0 .211.431.412.412 0 0 1 .065.109.383.383 0 0 0 .065.109l.046.057a7.3 7.3 0 0 1 .638 1.475.959.959 0 0 1-.124.934l-.112.09a1.5 1.5 0 0 1-.825.3 1.88 1.88 0 0 1-1.229-.489 5.471 5.471 0 0 1-.971-.857q-.447-.495-.878-1.027l-.928-1.147a10.068 10.068 0 0 0-.482-.652l-.509-.63q-.567-.7-1.249-1.514t-1.276-1.491l-.453-.56q-.277-.284-.526-.593l-.521-.643a13.361 13.361 0 0 1-1.5-2.258 2.376 2.376 0 0 1-.163-2.09l.279-.226a1.036 1.036 0 0 1 .846-.129 2.65 2.65 0 0 1 1.244.707l.045.056c.03.038.05.053.059.045s.029.008.059.045q.21.2.41.362a.712.712 0 0 0 .51.144l.022.027.14-.113a.19.19 0 0 0 .032-.3l-.068-.085a1.48 1.48 0 0 0-.2-.3 5.231 5.231 0 0 0-1.359-1.193 2.679 2.679 0 0 0-1.282-.467 3.467 3.467 0 0 0-.622.318 5.983 5.983 0 0 0-.633.42 2.078 2.078 0 0 0-.592.756 1.391 1.391 0 0 0-.073.94l.023.028a5.272 5.272 0 0 0 .814 1.864q.63.949 1.258 1.785l1.246 1.538 1.257 1.553q.6.743 1.268 1.452l2.151 2.659q.589.728 1.234 1.41a5.323 5.323 0 0 0 1.372 1.066l.023.028a2.748 2.748 0 0 0 1.5.452 2.024 2.024 0 0 0 1.287-.44 1.661 1.661 0 0 0 .542-.762 1.815 1.815 0 0 0 0-1.023 6.642 6.642 0 0 0-.445-1.122 5.962 5.962 0 0 0-.721-1.177.665.665 0 0 0-.844-.243.294.294 0 0 0-.059.371zm5.737-4.967a.663.663 0 0 0-.007.792l.091.112q.312.673.56 1.121a6.88 6.88 0 0 1 .358.729.9.9 0 0 1 .079.469.7.7 0 0 1-.285.392 1.754 1.754 0 0 1-1.378.444 3.334 3.334 0 0 1-1.544-.764 15.5 15.5 0 0 1-1.88-1.836q-1.042-1.173-2.377-2.823c-.091-.113-.181-.232-.27-.362s-.186-.258-.291-.389l-.34-.42a1.117 1.117 0 0 1 .276-.316l.406-.329q1.131-.774 1.537-1.1l.518-.42a.58.58 0 0 0 .277-.686q-1.686-1.97-2.849-3.207a14.464 14.464 0 0 0-1.984-1.821 2.709 2.709 0 0 0-1.434-.6 1.826 1.826 0 0 0-1.2.462 1.6 1.6 0 0 0-.6 1 2.994 2.994 0 0 0 .239 1.5 11.229 11.229 0 0 0 1.179 2.171q.84 1.268 2.244 3 .678.84 1.61 1.962t1.834 2.152q.9 1.029 1.689 1.829a6.15 6.15 0 0 0 1.2 1.022l.164.145a2.422 2.422 0 0 0 3.279.218 5.858 5.858 0 0 0 .547-.7 1.421 1.421 0 0 0 .226-.808 2.6 2.6 0 0 0-.273-1.053 7.161 7.161 0 0 0-.95-1.431 1.249 1.249 0 0 0-.711-.536zm-11.38-8.339a2.045 2.045 0 0 1-.118-.946 1.43 1.43 0 0 1 .25-.549l.14-.114a1.129 1.129 0 0 1 .628-.254 1.667 1.667 0 0 1 .967.422A11.7 11.7 0 0 1 429 371.34q.954 1.035 2.448 2.882l.227.279c-.056.045-.2.176-.425.39s-.416.384-.565.5a9.048 9.048 0 0 0-.871.611c-.234.189-.443.36-.63.51l-.2-.252q-.345-.369-.662-.761l-.679-.839a18.417 18.417 0 0 1-1.2-1.649 9.565 9.565 0 0 1-.858-1.691zm8.947 1.489q.925 1.175 1.6 2.038t1.183 1.519c.338.438.643.823.915 1.159q.447.612.853 1.14t.88 1.116c.287.354.549.66.787.915a.948.948 0 0 0 .587.382.813.813 0 0 0 .441-.542L441.3 380c-.091-.113-.186-.22-.286-.325s-.21-.231-.331-.38l-.612-.756q-.543-.671-.631-.809a.514.514 0 0 1-.067-.34.384.384 0 0 0-.012-.128 2.378 2.378 0 0 0-.165-.377l-.023-.027-4.575-11.72.068.084q.962 1.074 1.788 2.1l1.642 2.029q.386.475.824 1.047t.8 1.069q.357.5.728.986t.756.963q.318.391.535.632c.145.16.271.306.377.436l.838 1.036c.136.168.308.391.518.668s.481.623.813 1.033q.657.813 1.123.435a.233.233 0 0 0 .087-.28 1.155 1.155 0 0 0-.194-.329q-.86-1.064-1.678-2.045t-1.475-1.795l-1.388-1.707c-.045-.056-.116-.152-.212-.291s-.261-.36-.493-.666-.56-.721-.983-1.243-.973-1.2-1.653-2.043l-1.959-2.42q-.896-1.106-1.835-2.382l-.2.158a.956.956 0 0 0-.17 1.087q.225.768.566 1.65l.465 1.151q.3.828.658 1.736t.71 1.742q.624 1.579 1.243 3.093a24.032 24.032 0 0 1 .966 2.807l-.113-.139-7.492-9.544a1.348 1.348 0 0 0-.438-.341.572.572 0 0 0-.469.194.556.556 0 0 0 .116.485 5.865 5.865 0 0 0 .368.513l.861 1.064c.135.167.317.383.546.646s.584.693 1.067 1.289q1.273 1.569 2.198 2.74zm-6.125-9.886a1.853 1.853 0 0 1-.44-.2 1.746 1.746 0 0 0-.352-.179.275.275 0 0 0-.273.035.255.255 0 0 0-.042.4 1.518 1.518 0 0 0 .57.419 2.76 2.76 0 0 0 .783.223 2.489 2.489 0 0 0 .834-.027 1.636 1.636 0 0 0 .727-.333 2.4 2.4 0 0 0 1.033-1.67 2.118 2.118 0 0 0-.467-1.52q-.2-.252-.372-.117a.377.377 0 0 0-.008.562 1.525 1.525 0 0 1 .219.843 1.308 1.308 0 0 1-.219.617 1.538 1.538 0 0 1-.374.395c-.129.089-.2.141-.221.156a2.184 2.184 0 0 1-.373.255 2.091 2.091 0 0 1-.463.143 1.062 1.062 0 0 1-.562-.005zm15.724-.869q-.529-.684-1.05-1.327l-.974-1.2-.793-.98a11.355 11.355 0 0 0-1.1-1.191.689.689 0 0 0-.951-.2.237.237 0 0 0-.049.34 3.524 3.524 0 0 0 .3.429q.3.366.639.761t.712.794q.346.37.642.736l.478.59.545.673q.409.505.987 1.362a12.913 12.913 0 0 1 .986 1.735 7.293 7.293 0 0 1 .561 1.636 1 1 0 0 1-1.373 1.251 4.472 4.472 0 0 1-1.346-.861 15.518 15.518 0 0 1-1.532-1.582q-.812-.945-1.652-1.984l-1.427-1.82-.227-.281a3.589 3.589 0 0 0-.686-.676.477.477 0 0 0-.63.022q-.252.2.065.6c.181.224.321.388.422.492s.195.213.285.325q.255.256.6.677l1.109 1.371.566.7a14.311 14.311 0 0 0 3.516 3.315q1.614.963 2.593.17a1.271 1.271 0 0 0 .449-1.1 7.227 7.227 0 0 0-.307-1.7l.068.084q.916 1.017 1.689 1.944t1.769 2.157c.212.262.395.5.552.711s.311.413.462.6l.611.756a4.606 4.606 0 0 0 1.123 1.13.5.5 0 0 0 .414.081.235.235 0 0 0 .015-.267 1.693 1.693 0 0 0-.213-.406c-.1-.138-.189-.271-.278-.4s-.148-.212-.178-.249l-1.518-1.875q-.249-.307-.461-.6t-.394-.516q-.566-.7-.841-1.01t-.478-.562a7.96 7.96 0 0 1-.526-.593l-.861-1.064-.679-.839q-.182-.224-.326-.431c-.1-.139-.2-.282-.326-.432q-.453-.616-.982-1.299zm7.894-1.065q-.565-.7-1.175-1.48t-1.13-1.425q-.837-1.034-1.655-1.9a12.841 12.841 0 0 0-1.54-1.417 3.816 3.816 0 0 0-1.359-.707 1.186 1.186 0 0 0-1.084.206 1.6 1.6 0 0 0-.386.553 3.144 3.144 0 0 0-.265.933 3.612 3.612 0 0 0 .03 1.123 2.394 2.394 0 0 0 .512 1.092q.3.363.493.2a.429.429 0 0 0 .146-.4 7.323 7.323 0 0 0-.068-.546 3.119 3.119 0 0 1-.1-.641 5.171 5.171 0 0 1 0-.693 3.285 3.285 0 0 1 .09-.584.672.672 0 0 1 .181-.354.587.587 0 0 1 .642.013 4.485 4.485 0 0 1 .9.59 13.08 13.08 0 0 1 .992.908c.339.341.629.662.87.959l.113.139a.256.256 0 0 0 .082.073.169.169 0 0 1 .059.044l1.9 2.346a1.893 1.893 0 0 1 .407.734.946.946 0 0 1 0 .514.862.862 0 0 1-.19.314 2.678 2.678 0 0 1-.143.14 3.8 3.8 0 0 0-.5 3.043 8.88 8.88 0 0 0 1.766 3.193 6.871 6.871 0 0 0 .982.985 5.574 5.574 0 0 0 1.124.73 3.394 3.394 0 0 0 1.128.337 1.808 1.808 0 0 0 1.016-.176l.14-.113a3.211 3.211 0 0 0 .933-1.08 1.752 1.752 0 0 0 .157-1.007 2.4 2.4 0 0 0-.385-.962q-.309-.468-.694-.944-.588-.728-1.321-1.546T453.4 362.7zm3.935 7.56a.989.989 0 0 1-.2.253l-.172.139a.758.758 0 0 1-.787.2q-.359-.148-1.206-.436l-.022-.029a2.19 2.19 0 0 1-.73-.521 10.141 10.141 0 0 1-.7-.777 10.8 10.8 0 0 1-.834-1.176 6.454 6.454 0 0 1-.555-1.126l-.023-.028a3.147 3.147 0 0 1-.051-2.112 3.212 3.212 0 0 1 .914-1.273l.747.924c.061.075.212.254.456.535s.513.6.809.943.585.684.866 1.012.5.586.648.772a10.8 10.8 0 0 1 .846 1.192 1.331 1.331 0 0 1 .248.979 3.849 3.849 0 0 1-.256.529zm4.422-7.516a3.972 3.972 0 0 0 .21.432.438.438 0 0 1 .066.11.383.383 0 0 0 .065.109l.045.057a7.292 7.292 0 0 1 .638 1.474.958.958 0 0 1-.124.935l-.112.09a1.494 1.494 0 0 1-.825.3 1.869 1.869 0 0 1-1.228-.487 5.478 5.478 0 0 1-.972-.858q-.447-.493-.877-1.026l-.931-1.149q-.245-.358-.481-.653c-.159-.2-.329-.405-.51-.63q-.566-.7-1.248-1.513t-1.277-1.491l-.453-.56q-.276-.285-.526-.593l-.521-.644a13.366 13.366 0 0 1-1.5-2.257 2.379 2.379 0 0 1-.164-2.091l.28-.226a1.041 1.041 0 0 1 .845-.129 2.65 2.65 0 0 1 1.244.707l.045.057a.076.076 0 0 0 .06.045c.009-.008.029.006.059.044q.209.2.41.363a.712.712 0 0 0 .509.143l.023.028.14-.113a.191.191 0 0 0 .032-.3l-.068-.084a1.534 1.534 0 0 0-.2-.3 5.181 5.181 0 0 0-1.359-1.193 2.69 2.69 0 0 0-1.281-.468 3.491 3.491 0 0 0-.623.319 5.884 5.884 0 0 0-.633.42 2.056 2.056 0 0 0-.591.756 1.388 1.388 0 0 0-.074.939l.023.028a5.29 5.29 0 0 0 .815 1.865q.629.949 1.258 1.784l1.245 1.539 1.257 1.553q.599.741 1.268 1.452l2.152 2.658q.588.729 1.233 1.41a5.257 5.257 0 0 0 1.373 1.065l.022.029a2.743 2.743 0 0 0 1.5.453 2.03 2.03 0 0 0 1.288-.441 1.644 1.644 0 0 0 .541-.761 1.818 1.818 0 0 0 0-1.024 6.622 6.622 0 0 0-.445-1.122 5.943 5.943 0 0 0-.72-1.177.667.667 0 0 0-.845-.242.291.291 0 0 0-.06.368zm-5.927-14.886a5.091 5.091 0 0 0-.258-.346l-.543-.672q-1.088-1.344-2.058-2.457t-1.91-2.16a.454.454 0 0 0-.522.1.418.418 0 0 0-.24.332q.894.991 1.749 1.99t1.805 2.173q.884 1.092 1.5 1.848t1 1.27q.394.516.643.823l.408.5.317.391q.561.751 1.15 1.478l1.245 1.539 1.257 1.553q.624.771 1.376 1.642a.76.76 0 0 0 .248.078.421.421 0 0 0 .269-.125.149.149 0 0 1 .081-.043.065.065 0 0 0 .053-.02l.028-.023-.068-.083a.269.269 0 0 0 .073-.082.169.169 0 0 1 .045-.06l.028-.023q-.64-.732-1.206-1.432l-1.132-1.4-1.224-1.511q-1.7-2.279-3.834-4.909a3.503 3.503 0 0 1-.282-.371zm10.314 14.462a6.015 6.015 0 0 0 .531.427 2.31 2.31 0 0 0 .508.284.343.343 0 0 0 .346 0 .38.38 0 0 0 .145-.164 5.9 5.9 0 0 0-.383-.616 13.9 13.9 0 0 0-.462-.6 1.1 1.1 0 0 0-.138-.142 1.181 1.181 0 0 1-.161-.17l-.227-.28a.471.471 0 0 0-.5.126c-.224.182-.3.335-.228.463l.022.028a.23.23 0 0 1 .054.1.258.258 0 0 0 .054.1 4.082 4.082 0 0 0 .437.444z" transform="translate(-368.969 -252.75)" fill="#5e0000" fill-rule="evenodd"/></svg>