<?xml version="1.0" encoding="UTF-8"?> <svg xmlns="http://www.w3.org/2000/svg" id="Слой_1" data-name="Слой 1" viewBox="0 0 200 200"> <defs> <style>.cls-1{fill:#08a039;}</style> </defs> <path class="cls-1" d="M81.79,172.5a11.25,11.25,0,0,0-1.11-.39,6.83,6.83,0,0,1-5.42-6.34c-.16-5.28,0-10.57-.12-15.85-.07-4.43,0-8.87-.44-13.27-.73-7.86-3.84-14.9-8.33-21.31a67.42,67.42,0,0,1-11.22-25C51.33,72,55.31,55.81,68.73,42.44A41.88,41.88,0,0,1,95.5,29.91c19.61-1.56,34.19,6.79,44.23,23.35A46.94,46.94,0,0,1,146.23,81a63.26,63.26,0,0,1-11.15,32.18c-4,5.8-7.51,11.79-8.9,18.74A69.72,69.72,0,0,0,125,143.5c-.19,6.77,0,13.55-.06,20.33,0,5-1.5,7-6.25,8.43a1.87,1.87,0,0,0-.38.24ZM100,78.09c5.08,0,10.17,0,15.25,0,3.56,0,5.11,2.49,3.61,5.73-1.57,3.39-3.13,6.78-4.74,10.14a20.33,20.33,0,0,0-2.37,8.35c-.22,6.86-.88,13.71-1.36,20.55-.37,5.46-.7,10.93-1.12,16.38-.08,1.09.17,1.59,1.33,1.56,1.84,0,3.69-.07,5.53,0,1.34.06,1.79-.44,1.91-1.77a69.17,69.17,0,0,1,1.11-8.26c1.65-7.71,5.24-14.54,9.7-21A57.13,57.13,0,0,0,139.22,80a41.77,41.77,0,0,0-6.52-24.87c-9.8-15.64-28.59-22.41-45.3-16.3C68.43,45.8,57.85,66,61.5,86.09A65.54,65.54,0,0,0,72,111.2a78.65,78.65,0,0,1,6.56,12.2A42,42,0,0,1,82,139c0,.83-.05,1.78,1.25,1.77,2.14,0,4.29,0,6.43,0,.83,0,1.12-.39,1.07-1.22-.32-4.46-.6-8.93-.9-13.4-.48-7.25-1-14.49-1.43-21.74-.22-3.64-.64-7.15-2.48-10.46s-3.17-6.64-4.73-10-.07-5.89,3.82-5.9Zm-10.34,7.2c.86,1.86,1.59,3.48,2.35,5.08,1.7,3.54,3.57,7,3.24,11.16a30.56,30.56,0,0,0,.27,4.47q.69,10.35,1.4,20.69c.27,3.88.48,7.75.83,11.62.24,2.62.33,2.57,3,2.51,1.1,0,1.42-.43,1.46-1.51.14-3.28.4-6.55.62-9.83q.72-10.57,1.44-21.15c.23-3.42.06-6.92.74-10.25.59-2.86,2.1-5.54,3.25-8.28.61-1.45,1.31-2.86,2.07-4.51Zm-7.43,62.65V151c0,2,0,2,2,2,5.28,0,10.57,0,15.85,0a3.26,3.26,0,0,1,3.29,2.53,3.37,3.37,0,0,1-1.57,3.85,6.51,6.51,0,0,1-2.72.61c-5.08.05-10.16,0-15.25,0-.52,0-1,.05-1.64.08,0,1.33.07,2.48,0,3.62s.37,1.48,1.44,1.48q16.38,0,32.74,0c1.1,0,1.45-.4,1.43-1.5,0-4.88,0-9.77,0-14.65a11.92,11.92,0,0,0-.12-1.22Z"></path> <path class="cls-1" d="M43.67,132.87a3.71,3.71,0,0,1-3.24-2,3.06,3.06,0,0,1,.4-3.76c3.36-3.47,6.77-6.9,10.25-10.25a3.47,3.47,0,0,1,4.84,4.94c-3.32,3.45-6.72,6.82-10.15,10.15A7.1,7.1,0,0,1,43.67,132.87Z"></path> <path class="cls-1" d="M156.3,132.9a9.58,9.58,0,0,1-2.26-1.22c-3.25-3.15-6.45-6.36-9.62-9.59a3.55,3.55,0,0,1-.08-5,3.42,3.42,0,0,1,4.95-.06c3.28,3.19,6.5,6.44,9.71,9.71a3.25,3.25,0,0,1,.67,4A3.79,3.79,0,0,1,156.3,132.9Z"></path> <path class="cls-1" d="M63.38,32.47a3.67,3.67,0,0,1-2.12,3.17,3,3,0,0,1-3.63-.41c-3.4-3.28-6.76-6.62-10-10a3.34,3.34,0,0,1,.26-4.61,3.29,3.29,0,0,1,4.59-.28c3.42,3.27,6.75,6.63,10,10A6.83,6.83,0,0,1,63.38,32.47Z"></path> <path class="cls-1" d="M136.64,32.27A9.49,9.49,0,0,1,137.87,30c3-3.15,6.16-6.25,9.29-9.32a3.43,3.43,0,0,1,5.05-.09,3.51,3.51,0,0,1-.13,5.08c-3,3.09-6.12,6.15-9.2,9.2a3.34,3.34,0,0,1-4,.83A3.76,3.76,0,0,1,136.64,32.27Z"></path> <path class="cls-1" d="M34,69.26c2.09,0,4.18-.06,6.27,0,2.45.07,3.79,1.34,3.81,3.45s-1.34,3.54-3.72,3.6c-4.28.09-8.56.07-12.84,0a3.61,3.61,0,0,1-3.56-2.48A3.29,3.29,0,0,1,25.19,70a5.9,5.9,0,0,1,2.66-.72c2-.1,4.08,0,6.12,0Z"></path> <path class="cls-1" d="M166.13,69.25c2.09,0,4.18,0,6.27,0,2.46.07,3.82,1.33,3.84,3.42s-1.39,3.59-3.85,3.64c-4.18.07-8.36.06-12.54,0a3.73,3.73,0,0,1-3.73-2.46,3.36,3.36,0,0,1,1.35-3.94,5.66,5.66,0,0,1,2.54-.65C162.05,69.19,164.09,69.25,166.13,69.25Z"></path> </svg> 