<?xml version="1.0" encoding="UTF-8"?> <svg xmlns="http://www.w3.org/2000/svg" id="Слой_1" data-name="Слой 1" viewBox="0 0 200 200"> <defs> <style>.cls-1{fill:#08a039;}</style> </defs> <path class="cls-1" d="M151.27,30.5c2.13.22,4.27.34,6.38.67,3.58.56,7.14,1.23,10.7,1.9A3.5,3.5,0,0,1,171.18,36a79.28,79.28,0,0,1,2.19,14.71,70.44,70.44,0,0,1-3.62,26.53,68.88,68.88,0,0,1-21.21,31.5c-2.75,2.3-5.48,4.64-8.14,7a3.2,3.2,0,0,0-1,2q-.57,28-21.28,46.79a86.71,86.71,0,0,1-9.83,7.2c-2.46,1.66-4.8.59-5.55-2.33q-2.3-9-4.58-17.9c-.1-.36-.22-.72-.38-1.25-1,.32-1.85.61-2.73.92-2.83,1-5.62,2.17-8.5,3-5.49,1.65-10.32.26-14.36-3.71q-9.42-9.27-18.69-18.7c-4.37-4.42-5.33-9.67-3.3-15.48,1.15-3.29,2.4-6.54,3.68-10-1.51-.42-2.91-.82-4.33-1.19l-14.84-3.77c-3-.77-4-3-2.35-5.66q15-24.48,43.22-30a84.57,84.57,0,0,1,10.7-1,2.91,2.91,0,0,0,2.2-1c4.11-4.68,8-9.64,12.46-13.9A68.75,68.75,0,0,1,138,31.74c3.06-.5,6.17-.62,9.26-.94.56-.06,1.11-.2,1.67-.3ZM100.38,141.11c.56-.44,1.05-.81,1.51-1.2,13.48-11.58,26.85-23.29,40.48-34.69a67.74,67.74,0,0,0,19.35-25.63,2.16,2.16,0,0,0-.54-2.84Q144.26,60,127.43,43c-.21-.2-.38-.49-.62-.58-.44-.16-1-.41-1.37-.26a61.1,61.1,0,0,0-23,15.74C98.42,62.4,94.6,67,90.7,71.55Q77.35,87.08,64,102.59c-.81.94-.78,1.48.11,2.33,2.53,2.41,5,4.93,7.43,7.4L99.17,140Zm64.42-71a10.89,10.89,0,0,0,.34-1.39c.52-3.92,1.12-7.83,1.49-11.77a53.45,53.45,0,0,0-1.47-16.9,1.68,1.68,0,0,0-1-1c-2.15-.46-4.31-.85-6.48-1.15a60,60,0,0,0-15.72,0c-2.71.34-5.4.93-8,1.39ZM40.56,95.86c.38.13.64.23.91.3,4.76,1.22,9.53,2.41,14.27,3.7A2.17,2.17,0,0,0,58.29,99q11-13,22.16-25.85c.3-.34.55-.71.89-1.16C69.94,70.66,46.14,84.62,40.56,95.86Zm91.67,27.08a2.48,2.48,0,0,0-.51.24q-13.52,11.59-27,23.23a1.9,1.9,0,0,0-.4,1.58c.88,3.72,1.84,7.41,2.79,11.12.38,1.5.77,3,1.17,4.53C119.44,158.28,133.46,134.38,132.23,122.94ZM69.3,120.09c-2.17,3.46-4.4,7-6.58,10.6a1.22,1.22,0,0,0,.28,1.09c.77.74,1.62,1.39,2.46,2.05,0,0,.24-.12.34-.22l8.61-8.55Zm14.79,14.8-5-5.11L72,137c-2,2-1.94,1.94,0,4a1.37,1.37,0,0,0,2.08.23c1.34-.92,2.75-1.74,4.12-2.6ZM59.68,110c-1.3,3.84-2.62,7.26-3.57,10.77a5.52,5.52,0,0,0,1.49,5.33c2.27-3.64,4.47-7.15,6.64-10.68a1,1,0,0,0-.08-.89C62.79,113.09,61.38,111.69,59.68,110Zm18.14,37c1.62.46,2.9,1.2,4.09,1.08a35.66,35.66,0,0,0,6.47-1.56c1.85-.55,3.63-1.32,5.91-2.17-1.57-1.48-2.89-2.64-4.11-3.9a1.3,1.3,0,0,0-2-.21c-3,1.94-6.07,3.82-9.11,5.73C78.8,146.17,78.53,146.43,77.82,147Z"></path> <path class="cls-1" d="M26.53,173.92a38.77,38.77,0,0,1,3.15-4.13Q40.36,159,51.19,148.28A6.18,6.18,0,0,1,54,146.74a2.73,2.73,0,0,1,3.27,1.72,3.36,3.36,0,0,1-.52,3.75c-.09.1-.18.22-.28.32q-11.88,11.88-23.76,23.74c-2.18,2.16-4.92,1.38-5.85-1.57a2,2,0,0,0-.29-.49Z"></path> <path class="cls-1" d="M52.64,175.83a3.72,3.72,0,0,1-3.18-2,3.3,3.3,0,0,1,.67-4c2.18-2.21,4.39-4.4,6.58-6.6,1.72-1.72,3.43-3.46,5.18-5.16a3.47,3.47,0,0,1,5-.29,3.44,3.44,0,0,1-.18,5c-3.87,3.91-7.75,7.8-11.68,11.64A11.06,11.06,0,0,1,52.64,175.83Z"></path> <path class="cls-1" d="M33.21,146.81a10.87,10.87,0,0,1,1.32-2.4c2.24-2.36,4.56-4.65,6.89-6.92a3.36,3.36,0,1,1,4.74,4.74q-3.48,3.53-7,7a3.24,3.24,0,0,1-3.83.69A3.58,3.58,0,0,1,33.21,146.81Z"></path> <path class="cls-1" d="M118.21,107.47a21.58,21.58,0,0,1,0-43.15,21.58,21.58,0,1,1,0,43.15Zm0-6.73A14.84,14.84,0,1,0,103.44,85.8,14.64,14.64,0,0,0,118.2,100.74Z"></path> </svg> 