<?xml version="1.0" encoding="UTF-8"?> <svg xmlns="http://www.w3.org/2000/svg" id="Слой_1" data-name="Слой 1" viewBox="0 0 200 200"> <defs> <style>.cls-1{fill:#08a039;}</style> </defs> <path class="cls-1" d="M195,78.82a7.14,7.14,0,0,1-4.13,3.93c-2.9,1.35-5.72,2.87-8.61,4.25a2.23,2.23,0,0,0-1.42,2.3q.06,14.9,0,29.79a2.17,2.17,0,0,0,1.46,2.23,11.92,11.92,0,0,1,1.17,21.06c-1.11.73-1.1,1.36-.7,2.39q3.78,9.82,7.49,19.67c1.44,3.81-.08,6.05-4.11,6.05-6.23,0-12.45,0-18.68,0-2.54,0-4.63-2.18-4.16-4.3a15.75,15.75,0,0,1,1-2.14c2.45-6.44,4.86-12.9,7.35-19.32a1.65,1.65,0,0,0-.78-2.38,11.92,11.92,0,0,1,1.12-21c1-.49,1.57-1,1.57-2.18,0-8.64,0-17.27,0-25.91a13.69,13.69,0,0,0-.26-1.72,57,57,0,0,1-7.25,3.5c-3.29,1.06-4,3-3.85,6.29.28,7.08-.25,14.2.16,21.27.71,12.08-5.21,20.11-14.9,26.06A74.59,74.59,0,0,1,116.1,159a158.51,158.51,0,0,1-21,1,94.16,94.16,0,0,1-36.36-7.86,45.47,45.47,0,0,1-15.52-10.73,22.68,22.68,0,0,1-6-16c0-8.88,0-17.76,0-26.64A2.66,2.66,0,0,0,35.47,96Q21.81,89.23,8.21,82.34a7.65,7.65,0,0,1-2.36-1.71,3.47,3.47,0,0,1,.66-5.06,16.19,16.19,0,0,1,2.4-1.37Q32.19,62.55,55.49,50.9C69.37,44,83.29,37.14,97.16,30.2a5.69,5.69,0,0,1,5.58.07Q131.86,44.93,161,59.45q14.88,7.42,29.81,14.71c1.83.9,3.4,1.94,4.13,3.92ZM17.31,78.47c1,.55,1.65.9,2.29,1.22q19.67,9.77,39.34,19.52,19.5,9.72,39,19.51a3.88,3.88,0,0,0,3.91,0Q131.07,104,160.39,89.39c.64-.32,1.27-.67,2.26-1.2a11.76,11.76,0,0,0-1.71-.53c-3.19-.29-6.38-.54-9.56-.82q-9-.78-18-1.58-11.49-1-23-2.12c-3.73-.35-7.47-.64-11.19-1.14a3.6,3.6,0,0,1,.61-7.14,31.51,31.51,0,0,1,3.5.14c6.31.56,12.62,1.16,18.92,1.72,6,.54,11.89,1,17.83,1.58,6.37.57,12.74,1.18,19.11,1.76,4.72.42,9.48.55,14.14,1.31,3.61.59,6-1.39,9.16-2.93-1-.55-1.66-.91-2.3-1.22-6.18-3-12.38-6-18.55-9.12q-30-15-59.92-30a3.58,3.58,0,0,0-3.58,0C84.11,45.08,70,52,56,59Q37.66,68.16,19.34,77.34C18.8,77.61,18.28,77.92,17.31,78.47Zm137.43,22.24c-1.14.51-1.86.81-2.55,1.16q-24.7,12.34-49.38,24.72a5.77,5.77,0,0,1-5.73.06q-25-12.53-50.1-24.91c-.63-.31-1.3-.55-2.1-.89a14.52,14.52,0,0,0-.21,1.5c0,8.2-.1,16.4.07,24.6a13.64,13.64,0,0,0,1.55,5.81c2.69,5.16,7.23,8.34,12.31,11,11,5.73,22.9,8.15,35.16,8.79a106.06,106.06,0,0,0,25-1.42c9.51-1.78,18.65-4.53,26.71-10.09,6.1-4.21,9.78-9.6,9.33-17.49-.38-6.7-.08-13.44-.08-20.16Zm22.51,36a4.62,4.62,0,0,0,4.49-4.5,4.76,4.76,0,0,0-4.63-4.59,4.67,4.67,0,0,0-4.46,4.55A4.53,4.53,0,0,0,177.25,136.69Zm.22,15.16h-.61c-1.36,3.63-2.72,7.26-4.13,11h8.92Z"></path> </svg> 