<?xml version="1.0" encoding="UTF-8"?> <svg xmlns="http://www.w3.org/2000/svg" id="Слой_1" data-name="Слой 1" viewBox="0 0 200 200"> <defs> <style>.cls-1{fill:#08a039;}</style> </defs> <path class="cls-1" d="M190,123.23c-.36,1.7-.64,3.43-1.09,5.11a25.39,25.39,0,0,1-27.27,19,24.73,24.73,0,0,1-20.18-13.74c-1.84-3.46-3.44-7.05-5.15-10.58a6.92,6.92,0,0,0-1.38-1.93,7.57,7.57,0,0,1-.85,1.5A18.06,18.06,0,0,1,104,117.48c-.53-1.22-1.15-1.83-2.46-1.66a.48.48,0,0,1-.17,0c-3.08-.49-4.82.48-6.45,3.55-5.66,10.68-20.37,12.32-28.73,3.56l-1.6-1.68c-.39.72-.7,1.26-1,1.81-1.6,3.32-3.1,6.7-4.79,10-4.12,8-10.9,12.45-19.56,14-8.49,1.48-16.27-.29-22.47-6.62a22.34,22.34,0,0,1-6.51-19.63c1.06-6.78,3.11-13.41,4.9-20.07,2.39-8.92,4.9-17.81,7.43-26.69A29,29,0,0,1,47.73,52.7c10.51-1,19.34,2.67,26,11A3.69,3.69,0,0,0,77,65.25q23.06-.07,46.09,0a3.37,3.37,0,0,0,3-1.38c7.41-9.11,17.07-12.91,28.55-10.75s19.17,9.18,22.52,20.33c4.19,13.94,7.91,28,11.8,42,.45,1.62.71,3.29,1.06,4.93ZM16.62,122.8l.45.11c0,7.73,3.77,13.69,10.3,16.26a20.53,20.53,0,0,0,25.52-9.92c2.37-4.9,4.63-9.86,7.1-14.71a7,7,0,0,1,2.76-3c2.44-1.27,5,0,6.17,2.85,1.86,4.33,5.12,6.83,9.81,7.14A11,11,0,0,0,90.14,113c.79-3,2.23-4.11,5.24-4.12h9.15c3,0,4.41,1.06,5.24,3.9,1.5,5.12,5.29,8.44,10,8.76,5,.33,9-2.33,11.34-7.26a6.52,6.52,0,0,1,2.7-2.8c2.3-1.16,4.76,0,6,2.62,2.61,5.37,5.07,10.82,7.8,16.13a17.78,17.78,0,0,0,16.62,10.19,18.47,18.47,0,0,0,17.9-23.15c-3.72-14-7.65-27.85-11.68-41.71-2.54-8.73-8.6-14.07-17.43-15.69s-16.25,1.57-21.79,8.69a8.45,8.45,0,0,1-7.21,3.55c-15.71-.07-31.43-.11-47.14,0A9.81,9.81,0,0,1,68.22,68C63.69,62.06,57.38,59.32,50,59.51A22.08,22.08,0,0,0,29.44,75.65Q24.25,94,19.2,112.3C18.24,115.77,17.47,119.3,16.62,122.8Z"></path> <path class="cls-1" d="M65,86.84a3.4,3.4,0,0,1-3.56,3.52,39.45,39.45,0,0,1-4.74,0c-1.61-.13-2.05.53-2,2a46.83,46.83,0,0,1,0,4.74,3.42,3.42,0,1,1-6.84,0c-.05-1.76-.06-3.52,0-5.27,0-1.15-.44-1.56-1.57-1.52-1.64.07-3.28,0-4.92,0-2.32-.05-3.75-1.4-3.75-3.5s1.24-3.34,3.57-3.45c1.58-.08,3.17-.09,4.75,0,1.39.06,2-.4,1.93-1.91s-.05-3.28,0-4.92a3.42,3.42,0,1,1,6.84,0c.05,1.76.07,3.52,0,5.28,0,1.15.44,1.57,1.54,1.56,1.88,0,3.76,0,5.62.09A3.15,3.15,0,0,1,65,86.84Z"></path> <path class="cls-1" d="M113.4,110.45a7.18,7.18,0,0,1,7.27-7.18,7.28,7.28,0,0,1,7.26,7.23,7.47,7.47,0,0,1-7.31,7.28A7.36,7.36,0,0,1,113.4,110.45Zm6.8,2.33H121c.56-.74,1.46-1.42,1.61-2.24a1.83,1.83,0,0,0-2-2.15,1.86,1.86,0,0,0-2,2.11C118.74,111.32,119.65,112,120.2,112.78Z"></path> <path class="cls-1" d="M72.16,110.45a7.17,7.17,0,1,1,14.33.12,7.17,7.17,0,1,1-14.33-.12Zm6.74,2.34c1.65-.38,2.42-1,2.45-2.24a1.9,1.9,0,0,0-2-2.14,1.78,1.78,0,0,0-2,2.12C77.5,111.35,78.36,112,78.9,112.79Z"></path> <path class="cls-1" d="M110.62,83.43c.7,0,1.4-.05,2.1,0A3.28,3.28,0,0,1,116,86.82a3.39,3.39,0,0,1-3.18,3.52,31.41,31.41,0,0,1-4.55,0A3.66,3.66,0,0,1,105,86.82a3.5,3.5,0,0,1,3.36-3.38C109.1,83.38,109.86,83.43,110.62,83.43Z"></path> <path class="cls-1" d="M89.37,90.35a19.08,19.08,0,0,1-2.27,0,3.73,3.73,0,0,1-3.23-3.59,3.42,3.42,0,0,1,3.26-3.28,31.41,31.41,0,0,1,4.55,0,3.21,3.21,0,0,1,3.21,3.42,3.43,3.43,0,0,1-3.24,3.47c-.76.07-1.52,0-2.28,0Z"></path> <path class="cls-1" d="M149.57,93.44A4.51,4.51,0,0,1,154,98a4.46,4.46,0,1,1-4.41-4.52Z"></path> <path class="cls-1" d="M149.5,80.19a4.36,4.36,0,0,1-4.43-4.42,4.55,4.55,0,0,1,4.45-4.49A4.61,4.61,0,0,1,154,75.79,4.41,4.41,0,0,1,149.5,80.19Z"></path> <path class="cls-1" d="M160.63,82.47A4.2,4.2,0,0,1,165,87a4.36,4.36,0,0,1-4.35,4.36,4.5,4.5,0,0,1-4.47-4.49A4.31,4.31,0,0,1,160.63,82.47Z"></path> <path class="cls-1" d="M142.84,86.84a4.38,4.38,0,1,1-8.76-.06,4.38,4.38,0,0,1,8.76.06Z"></path> </svg> 