<svg xmlns="http://www.w3.org/2000/svg" width="53" height="53"><defs><clipPath id="fmyma"><path fill="#fff" d="M26.5 0C41.135 0 53 11.864 53 26.5 53 41.135 41.135 53 26.5 53 11.864 53 0 41.135 0 26.5 0 11.864 11.864 0 26.5 0z"/></clipPath></defs><path fill="#ffcc37" d="M26.5 0C41.135 0 53 11.864 53 26.5 53 41.135 41.135 53 26.5 53 11.864 53 0 41.135 0 26.5 0 11.864 11.864 0 26.5 0z"/><path fill="none" stroke="#222e37" stroke-miterlimit="50" stroke-width="6" d="M26.5 0C41.135 0 53 11.864 53 26.5 53 41.135 41.135 53 26.5 53 11.864 53 0 41.135 0 26.5 0 11.864 11.864 0 26.5 0z" clip-path="url(&quot;#fmyma&quot;)"/><path fill="#222e37" d="M46.287 31.448c.883 3.283 1.019 7.27.372 10.94-.724 4.11-2.33 7.99-4.523 10.924-2.354 3.15-5.162 4.885-7.906 4.885a6.496 6.496 0 0 1-3.136-.802 8.64 8.64 0 0 0-4.095-1.049c-1.41 0-2.826.363-4.094 1.05a6.524 6.524 0 0 1-3.137.801c-2.743 0-5.551-1.735-7.905-4.885C9.67 50.378 8.064 46.5 7.34 42.39c-.671-3.807-.5-7.918.47-11.277 1.098-3.8 4.07-6.631 7.953-7.573 3.619-.877 7.253.048 9.486 2.414.133.142.283.265.444.368a11.98 11.98 0 0 1 .657-3.135h-4.706c-5.167 0-9.37-4.206-9.37-9.377 0-.74.598-1.34 1.338-1.34h5.355c4.499 0 8.267 3.19 9.167 7.428 2.203-2.884 5.676-4.748 9.575-4.748a1.34 1.34 0 0 1 0 2.679c-4.85 0-8.853 3.708-9.324 8.441.13-.092.252-.197.363-.314 2.121-2.25 6.018-3.138 9.696-2.211 3.934.991 6.792 3.8 7.843 7.704zm-20.761-10.94c-.622-3.054-3.327-5.36-6.56-5.36h-3.88c.621 3.054 3.326 5.36 6.558 5.36zm18.176 11.637c-1.084-4.026-4.17-5.363-5.912-5.803-2.724-.686-5.641-.089-7.095 1.452A5.1 5.1 0 0 1 27 29.387h-.003a5.105 5.105 0 0 1-3.695-1.594c-1.55-1.644-4.262-2.291-6.908-1.65-2.98.723-5.172 2.805-6.011 5.713-.848 2.936-1 6.7-.406 10.067.652 3.706 2.083 7.18 4.03 9.784 1.81 2.422 3.91 3.81 5.761 3.81.65 0 1.277-.16 1.863-.477A11.308 11.308 0 0 1 27 53.667c1.854 0 3.71.474 5.371 1.372.585.318 1.21.479 1.86.479 1.852 0 3.952-1.389 5.762-3.81 1.946-2.605 3.378-6.08 4.03-9.786.573-3.248.453-6.903-.32-9.778z"/></svg>