<svg xmlns="http://www.w3.org/2000/svg" width="11" height="20"><path fill="#222e37" d="M5.5 16.358c.95 0 1.719.815 1.719 1.818 0 1.006-.77 1.819-1.72 1.819-.948 0-1.718-.813-1.718-1.82 0-1.002.77-1.817 1.719-1.817zM11 5.813c0 2.706-1.756 4.987-4.125 5.634v2.366c0 .804-.616 1.455-1.375 1.455-.76 0-1.375-.651-1.375-1.455v-3.637c0-.803.616-1.454 1.375-1.454 1.516 0 2.75-1.304 2.75-2.909 0-1.605-1.234-2.909-2.75-2.909-1.517 0-2.75 1.304-2.75 2.909 0 .803-.616 1.453-1.375 1.453C.615 7.266 0 6.616 0 5.813 0 2.605 2.467-.005 5.5-.005S11 2.605 11 5.813z"/></svg>