<svg xmlns="http://www.w3.org/2000/svg" width="53" height="53"><defs><clipPath id="b2lba"><path fill="#fff" d="M26.5 0C41.136 0 53 11.864 53 26.5 53 41.135 41.135 53 26.5 53 11.864 53 0 41.135 0 26.5 0 11.864 11.864 0 26.5 0z"/></clipPath></defs><path fill="none" stroke="#fff" stroke-miterlimit="50" stroke-width="6" d="M26.5 0C41.136 0 53 11.864 53 26.5 53 41.135 41.135 53 26.5 53 11.864 53 0 41.135 0 26.5 0 11.864 11.864 0 26.5 0z" clip-path="url(&quot;#b2lba&quot;)"/><path fill="#fff" d="M26.5 33.359c.949 0 1.718.814 1.718 1.817 0 1.006-.77 1.819-1.718 1.819-.95 0-1.719-.813-1.719-1.819 0-1.003.77-1.817 1.719-1.817zM32 22.814c0 2.706-1.756 4.986-4.125 5.633v2.367c0 .803-.616 1.454-1.375 1.454-.76 0-1.375-.651-1.375-1.454v-3.637c0-.804.615-1.455 1.375-1.455 1.516 0 2.75-1.304 2.75-2.908 0-1.605-1.234-2.91-2.75-2.91-1.517 0-2.75 1.305-2.75 2.91 0 .802-.616 1.453-1.375 1.453-.76 0-1.375-.65-1.375-1.453 0-3.209 2.467-5.819 5.5-5.819 3.032 0 5.5 2.61 5.5 5.819z"/></svg>