<svg xmlns="http://www.w3.org/2000/svg" width="53" height="53"><defs><clipPath id="o8h3a"><path fill="#fff" d="M26.5-.006C41.135-.006 53 11.86 53 26.493c0 14.637-11.865 26.5-26.5 26.5-14.636 0-26.5-11.863-26.5-26.5C0 11.859 11.864-.006 26.5-.006z"/></clipPath></defs><path fill="none" stroke="#222e37" stroke-miterlimit="50" stroke-width="6" d="M26.5-.006C41.135-.006 53 11.86 53 26.493c0 14.637-11.865 26.5-26.5 26.5-14.636 0-26.5-11.863-26.5-26.5C0 11.859 11.864-.006 26.5-.006z" clip-path="url(&quot;#o8h3a&quot;)"/><path fill="#0f0f0f" d="M39.75 23.984c3.446 0 6.25 2.729 6.25 6.085v20.845C46 54.27 43.196 57 39.75 57h-27.5C8.803 57 6 54.27 6 50.914V30.07c0-3.356 2.803-6.085 6.25-6.085h3.565l1.346-2.62C18.227 19.29 20.368 18 22.75 18h6.498c2.382 0 4.524 1.29 5.59 3.365l1.345 2.62zm3.125 6.085c0-1.678-1.402-3.043-3.125-3.043h-4.531a1.567 1.567 0 0 1-1.398-.84l-1.777-3.462a3.12 3.12 0 0 0-2.795-1.682H22.75a3.119 3.119 0 0 0-2.795 1.682l-1.777 3.462c-.265.515-.806.84-1.398.84h-4.53c-1.723 0-3.125 1.365-3.125 3.043v20.845c0 1.678 1.402 3.043 3.125 3.043h27.5c1.723 0 3.125-1.365 3.125-3.043zM26 28.446c4.25 0 7.708 3.367 7.708 7.506 0 4.137-3.458 7.505-7.708 7.505s-7.709-3.368-7.709-7.505c0-4.139 3.458-7.506 7.709-7.506zm0 11.968c2.527 0 4.583-2.002 4.583-4.462S28.527 31.489 26 31.489s-4.583 2.002-4.583 4.463c0 2.46 2.056 4.462 4.583 4.462z"/></svg>