<svg xmlns="http://www.w3.org/2000/svg" width="53" height="53"><defs><clipPath id="75z4a"><path fill="#fff" d="M26.5 0C41.135 0 53 11.864 53 26.5 53 41.135 41.135 53 26.5 53 11.864 53 0 41.135 0 26.5 0 11.864 11.864 0 26.5 0z"/></clipPath><clipPath id="75z4b"><path d="M26.5 0C41.135 0 53 11.864 53 26.5 53 41.135 41.135 53 26.5 53 11.864 53 0 41.135 0 26.5 0 11.864 11.864 0 26.5 0z"/></clipPath></defs><path fill="#fff" d="M26.5 0C41.135 0 53 11.864 53 26.5 53 41.135 41.135 53 26.5 53 11.864 53 0 41.135 0 26.5 0 11.864 11.864 0 26.5 0z"/><path fill="none" stroke="#222e37" stroke-miterlimit="50" stroke-width="6" d="M26.5 0C41.135 0 53 11.864 53 26.5 53 41.135 41.135 53 26.5 53 11.864 53 0 41.135 0 26.5 0 11.864 11.864 0 26.5 0z" clip-path="url(&quot;#75z4a&quot;)"/><g clip-path="url(#75z4b)"><path fill="#222e37" d="M37.598 33.97v21.855c0 1.75-1.434 3.175-3.195 3.175H18.597c-1.762 0-3.195-1.424-3.195-3.175V33.971C11.222 33.376 8 29.797 8 25.48c0-4.73 3.872-8.577 8.63-8.577.208 0 .416.008.626.023A11.138 11.138 0 0 1 26.5 12c3.726 0 7.196 1.868 9.244 4.927.21-.015.418-.023.625-.023 4.759 0 8.63 3.848 8.63 8.578 0 4.315-3.222 7.894-7.401 8.489zM35.14 55.826V33.972a8.534 8.534 0 0 1-3.379-1.24 11.105 11.105 0 0 1-10.523 0 8.53 8.53 0 0 1-3.378 1.24v21.853c0 .397.338.733.737.733h15.806c.4 0 .737-.336.737-.733zm7.402-30.343c0-3.384-2.77-6.136-6.173-6.136-.344 0-.699.03-1.053.09a1.232 1.232 0 0 1-1.28-.605 8.668 8.668 0 0 0-15.074 0c-.254.45-.766.692-1.278.606a6.294 6.294 0 0 0-1.053-.091c-3.404 0-6.173 2.752-6.173 6.136 0 3.383 2.769 6.135 6.173 6.135a6.15 6.15 0 0 0 2.37-.469 10.974 10.974 0 0 1-3.194-5.167 1.22 1.22 0 0 1 .856-1.503 1.23 1.23 0 0 1 1.513.85c1.033 3.704 4.455 6.29 8.324 6.29 3.868 0 7.291-2.586 8.324-6.29a1.23 1.23 0 0 1 1.513-.85 1.22 1.22 0 0 1 .856 1.503 10.974 10.974 0 0 1-3.194 5.167c.743.309 1.543.47 2.37.47 3.404 0 6.173-2.753 6.173-6.136z"/></g></svg>