<svg xmlns="http://www.w3.org/2000/svg" width="53" height="53"><defs><clipPath id="rzmaa"><path fill="#fff" d="M26.5 0C41.135 0 53 11.864 53 26.5 53 41.135 41.135 53 26.5 53 11.864 53 0 41.135 0 26.5 0 11.864 11.864 0 26.5 0z"/></clipPath></defs><path fill="#fff" d="M27.5 1C41.03 1 52 11.969 52 25.5 52 39.03 41.03 50 27.5 50 13.969 50 3 39.03 3 25.5 3 11.969 13.969 1 27.5 1z"/><path fill="none" stroke="#000" stroke-miterlimit="50" stroke-width="6" d="M26.5 0C41.135 0 53 11.864 53 26.5 53 41.135 41.135 53 26.5 53 11.864 53 0 41.135 0 26.5 0 11.864 11.864 0 26.5 0z" clip-path="url(&quot;#rzmaa&quot;)"/><path d="M43.59 45.59h-2.748c0-8.183-6.658-14.842-14.842-14.842-8.184 0-14.842 6.659-14.842 14.843H8.409c0-4.699 1.83-9.116 5.152-12.439a17.523 17.523 0 0 1 6.685-4.193 10.166 10.166 0 0 1-4.416-8.38c0-5.608 4.562-10.17 10.17-10.17 5.607 0 10.17 4.562 10.17 10.17 0 3.473-1.751 6.545-4.416 8.38a17.524 17.524 0 0 1 6.684 4.193 17.476 17.476 0 0 1 5.153 12.439zM33.42 20.58c0-4.092-3.328-7.421-7.42-7.421-4.092 0-7.421 3.329-7.421 7.42 0 4.093 3.329 7.422 7.42 7.422 4.093 0 7.422-3.33 7.422-7.421z"/></svg>