<svg xmlns="http://www.w3.org/2000/svg" xmlns:xlink="http://www.w3.org/1999/xlink" width="21" height="17"><defs><path id="5r16a" d="M260 676.01c-.77.34-1.6.57-2.47.68a4.31 4.31 0 0 0 1.89-2.38 8.7 8.7 0 0 1-2.74 1.05 4.3 4.3 0 0 0-7.34 3.91 12.24 12.24 0 0 1-8.88-4.49 4.29 4.29 0 0 0 1.33 5.73 4.32 4.32 0 0 1-1.94-.53v.05a4.3 4.3 0 0 0 3.45 4.21 4.38 4.38 0 0 1-1.95.07 4.3 4.3 0 0 0 4.03 2.98 8.66 8.66 0 0 1-6.38 1.78 12.2 12.2 0 0 0 6.6 1.93c7.93 0 12.26-6.54 12.26-12.21l-.01-.56A8.59 8.59 0 0 0 260 676z"/></defs><use fill="#e4c68f" xlink:href="#5r16a" transform="translate(-239 -674)"/></svg>