<svg xmlns="http://www.w3.org/2000/svg" xmlns:xlink="http://www.w3.org/1999/xlink" width="21" height="12"><defs><path id="trzva" d="M190.62 681.02l.71-.93c1.26-1.68 1.8-2.76 1.64-3.22l-.07-.11c-.04-.07-.15-.13-.33-.18a1.73 1.73 0 0 0-.7-.03l-3.15.02a.9.9 0 0 0-.36.04l-.06.03-.04.03a.48.48 0 0 0-.12.11.74.74 0 0 0-.11.2 17.88 17.88 0 0 1-1.91 3.64 5.62 5.62 0 0 1-.99 1.1c-.12.1-.22.14-.28.13a5.44 5.44 0 0 1-.19-.04.72.72 0 0 1-.24-.27 1.2 1.2 0 0 1-.13-.43 4.62 4.62 0 0 1-.03-.97v-.46a27.02 27.02 0 0 1 .05-1.67l.01-.6a1.75 1.75 0 0 0-.15-.85.59.59 0 0 0-.23-.27c-.1-.06-.22-.1-.36-.15a7.28 7.28 0 0 0-1.48-.14c-1.35-.01-2.22.07-2.61.26-.15.09-.3.2-.42.33-.13.16-.15.25-.05.27.44.06.75.22.93.47l.06.13c.06.1.1.26.16.5a8.52 8.52 0 0 1-.15 3.57c-.07.13-.11.21-.14.24a.2.2 0 0 1-.05.06c-.1.03-.2.05-.3.05-.1 0-.22-.05-.37-.15-.14-.1-.3-.24-.45-.42a5.6 5.6 0 0 1-.53-.75 13 13 0 0 1-.61-1.14l-.18-.32a26.88 26.88 0 0 1-.95-2.03.73.73 0 0 0-.26-.35l-.06-.03a1.18 1.18 0 0 0-.43-.16l-2.99.02c-.3 0-.51.07-.62.2l-.05.07a.35.35 0 0 0-.03.18c0 .08.02.18.07.3a36.17 36.17 0 0 0 3.92 6.94 24.17 24.17 0 0 0 1.08 1.32l.28.26c.17.18.43.39.77.63.34.25.71.49 1.12.73a6.1 6.1 0 0 0 3.04.76h1.26c.25-.02.44-.1.57-.24l.05-.06a1.12 1.12 0 0 0 .12-.5c0-.32.02-.6.07-.85s.12-.44.19-.57a1.4 1.4 0 0 1 .42-.48.88.88 0 0 1 .08-.04c.18-.06.38 0 .62.17s.46.38.67.64c.2.25.46.53.75.84.29.32.54.55.76.7l.22.14c.15.08.34.16.57.24.23.07.44.09.61.05l2.8-.04c.28 0 .5-.05.65-.14.15-.09.24-.2.27-.3a.85.85 0 0 0 0-.37 1.36 1.36 0 0 0-.07-.3l-.07-.13a10.9 10.9 0 0 0-2.09-2.42l-.03-.03c-.5-.46-.79-.76-.91-.91-.23-.3-.28-.59-.15-.89.08-.22.41-.7.98-1.43z"/></defs><use fill="#e4c68f" xlink:href="#trzva" transform="translate(-172 -676)"/></svg>