<?xml version="1.0" encoding="utf-8"?>
<!-- Generator: Adobe Illustrator 25.2.1, SVG Export Plug-In . SVG Version: 6.00 Build 0)  -->
<svg version="1.1" id="fb" xmlns="http://www.w3.org/2000/svg" xmlns:xlink="http://www.w3.org/1999/xlink" x="0px" y="0px"
	 viewBox="0 0 100 100" style="enable-background:new 0 0 100 100;" xml:space="preserve">
<style type="text/css">
	.st0{fill:#FFFFFF;}
</style>
<path class="st0" d="M50,5C25.1,5,5,25.1,5,50s20.1,45,45,45c1.4,0,2.7-0.1,4-0.2c0-10.5,0-20.9,0-31.4H43.4V51.6
	c3.6,0,7.1,0,10.7,0c0-3.9,0-7.9,0-11.8c0-7.1,5.8-13,13-13l0,0h12.2v8.5v2.7h-8c-2.6,0-4.7,2.1-4.7,4.7v8.9c2,0,4,0,5.9,0
	c2.1,0,4.3,0,6.4,0c-0.5,3.9-1.1,7.9-1.6,11.8H66.5v28.4C83.2,85.3,95,69,95,50C95,25.1,74.9,5,50,5z"/>
</svg>
