<svg xmlns="http://www.w3.org/2000/svg" xmlns:xlink="http://www.w3.org/1999/xlink" width="13" height="24" viewBox="0 0 13 24"><defs><path id="3luva" d="M349.348 354.165l-3.078-.005c-3.457 0-5.692 2.288-5.692 5.83v2.688h-3.095a.483.483 0 0 0-.483.482v3.896c0 .266.217.482.483.482h3.095v9.828c0 .265.217.482.485.482h4.036a.484.484 0 0 0 .484-.482v-9.828h3.618a.483.483 0 0 0 .484-.482l.002-3.896a.487.487 0 0 0-.485-.482h-3.619V360.4c0-1.095.262-1.651 1.69-1.651l2.074-.001a.483.483 0 0 0 .483-.483v-3.615a.484.484 0 0 0-.482-.484z"/></defs><g><g transform="translate(-337 -354)"><use fill="#4267b2" xlink:href="#3luva"/></g></g></svg>