<svg xmlns="http://www.w3.org/2000/svg" viewBox="0.01 0 326.77 77.33"><defs><style>.cls-1{fill:#0095ff;}</style></defs><g id="Слой_2" data-name="Слой 2"><g id="Слой_1-2" data-name="Слой 1"><path class="cls-1" d="M45.49,1.32H30.82a.87.87,0,0,0-.8.54L.07,74.81A.87.87,0,0,0,.87,76H16a.73.73,0,0,0,.72-.45L38.16,23.29c.9,2.21,14.19,34.49,13.35,32.45l8.05,19.73a.86.86,0,0,0,.8.54H75.45a.87.87,0,0,0,.8-1.2l-30-72.95A.86.86,0,0,0,45.49,1.32Z"/><path class="cls-1" d="M105.38,76h14.67a.86.86,0,0,0,.8-.54l30-73a.87.87,0,0,0-.8-1.19H134.87a.74.74,0,0,0-.72.45L112.72,54,99.36,21.59l-8-19.73a.86.86,0,0,0-.8-.54H75.43a.86.86,0,0,0-.8,1.19l30,73A.87.87,0,0,0,105.38,76Z"/><path class="cls-1" d="M287,0c-21.94,0-39.73,17.31-39.73,38.66S265.1,77.33,287,77.33,326.78,60,326.78,38.66,309,0,287,0Zm0,62.46a23.8,23.8,0,1,1,23.8-23.8A23.79,23.79,0,0,1,287,62.46Z"/><path class="cls-1" d="M193.8,1.32H166.92a.85.85,0,0,0-.87.84v73a.85.85,0,0,0,.87.84H193.8c22.37,0,38.33-16.87,38.33-37.34S216.17,1.32,193.8,1.32Zm-.57,60.28H182.08V15.72h11.15a22.94,22.94,0,0,1,0,45.88Z"/><path class="cls-1" d="M216.17,38.68v0Z"/></g></g></svg>