<svg width="1059" height="250" viewBox="0 0 1059 250" fill="none" xmlns="http://www.w3.org/2000/svg">
<path d="M147.395 4.26611H99.8525C99.2959 4.2693 98.7526 4.43678 98.2913 4.74745C97.8299 5.05812 97.471 5.49808 97.2599 6.01188L0.197711 241.852C0.0294505 242.276 -0.0328104 242.735 0.0162997 243.189C0.0654099 243.642 0.224417 244.077 0.479603 244.456C0.734789 244.834 1.07849 245.145 1.48106 245.362C1.88364 245.579 2.33299 245.694 2.79036 245.699H51.8238C52.3162 245.73 52.8059 245.606 53.2243 245.345C53.6427 245.084 53.9688 244.699 54.1571 244.244L123.64 75.2929C126.557 82.4376 169.627 186.796 166.905 180.201L192.993 243.986C193.201 244.502 193.559 244.944 194.021 245.256C194.483 245.567 195.028 245.733 195.586 245.731H244.49C244.951 245.729 245.405 245.613 245.811 245.395C246.217 245.176 246.564 244.862 246.82 244.479C247.076 244.096 247.233 243.656 247.279 243.198C247.325 242.74 247.257 242.278 247.082 241.852L149.858 6.01188C149.659 5.51548 149.321 5.08679 148.884 4.77716C148.448 4.46754 147.93 4.2901 147.395 4.26611Z" fill="#0095FF" fill-opacity="0.05"/>
<path d="M341.488 245.7H389.031C389.589 245.702 390.134 245.536 390.596 245.225C391.058 244.913 391.416 244.471 391.624 243.955L488.848 7.95297C489.016 7.52869 489.078 7.06995 489.029 6.61631C488.98 6.16267 488.821 5.72776 488.566 5.34909C488.311 4.97043 487.967 4.65938 487.564 4.44278C487.162 4.22619 486.713 4.11054 486.255 4.10582H437.06C436.568 4.0801 436.081 4.20592 435.663 4.46618C435.246 4.72645 434.919 5.10855 434.726 5.56063L365.276 174.577L321.979 69.7983L296.052 6.01323C295.845 5.4969 295.487 5.05453 295.025 4.74331C294.562 4.43209 294.017 4.26634 293.46 4.26747H244.426C243.966 4.26435 243.512 4.37496 243.105 4.58943C242.698 4.80389 242.351 5.11553 242.094 5.49653C241.837 5.87753 241.679 6.31602 241.634 6.77287C241.588 7.22971 241.657 7.69068 241.833 8.11462L339.058 244.116C339.281 244.575 339.625 244.965 340.053 245.244C340.481 245.523 340.977 245.681 341.488 245.7Z" fill="#0095FF" fill-opacity="0.05"/>
<path d="M930.08 0C858.977 0 801.323 55.9615 801.323 124.984C801.323 194.006 859.107 250 930.08 250C1001.05 250 1059 193.974 1059 124.984C1059 55.9938 1001.38 0 930.08 0ZM930.08 201.927C914.825 201.927 899.913 197.414 887.229 188.96C874.545 180.505 864.658 168.488 858.821 154.429C852.983 140.369 851.455 124.899 854.431 109.973C857.407 95.0476 864.754 81.3376 875.541 70.577C886.328 59.8163 900.071 52.4882 915.033 49.5193C929.995 46.5505 945.503 48.0742 959.597 53.8978C973.691 59.7215 985.737 69.5834 994.213 82.2366C1002.69 94.8899 1007.21 109.766 1007.21 124.984C1007.22 135.089 1005.22 145.097 1001.35 154.434C997.474 163.771 991.793 172.255 984.63 179.4C977.467 186.546 968.962 192.213 959.602 196.079C950.242 199.944 940.211 201.931 930.08 201.927Z" fill="#0095FF" fill-opacity="0.05"/>
<path d="M628.042 4.26688H540.929C540.564 4.2583 540.202 4.32197 539.862 4.4542C539.523 4.58643 539.213 4.78459 538.95 5.03719C538.688 5.28979 538.479 5.59181 538.334 5.92574C538.19 6.25967 538.114 6.61887 538.109 6.98251V242.984C538.114 243.348 538.19 243.707 538.334 244.041C538.479 244.375 538.688 244.677 538.95 244.929C539.213 245.182 539.523 245.38 539.862 245.512C540.202 245.645 540.564 245.708 540.929 245.7H628.042C700.539 245.7 752.262 191.161 752.262 124.983C752.262 58.8059 700.539 4.26688 628.042 4.26688ZM626.194 199.146H590.06V50.8206H626.194C645.912 50.8206 664.822 58.6342 678.764 72.5424C692.706 86.4506 700.539 105.314 700.539 124.983C700.539 144.653 692.706 163.516 678.764 177.424C664.822 191.333 645.912 199.146 626.194 199.146Z" fill="#0095FF" fill-opacity="0.05"/>
</svg>
