<svg xmlns="http://www.w3.org/2000/svg" xmlns:xlink="http://www.w3.org/1999/xlink" width="30" height="30"><defs><path id="a7osa" d="M594 16924a15 15 0 1 1 0 30 15 15 0 0 1 0-30z"/><path id="a7osb" d="M590.82 16934.91c0-2.16.47-3.91 3.18-3.91 2.7 0 3.18 1.75 3.18 3.91s-1.43 3.91-3.18 3.91c-1.75 0-3.18-1.75-3.18-3.9zm-2.82 9.89c0-.04 0-.13 0 0zm12 .1c0-.25 0-.03 0 0zm0 0v.3s-.88 1.8-6 1.8-6-1.8-6-1.8a109.27 109.27 0 0 0 0-.68c.08-3.67.6-4.72 4.26-5.4 0 0 .52.68 1.74.68s1.74-.68 1.74-.68c3.7.68 4.2 1.76 4.25 5.52v.26z"/></defs><use fill="#fff2e9" xlink:href="#a7osa" transform="translate(-579 -16924)"/><use fill="#221107" xlink:href="#a7osb" transform="translate(-579 -16924)"/></svg>