<svg xmlns="http://www.w3.org/2000/svg" xmlns:xlink="http://www.w3.org/1999/xlink" width="30" height="30"><defs><path id="zj48a" d="M994 16924a15 15 0 1 1 0 30 15 15 0 0 1 0-30zm5.73 18.3l-1.87-1.82a.99.99 0 0 0-1.36.02l-.94.92-.19-.1c-.59-.32-1.4-.76-2.25-1.6-.86-.83-1.31-1.63-1.64-2.2a6.07 6.07 0 0 0-.1-.18l.63-.62.3-.3c.4-.37.4-.98.03-1.34l-1.86-1.82a.99.99 0 0 0-1.37.03l-.52.51.01.02a3 3 0 0 0-.62 1.5c-.25 2 .68 3.81 3.21 6.28 3.5 3.42 6.31 3.16 6.43 3.15a3.16 3.16 0 0 0 1.54-.61h.01l.53-.5c.39-.38.4-.98.03-1.34z"/></defs><use fill="#fff2e9" xlink:href="#zj48a" transform="translate(-979 -16924)"/></svg>