<svg xmlns="http://www.w3.org/2000/svg" xmlns:xlink="http://www.w3.org/1999/xlink" width="22" height="22"><defs><path id="jz92a" d="M1287 42a11 11 0 1 1 0 22 11 11 0 0 1 0-22zm4.2 13.42l-1.37-1.34a.73.73 0 0 0-1 .02l-.69.67-.13-.07c-.44-.24-1.03-.56-1.66-1.17-.63-.62-.96-1.2-1.2-1.62a4.41 4.41 0 0 0-.07-.13l.46-.45.23-.22a.68.68 0 0 0 .02-.98l-1.37-1.34a.72.72 0 0 0-1 .02l-.39.38h.01a2.14 2.14 0 0 0-.46 1.1c-.18 1.47.5 2.8 2.36 4.62 2.56 2.5 4.63 2.31 4.72 2.3a2.45 2.45 0 0 0 1.12-.45l.01.01.4-.37a.69.69 0 0 0 .01-.98z"/></defs><use fill="#ffd8bb" xlink:href="#jz92a" transform="translate(-1276 -42)"/></svg>