<svg xmlns="http://www.w3.org/2000/svg" xmlns:xlink="http://www.w3.org/1999/xlink" width="100" height="116"><defs><path id="oqeea" d="M1304.01 13492.98a42 42 0 1 1-84 0 42 42 0 0 1 84 0zm-46.48 8.04l.75.75a1.6 1.6 0 0 0 2.26 0l7.21-7.22c.49-.48.58-1.2.3-1.78.08-.48-.04-.98-.4-1.35l-7.07-7.06a1.56 1.56 0 0 0-2.2 0l-.74.74c-.61.6-.73 15.3-.1 15.92z"/><path id="oqeeb" d="M1262.02 13550.6a57.63 57.63 0 0 1 0-115.25c31.82 0 31.82 115.26 0 115.26zm-6.15-46.6l1.03 1.03c.85.85 2.24.85 3.1 0l9.9-9.9c.66-.66.79-1.65.41-2.45a2.1 2.1 0 0 0-.57-1.85l-9.68-9.68a2.14 2.14 0 0 0-3.03 0l-1.01 1.01c-.84.84-1 20.99-.15 21.84z"/><path id="oqeee" d="M1294 13492.5a31.51 31.51 0 1 1-63.02 0 31.51 31.51 0 0 1 63.03 0zm-34.87 6.03l.57.57a1.2 1.2 0 0 0 1.69 0l5.41-5.42c.36-.36.44-.9.23-1.34.06-.36-.03-.73-.31-1l-5.3-5.3a1.17 1.17 0 0 0-1.66 0l-.55.55c-.46.45-.54 11.48-.08 11.94z"/><clipPath id="oqeec"><use fill="#fff" xlink:href="#oqeea"/></clipPath><clipPath id="oqeed"><use fill="#fff" xlink:href="#oqeeb"/></clipPath></defs><use fill="#fff" fill-opacity="0" stroke="#d9f1ef" stroke-miterlimit="50" stroke-width="2" clip-path="url(&quot;#oqeec&quot;)" xlink:href="#oqeea" opacity=".5" transform="translate(-1204 -13435)"/><use fill="#fff" fill-opacity="0" stroke="#d9f1ef" stroke-miterlimit="50" stroke-width="2" clip-path="url(&quot;#oqeed&quot;)" xlink:href="#oqeeb" opacity=".4" transform="translate(-1204 -13435)"/><use fill="#d9f1ef" xlink:href="#oqeee" transform="translate(-1204 -13435)"/></svg>