<svg xmlns="http://www.w3.org/2000/svg" xmlns:xlink="http://www.w3.org/1999/xlink" width="100" height="116"><defs><path id="iet4a" d="M1261.99 15489.98a42 42 0 1 1 0 84 42 42 0 0 1 0-84zm4.37 34.12l-.74-.74a1.56 1.56 0 0 0-2.2 0l-7.06 7.06c-.37.37-.5.87-.42 1.35-.27.58-.18 1.3.3 1.78l7.22 7.22a1.6 1.6 0 0 0 2.26 0l.75-.75c.62-.62.5-15.31-.1-15.92z"/><path id="iet4b" d="M1261.98 15474.35a57.62 57.62 0 1 1 0 115.25c-31.82 0-31.82-115.25 0-115.25zm6 46.81l-1-1.01a2.14 2.14 0 0 0-3.04 0l-9.68 9.68a2.1 2.1 0 0 0-.57 1.85c-.38.8-.25 1.79.42 2.45l9.9 9.9c.85.85 2.24.85 3.09 0l1.03-1.03c.85-.85.7-21-.15-21.84z"/><path id="iet4e" d="M1294 15531.5a31.52 31.52 0 1 1-63.02 0 31.52 31.52 0 0 1 63.03 0zm-34.87 6.03l.57.57a1.2 1.2 0 0 0 1.69 0l5.41-5.42c.36-.36.44-.9.23-1.34.06-.36-.03-.73-.31-1l-5.3-5.3a1.17 1.17 0 0 0-1.66 0l-.55.55c-.46.46-.54 11.47-.08 11.94z"/><clipPath id="iet4c"><use fill="#fff" xlink:href="#iet4a"/></clipPath><clipPath id="iet4d"><use fill="#fff" xlink:href="#iet4b"/></clipPath></defs><use fill="#fff" fill-opacity="0" stroke="#fff2e9" stroke-miterlimit="50" stroke-width="2" clip-path="url(&quot;#iet4c&quot;)" xlink:href="#iet4a" opacity=".5" transform="translate(-1220 -15474)"/><use fill="#fff" fill-opacity="0" stroke="#fff2e9" stroke-miterlimit="50" stroke-width="2" clip-path="url(&quot;#iet4d&quot;)" xlink:href="#iet4b" opacity=".4" transform="translate(-1220 -15474)"/><use fill="#fff2e9" xlink:href="#iet4e" transform="translate(-1220 -15474)"/></svg>